# Blender v2.79 (sub 0) OBJ File: 'Basic Human Model Attempt 3 Armature  UnParented.blend'
# www.blender.org
o $LFOOT_Cube.009
v 0.242446 -0.124993 0.523110
v 0.242446 0.124993 0.523110
v 0.242446 -0.124993 -0.523110
v 0.242446 0.124993 -0.523110
v -0.242446 -0.124993 0.523110
v -0.242446 0.124993 0.523110
v -0.242446 -0.124993 -0.523110
v -0.242446 0.124993 -0.523110
vt 0.375000 0.250000
vt 0.625000 0.000000
vt 0.375000 0.000000
vt 0.375000 0.500000
vt 0.625000 0.250000
vt 0.375000 0.750000
vt 0.625000 0.500000
vt 0.625000 1.000000
vt 0.625000 0.750000
vt 0.125000 0.750000
vt 0.125000 0.500000
vt 0.875000 0.500000
vt 0.375000 1.000000
vt 0.875000 0.750000
vn 1.0000 0.0000 0.0000
vn 0.0000 0.0000 -1.0000
vn -1.0000 0.0000 0.0000
vn 0.0000 0.0000 1.0000
vn -0.0000 -1.0000 0.0000
vn 0.0000 1.0000 0.0000
s off
f 3/1/1 2/2/1 1/3/1
f 7/4/2 4/5/2 3/1/2
f 5/6/3 8/7/3 7/4/3
f 5/6/4 2/8/4 6/9/4
f 1/10/5 7/4/5 3/11/5
f 6/9/6 4/12/6 8/7/6
f 3/1/1 4/5/1 2/2/1
f 7/4/2 8/7/2 4/5/2
f 5/6/3 6/9/3 8/7/3
f 5/6/4 1/13/4 2/8/4
f 1/10/5 5/6/5 7/4/5
f 6/9/6 2/14/6 4/12/6
