# Blender v2.79 (sub 0) OBJ File: 'Rabbit_Centered.blend'
# www.blender.org
o $BODY_Cube.009
v 0.464497 -0.489182 0.959779
v 0.464497 0.439813 0.909017
v 0.464497 -0.610811 0.086926
v 0.464497 0.682684 0.086926
v 0.464497 -0.489182 -0.933100
v 0.464497 0.439813 -0.837998
v 0.641283 -0.020486 -1.048817
v 0.641283 0.078681 0.086926
v 0.641283 -0.020486 1.061239
v 0.193006 0.439813 -0.837998
v 0.259165 -0.020486 -1.048817
v 0.224330 0.221876 -0.937814
v 0.184575 -0.489182 -0.933100
v 0.224683 -0.237160 -0.995322
v 0.197528 0.041252 -1.297846
v 0.162693 0.228366 -1.186843
v 0.163045 -0.122103 -1.244351
v -0.464497 -0.489182 0.959779
v 0.000000 0.439813 0.909017
v -0.464497 0.439813 0.909017
v 0.000000 -0.489182 0.959779
v -0.464497 -0.610811 0.086926
v -0.464497 0.682684 0.086926
v -0.464497 -0.489182 -0.933100
v -0.464497 0.439813 -0.837998
v 0.000000 -0.489182 -0.933100
v 0.000000 0.439813 -0.837998
v 0.000000 -0.610811 0.086926
v 0.000000 0.682684 0.086926
v -0.641283 -0.020486 -1.048817
v -0.641283 0.078681 0.086926
v 0.000000 -0.020486 1.061239
v -0.641283 -0.020486 1.061239
v 0.000000 0.157061 -0.004105
v 0.000000 -0.020486 -1.048817
v -0.193006 0.439813 -0.837998
v -0.259165 -0.020486 -1.048817
v 0.000000 0.218992 -0.939135
v -0.224330 0.221876 -0.937814
v -0.184575 -0.489182 -0.933100
v 0.000000 -0.250590 -0.992006
v -0.224683 -0.237160 -0.995322
v 0.000000 0.226164 -1.188164
v 0.000000 0.041252 -1.297846
v -0.197528 0.041252 -1.297846
v 0.000000 -0.132356 -1.241035
v -0.162693 0.228366 -1.186843
v -0.163045 -0.122103 -1.244351
vn 0.0000 0.9590 0.2833
vn 0.0476 -0.9022 -0.4286
vn 0.9280 0.3712 -0.0324
vn 0.9286 0.3691 0.0376
vn 0.0000 -0.9930 -0.1184
vn 0.0000 0.9672 -0.2540
vn 0.0000 0.3140 0.9494
vn 0.0000 -0.9904 0.1380
vn 0.0000 -0.2116 0.9774
vn 0.9681 -0.2482 0.0346
vn 0.9682 -0.2483 -0.0296
vn 0.0000 -0.2397 -0.9708
vn 0.0000 0.4164 -0.9092
vn 0.0000 0.5102 -0.8600
vn 0.0000 -0.3112 -0.9503
vn 0.9438 0.2398 -0.2274
vn 0.9100 -0.2893 -0.2970
vn -0.0138 0.9995 0.0288
vn -0.0476 -0.9022 -0.4286
vn -0.9280 0.3712 -0.0324
vn -0.9564 0.2799 0.0827
vn 1.0000 0.0000 0.0000
vn -0.9681 -0.2482 0.0346
vn -0.9377 -0.3462 0.0302
vn -0.0001 0.5102 -0.8601
vn -0.0002 -0.3110 -0.9504
vn -0.9438 0.2398 -0.2274
vn -0.9155 -0.2276 -0.3318
vn 0.0130 0.9995 0.0293
vn 0.0480 -0.9023 -0.4284
vn 0.9571 0.2801 -0.0736
vn 0.9564 0.2799 0.0827
vn 0.9376 -0.3460 -0.0352
vn 0.9377 -0.3462 0.0302
vn 0.0001 0.5102 -0.8601
vn 0.0002 -0.3110 -0.9504
vn 0.9470 0.2749 -0.1662
vn 0.9155 -0.2276 -0.3318
vn -0.0130 0.9995 0.0293
vn -0.0480 -0.9023 -0.4284
vn -0.9571 0.2801 -0.0736
vn -0.9286 0.3691 0.0376
vn -0.9376 -0.3460 -0.0352
vn -0.9682 -0.2483 -0.0296
vn -0.9470 0.2749 -0.1662
vn -0.9100 -0.2893 -0.2970
vn 0.0138 0.9995 0.0288
s off
f 29//1 2//1 4//1
f 41//2 17//2 14//2
f 6//3 8//3 7//3
f 8//4 2//4 9//4
f 13//5 3//5 28//5
f 10//6 29//6 4//6
f 2//7 32//7 9//7
f 3//8 21//8 28//8
f 1//9 32//9 21//9
f 8//10 1//10 3//10
f 5//11 8//11 3//11
f 41//12 13//12 26//12
f 12//13 6//13 7//13
f 38//13 10//13 12//13
f 14//12 7//12 5//12
f 44//14 16//14 15//14
f 17//15 44//15 15//15
f 11//16 16//16 12//16
f 11//17 17//17 15//17
f 38//18 16//18 43//18
f 20//1 29//1 23//1
f 48//19 41//19 42//19
f 31//20 25//20 30//20
f 31//21 20//21 23//21
f 22//5 24//5 40//5
f 19//22 34//22 29//22
f 29//6 27//6 36//6
f 32//7 20//7 33//7
f 34//22 21//22 28//22
f 21//8 22//8 28//8
f 18//9 32//9 33//9
f 18//23 31//23 22//23
f 24//24 31//24 30//24
f 40//12 41//12 26//12
f 25//13 36//13 39//13
f 36//13 38//13 39//13
f 30//12 37//12 42//12
f 44//25 47//25 43//25
f 35//22 43//22 38//22
f 48//26 44//26 46//26
f 47//27 37//27 39//27
f 46//22 35//22 41//22
f 37//28 48//28 42//28
f 38//29 47//29 39//29
f 29//1 19//1 2//1
f 41//30 46//30 17//30
f 6//31 4//31 8//31
f 8//32 4//32 2//32
f 28//5 26//5 13//5
f 13//5 5//5 3//5
f 4//6 6//6 10//6
f 10//6 27//6 29//6
f 2//7 19//7 32//7
f 3//8 1//8 21//8
f 1//9 9//9 32//9
f 8//33 9//33 1//33
f 5//34 7//34 8//34
f 41//12 14//12 13//12
f 7//13 11//13 12//13
f 12//13 10//13 6//13
f 38//13 27//13 10//13
f 5//12 13//12 14//12
f 14//12 11//12 7//12
f 44//35 43//35 16//35
f 17//36 46//36 44//36
f 11//37 15//37 16//37
f 11//38 14//38 17//38
f 38//39 12//39 16//39
f 20//1 19//1 29//1
f 48//40 46//40 41//40
f 31//41 23//41 25//41
f 31//42 33//42 20//42
f 40//5 26//5 28//5
f 28//5 22//5 40//5
f 19//22 32//22 34//22
f 36//6 25//6 23//6
f 23//6 29//6 36//6
f 32//7 19//7 20//7
f 34//22 32//22 21//22
f 21//8 18//8 22//8
f 18//9 21//9 32//9
f 18//43 33//43 31//43
f 24//44 22//44 31//44
f 40//12 42//12 41//12
f 39//13 37//13 30//13
f 30//13 25//13 39//13
f 36//13 27//13 38//13
f 42//12 40//12 24//12
f 24//12 30//12 42//12
f 44//14 45//14 47//14
f 35//22 44//22 43//22
f 48//15 45//15 44//15
f 47//45 45//45 37//45
f 46//22 44//22 35//22
f 37//46 45//46 48//46
f 38//47 43//47 47//47
