# Blender v2.79 (sub 0) OBJ File: 'Rabbit_Centered.blend'
# www.blender.org
o $FRONTFEET_Cube.015
v -0.481648 -0.163462 0.278512
v -0.481648 0.044335 0.278512
v -0.481648 -0.162744 -0.186128
v -0.481648 0.043617 -0.210511
v -0.179665 -0.163462 0.278512
v -0.179665 0.044335 0.278512
v -0.179665 -0.162744 -0.186128
v -0.179665 0.043617 -0.210511
v -0.530536 -0.197102 0.032087
v -0.530536 0.077975 0.032087
v -0.130777 -0.197102 0.032087
v -0.130777 0.077975 0.032087
v -0.444385 0.187893 -0.049245
v -0.417636 0.169487 -0.175314
v -0.252403 0.169487 -0.175314
v -0.225653 0.187893 -0.049245
v 0.481648 -0.163462 0.278512
v 0.481648 0.044335 0.278512
v 0.481648 -0.162744 -0.186128
v 0.481648 0.043617 -0.210511
v 0.179665 -0.163462 0.278512
v 0.179665 0.044335 0.278512
v 0.179665 -0.162744 -0.186128
v 0.179665 0.043617 -0.210511
v 0.530536 -0.197102 0.032087
v 0.530536 0.077975 0.032087
v 0.130777 -0.197102 0.032087
v 0.130777 0.077975 0.032087
v 0.444385 0.187893 -0.049245
v 0.417636 0.169487 -0.175314
v 0.252403 0.169487 -0.175314
v 0.225653 0.187893 -0.049245
vn -0.9758 0.0000 -0.2186
vn 0.0000 -0.1173 -0.9931
vn 0.9809 0.0000 0.1946
vn 0.0000 0.0000 1.0000
vn 0.0000 -0.9908 0.1353
vn 0.0000 0.9908 0.1353
vn -0.8334 0.4934 -0.2489
vn 0.0000 -0.9878 -0.1555
vn 0.9758 0.0000 -0.2186
vn -0.9809 0.0000 0.1946
vn 0.0000 0.9895 -0.1445
vn 0.0000 0.2693 -0.9631
vn 0.0000 0.5948 0.8039
vn 0.8155 0.5271 -0.2390
vn 0.8421 0.4838 -0.2382
vn -0.9807 -0.0230 -0.1944
vn -0.8155 0.5271 -0.2390
vn -0.8421 0.4838 -0.2382
vn 0.9807 -0.0230 -0.1944
vn 0.8066 0.5359 -0.2494
vn 0.8334 0.4934 -0.2489
vn -0.8066 0.5359 -0.2494
s off
f 10//1 3//1 9//1
f 4//2 7//2 3//2
f 12//3 5//3 11//3
f 6//4 1//4 5//4
f 11//5 1//5 9//5
f 10//6 6//6 12//6
f 4//7 13//7 14//7
f 7//8 9//8 3//8
f 7//9 12//9 11//9
f 2//10 9//10 1//10
f 14//11 16//11 15//11
f 4//12 15//12 8//12
f 10//13 16//13 13//13
f 8//14 16//14 12//14
f 19//9 26//9 25//9
f 19//2 24//2 20//2
f 27//10 22//10 28//10
f 17//4 22//4 21//4
f 17//5 27//5 25//5
f 22//6 26//6 28//6
f 20//15 29//15 26//15
f 25//8 23//8 19//8
f 23//16 28//16 24//16
f 25//3 18//3 17//3
f 32//11 30//11 31//11
f 31//12 20//12 24//12
f 26//13 32//13 28//13
f 32//17 24//17 28//17
f 10//16 4//16 3//16
f 4//2 8//2 7//2
f 12//3 6//3 5//3
f 6//4 2//4 1//4
f 11//5 5//5 1//5
f 10//6 2//6 6//6
f 4//18 10//18 13//18
f 7//8 11//8 9//8
f 7//19 8//19 12//19
f 2//10 10//10 9//10
f 14//11 13//11 16//11
f 4//12 14//12 15//12
f 10//13 12//13 16//13
f 8//20 15//20 16//20
f 19//19 20//19 26//19
f 19//2 23//2 24//2
f 27//10 21//10 22//10
f 17//4 18//4 22//4
f 17//5 21//5 27//5
f 22//6 18//6 26//6
f 20//21 30//21 29//21
f 25//8 27//8 23//8
f 23//1 27//1 28//1
f 25//3 26//3 18//3
f 32//11 29//11 30//11
f 31//12 30//12 20//12
f 26//13 29//13 32//13
f 32//22 31//22 24//22
