# Blender v2.79 (sub 0) OBJ File: 'Rabbit_Centered.blend'
# www.blender.org
o $HEAD_Cube.008
v -0.189530 -0.581262 0.190081
v -0.289610 0.328578 0.228516
v -0.189530 -0.581262 -0.190081
v -0.289610 0.328578 -0.228516
v 0.189530 -0.581262 0.190081
v 0.289610 0.328578 0.228516
v 0.189530 -0.581262 -0.190081
v 0.289610 0.328578 -0.228516
v -0.340509 -0.053152 0.268678
v -0.340509 -0.053152 -0.268678
v 0.340509 -0.053152 -0.268678
v 0.340509 -0.053152 0.268678
v -0.125370 0.472235 0.125734
v -0.125370 0.472235 -0.125734
v 0.125370 0.472235 -0.125734
v 0.125370 0.472235 0.125734
v -0.532322 1.047789 0.185325
v -0.532322 1.047789 -0.185325
v 0.532322 1.047789 -0.185325
v 0.532322 1.047789 0.185325
v -0.230438 1.191446 0.101970
v -0.230438 1.191446 -0.101969
v 0.230438 1.191446 -0.101969
v 0.230438 1.191446 0.101970
vn -0.9912 0.1322 0.0000
vn 0.0000 0.1046 -0.9945
vn 0.9912 0.1322 0.0000
vn 0.0000 0.1046 0.9945
vn 0.0000 -1.0000 0.0000
vn 0.0000 0.5819 -0.8133
vn 0.0000 -0.1472 0.9891
vn 0.9615 -0.2749 0.0000
vn 0.0000 -0.1472 -0.9891
vn -0.9615 -0.2749 0.0000
vn 0.0000 1.0000 0.0000
vn -0.3975 0.1881 -0.8981
vn 0.3975 0.1881 0.8981
vn 0.0000 0.5819 0.8133
vn 0.4297 0.9030 0.0000
vn -0.4297 0.9030 0.0000
vn 0.9475 -0.3198 0.0000
vn -0.2360 0.0665 0.9695
vn 0.2360 0.0665 -0.9695
vn -0.9475 -0.3198 0.0000
vn -0.9895 0.1446 0.0000
vn 0.9895 0.1446 0.0000
vn -0.2360 0.0665 -0.9695
vn 0.2360 0.0665 0.9695
vn -0.3975 0.1881 0.8981
vn 0.3975 0.1881 -0.8981
s off
f 2//1 10//1 9//1
f 4//2 11//2 10//2
f 8//3 12//3 11//3
f 6//4 9//4 12//4
f 7//5 1//5 3//5
f 4//6 15//6 8//6
f 12//7 1//7 5//7
f 11//8 5//8 7//8
f 10//9 7//9 3//9
f 1//10 10//10 3//10
f 14//11 16//11 15//11
f 15//12 19//12 8//12
f 13//13 17//13 2//13
f 6//14 13//14 2//14
f 19//15 24//15 20//15
f 17//16 22//16 18//16
f 8//17 20//17 6//17
f 16//18 20//18 24//18
f 14//19 18//19 22//19
f 2//20 18//20 4//20
f 16//21 23//21 15//21
f 14//22 21//22 13//22
f 2//1 4//1 10//1
f 4//2 8//2 11//2
f 8//3 6//3 12//3
f 6//4 2//4 9//4
f 7//5 5//5 1//5
f 4//6 14//6 15//6
f 12//7 9//7 1//7
f 11//8 12//8 5//8
f 10//9 11//9 7//9
f 1//10 9//10 10//10
f 14//11 13//11 16//11
f 15//23 23//23 19//23
f 13//24 21//24 17//24
f 6//14 16//14 13//14
f 19//15 23//15 24//15
f 17//16 21//16 22//16
f 8//17 19//17 20//17
f 16//25 6//25 20//25
f 14//26 4//26 18//26
f 2//20 17//20 18//20
f 16//21 24//21 23//21
f 14//22 22//22 21//22
