# Blender v2.79 (sub 0) OBJ File: 'Font All Characters Individual Meshes COMPLETE WITH CENTERS AND NAMES.blend'
# www.blender.org
mtllib 0.mtl
o 0_Text.647
v -0.220718 0.467222 0.394875
v 0.015755 0.589619 0.394875
v 0.015755 0.589619 -0.363125
v -0.220718 0.467222 -0.363125
v 0.252228 0.467222 0.394875
v 0.252228 0.467222 -0.363125
v 0.333931 0.111746 0.394875
v 0.333931 0.111746 -0.363125
v 0.252228 -0.243114 0.394875
v 0.252228 -0.243114 -0.363125
v 0.015755 -0.365511 0.394875
v 0.015755 -0.365511 -0.363125
v -0.220718 -0.243114 0.394875
v -0.220718 -0.243114 -0.363125
v -0.302422 0.111746 0.394875
v -0.302422 0.111746 -0.363125
v 0.160973 0.396311 0.394875
v 0.015755 0.490961 0.394875
v 0.015755 0.490961 -0.363125
v 0.160973 0.396311 -0.363125
v -0.128838 0.396311 0.394875
v -0.128838 0.396311 -0.363125
v -0.177246 0.111746 0.394875
v -0.177246 0.111746 -0.363125
v -0.128838 -0.172204 0.394875
v -0.128838 -0.172204 -0.363125
v 0.015755 -0.266854 0.394875
v 0.015755 -0.266853 -0.363125
v 0.160973 -0.172204 0.394875
v 0.160973 -0.172204 -0.363125
v 0.209373 0.111746 0.394875
v 0.209373 0.111746 -0.363125
v 0.015755 0.490961 -0.363125
v -0.220718 0.467222 -0.363125
v 0.015755 0.589619 -0.363125
v 0.252228 0.467222 -0.363125
v -0.128838 0.396311 -0.363125
v 0.160973 0.396311 -0.363125
v -0.302422 0.111746 -0.363125
v 0.333931 0.111746 -0.363125
v -0.177246 0.111746 -0.363125
v 0.209373 0.111746 -0.363125
v -0.220718 -0.243114 -0.363125
v -0.128838 -0.172204 -0.363125
v 0.160973 -0.172204 -0.363125
v 0.252228 -0.243114 -0.363125
v 0.015755 -0.266853 -0.363125
v 0.015755 -0.365511 -0.363125
v -0.220718 0.467222 0.394875
v 0.015755 0.490961 0.394875
v 0.015755 0.589619 0.394875
v 0.252228 0.467222 0.394875
v -0.128838 0.396311 0.394875
v 0.160973 0.396311 0.394875
v -0.302422 0.111746 0.394875
v 0.333931 0.111746 0.394875
v -0.177246 0.111746 0.394875
v 0.209373 0.111746 0.394875
v -0.220718 -0.243114 0.394875
v -0.128838 -0.172204 0.394875
v 0.160973 -0.172204 0.394875
v 0.252228 -0.243114 0.394875
v 0.015755 -0.266854 0.394875
v 0.015755 -0.365511 0.394875
vn 0.0000 0.0000 -1.0000
vn -0.0000 0.0000 1.0000
vn 0.0000 1.0000 0.0000
vn -0.7903 0.6128 0.0000
vn 0.7903 0.6128 0.0000
vn 1.0000 -0.0002 -0.0000
vn 0.7902 -0.6129 -0.0000
vn 0.0000 -1.0000 -0.0000
vn -0.7902 -0.6129 -0.0000
vn -1.0000 -0.0002 0.0000
vn 0.0010 -1.0000 -0.0000
vn -0.8360 -0.5487 -0.0000
vn 0.8365 -0.5479 -0.0000
vn 1.0000 0.0002 0.0000
vn 0.8364 0.5480 0.0000
vn 0.0010 1.0000 0.0000
vn -0.8359 0.5489 0.0000
vn -1.0000 0.0002 0.0000
usemtl None
s off
f 33//1 34//1 35//1
f 36//1 33//1 35//1
f 37//1 34//1 33//1
f 36//1 38//1 33//1
f 37//1 39//1 34//1
f 40//1 38//1 36//1
f 41//1 39//1 37//1
f 40//1 42//1 38//1
f 41//1 43//1 39//1
f 44//1 43//1 41//1
f 40//1 45//1 42//1
f 46//1 45//1 40//1
f 47//1 43//1 44//1
f 46//1 47//1 45//1
f 47//1 48//1 43//1
f 48//1 47//1 46//1
f 49//2 50//2 51//2
f 50//2 52//2 51//2
f 49//2 53//2 50//2
f 54//2 52//2 50//2
f 55//2 53//2 49//2
f 54//2 56//2 52//2
f 55//2 57//2 53//2
f 58//2 56//2 54//2
f 59//2 57//2 55//2
f 59//2 60//2 57//2
f 61//2 56//2 58//2
f 61//2 62//2 56//2
f 59//2 63//2 60//2
f 63//2 62//2 61//2
f 64//2 63//2 59//2
f 63//2 64//2 62//2
s 1
f 2//3 4//4 1//4
f 5//5 3//3 2//3
f 7//6 6//5 5//5
f 9//7 8//6 7//6
f 11//8 10//7 9//7
f 13//9 12//8 11//8
f 15//10 14//9 13//9
f 1//4 16//10 15//10
f 18//11 20//12 17//12
f 21//13 19//11 18//11
f 23//14 22//13 21//13
f 25//15 24//14 23//14
f 25//15 28//16 26//15
f 29//17 28//16 27//16
f 31//18 30//17 29//17
f 17//12 32//18 31//18
f 2//3 3//3 4//4
f 5//5 6//5 3//3
f 7//6 8//6 6//5
f 9//7 10//7 8//6
f 11//8 12//8 10//7
f 13//9 14//9 12//8
f 15//10 16//10 14//9
f 1//4 4//4 16//10
f 18//11 19//11 20//12
f 21//13 22//13 19//11
f 23//14 24//14 22//13
f 25//15 26//15 24//14
f 25//15 27//16 28//16
f 29//17 30//17 28//16
f 31//18 32//18 30//17
f 17//12 20//12 32//18
