# Blender v2.79 (sub 0) OBJ File: 'Font All Characters Individual Meshes COMPLETE WITH CENTERS AND NAMES.blend'
# www.blender.org
mtllib 1.mtl
o 1_Text.290
v -0.279068 0.528574 0.394875
v 0.065620 0.572970 0.394875
v -0.058929 0.572970 0.394875
v -0.057701 0.459514 0.394875
v 0.065620 -0.242806 0.394875
v -0.279068 0.415118 0.394875
v -0.057701 -0.242806 0.394875
v -0.261177 -0.347630 0.394875
v -0.261177 -0.242806 0.394875
v 0.269112 -0.242806 0.394875
v 0.269112 -0.347630 0.394875
v -0.261177 -0.347630 0.394875
v -0.261177 -0.242806 0.394875
v -0.261177 -0.242806 -0.363125
v -0.261177 -0.347629 -0.363125
v -0.057701 -0.242806 0.394875
v -0.057701 -0.242806 -0.363125
v -0.057701 0.459514 0.394875
v -0.057701 0.459514 -0.363125
v -0.279068 0.415118 0.394875
v -0.279068 0.415118 -0.363125
v -0.279068 0.528574 0.394875
v -0.279068 0.528574 -0.363125
v -0.058929 0.572970 0.394875
v -0.058929 0.572970 -0.363125
v 0.065620 0.572970 0.394875
v 0.065620 0.572970 -0.363125
v 0.065620 -0.242806 0.394875
v 0.065620 -0.242806 -0.363125
v 0.269112 -0.242806 0.394875
v 0.269112 -0.242806 -0.363125
v 0.269112 -0.347630 0.394875
v 0.269112 -0.347629 -0.363125
v 0.065620 0.572970 -0.363125
v -0.279068 0.528574 -0.363125
v -0.058929 0.572970 -0.363125
v -0.057701 0.459514 -0.363125
v 0.065620 -0.242806 -0.363125
v -0.279068 0.415118 -0.363125
v -0.057701 -0.242806 -0.363125
v -0.261177 -0.347629 -0.363125
v -0.261177 -0.242806 -0.363125
v 0.269112 -0.242806 -0.363125
v 0.269112 -0.347629 -0.363125
vn 0.0000 0.0000 1.0000
vn 0.0000 0.0000 -1.0000
vn -0.7071 0.7071 0.0000
vn -0.7071 -0.7071 -0.0000
vn -0.6338 -0.7735 -0.0000
vn -0.7739 0.6334 0.0000
vn -0.0993 0.9951 0.0000
vn 0.7071 0.7071 0.0000
vn 0.7071 -0.7071 -0.0000
usemtl None
s off
f 1//1 2//1 3//1
f 1//1 4//1 2//1
f 4//1 5//1 2//1
f 6//1 4//1 1//1
f 7//1 5//1 4//1
f 8//1 7//1 9//1
f 8//1 5//1 7//1
f 8//1 10//1 5//1
f 8//1 11//1 10//1
f 34//2 35//2 36//2
f 37//2 35//2 34//2
f 38//2 37//2 34//2
f 37//2 39//2 35//2
f 38//2 40//2 37//2
f 40//2 41//2 42//2
f 38//2 41//2 40//2
f 43//2 41//2 38//2
f 44//2 41//2 43//2
s 1
f 13//3 15//4 12//4
f 16//3 14//3 13//3
f 18//5 17//3 16//3
f 20//5 19//5 18//5
f 22//6 21//5 20//5
f 24//7 23//6 22//6
f 26//8 25//7 24//7
f 28//8 27//8 26//8
f 30//8 29//8 28//8
f 32//9 31//8 30//8
f 12//4 33//9 32//9
f 13//3 14//3 15//4
f 16//3 17//3 14//3
f 18//5 19//5 17//3
f 20//5 21//5 19//5
f 22//6 23//6 21//5
f 24//7 25//7 23//6
f 26//8 27//8 25//7
f 28//8 29//8 27//8
f 30//8 31//8 29//8
f 32//9 33//9 31//8
f 12//4 15//4 33//9
