# Blender v2.79 (sub 0) OBJ File: 'Font All Characters Individual Meshes COMPLETE WITH CENTERS AND NAMES.blend'
# www.blender.org
mtllib 2.mtl
o 2_Text.289
v -0.154701 0.574204 0.394875
v 0.193069 0.518092 0.394875
v -0.035080 0.589619 0.394875
v -0.295288 0.528574 0.394875
v -0.295288 0.402786 0.394875
v -0.156242 0.464447 0.394875
v -0.032616 0.484795 0.394875
v 0.101494 0.438549 0.394875
v 0.278160 0.326943 0.394875
v 0.152985 0.318927 0.394875
v 0.256882 0.219344 0.394875
v 0.129242 0.227360 0.394875
v 0.045700 0.113595 0.394875
v 0.179497 0.099413 0.394875
v -0.108147 -0.045799 0.394875
v 0.081451 -0.003869 0.394875
v -0.151619 -0.242806 0.394875
v -0.301453 -0.242806 0.394875
v -0.301453 -0.347630 0.394875
v 0.283096 -0.242806 0.394875
v 0.283096 -0.347630 0.394875
v 0.081451 -0.003869 0.394875
v -0.151619 -0.242806 0.394875
v -0.151619 -0.242806 -0.363125
v 0.081451 -0.003869 -0.363125
v 0.283096 -0.242806 0.394875
v 0.283096 -0.242806 -0.363125
v 0.283096 -0.347630 0.394875
v 0.283096 -0.347629 -0.363125
v -0.301453 -0.347630 0.394875
v -0.301453 -0.347629 -0.363125
v -0.301453 -0.242806 0.394875
v -0.301453 -0.242806 -0.363125
v -0.108147 -0.045799 0.394875
v -0.108147 -0.045798 -0.363125
v 0.045700 0.113595 0.394875
v 0.045700 0.113595 -0.363125
v 0.129242 0.227360 0.394875
v 0.129242 0.227360 -0.363125
v 0.152985 0.318927 0.394875
v 0.152985 0.318927 -0.363125
v 0.101494 0.438549 0.394875
v 0.101494 0.438549 -0.363125
v -0.032616 0.484795 0.394875
v -0.032616 0.484795 -0.363125
v -0.156242 0.464447 0.394875
v -0.156242 0.464447 -0.363125
v -0.295288 0.402786 0.394875
v -0.295288 0.402786 -0.363125
v -0.295288 0.528574 0.394875
v -0.295288 0.528574 -0.363125
v -0.154701 0.574204 0.394875
v -0.154701 0.574204 -0.363125
v -0.035080 0.589619 0.394875
v -0.035080 0.589619 -0.363125
v 0.193069 0.518092 0.394875
v 0.193069 0.518092 -0.363125
v 0.278160 0.326943 0.394875
v 0.278160 0.326943 -0.363125
v 0.256882 0.219344 0.394875
v 0.256882 0.219344 -0.363125
v 0.179497 0.099413 0.394875
v 0.179497 0.099413 -0.363125
v 0.193069 0.518092 -0.363125
v -0.154701 0.574204 -0.363125
v -0.035080 0.589619 -0.363125
v -0.295288 0.528574 -0.363125
v -0.156242 0.464447 -0.363125
v -0.295288 0.402786 -0.363125
v -0.032616 0.484795 -0.363125
v 0.101494 0.438549 -0.363125
v 0.278160 0.326943 -0.363125
v 0.152985 0.318927 -0.363125
v 0.256882 0.219344 -0.363125
v 0.129242 0.227360 -0.363125
v 0.045700 0.113595 -0.363125
v 0.179497 0.099413 -0.363125
v -0.108147 -0.045798 -0.363125
v 0.081451 -0.003869 -0.363125
v -0.151619 -0.242806 -0.363125
v -0.301453 -0.242806 -0.363125
v -0.301453 -0.347629 -0.363125
v 0.283096 -0.242806 -0.363125
v 0.283096 -0.347629 -0.363125
vn 0.0000 0.0000 1.0000
vn 0.0000 0.0000 -1.0000
vn 0.9215 0.3884 0.0000
vn 0.7206 -0.6934 -0.0000
vn 0.7071 0.7071 0.0000
vn 0.7071 -0.7071 -0.0000
vn -0.7071 -0.7071 -0.0000
vn -0.9257 0.3783 0.0000
vn -0.7167 0.6974 0.0000
vn -0.7645 0.6446 0.0000
vn -0.9032 0.4292 0.0000
vn -0.9971 -0.0763 -0.0000
vn -0.6803 -0.7329 -0.0000
vn -0.0844 -0.9964 -0.0000
vn 0.2862 -0.9582 -0.0000
vn -0.5453 -0.8383 -0.0000
vn -0.8089 0.5879 0.0000
vn -0.2192 0.9757 0.0000
vn 0.0877 0.9961 0.0000
vn 0.6653 0.7466 0.0000
vn 0.9938 0.1116 0.0000
vn 0.9271 -0.3748 -0.0000
vn 0.7862 -0.6180 -0.0000
usemtl None
s off
f 1//1 2//1 3//1
f 4//1 2//1 1//1
f 5//1 6//1 4//1
f 6//1 7//1 4//1
f 7//1 2//1 4//1
f 7//1 8//1 2//1
f 8//1 9//1 2//1
f 10//1 9//1 8//1
f 10//1 11//1 9//1
f 12//1 11//1 10//1
f 13//1 11//1 12//1
f 13//1 14//1 11//1
f 15//1 14//1 13//1
f 15//1 16//1 14//1
f 15//1 17//1 16//1
f 18//1 17//1 15//1
f 19//1 17//1 18//1
f 19//1 20//1 17//1
f 19//1 21//1 20//1
f 64//2 65//2 66//2
f 64//2 67//2 65//2
f 68//2 69//2 67//2
f 70//2 68//2 67//2
f 64//2 70//2 67//2
f 71//2 70//2 64//2
f 72//2 71//2 64//2
f 72//2 73//2 71//2
f 74//2 73//2 72//2
f 74//2 75//2 73//2
f 74//2 76//2 75//2
f 77//2 76//2 74//2
f 77//2 78//2 76//2
f 79//2 78//2 77//2
f 80//2 78//2 79//2
f 80//2 81//2 78//2
f 80//2 82//2 81//2
f 83//2 82//2 80//2
f 84//2 82//2 83//2
s 1
f 23//3 25//4 22//4
f 26//5 24//3 23//3
f 28//6 27//5 26//5
f 30//7 29//6 28//6
f 32//8 31//7 30//7
f 34//9 33//8 32//8
f 36//10 35//9 34//9
f 38//11 37//10 36//10
f 40//12 39//11 38//11
f 42//13 41//12 40//12
f 44//14 43//13 42//13
f 46//15 45//14 44//14
f 48//16 47//15 46//15
f 50//17 49//16 48//16
f 52//18 51//17 50//17
f 54//19 53//18 52//18
f 56//20 55//19 54//19
f 58//21 57//20 56//20
f 60//22 59//21 58//21
f 62//23 61//22 60//22
f 22//4 63//23 62//23
f 23//3 24//3 25//4
f 26//5 27//5 24//3
f 28//6 29//6 27//5
f 30//7 31//7 29//6
f 32//8 33//8 31//7
f 34//9 35//9 33//8
f 36//10 37//10 35//9
f 38//11 39//11 37//10
f 40//12 41//12 39//11
f 42//13 43//13 41//12
f 44//14 45//14 43//13
f 46//15 47//15 45//14
f 48//16 49//16 47//15
f 50//17 51//17 49//16
f 52//18 53//18 51//17
f 54//19 55//19 53//18
f 56//20 57//20 55//19
f 58//21 59//21 57//20
f 60//22 61//22 59//21
f 62//23 63//23 61//22
f 22//4 25//4 63//23
