# Blender v2.79 (sub 0) OBJ File: 'Font All Characters Individual Meshes COMPLETE WITH CENTERS AND NAMES.blend'
# www.blender.org
mtllib 3 Superscript.mtl
o 3_Superscript_Text.1038
v 0.161888 0.383671 0.394875
v 0.083572 0.342974 0.394875
v 0.083572 0.342974 -0.363125
v 0.161888 0.383671 -0.363125
v 0.171448 0.298270 0.394875
v 0.171448 0.298270 -0.363125
v 0.202591 0.214103 0.394875
v 0.202591 0.214103 -0.363125
v 0.144005 0.096330 0.394875
v 0.144005 0.096330 -0.363125
v -0.023712 0.055017 0.394875
v -0.023712 0.055017 -0.363125
v -0.097397 0.061492 0.394875
v -0.097397 0.061492 -0.363125
v -0.179100 0.080298 0.394875
v -0.179100 0.080298 -0.363125
v -0.179100 0.154908 0.394875
v -0.179100 0.154908 -0.363125
v -0.110352 0.130244 0.394875
v -0.110352 0.130244 -0.363125
v -0.032349 0.122228 0.394875
v -0.032349 0.122228 -0.363125
v 0.071861 0.146584 0.394875
v 0.071861 0.146584 -0.363125
v 0.108864 0.214103 0.394875
v 0.108864 0.214103 -0.363125
v 0.074638 0.283163 0.394875
v 0.074638 0.283163 -0.363125
v -0.026176 0.306594 0.394875
v -0.026176 0.306594 -0.363125
v -0.079201 0.306594 0.394875
v -0.079201 0.306594 -0.363125
v -0.079201 0.373189 0.394875
v -0.079201 0.373189 -0.363125
v -0.021240 0.373189 0.394875
v -0.021240 0.373189 -0.363125
v 0.066628 0.392612 0.394875
v 0.066628 0.392612 -0.363125
v 0.096527 0.449032 0.394875
v 0.096527 0.449032 -0.363125
v 0.065697 0.503602 0.394875
v 0.065697 0.503602 -0.363125
v -0.023712 0.522408 0.394875
v -0.023712 0.522408 -0.363125
v -0.079819 0.516859 0.394875
v -0.079819 0.516859 -0.363125
v -0.161224 0.497127 0.394875
v -0.161224 0.497127 -0.363125
v -0.161224 0.568038 0.394875
v -0.161224 0.568038 -0.363125
v -0.076736 0.584069 0.394875
v -0.076736 0.584069 -0.363125
v -0.003365 0.589619 0.394875
v -0.003365 0.589619 -0.363125
v 0.137527 0.553239 0.394875
v 0.137527 0.553239 -0.363125
v 0.189636 0.455814 0.394875
v 0.189636 0.455814 -0.363125
v 0.137527 0.553239 -0.363125
v -0.076736 0.584069 -0.363125
v -0.003365 0.589619 -0.363125
v -0.161224 0.568038 -0.363125
v -0.079819 0.516859 -0.363125
v -0.161224 0.497127 -0.363125
v -0.023712 0.522408 -0.363125
v 0.065697 0.503602 -0.363125
v 0.189636 0.455814 -0.363125
v 0.096527 0.449032 -0.363125
v 0.161888 0.383671 -0.363125
v 0.066628 0.392612 -0.363125
v -0.021240 0.373189 -0.363125
v 0.083572 0.342974 -0.363125
v -0.079201 0.306594 -0.363125
v -0.079201 0.373189 -0.363125
v -0.026176 0.306594 -0.363125
v 0.171448 0.298270 -0.363125
v 0.074638 0.283163 -0.363125
v 0.202591 0.214103 -0.363125
v 0.108864 0.214103 -0.363125
v 0.071861 0.146584 -0.363125
v 0.144005 0.096330 -0.363125
v -0.110352 0.130244 -0.363125
v -0.179100 0.080298 -0.363125
v -0.179100 0.154908 -0.363125
v -0.032349 0.122228 -0.363125
v -0.023712 0.055017 -0.363125
v -0.097397 0.061492 -0.363125
v -0.076736 0.584069 0.394875
v 0.137527 0.553239 0.394875
v -0.003365 0.589619 0.394875
v -0.161224 0.568038 0.394875
v -0.161224 0.497127 0.394875
v -0.079819 0.516859 0.394875
v -0.023712 0.522408 0.394875
v 0.065697 0.503602 0.394875
v 0.189636 0.455814 0.394875
v 0.096527 0.449032 0.394875
v 0.161888 0.383671 0.394875
v 0.066628 0.392612 0.394875
v -0.021240 0.373189 0.394875
v 0.083572 0.342974 0.394875
v -0.079201 0.306594 0.394875
v -0.079201 0.373189 0.394875
v -0.026176 0.306594 0.394875
v 0.171448 0.298270 0.394875
v 0.074638 0.283163 0.394875
v 0.202591 0.214103 0.394875
v 0.108864 0.214103 0.394875
v 0.071861 0.146584 0.394875
v 0.144005 0.096330 0.394875
v -0.179100 0.080298 0.394875
v -0.110352 0.130244 0.394875
v -0.179100 0.154908 0.394875
v -0.032349 0.122228 0.394875
v -0.023712 0.055017 0.394875
v -0.097397 0.061492 0.394875
vn -0.0000 0.0000 -1.0000
vn 0.0000 0.0000 1.0000
vn 1.0000 0.0043 0.0000
vn 0.7456 -0.6664 -0.0000
vn 0.7470 0.6649 0.0000
vn 0.9986 -0.0536 -0.0000
vn 0.6252 -0.7805 -0.0000
vn 0.0769 -0.9970 -0.0000
vn -0.1563 -0.9877 -0.0000
vn -0.7824 -0.6228 -0.0000
vn -0.5755 0.8178 0.0000
vn 0.2216 0.9751 0.0000
vn -0.0636 0.9980 0.0000
vn -0.6048 0.7964 0.0000
vn -0.9998 0.0206 -0.0000
vn -0.6206 -0.7841 -0.0000
vn -0.1139 -0.9935 -0.0000
vn -0.7071 -0.7071 -0.0000
vn -0.7071 0.7071 0.0000
vn -0.1086 0.9941 0.0000
vn -0.6056 0.7958 0.0000
vn -0.9999 -0.0135 -0.0000
vn -0.5907 -0.8069 -0.0000
vn -0.0543 -0.9985 -0.0000
vn 0.1674 -0.9859 -0.0000
vn -0.6182 -0.7860 -0.0000
vn -0.7702 0.6378 0.0000
vn -0.1311 0.9914 0.0000
vn 0.0885 0.9961 0.0000
vn 0.6180 0.7862 0.0000
vn 0.9981 0.0619 0.0000
usemtl None
s off
f 59//1 60//1 61//1
f 59//1 62//1 60//1
f 63//1 64//1 62//1
f 59//1 63//1 62//1
f 65//1 63//1 59//1
f 66//1 65//1 59//1
f 67//1 66//1 59//1
f 67//1 68//1 66//1
f 69//1 68//1 67//1
f 69//1 70//1 68//1
f 69//1 71//1 70//1
f 72//1 71//1 69//1
f 71//1 73//1 74//1
f 72//1 73//1 71//1
f 75//1 73//1 72//1
f 76//1 75//1 72//1
f 76//1 77//1 75//1
f 78//1 77//1 76//1
f 78//1 79//1 77//1
f 78//1 80//1 79//1
f 81//1 80//1 78//1
f 82//1 83//1 84//1
f 81//1 85//1 80//1
f 85//1 83//1 82//1
f 81//1 83//1 85//1
f 86//1 83//1 81//1
f 86//1 87//1 83//1
f 88//2 89//2 90//2
f 91//2 89//2 88//2
f 92//2 93//2 91//2
f 93//2 89//2 91//2
f 93//2 94//2 89//2
f 94//2 95//2 89//2
f 95//2 96//2 89//2
f 97//2 96//2 95//2
f 97//2 98//2 96//2
f 99//2 98//2 97//2
f 100//2 98//2 99//2
f 100//2 101//2 98//2
f 102//2 100//2 103//2
f 102//2 101//2 100//2
f 102//2 104//2 101//2
f 104//2 105//2 101//2
f 106//2 105//2 104//2
f 106//2 107//2 105//2
f 108//2 107//2 106//2
f 109//2 107//2 108//2
f 109//2 110//2 107//2
f 111//2 112//2 113//2
f 114//2 110//2 109//2
f 111//2 114//2 112//2
f 111//2 110//2 114//2
f 111//2 115//2 110//2
f 116//2 115//2 111//2
s 1
f 2//3 4//4 1//4
f 5//5 3//3 2//3
f 7//6 6//5 5//5
f 9//7 8//6 7//6
f 11//8 10//7 9//7
f 13//9 12//8 11//8
f 15//10 14//9 13//9
f 17//11 16//10 15//10
f 19//12 18//11 17//11
f 21//13 20//12 19//12
f 23//14 22//13 21//13
f 25//15 24//14 23//14
f 27//16 26//15 25//15
f 29//17 28//16 27//16
f 31//18 30//17 29//17
f 33//19 32//18 31//18
f 35//20 34//19 33//19
f 37//21 36//20 35//20
f 39//22 38//21 37//21
f 41//23 40//22 39//22
f 43//24 42//23 41//23
f 45//25 44//24 43//24
f 47//26 46//25 45//25
f 49//27 48//26 47//26
f 51//28 50//27 49//27
f 53//29 52//28 51//28
f 55//30 54//29 53//29
f 57//31 56//30 55//30
f 1//4 58//31 57//31
f 2//3 3//3 4//4
f 5//5 6//5 3//3
f 7//6 8//6 6//5
f 9//7 10//7 8//6
f 11//8 12//8 10//7
f 13//9 14//9 12//8
f 15//10 16//10 14//9
f 17//11 18//11 16//10
f 19//12 20//12 18//11
f 21//13 22//13 20//12
f 23//14 24//14 22//13
f 25//15 26//15 24//14
f 27//16 28//16 26//15
f 29//17 30//17 28//16
f 31//18 32//18 30//17
f 33//19 34//19 32//18
f 35//20 36//20 34//19
f 37//21 38//21 36//20
f 39//22 40//22 38//21
f 41//23 42//23 40//22
f 43//24 44//24 42//23
f 45//25 46//25 44//24
f 47//26 48//26 46//25
f 49//27 50//27 48//26
f 51//28 52//28 50//27
f 53//29 54//29 52//28
f 55//30 56//30 54//29
f 57//31 58//31 56//30
f 1//4 4//4 58//31
