# Blender v2.79 (sub 0) OBJ File: 'Font All Characters Individual Meshes COMPLETE WITH CENTERS AND NAMES.blend'
# www.blender.org
mtllib 5.mtl
o 5_Text.653
v -0.229103 0.110512 0.394875
v -0.229103 0.572970 0.394875
v -0.229103 0.572970 -0.363125
v -0.229103 0.110512 -0.363125
v 0.259865 0.572970 0.394875
v 0.259865 0.572970 -0.363125
v 0.259865 0.468146 0.394875
v 0.259865 0.468146 -0.363125
v -0.115036 0.468146 0.394875
v -0.115036 0.468146 -0.363125
v -0.115036 0.242467 0.394875
v -0.115036 0.242467 -0.363125
v -0.060776 0.256341 0.394875
v -0.060776 0.256341 -0.363125
v -0.006516 0.260965 0.394875
v -0.006516 0.260965 -0.363125
v 0.237663 0.176490 0.394875
v 0.237663 0.176490 -0.363125
v 0.327690 -0.052273 0.394875
v 0.327690 -0.052273 -0.363125
v 0.235191 -0.283194 0.394875
v 0.235191 -0.283194 -0.363125
v -0.025627 -0.365511 0.394875
v -0.025627 -0.365511 -0.363125
v -0.143715 -0.355645 0.394875
v -0.143715 -0.355645 -0.363125
v -0.267952 -0.326048 0.394875
v -0.267952 -0.326048 -0.363125
v -0.267952 -0.200876 0.394875
v -0.267952 -0.200876 -0.363125
v -0.153267 -0.245889 0.394875
v -0.153267 -0.245889 -0.363125
v -0.028091 -0.260687 0.394875
v -0.028091 -0.260687 -0.363125
v 0.140854 -0.204576 0.394875
v 0.140854 -0.204576 -0.363125
v 0.203133 -0.052273 0.394875
v 0.203133 -0.052273 -0.363125
v 0.140854 0.100030 0.394875
v 0.140854 0.100030 -0.363125
v -0.028091 0.156142 0.394875
v -0.028091 0.156142 -0.363125
v -0.127670 0.145042 0.394875
v -0.127670 0.145043 -0.363125
v -0.115036 0.468146 -0.363125
v -0.229103 0.110512 -0.363125
v -0.229103 0.572970 -0.363125
v 0.259865 0.572970 -0.363125
v 0.259865 0.468146 -0.363125
v -0.115036 0.242467 -0.363125
v 0.237663 0.176490 -0.363125
v -0.060776 0.256341 -0.363125
v -0.006516 0.260965 -0.363125
v -0.127670 0.145043 -0.363125
v -0.028091 0.156142 -0.363125
v 0.140854 0.100030 -0.363125
v 0.327690 -0.052273 -0.363125
v 0.203133 -0.052273 -0.363125
v 0.140854 -0.204576 -0.363125
v 0.235191 -0.283194 -0.363125
v -0.153267 -0.245889 -0.363125
v -0.267952 -0.326048 -0.363125
v -0.267952 -0.200876 -0.363125
v -0.028091 -0.260687 -0.363125
v -0.025627 -0.365511 -0.363125
v -0.143715 -0.355645 -0.363125
v -0.229103 0.110512 0.394875
v -0.115036 0.468146 0.394875
v -0.229103 0.572970 0.394875
v 0.259865 0.572970 0.394875
v 0.259865 0.468146 0.394875
v -0.115036 0.242467 0.394875
v -0.060776 0.256341 0.394875
v 0.237663 0.176490 0.394875
v -0.006516 0.260965 0.394875
v -0.127670 0.145042 0.394875
v -0.028091 0.156142 0.394875
v 0.140854 0.100030 0.394875
v 0.327690 -0.052273 0.394875
v 0.203133 -0.052273 0.394875
v 0.140854 -0.204576 0.394875
v 0.235191 -0.283194 0.394875
v -0.267952 -0.326048 0.394875
v -0.153267 -0.245889 0.394875
v -0.267952 -0.200876 0.394875
v -0.028091 -0.260687 0.394875
v -0.025627 -0.365511 0.394875
v -0.143715 -0.355645 0.394875
vn 0.0000 0.0000 -1.0000
vn -0.0000 -0.0000 1.0000
vn -0.7071 0.7071 0.0000
vn -0.5821 -0.8131 -0.0000
vn 0.7071 0.7071 0.0000
vn 0.7071 -0.7071 -0.0000
vn 0.6133 0.7898 0.0000
vn -0.1669 0.9860 0.0000
vn 0.1237 0.9923 0.0000
vn 0.6922 0.7217 0.0000
vn 1.0000 -0.0030 -0.0000
vn 0.6800 -0.7332 -0.0000
vn 0.1110 -0.9938 -0.0000
vn -0.1579 -0.9874 -0.0000
vn -0.7848 -0.6198 -0.0000
vn -0.5633 0.8262 0.0000
vn 0.2434 0.9699 0.0000
vn -0.1013 0.9949 0.0000
vn -0.6828 0.7306 0.0000
vn -1.0000 -0.0000 -0.0000
vn -0.6828 -0.7306 -0.0000
vn -0.1046 -0.9945 -0.0000
vn 0.2178 -0.9760 -0.0000
usemtl None
s off
f 45//1 46//1 47//1
f 48//1 45//1 47//1
f 49//1 45//1 48//1
f 50//1 46//1 45//1
f 51//1 52//1 53//1
f 51//1 50//1 52//1
f 54//1 46//1 50//1
f 55//1 54//1 50//1
f 51//1 55//1 50//1
f 56//1 55//1 51//1
f 57//1 56//1 51//1
f 57//1 58//1 56//1
f 57//1 59//1 58//1
f 60//1 59//1 57//1
f 61//1 62//1 63//1
f 60//1 64//1 59//1
f 64//1 62//1 61//1
f 60//1 62//1 64//1
f 65//1 62//1 60//1
f 65//1 66//1 62//1
f 67//2 68//2 69//2
f 68//2 70//2 69//2
f 68//2 71//2 70//2
f 67//2 72//2 68//2
f 73//2 74//2 75//2
f 72//2 74//2 73//2
f 67//2 76//2 72//2
f 76//2 77//2 72//2
f 77//2 74//2 72//2
f 77//2 78//2 74//2
f 78//2 79//2 74//2
f 80//2 79//2 78//2
f 81//2 79//2 80//2
f 81//2 82//2 79//2
f 83//2 84//2 85//2
f 86//2 82//2 81//2
f 83//2 86//2 84//2
f 83//2 82//2 86//2
f 83//2 87//2 82//2
f 88//2 87//2 83//2
s 1
f 2//3 4//4 1//4
f 5//5 3//3 2//3
f 7//6 6//5 5//5
f 9//6 8//6 7//6
f 11//7 10//6 9//6
f 13//8 12//7 11//7
f 15//9 14//8 13//8
f 17//10 16//9 15//9
f 19//11 18//10 17//10
f 21//12 20//11 19//11
f 23//13 22//12 21//12
f 25//14 24//13 23//13
f 27//15 26//14 25//14
f 29//16 28//15 27//15
f 31//17 30//16 29//16
f 33//18 32//17 31//17
f 35//19 34//18 33//18
f 37//20 36//19 35//19
f 39//21 38//20 37//20
f 41//22 40//21 39//21
f 43//23 42//22 41//22
f 43//23 4//4 44//23
f 2//3 3//3 4//4
f 5//5 6//5 3//3
f 7//6 8//6 6//5
f 9//6 10//6 8//6
f 11//7 12//7 10//6
f 13//8 14//8 12//7
f 15//9 16//9 14//8
f 17//10 18//10 16//9
f 19//11 20//11 18//10
f 21//12 22//12 20//11
f 23//13 24//13 22//12
f 25//14 26//14 24//13
f 27//15 28//15 26//14
f 29//16 30//16 28//15
f 31//17 32//17 30//16
f 33//18 34//18 32//17
f 35//19 36//19 34//18
f 37//20 38//20 36//19
f 39//21 40//21 38//20
f 41//22 42//22 40//21
f 43//23 44//23 42//22
f 43//23 1//4 4//4
