# Blender v2.79 (sub 0) OBJ File: 'Font All Characters Individual Meshes COMPLETE WITH CENTERS AND NAMES.blend'
# www.blender.org
mtllib 9.mtl
o 9_Text.282
v -0.224533 0.503910 0.394875
v -0.001328 0.490961 0.394875
v -0.001328 0.589619 0.394875
v 0.242546 0.467222 0.394875
v -0.308403 0.276381 0.394875
v -0.134209 0.433308 0.394875
v 0.131561 0.433308 0.394875
v 0.326714 0.111746 0.394875
v -0.183228 0.276381 0.394875
v 0.180573 0.276381 0.394875
v -0.227936 0.047926 0.394875
v -0.134209 0.119145 0.394875
v 0.131561 0.119145 0.394875
v -0.001328 0.061800 0.394875
v 0.202774 0.074132 0.394875
v 0.223434 -0.235715 0.394875
v 0.112137 -0.007260 0.394875
v 0.128471 -0.177753 0.394875
v -0.009338 -0.035624 0.394875
v -0.059906 -0.260687 0.394875
v -0.249207 -0.328515 0.394875
v -0.154251 -0.248972 0.394875
v -0.249207 -0.215058 0.394875
v -0.054359 -0.365511 0.394875
v -0.149315 -0.356262 0.394875
v -0.134209 0.119145 0.394875
v -0.001328 0.061800 0.394875
v -0.001328 0.061800 -0.363125
v -0.134209 0.119145 -0.363125
v 0.131561 0.119145 0.394875
v 0.131561 0.119145 -0.363125
v 0.180573 0.276381 0.394875
v 0.180573 0.276381 -0.363125
v 0.131561 0.433308 0.394875
v 0.131561 0.433308 -0.363125
v -0.001328 0.490961 0.394875
v -0.001328 0.490961 -0.363125
v -0.134209 0.433308 0.394875
v -0.134209 0.433308 -0.363125
v -0.183228 0.276381 0.394875
v -0.183228 0.276381 -0.363125
v -0.149315 -0.356262 0.394875
v -0.249207 -0.328515 0.394875
v -0.249207 -0.328515 -0.363125
v -0.149315 -0.356262 -0.363125
v -0.249207 -0.215058 0.394875
v -0.249207 -0.215058 -0.363125
v -0.154251 -0.248972 0.394875
v -0.154251 -0.248972 -0.363125
v -0.059906 -0.260687 0.394875
v -0.059906 -0.260687 -0.363125
v 0.128471 -0.177753 0.394875
v 0.128471 -0.177753 -0.363125
v 0.202774 0.074132 0.394875
v 0.202774 0.074132 -0.363125
v 0.112137 -0.007260 0.394875
v 0.112137 -0.007260 -0.363125
v -0.009338 -0.035624 0.394875
v -0.009338 -0.035624 -0.363125
v -0.227936 0.047926 0.394875
v -0.227936 0.047926 -0.363125
v -0.308403 0.276381 0.394875
v -0.308403 0.276381 -0.363125
v -0.224533 0.503910 0.394875
v -0.224533 0.503910 -0.363125
v -0.001328 0.589619 0.394875
v -0.001328 0.589619 -0.363125
v 0.242546 0.467222 0.394875
v 0.242546 0.467222 -0.363125
v 0.326714 0.111746 0.394875
v 0.326714 0.111746 -0.363125
v 0.223434 -0.235715 0.394875
v 0.223434 -0.235715 -0.363125
v -0.054359 -0.365511 0.394875
v -0.054359 -0.365511 -0.363125
v -0.001328 0.490961 -0.363125
v -0.224533 0.503910 -0.363125
v -0.001328 0.589619 -0.363125
v 0.242546 0.467222 -0.363125
v -0.134209 0.433308 -0.363125
v -0.308403 0.276381 -0.363125
v 0.131561 0.433308 -0.363125
v 0.326714 0.111746 -0.363125
v -0.183228 0.276381 -0.363125
v 0.180573 0.276381 -0.363125
v -0.227936 0.047926 -0.363125
v -0.134209 0.119145 -0.363125
v 0.131561 0.119145 -0.363125
v -0.001328 0.061800 -0.363125
v 0.202774 0.074132 -0.363125
v 0.223434 -0.235715 -0.363125
v 0.112137 -0.007260 -0.363125
v 0.128471 -0.177753 -0.363125
v -0.009338 -0.035624 -0.363125
v -0.059906 -0.260687 -0.363125
v -0.154251 -0.248972 -0.363125
v -0.249207 -0.328515 -0.363125
v -0.249207 -0.215058 -0.363125
v -0.054359 -0.365511 -0.363125
v -0.149315 -0.356262 -0.363125
vn -0.0000 0.0000 1.0000
vn 0.0000 0.0000 -1.0000
vn 0.0000 1.0000 0.0000
vn 0.7433 0.6690 0.0000
vn -0.7433 0.6689 0.0000
vn -1.0000 -0.0003 -0.0000
vn -0.7438 -0.6684 -0.0000
vn 0.0000 -1.0000 -0.0000
vn 0.7438 -0.6684 -0.0000
vn 1.0000 -0.0003 0.0000
vn -0.7961 -0.6051 -0.0000
vn -0.1830 -0.9831 -0.0000
vn -0.5760 0.8174 0.0000
vn 0.2312 0.9729 0.0000
vn -0.1451 0.9894 0.0000
vn -0.7508 0.6605 0.0000
vn -0.5337 -0.8457 -0.0000
vn 0.4623 -0.8867 -0.0000
vn -0.0678 -0.9977 -0.0000
vn -0.7164 -0.6977 -0.0000
vn -1.0000 0.0073 -0.0000
vn -0.7119 0.7023 0.0000
vn 0.0492 0.9988 0.0000
vn 0.7844 0.6203 0.0000
vn 0.9996 -0.0282 -0.0000
vn 0.7575 -0.6528 -0.0000
vn 0.1692 -0.9856 -0.0000
usemtl None
s off
f 1//1 2//1 3//1
f 2//1 4//1 3//1
f 5//1 6//1 1//1
f 6//1 2//1 1//1
f 7//1 4//1 2//1
f 7//1 8//1 4//1
f 5//1 9//1 6//1
f 10//1 8//1 7//1
f 11//1 9//1 5//1
f 11//1 12//1 9//1
f 13//1 8//1 10//1
f 11//1 14//1 12//1
f 14//1 8//1 13//1
f 14//1 15//1 8//1
f 15//1 16//1 8//1
f 14//1 17//1 15//1
f 18//1 16//1 15//1
f 11//1 17//1 14//1
f 19//1 17//1 11//1
f 20//1 16//1 18//1
f 21//1 22//1 23//1
f 20//1 24//1 16//1
f 21//1 20//1 22//1
f 21//1 24//1 20//1
f 25//1 24//1 21//1
f 76//2 77//2 78//2
f 79//2 76//2 78//2
f 80//2 81//2 77//2
f 76//2 80//2 77//2
f 79//2 82//2 76//2
f 83//2 82//2 79//2
f 84//2 81//2 80//2
f 83//2 85//2 82//2
f 84//2 86//2 81//2
f 87//2 86//2 84//2
f 83//2 88//2 85//2
f 89//2 86//2 87//2
f 83//2 89//2 88//2
f 90//2 89//2 83//2
f 91//2 90//2 83//2
f 92//2 89//2 90//2
f 91//2 93//2 90//2
f 92//2 86//2 89//2
f 92//2 94//2 86//2
f 91//2 95//2 93//2
f 96//2 97//2 98//2
f 99//2 95//2 91//2
f 95//2 97//2 96//2
f 99//2 97//2 95//2
f 99//2 100//2 97//2
s 1
f 27//3 29//4 26//4
f 30//5 28//3 27//3
f 32//6 31//5 30//5
f 34//7 33//6 32//6
f 36//8 35//7 34//7
f 38//9 37//8 36//8
f 40//10 39//9 38//9
f 26//4 41//10 40//10
f 43//11 45//12 42//12
f 46//13 44//11 43//11
f 48//14 47//13 46//13
f 50//15 49//14 48//14
f 52//16 51//15 50//15
f 54//17 53//16 52//16
f 56//18 55//17 54//17
f 58//19 57//18 56//18
f 60//20 59//19 58//19
f 62//21 61//20 60//20
f 64//22 63//21 62//21
f 66//23 65//22 64//22
f 68//24 67//23 66//23
f 70//25 69//24 68//24
f 72//26 71//25 70//25
f 74//27 73//26 72//26
f 42//12 75//27 74//27
f 27//3 28//3 29//4
f 30//5 31//5 28//3
f 32//6 33//6 31//5
f 34//7 35//7 33//6
f 36//8 37//8 35//7
f 38//9 39//9 37//8
f 40//10 41//10 39//9
f 26//4 29//4 41//10
f 43//11 44//11 45//12
f 46//13 47//13 44//11
f 48//14 49//14 47//13
f 50//15 51//15 49//14
f 52//16 53//16 51//15
f 54//17 55//17 53//16
f 56//18 57//18 55//17
f 58//19 59//19 57//18
f 60//20 61//20 59//19
f 62//21 63//21 61//20
f 64//22 65//22 63//21
f 66//23 67//23 65//22
f 68//24 69//24 67//23
f 70//25 71//25 69//24
f 72//26 73//26 71//25
f 74//27 75//27 73//26
f 42//12 45//12 75//27
