# Blender v2.79 (sub 0) OBJ File: 'Font All Characters Individual Meshes COMPLETE WITH CENTERS AND NAMES.blend'
# www.blender.org
mtllib Ampersand.mtl
o Ampersand_Text.635
v 0.163376 -0.187311 0.394875
v -0.163429 0.147509 0.394875
v -0.163429 0.147509 -0.363125
v 0.163376 -0.187311 -0.363125
v -0.245743 0.047926 0.394875
v -0.245743 0.047926 -0.363125
v -0.271942 -0.055973 0.394875
v -0.271942 -0.055973 -0.363125
v -0.206596 -0.205809 0.394875
v -0.206596 -0.205809 -0.363125
v -0.042572 -0.265620 0.394875
v -0.042572 -0.265620 -0.363125
v 0.067184 -0.246197 0.394875
v 0.067184 -0.246197 -0.363125
v -0.150787 0.306286 0.394875
v -0.076485 0.216569 0.394875
v -0.076485 0.216569 -0.363125
v -0.150787 0.306286 -0.363125
v 0.236755 -0.104068 0.394875
v 0.236755 -0.104068 -0.363125
v 0.293480 0.013396 0.394875
v 0.293480 0.013396 -0.363125
v 0.317528 0.146276 0.394875
v 0.317528 0.146276 -0.363125
v 0.432228 0.146276 0.394875
v 0.432228 0.146276 -0.363125
v 0.392761 -0.014660 0.394875
v 0.392761 -0.014660 -0.363125
v 0.303352 -0.171895 0.394875
v 0.303352 -0.171895 -0.363125
v 0.475380 -0.347630 0.394875
v 0.475380 -0.347629 -0.363125
v 0.319992 -0.347630 0.394875
v 0.319992 -0.347629 -0.363125
v 0.231819 -0.256988 0.394875
v 0.231819 -0.256988 -0.363125
v 0.097397 -0.338689 0.394875
v 0.097397 -0.338689 -0.363125
v -0.053673 -0.365511 0.394875
v -0.053673 -0.365511 -0.363125
v -0.296616 -0.280727 0.394875
v -0.296616 -0.280727 -0.363125
v -0.390961 -0.063372 0.394875
v -0.390961 -0.063372 -0.363125
v -0.349640 0.084923 0.394875
v -0.349640 0.084923 -0.363125
v -0.225708 0.215336 0.394875
v -0.225708 0.215336 -0.363125
v -0.270721 0.292721 0.394875
v -0.270721 0.292721 -0.363125
v -0.286133 0.368256 0.394875
v -0.286133 0.368256 -0.363125
v -0.217682 0.528883 0.394875
v -0.217682 0.528883 -0.363125
v -0.035789 0.589619 0.394875
v -0.035789 0.589619 -0.363125
v 0.066261 0.578520 0.394875
v 0.066261 0.578520 -0.363125
v 0.169540 0.545223 0.394875
v 0.169540 0.545223 -0.363125
v 0.169540 0.433000 0.394875
v 0.169540 0.433000 -0.363125
v 0.067184 0.477087 0.394875
v 0.067184 0.477087 -0.363125
v -0.023460 0.492194 0.394875
v -0.023460 0.492194 -0.363125
v -0.128593 0.457972 0.394875
v -0.128593 0.457972 -0.363125
v -0.168976 0.369489 0.394875
v -0.168976 0.369489 -0.363125
v 0.066261 0.578520 -0.363125
v -0.217682 0.528883 -0.363125
v -0.035789 0.589619 -0.363125
v 0.169540 0.545223 -0.363125
v 0.067184 0.477087 -0.363125
v 0.169540 0.433000 -0.363125
v -0.128593 0.457972 -0.363125
v -0.286133 0.368256 -0.363125
v -0.023460 0.492194 -0.363125
v -0.168976 0.369489 -0.363125
v -0.150787 0.306286 -0.363125
v -0.270721 0.292721 -0.363125
v -0.076485 0.216569 -0.363125
v -0.225708 0.215336 -0.363125
v 0.236755 -0.104068 -0.363125
v -0.163429 0.147509 -0.363125
v -0.349640 0.084923 -0.363125
v -0.245743 0.047926 -0.363125
v 0.163376 -0.187311 -0.363125
v 0.432228 0.146276 -0.363125
v 0.293480 0.013396 -0.363125
v 0.317528 0.146276 -0.363125
v 0.392761 -0.014660 -0.363125
v -0.390961 -0.063372 -0.363125
v -0.271942 -0.055973 -0.363125
v 0.303352 -0.171895 -0.363125
v -0.206596 -0.205809 -0.363125
v -0.296616 -0.280727 -0.363125
v 0.475380 -0.347629 -0.363125
v 0.231819 -0.256988 -0.363125
v 0.067184 -0.246197 -0.363125
v -0.042572 -0.265620 -0.363125
v 0.097397 -0.338689 -0.363125
v 0.319992 -0.347629 -0.363125
v -0.053673 -0.365511 -0.363125
v -0.217682 0.528883 0.394875
v 0.066261 0.578520 0.394875
v -0.035789 0.589619 0.394875
v 0.169540 0.545223 0.394875
v 0.067184 0.477087 0.394875
v 0.169540 0.433000 0.394875
v -0.286133 0.368256 0.394875
v -0.128593 0.457972 0.394875
v -0.023460 0.492194 0.394875
v -0.168976 0.369489 0.394875
v -0.150787 0.306286 0.394875
v -0.270721 0.292721 0.394875
v -0.076485 0.216569 0.394875
v -0.225708 0.215336 0.394875
v 0.236755 -0.104068 0.394875
v -0.349640 0.084923 0.394875
v -0.163429 0.147509 0.394875
v -0.245743 0.047926 0.394875
v 0.163376 -0.187311 0.394875
v 0.293480 0.013396 0.394875
v 0.432228 0.146276 0.394875
v 0.317528 0.146276 0.394875
v 0.392761 -0.014660 0.394875
v -0.390961 -0.063372 0.394875
v -0.271942 -0.055973 0.394875
v 0.303352 -0.171895 0.394875
v -0.206596 -0.205809 0.394875
v -0.296616 -0.280727 0.394875
v 0.475380 -0.347630 0.394875
v 0.067184 -0.246197 0.394875
v 0.231819 -0.256988 0.394875
v -0.042572 -0.265620 0.394875
v 0.097397 -0.338689 0.394875
v 0.319992 -0.347630 0.394875
v -0.053673 -0.365511 0.394875
vn -0.0000 0.0000 -1.0000
vn 0.0000 0.0000 1.0000
vn 0.0413 -0.9991 -0.0000
vn -0.9923 0.1238 0.0000
vn 0.8921 -0.4519 -0.0000
vn 0.9966 0.0820 0.0000
vn 0.6850 0.7285 0.0000
vn 0.0871 0.9962 0.0000
vn -0.3544 0.9351 0.0000
vn 0.7434 0.6689 0.0000
vn 0.8842 0.4670 0.0000
vn -0.1612 0.9869 0.0000
vn -0.9510 0.3093 0.0000
vn -0.6411 0.7675 0.0000
vn 0.7868 0.6172 0.0000
vn 0.9291 -0.3698 -0.0000
vn 0.9917 0.1285 0.0000
vn 0.9218 -0.3876 -0.0000
vn -0.3891 -0.9212 -0.0000
vn -0.1262 -0.9920 -0.0000
vn 0.3531 -0.9356 -0.0000
vn -0.0799 -0.9968 -0.0000
vn -0.6806 -0.7327 -0.0000
vn -0.9976 -0.0688 -0.0000
vn -0.8699 0.4933 0.0000
vn -0.9932 0.1163 0.0000
vn -0.9345 -0.3561 -0.0000
vn -0.9949 0.1006 0.0000
vn -0.6781 0.7350 0.0000
vn -0.1068 0.9943 0.0000
vn 0.2086 0.9780 0.0000
vn 0.8083 0.5887 0.0000
vn 0.5497 -0.8353 -0.0000
vn -0.2820 -0.9594 -0.0000
vn 0.0747 -0.9972 -0.0000
vn 0.6659 -0.7461 -0.0000
vn 0.9973 -0.0739 -0.0000
usemtl None
s off
f 71//1 72//1 73//1
f 74//1 72//1 71//1
f 75//1 72//1 74//1
f 76//1 75//1 74//1
f 77//1 78//1 72//1
f 79//1 77//1 72//1
f 75//1 79//1 72//1
f 80//1 78//1 77//1
f 81//1 78//1 80//1
f 81//1 82//1 78//1
f 83//1 82//1 81//1
f 83//1 84//1 82//1
f 85//1 84//1 83//1
f 86//1 87//1 84//1
f 85//1 86//1 84//1
f 88//1 87//1 86//1
f 85//1 89//1 86//1
f 90//1 91//1 92//1
f 93//1 91//1 90//1
f 88//1 94//1 87//1
f 95//1 94//1 88//1
f 93//1 85//1 91//1
f 96//1 85//1 93//1
f 97//1 94//1 95//1
f 97//1 98//1 94//1
f 96//1 89//1 85//1
f 99//1 89//1 96//1
f 100//1 101//1 89//1
f 99//1 100//1 89//1
f 102//1 98//1 97//1
f 100//1 102//1 101//1
f 103//1 102//1 100//1
f 99//1 104//1 100//1
f 103//1 98//1 102//1
f 103//1 105//1 98//1
f 106//2 107//2 108//2
f 106//2 109//2 107//2
f 106//2 110//2 109//2
f 110//2 111//2 109//2
f 112//2 113//2 106//2
f 113//2 114//2 106//2
f 114//2 110//2 106//2
f 112//2 115//2 113//2
f 112//2 116//2 115//2
f 117//2 116//2 112//2
f 117//2 118//2 116//2
f 119//2 118//2 117//2
f 119//2 120//2 118//2
f 121//2 122//2 119//2
f 122//2 120//2 119//2
f 121//2 123//2 122//2
f 124//2 120//2 122//2
f 125//2 126//2 127//2
f 125//2 128//2 126//2
f 129//2 123//2 121//2
f 129//2 130//2 123//2
f 120//2 128//2 125//2
f 120//2 131//2 128//2
f 129//2 132//2 130//2
f 133//2 132//2 129//2
f 124//2 131//2 120//2
f 124//2 134//2 131//2
f 135//2 136//2 124//2
f 136//2 134//2 124//2
f 133//2 137//2 132//2
f 137//2 136//2 135//2
f 137//2 138//2 136//2
f 139//2 134//2 136//2
f 133//2 138//2 137//2
f 140//2 138//2 133//2
s 1
f 2//3 4//4 1//4
f 5//5 3//3 2//3
f 7//6 6//5 5//5
f 9//7 8//6 7//6
f 11//8 10//7 9//7
f 13//9 12//8 11//8
f 1//4 14//9 13//9
f 16//10 18//11 15//11
f 19//12 17//10 16//10
f 21//13 20//12 19//12
f 23//14 22//13 21//13
f 25//15 24//14 23//14
f 27//16 26//15 25//15
f 29//17 28//16 27//16
f 29//17 32//18 30//17
f 33//19 32//18 31//18
f 35//20 34//19 33//19
f 37//21 36//20 35//20
f 39//22 38//21 37//21
f 41//23 40//22 39//22
f 43//24 42//23 41//23
f 45//25 44//24 43//24
f 47//26 46//25 45//25
f 49//27 48//26 47//26
f 51//28 50//27 49//27
f 53//29 52//28 51//28
f 55//30 54//29 53//29
f 57//31 56//30 55//30
f 59//32 58//31 57//31
f 61//33 60//32 59//32
f 63//34 62//33 61//33
f 65//35 64//34 63//34
f 67//36 66//35 65//35
f 69//37 68//36 67//36
f 15//11 70//37 69//37
f 2//3 3//3 4//4
f 5//5 6//5 3//3
f 7//6 8//6 6//5
f 9//7 10//7 8//6
f 11//8 12//8 10//7
f 13//9 14//9 12//8
f 1//4 4//4 14//9
f 16//10 17//10 18//11
f 19//12 20//12 17//10
f 21//13 22//13 20//12
f 23//14 24//14 22//13
f 25//15 26//15 24//14
f 27//16 28//16 26//15
f 29//17 30//17 28//16
f 29//17 31//18 32//18
f 33//19 34//19 32//18
f 35//20 36//20 34//19
f 37//21 38//21 36//20
f 39//22 40//22 38//21
f 41//23 42//23 40//22
f 43//24 44//24 42//23
f 45//25 46//25 44//24
f 47//26 48//26 46//25
f 49//27 50//27 48//26
f 51//28 52//28 50//27
f 53//29 54//29 52//28
f 55//30 56//30 54//29
f 57//31 58//31 56//30
f 59//32 60//32 58//31
f 61//33 62//33 60//32
f 63//34 64//34 62//33
f 65//35 66//35 64//34
f 67//36 68//36 66//35
f 69//37 70//37 68//36
f 15//11 18//11 70//37
