# Blender v2.79 (sub 0) OBJ File: 'Font All Characters Individual Meshes COMPLETE WITH CENTERS AND NAMES.blend'
# www.blender.org
mtllib At Sign.mtl
o At_Sign_Text.673
v 0.157791 -0.295834 0.394875
v 0.157791 -0.200876 0.394875
v 0.157791 -0.200876 -0.363125
v 0.157791 -0.295834 -0.363125
v 0.073013 -0.270861 0.394875
v 0.073013 -0.270861 -0.363125
v -0.038292 -0.293368 0.394875
v -0.038292 -0.293368 -0.363125
v -0.210632 -0.216600 0.394875
v -0.210632 -0.216600 -0.363125
v -0.276917 -0.016510 0.394875
v -0.276917 -0.016509 -0.363125
v -0.210327 0.183889 0.394875
v -0.210327 0.183889 -0.363125
v -0.038292 0.260965 0.394875
v -0.038292 0.260965 -0.363125
v 0.073318 0.237842 0.394875
v 0.073318 0.237842 -0.363125
v 0.157791 0.167857 0.394875
v 0.157791 0.167857 -0.363125
v 0.157791 0.248633 0.394875
v 0.157791 0.248633 -0.363125
v 0.245972 0.248633 0.394875
v 0.245972 0.248633 -0.363125
v 0.245972 -0.205192 0.394875
v 0.245972 -0.205192 -0.363125
v 0.386864 -0.122875 0.394875
v 0.386864 -0.122875 -0.363125
v 0.437737 0.055017 0.394875
v 0.437737 0.055017 -0.363125
v 0.418312 0.178956 0.394875
v 0.418312 0.178956 -0.363125
v 0.359428 0.286246 0.394875
v 0.359428 0.286246 -0.363125
v 0.203110 0.409877 0.394875
v 0.203110 0.409877 -0.363125
v 0.002411 0.452731 0.394875
v 0.002411 0.452731 -0.363125
v -0.143112 0.432691 0.394875
v -0.143112 0.432691 -0.363125
v -0.271988 0.373189 0.394875
v -0.271988 0.373189 -0.363125
v -0.423363 0.208245 0.394875
v -0.423363 0.208245 -0.363125
v -0.477928 -0.012810 0.394875
v -0.477928 -0.012810 -0.363125
v -0.442474 -0.196560 0.394875
v -0.442474 -0.196560 -0.363125
v -0.339813 -0.347630 0.394875
v -0.339813 -0.347629 -0.363125
v -0.189972 -0.445362 0.394875
v -0.189972 -0.445362 -0.363125
v -0.008072 -0.478968 0.394875
v -0.008072 -0.478968 -0.363125
v 0.148239 -0.452145 0.394875
v 0.148239 -0.452145 -0.363125
v 0.289131 -0.375377 0.394875
v 0.289131 -0.375377 -0.363125
v 0.344627 -0.443821 0.394875
v 0.344627 -0.443821 -0.363125
v 0.176598 -0.535387 0.394875
v 0.176598 -0.535387 -0.363125
v -0.008072 -0.567143 0.394875
v -0.008072 -0.567143 -0.363125
v -0.223274 -0.526755 0.394875
v -0.223274 -0.526755 -0.363125
v -0.403320 -0.409291 0.394875
v -0.403320 -0.409291 -0.363125
v -0.523560 -0.230782 0.394875
v -0.523560 -0.230782 -0.363125
v -0.564873 -0.012810 0.394875
v -0.564873 -0.012810 -0.363125
v -0.522942 0.201154 0.394875
v -0.522942 0.201154 -0.363125
v -0.403320 0.379971 0.394875
v -0.403320 0.379971 -0.363125
v -0.219574 0.499902 0.394875
v -0.219574 0.499902 -0.363125
v 0.001175 0.541523 0.394875
v 0.001175 0.541523 -0.363125
v 0.243813 0.487878 0.394875
v 0.243813 0.487878 -0.363125
v 0.431564 0.335575 0.394875
v 0.431564 0.335575 -0.363125
v 0.502174 0.204237 0.394875
v 0.502174 0.204237 -0.363125
v 0.526527 0.057484 0.394875
v 0.526527 0.057484 -0.363125
v 0.428490 -0.198410 0.394875
v 0.428490 -0.198410 -0.363125
v -0.134171 0.120995 0.394875
v -0.178261 -0.016510 0.394875
v -0.178261 -0.016509 -0.363125
v -0.134171 0.120995 -0.363125
v -0.134483 -0.154939 0.394875
v -0.134483 -0.154939 -0.363125
v -0.014236 -0.205192 0.394875
v -0.014236 -0.205192 -0.363125
v 0.105072 -0.154630 0.394875
v 0.105072 -0.154630 -0.363125
v 0.148544 -0.016510 0.394875
v 0.148544 -0.016509 -0.363125
v 0.104149 0.120686 0.394875
v 0.104149 0.120686 -0.363125
v -0.015472 0.171557 0.394875
v -0.015472 0.171557 -0.363125
v 0.243813 0.487878 -0.363125
v -0.219574 0.499902 -0.363125
v 0.001175 0.541523 -0.363125
v -0.143112 0.432691 -0.363125
v -0.403320 0.379971 -0.363125
v 0.002411 0.452731 -0.363125
v 0.203110 0.409877 -0.363125
v 0.431564 0.335575 -0.363125
v -0.271988 0.373189 -0.363125
v 0.359428 0.286246 -0.363125
v -0.522942 0.201154 -0.363125
v -0.423363 0.208245 -0.363125
v 0.502174 0.204237 -0.363125
v 0.418312 0.178956 -0.363125
v 0.073318 0.237842 -0.363125
v -0.210327 0.183889 -0.363125
v -0.038292 0.260965 -0.363125
v 0.245972 0.248633 -0.363125
v 0.157791 0.167857 -0.363125
v 0.157791 0.248633 -0.363125
v 0.245972 -0.205192 -0.363125
v -0.477928 -0.012810 -0.363125
v 0.526527 0.057484 -0.363125
v -0.564873 -0.012810 -0.363125
v -0.134171 0.120995 -0.363125
v -0.276917 -0.016509 -0.363125
v -0.015472 0.171557 -0.363125
v 0.437737 0.055017 -0.363125
v 0.104149 0.120686 -0.363125
v -0.178261 -0.016509 -0.363125
v 0.148544 -0.016509 -0.363125
v 0.428490 -0.198410 -0.363125
v 0.386864 -0.122875 -0.363125
v -0.523560 -0.230782 -0.363125
v -0.442474 -0.196560 -0.363125
v -0.210632 -0.216600 -0.363125
v -0.134483 -0.154939 -0.363125
v 0.105072 -0.154630 -0.363125
v 0.157791 -0.200876 -0.363125
v -0.014236 -0.205192 -0.363125
v -0.339813 -0.347629 -0.363125
v 0.157791 -0.295834 -0.363125
v 0.073013 -0.270861 -0.363125
v -0.038292 -0.293368 -0.363125
v -0.403320 -0.409291 -0.363125
v -0.189972 -0.445362 -0.363125
v 0.344627 -0.443821 -0.363125
v 0.148239 -0.452145 -0.363125
v 0.289131 -0.375377 -0.363125
v -0.223274 -0.526755 -0.363125
v 0.176598 -0.535387 -0.363125
v -0.008072 -0.478968 -0.363125
v -0.008072 -0.567143 -0.363125
v -0.219574 0.499902 0.394875
v 0.243813 0.487878 0.394875
v 0.001175 0.541523 0.394875
v -0.403320 0.379971 0.394875
v -0.143112 0.432691 0.394875
v 0.002411 0.452731 0.394875
v 0.203110 0.409877 0.394875
v 0.431564 0.335575 0.394875
v -0.271988 0.373189 0.394875
v 0.359428 0.286246 0.394875
v -0.522942 0.201154 0.394875
v -0.423363 0.208245 0.394875
v 0.502174 0.204237 0.394875
v 0.418312 0.178956 0.394875
v -0.210327 0.183889 0.394875
v 0.073318 0.237842 0.394875
v -0.038292 0.260965 0.394875
v 0.157791 0.167857 0.394875
v 0.245972 0.248633 0.394875
v 0.157791 0.248633 0.394875
v 0.245972 -0.205192 0.394875
v -0.477928 -0.012810 0.394875
v 0.526527 0.057484 0.394875
v -0.564873 -0.012810 0.394875
v -0.276917 -0.016510 0.394875
v -0.134171 0.120995 0.394875
v -0.015472 0.171557 0.394875
v 0.437737 0.055017 0.394875
v 0.104149 0.120686 0.394875
v -0.178261 -0.016510 0.394875
v 0.148544 -0.016510 0.394875
v 0.428490 -0.198410 0.394875
v 0.386864 -0.122875 0.394875
v -0.523560 -0.230782 0.394875
v -0.442474 -0.196560 0.394875
v -0.210632 -0.216600 0.394875
v -0.134483 -0.154939 0.394875
v 0.105072 -0.154630 0.394875
v -0.014236 -0.205192 0.394875
v 0.157791 -0.200876 0.394875
v -0.339813 -0.347630 0.394875
v 0.157791 -0.295834 0.394875
v 0.073013 -0.270861 0.394875
v -0.038292 -0.293368 0.394875
v -0.403320 -0.409291 0.394875
v -0.189972 -0.445362 0.394875
v 0.148239 -0.452145 0.394875
v 0.344627 -0.443821 0.394875
v 0.289131 -0.375377 0.394875
v -0.223274 -0.526755 0.394875
v 0.176598 -0.535387 0.394875
v -0.008072 -0.478968 0.394875
v -0.008072 -0.567143 0.394875
vn 0.0000 0.0000 -1.0000
vn 0.0000 0.0000 1.0000
vn -0.4263 -0.9046 -0.0000
vn -0.5751 -0.8181 -0.0000
vn -0.5750 -0.8181 -0.0000
vn 0.4303 -0.9027 -0.0000
vn -0.1095 -0.9940 -0.0000
vn -0.7413 -0.6712 -0.0000
vn -1.0000 0.0005 0.0000
vn -0.7417 0.6707 0.0000
vn -0.1082 0.9941 0.0000
vn 0.4332 0.9013 0.0000
vn -0.4255 0.9050 0.0000
vn -0.7071 0.7071 0.0000
vn 0.7071 0.7071 0.0000
vn 0.4978 0.8673 0.0000
vn -0.7898 0.6133 0.0000
vn -0.9981 0.0615 0.0000
vn -0.9465 -0.3228 -0.0000
vn -0.7637 -0.6456 -0.0000
vn -0.4257 -0.9049 -0.0000
vn -0.0367 -0.9993 -0.0000
vn 0.2809 -0.9597 -0.0000
vn 0.5895 -0.8078 -0.0000
vn 0.8813 -0.4726 -0.0000
vn 0.9997 -0.0257 -0.0000
vn 0.9235 0.3836 0.0000
vn 0.7004 0.7138 0.0000
vn 0.3712 0.9285 0.0000
vn 0.0064 1.0000 0.0000
vn -0.3282 0.9446 0.0000
vn 0.1941 0.9810 0.0000
vn 0.9810 -0.1940 -0.0000
vn 0.3284 -0.9445 -0.0000
vn -0.0076 -1.0000 -0.0000
vn -0.3726 -0.9280 -0.0000
vn -0.7019 -0.7123 -0.0000
vn -0.9249 -0.3802 -0.0000
vn -1.0000 0.0031 -0.0000
vn -0.9243 0.3816 0.0000
vn -0.7031 0.7111 0.0000
vn -0.3731 0.9278 0.0000
vn 0.0156 0.9999 0.0000
vn 0.4346 0.9006 0.0000
vn 0.7704 0.6375 0.0000
vn 0.9464 0.3230 0.0000
vn 0.9949 -0.1005 -0.0000
vn 0.6999 -0.7143 -0.0000
vn 1.0000 -0.0020 -0.0000
vn 0.7390 -0.6737 -0.0000
vn 0.7381 0.6747 0.0000
vn -0.0025 1.0000 0.0000
vn -0.7402 0.6724 0.0000
vn -1.0000 -0.0040 -0.0000
vn -0.7379 -0.6749 -0.0000
vn 0.0003 -1.0000 -0.0000
usemtl None
s off
f 107//1 108//1 109//1
f 110//1 111//1 108//1
f 107//1 110//1 108//1
f 112//1 110//1 107//1
f 113//1 112//1 107//1
f 114//1 113//1 107//1
f 115//1 111//1 110//1
f 114//1 116//1 113//1
f 115//1 117//1 111//1
f 118//1 117//1 115//1
f 119//1 116//1 114//1
f 119//1 120//1 116//1
f 121//1 122//1 123//1
f 124//1 125//1 126//1
f 127//1 125//1 124//1
f 125//1 122//1 121//1
f 128//1 117//1 118//1
f 129//1 120//1 119//1
f 128//1 130//1 117//1
f 131//1 132//1 122//1
f 133//1 131//1 122//1
f 125//1 133//1 122//1
f 129//1 134//1 120//1
f 125//1 135//1 133//1
f 127//1 135//1 125//1
f 136//1 132//1 131//1
f 127//1 137//1 135//1
f 138//1 134//1 129//1
f 138//1 139//1 134//1
f 128//1 140//1 130//1
f 141//1 140//1 128//1
f 136//1 142//1 132//1
f 143//1 142//1 136//1
f 127//1 144//1 137//1
f 138//1 127//1 139//1
f 145//1 146//1 144//1
f 127//1 145//1 144//1
f 146//1 142//1 143//1
f 147//1 140//1 141//1
f 148//1 127//1 138//1
f 149//1 146//1 145//1
f 127//1 148//1 145//1
f 149//1 142//1 146//1
f 149//1 150//1 142//1
f 147//1 151//1 140//1
f 152//1 151//1 147//1
f 153//1 154//1 155//1
f 152//1 156//1 151//1
f 157//1 154//1 153//1
f 158//1 156//1 152//1
f 157//1 158//1 154//1
f 157//1 156//1 158//1
f 157//1 159//1 156//1
f 160//2 161//2 162//2
f 163//2 164//2 160//2
f 164//2 161//2 160//2
f 164//2 165//2 161//2
f 165//2 166//2 161//2
f 166//2 167//2 161//2
f 163//2 168//2 164//2
f 169//2 167//2 166//2
f 170//2 168//2 163//2
f 170//2 171//2 168//2
f 169//2 172//2 167//2
f 173//2 172//2 169//2
f 174//2 175//2 176//2
f 177//2 178//2 179//2
f 177//2 180//2 178//2
f 174//2 177//2 175//2
f 170//2 181//2 171//2
f 173//2 182//2 172//2
f 183//2 181//2 170//2
f 184//2 185//2 174//2
f 185//2 186//2 174//2
f 186//2 177//2 174//2
f 187//2 182//2 173//2
f 188//2 177//2 186//2
f 188//2 180//2 177//2
f 184//2 189//2 185//2
f 190//2 180//2 188//2
f 187//2 191//2 182//2
f 192//2 191//2 187//2
f 193//2 181//2 183//2
f 193//2 194//2 181//2
f 195//2 189//2 184//2
f 195//2 196//2 189//2
f 197//2 180//2 190//2
f 180//2 191//2 192//2
f 198//2 199//2 197//2
f 199//2 180//2 197//2
f 195//2 198//2 196//2
f 193//2 200//2 194//2
f 180//2 201//2 191//2
f 198//2 202//2 199//2
f 201//2 180//2 199//2
f 195//2 202//2 198//2
f 203//2 202//2 195//2
f 204//2 200//2 193//2
f 204//2 205//2 200//2
f 206//2 207//2 208//2
f 209//2 205//2 204//2
f 206//2 210//2 207//2
f 209//2 211//2 205//2
f 211//2 210//2 206//2
f 209//2 210//2 211//2
f 212//2 210//2 209//2
s 1
f 2//3 4//4 1//5
f 5//6 3//3 2//3
f 7//7 6//6 5//6
f 9//8 8//7 7//7
f 11//9 10//8 9//8
f 13//10 12//9 11//9
f 15//11 14//10 13//10
f 17//12 16//11 15//11
f 19//13 18//12 17//12
f 21//14 20//13 19//13
f 23//15 22//14 21//14
f 25//16 24//15 23//15
f 27//17 26//16 25//16
f 29//18 28//17 27//17
f 31//19 30//18 29//18
f 33//20 32//19 31//19
f 35//21 34//20 33//20
f 37//22 36//21 35//21
f 39//23 38//22 37//22
f 41//24 40//23 39//23
f 43//25 42//24 41//24
f 45//26 44//25 43//25
f 47//27 46//26 45//26
f 49//28 48//27 47//27
f 51//29 50//28 49//28
f 53//30 52//29 51//29
f 55//31 54//30 53//30
f 57//32 56//31 55//31
f 59//33 58//32 57//32
f 61//34 60//33 59//33
f 63//35 62//34 61//34
f 65//36 64//35 63//35
f 67//37 66//36 65//36
f 69//38 68//37 67//37
f 71//39 70//38 69//38
f 73//40 72//39 71//39
f 75//41 74//40 73//40
f 77//42 76//41 75//41
f 79//43 78//42 77//42
f 81//44 80//43 79//43
f 83//45 82//44 81//44
f 85//46 84//45 83//45
f 87//47 86//46 85//46
f 89//48 88//47 87//47
f 1//5 90//48 89//48
f 92//49 94//50 91//50
f 92//49 96//51 93//49
f 97//52 96//51 95//51
f 99//53 98//52 97//52
f 101//54 100//53 99//53
f 103//55 102//54 101//54
f 105//56 104//55 103//55
f 91//50 106//56 105//56
f 2//3 3//3 4//4
f 5//6 6//6 3//3
f 7//7 8//7 6//6
f 9//8 10//8 8//7
f 11//9 12//9 10//8
f 13//10 14//10 12//9
f 15//11 16//11 14//10
f 17//12 18//12 16//11
f 19//13 20//13 18//12
f 21//14 22//14 20//13
f 23//15 24//15 22//14
f 25//16 26//16 24//15
f 27//17 28//17 26//16
f 29//18 30//18 28//17
f 31//19 32//19 30//18
f 33//20 34//20 32//19
f 35//21 36//21 34//20
f 37//22 38//22 36//21
f 39//23 40//23 38//22
f 41//24 42//24 40//23
f 43//25 44//25 42//24
f 45//26 46//26 44//25
f 47//27 48//27 46//26
f 49//28 50//28 48//27
f 51//29 52//29 50//28
f 53//30 54//30 52//29
f 55//31 56//31 54//30
f 57//32 58//32 56//31
f 59//33 60//33 58//32
f 61//34 62//34 60//33
f 63//35 64//35 62//34
f 65//36 66//36 64//35
f 67//37 68//37 66//36
f 69//38 70//38 68//37
f 71//39 72//39 70//38
f 73//40 74//40 72//39
f 75//41 76//41 74//40
f 77//42 78//42 76//41
f 79//43 80//43 78//42
f 81//44 82//44 80//43
f 83//45 84//45 82//44
f 85//46 86//46 84//45
f 87//47 88//47 86//46
f 89//48 90//48 88//47
f 1//5 4//4 90//48
f 92//49 93//49 94//50
f 92//49 95//51 96//51
f 97//52 98//52 96//51
f 99//53 100//53 98//52
f 101//54 102//54 100//53
f 103//55 104//55 102//54
f 105//56 106//56 104//55
f 91//50 94//50 106//56
