# Blender v2.79 (sub 0) OBJ File: 'Font All Characters Individual Meshes COMPLETE WITH CENTERS AND NAMES.blend'
# www.blender.org
mtllib Broken Vertical Bar.mtl
o Broken_Vertical_Bar_Text.051
v -0.048714 -0.563443 0.394875
v 0.056107 -0.096052 0.394875
v -0.048714 -0.096052 0.394875
v 0.056107 -0.563443 0.394875
v -0.048714 0.535357 0.394875
v 0.056107 0.535357 0.394875
v 0.056107 0.535357 -0.363125
v -0.048714 0.535357 -0.363125
v 0.056107 0.067966 0.394875
v 0.056107 0.067966 -0.363125
v -0.048714 0.067966 0.394875
v -0.048714 0.067966 -0.363125
v -0.048714 -0.096052 0.394875
v 0.056107 -0.096052 0.394875
v 0.056107 -0.096052 -0.363125
v -0.048714 -0.096052 -0.363125
v 0.056107 -0.563443 0.394875
v 0.056107 -0.563443 -0.363125
v -0.048714 -0.563443 0.394875
v -0.048714 -0.563443 -0.363125
v 0.056107 0.535357 -0.363125
v -0.048714 0.067966 -0.363125
v -0.048714 0.535357 -0.363125
v 0.056107 0.067966 -0.363125
v 0.056107 -0.096052 -0.363125
v -0.048714 -0.563443 -0.363125
v -0.048714 -0.096052 -0.363125
v 0.056107 -0.563443 -0.363125
v -0.048714 0.067966 0.394875
v 0.056107 0.535357 0.394875
v -0.048714 0.535357 0.394875
v 0.056107 0.067966 0.394875
vn 0.0000 -0.0000 1.0000
vn 0.0000 0.0000 -1.0000
vn 0.7071 0.7071 0.0000
vn -0.7071 0.7071 0.0000
vn 0.7071 -0.7071 -0.0000
vn -0.7071 -0.7071 -0.0000
usemtl None
s off
f 1//1 2//1 3//1
f 1//1 4//1 2//1
f 21//2 22//2 23//2
f 24//2 22//2 21//2
f 25//2 26//2 27//2
f 28//2 26//2 25//2
f 29//1 30//1 31//1
f 29//1 32//1 30//1
s 1
f 6//3 8//4 5//4
f 9//5 7//3 6//3
f 11//6 10//5 9//5
f 5//4 12//6 11//6
f 14//3 16//4 13//4
f 17//5 15//3 14//3
f 19//6 18//5 17//5
f 13//4 20//6 19//6
f 6//3 7//3 8//4
f 9//5 10//5 7//3
f 11//6 12//6 10//5
f 5//4 8//4 12//6
f 14//3 15//3 16//4
f 17//5 18//5 15//3
f 19//6 20//6 18//5
f 13//4 16//4 20//6
