# Blender v2.79 (sub 0) OBJ File: 'Font All Characters Individual Meshes COMPLETE WITH CENTERS AND NAMES.blend'
# www.blender.org
mtllib Capital U.mtl
o Capital_U_Text.702
v -0.348412 -0.001711 0.394875
v -0.348412 0.572970 0.394875
v -0.348412 0.572970 -0.363125
v -0.348412 -0.001711 -0.363125
v -0.223244 0.572970 0.394875
v -0.223244 0.572970 -0.363125
v -0.223244 0.013704 0.394875
v -0.223244 0.013704 -0.363125
v -0.169601 -0.199335 0.394875
v -0.169601 -0.199335 -0.363125
v 0.004288 -0.264387 0.394875
v 0.004288 -0.264387 -0.363125
v 0.177551 -0.199335 0.394875
v 0.177551 -0.199335 -0.363125
v 0.231201 0.013704 0.394875
v 0.231201 0.013704 -0.363125
v 0.231201 0.572970 0.394875
v 0.231201 0.572970 -0.363125
v 0.356369 0.572970 0.394875
v 0.356369 0.572970 -0.363125
v 0.356369 -0.001711 0.394875
v 0.356369 -0.001711 -0.363125
v 0.267273 -0.273636 0.394875
v 0.267273 -0.273636 -0.363125
v 0.004288 -0.365511 0.394875
v 0.004288 -0.365511 -0.363125
v -0.259315 -0.273636 0.394875
v -0.259315 -0.273636 -0.363125
v -0.223244 0.572970 -0.363125
v -0.348412 -0.001711 -0.363125
v -0.348412 0.572970 -0.363125
v -0.223244 0.013704 -0.363125
v 0.356369 0.572970 -0.363125
v 0.231201 0.013704 -0.363125
v 0.231201 0.572970 -0.363125
v 0.356369 -0.001711 -0.363125
v -0.169601 -0.199335 -0.363125
v 0.177551 -0.199335 -0.363125
v -0.259315 -0.273636 -0.363125
v 0.267273 -0.273636 -0.363125
v 0.004288 -0.264387 -0.363125
v 0.004288 -0.365511 -0.363125
v -0.348412 -0.001711 0.394875
v -0.223244 0.572970 0.394875
v -0.348412 0.572970 0.394875
v -0.223244 0.013704 0.394875
v 0.231201 0.013704 0.394875
v 0.356369 0.572970 0.394875
v 0.231201 0.572970 0.394875
v 0.356369 -0.001711 0.394875
v -0.169601 -0.199335 0.394875
v 0.177551 -0.199335 0.394875
v -0.259315 -0.273636 0.394875
v 0.267273 -0.273636 0.394875
v 0.004288 -0.264387 0.394875
v 0.004288 -0.365511 0.394875
vn 0.0000 0.0000 -1.0000
vn 0.0000 -0.0000 1.0000
vn -0.7071 0.7071 0.0000
vn -0.9875 -0.1577 -0.0000
vn 0.7071 0.7071 0.0000
vn 0.9924 0.1230 0.0000
vn 0.7453 0.6667 0.0000
vn -0.0006 1.0000 0.0000
vn -0.7457 0.6662 0.0000
vn -0.9924 0.1230 0.0000
vn 0.9875 -0.1577 -0.0000
vn 0.7140 -0.7002 -0.0000
vn 0.0004 -1.0000 -0.0000
vn -0.7137 -0.7004 -0.0000
usemtl None
s off
f 29//1 30//1 31//1
f 32//1 30//1 29//1
f 33//1 34//1 35//1
f 36//1 34//1 33//1
f 37//1 30//1 32//1
f 36//1 38//1 34//1
f 37//1 39//1 30//1
f 40//1 38//1 36//1
f 41//1 39//1 37//1
f 40//1 41//1 38//1
f 40//1 39//1 41//1
f 40//1 42//1 39//1
f 43//2 44//2 45//2
f 43//2 46//2 44//2
f 47//2 48//2 49//2
f 47//2 50//2 48//2
f 43//2 51//2 46//2
f 52//2 50//2 47//2
f 53//2 51//2 43//2
f 52//2 54//2 50//2
f 53//2 55//2 51//2
f 55//2 54//2 52//2
f 53//2 54//2 55//2
f 56//2 54//2 53//2
s 1
f 2//3 4//4 1//4
f 5//5 3//3 2//3
f 7//6 6//5 5//5
f 9//7 8//6 7//6
f 11//8 10//7 9//7
f 13//9 12//8 11//8
f 15//10 14//9 13//9
f 17//3 16//10 15//10
f 19//5 18//3 17//3
f 21//11 20//5 19//5
f 23//12 22//11 21//11
f 25//13 24//12 23//12
f 27//14 26//13 25//13
f 1//4 28//14 27//14
f 2//3 3//3 4//4
f 5//5 6//5 3//3
f 7//6 8//6 6//5
f 9//7 10//7 8//6
f 11//8 12//8 10//7
f 13//9 14//9 12//8
f 15//10 16//10 14//9
f 17//3 18//3 16//10
f 19//5 20//5 18//3
f 21//11 22//11 20//5
f 23//12 24//12 22//11
f 25//13 26//13 24//12
f 27//14 28//14 26//13
f 1//4 4//4 28//14
