# Blender v2.79 (sub 0) OBJ File: 'Font All Characters Individual Meshes COMPLETE WITH CENTERS AND NAMES.blend'
# www.blender.org
mtllib Capital W.mtl
o Capital_W_Text.248
v -0.360634 -0.347630 0.394875
v -0.465454 0.572970 0.394875
v -0.591248 0.572970 0.394875
v -0.271843 -0.205192 0.394875
v -0.007927 0.451498 0.394875
v -0.078842 0.572970 0.394875
v 0.061134 0.572970 0.394875
v 0.254745 -0.205192 0.394875
v 0.574150 0.572970 0.394875
v 0.447739 0.572970 0.394875
v 0.342918 -0.347630 0.394875
v -0.204010 -0.347630 0.394875
v 0.186302 -0.347630 0.394875
v -0.360634 -0.347630 0.394875
v -0.591248 0.572970 0.394875
v -0.591248 0.572970 -0.363125
v -0.360634 -0.347629 -0.363125
v -0.465454 0.572970 0.394875
v -0.465454 0.572970 -0.363125
v -0.271843 -0.205192 0.394875
v -0.271843 -0.205192 -0.363125
v -0.078842 0.572970 0.394875
v -0.078842 0.572970 -0.363125
v 0.061134 0.572970 0.394875
v 0.061134 0.572970 -0.363125
v 0.254745 -0.205192 0.394875
v 0.254745 -0.205192 -0.363125
v 0.447739 0.572970 0.394875
v 0.447739 0.572970 -0.363125
v 0.574150 0.572970 0.394875
v 0.574150 0.572970 -0.363125
v 0.342918 -0.347630 0.394875
v 0.342918 -0.347629 -0.363125
v 0.186302 -0.347630 0.394875
v 0.186302 -0.347629 -0.363125
v -0.007927 0.451498 0.394875
v -0.007927 0.451498 -0.363125
v -0.204010 -0.347630 0.394875
v -0.204010 -0.347629 -0.363125
v -0.465454 0.572970 -0.363125
v -0.360634 -0.347629 -0.363125
v -0.591248 0.572970 -0.363125
v -0.271843 -0.205192 -0.363125
v -0.007927 0.451498 -0.363125
v -0.078842 0.572970 -0.363125
v 0.061134 0.572970 -0.363125
v 0.254745 -0.205192 -0.363125
v 0.574150 0.572970 -0.363125
v 0.447739 0.572970 -0.363125
v 0.342918 -0.347629 -0.363125
v -0.204010 -0.347629 -0.363125
v 0.186302 -0.347629 -0.363125
vn 0.0000 -0.0000 1.0000
vn 0.0000 0.0000 -1.0000
vn -0.7884 0.6152 -0.0000
vn -0.6152 -0.7884 -0.0000
vn 0.6159 0.7879 0.0000
vn -0.0004 1.0000 0.0000
vn -0.6161 0.7876 0.0000
vn 0.7885 0.6150 -0.0000
vn 0.6150 -0.7885 -0.0000
vn -0.6180 -0.7862 -0.0000
vn -0.0011 -1.0000 -0.0000
vn 0.6171 -0.7869 -0.0000
usemtl None
s off
f 1//1 2//1 3//1
f 1//1 4//1 2//1
f 4//1 5//1 6//1
f 5//1 7//1 6//1
f 5//1 8//1 7//1
f 8//1 9//1 10//1
f 8//1 11//1 9//1
f 4//1 12//1 5//1
f 13//1 8//1 5//1
f 1//1 12//1 4//1
f 13//1 11//1 8//1
f 40//2 41//2 42//2
f 43//2 41//2 40//2
f 44//2 43//2 45//2
f 46//2 44//2 45//2
f 47//2 44//2 46//2
f 48//2 47//2 49//2
f 50//2 47//2 48//2
f 51//2 43//2 44//2
f 47//2 52//2 44//2
f 51//2 41//2 43//2
f 50//2 52//2 47//2
s 1
f 15//3 17//4 14//4
f 18//5 16//3 15//3
f 20//6 19//5 18//5
f 22//7 21//6 20//6
f 24//5 23//7 22//7
f 26//6 25//5 24//5
f 28//7 27//6 26//6
f 30//8 29//7 28//7
f 30//8 33//9 31//8
f 34//10 33//9 32//9
f 36//11 35//10 34//10
f 36//11 39//12 37//11
f 14//4 39//12 38//12
f 15//3 16//3 17//4
f 18//5 19//5 16//3
f 20//6 21//6 19//5
f 22//7 23//7 21//6
f 24//5 25//5 23//7
f 26//6 27//6 25//5
f 28//7 29//7 27//6
f 30//8 31//8 29//7
f 30//8 32//9 33//9
f 34//10 35//10 33//9
f 36//11 37//11 35//10
f 36//11 38//12 39//12
f 14//4 17//4 39//12
