# Blender v2.79 (sub 0) OBJ File: 'Font All Characters Individual Meshes COMPLETE WITH CENTERS AND NAMES.blend'
# www.blender.org
mtllib Capital L.mtl
o Capital_L_Text.259
v -0.327606 -0.347630 0.394875
v -0.203049 0.572970 0.394875
v -0.327606 0.572970 0.394875
v -0.203049 -0.242806 0.394875
v 0.245224 -0.242806 0.394875
v 0.245224 -0.347630 0.394875
v -0.327606 -0.347630 0.394875
v -0.327606 0.572970 0.394875
v -0.327606 0.572970 -0.363125
v -0.327606 -0.347629 -0.363125
v -0.203049 0.572970 0.394875
v -0.203049 0.572970 -0.363125
v -0.203049 -0.242806 0.394875
v -0.203049 -0.242806 -0.363125
v 0.245224 -0.242806 0.394875
v 0.245224 -0.242806 -0.363125
v 0.245224 -0.347630 0.394875
v 0.245224 -0.347629 -0.363125
v -0.203049 0.572970 -0.363125
v -0.327606 -0.347629 -0.363125
v -0.327606 0.572970 -0.363125
v -0.203049 -0.242806 -0.363125
v 0.245224 -0.242806 -0.363125
v 0.245224 -0.347629 -0.363125
vn 0.0000 -0.0000 1.0000
vn 0.0000 0.0000 -1.0000
vn -0.7071 0.7071 0.0000
vn -0.7071 -0.7071 -0.0000
vn 0.7071 0.7071 0.0000
vn 0.7071 -0.7071 -0.0000
usemtl None
s off
f 1//1 2//1 3//1
f 1//1 4//1 2//1
f 1//1 5//1 4//1
f 1//1 6//1 5//1
f 19//2 20//2 21//2
f 22//2 20//2 19//2
f 23//2 20//2 22//2
f 24//2 20//2 23//2
s 1
f 8//3 10//4 7//4
f 11//5 9//3 8//3
f 13//5 12//5 11//5
f 15//5 14//5 13//5
f 17//6 16//5 15//5
f 7//4 18//6 17//6
f 8//3 9//3 10//4
f 11//5 12//5 9//3
f 13//5 14//5 12//5
f 15//5 16//5 14//5
f 17//6 18//6 16//5
f 7//4 10//4 18//6
