# Blender v2.79 (sub 0) OBJ File: 'Font All Characters Individual Meshes COMPLETE WITH CENTERS AND NAMES.blend'
# www.blender.org
mtllib Capital H.mtl
o Capital_H_Text.263
v -0.352814 -0.347630 0.394875
v -0.228256 0.572970 0.394875
v -0.352814 0.572970 0.394875
v -0.228256 0.195605 0.394875
v 0.224335 0.195605 0.394875
v 0.348892 0.572970 0.394875
v 0.224335 0.572970 0.394875
v 0.348892 -0.347630 0.394875
v -0.228256 0.090781 0.394875
v 0.224335 0.090781 0.394875
v -0.228256 -0.347630 0.394875
v 0.224335 -0.347630 0.394875
v -0.352814 -0.347630 0.394875
v -0.352814 0.572970 0.394875
v -0.352814 0.572970 -0.363125
v -0.352814 -0.347629 -0.363125
v -0.228256 0.572970 0.394875
v -0.228256 0.572970 -0.363125
v -0.228256 0.195605 0.394875
v -0.228256 0.195605 -0.363125
v 0.224335 0.195605 0.394875
v 0.224335 0.195605 -0.363125
v 0.224335 0.572970 0.394875
v 0.224335 0.572970 -0.363125
v 0.348892 0.572970 0.394875
v 0.348892 0.572970 -0.363125
v 0.348892 -0.347630 0.394875
v 0.348892 -0.347629 -0.363125
v 0.224335 -0.347630 0.394875
v 0.224335 -0.347629 -0.363125
v 0.224335 0.090781 0.394875
v 0.224335 0.090781 -0.363125
v -0.228256 0.090781 0.394875
v -0.228256 0.090781 -0.363125
v -0.228256 -0.347630 0.394875
v -0.228256 -0.347629 -0.363125
v -0.228256 0.572970 -0.363125
v -0.352814 -0.347629 -0.363125
v -0.352814 0.572970 -0.363125
v -0.228256 0.195605 -0.363125
v 0.348892 0.572970 -0.363125
v 0.224335 0.195605 -0.363125
v 0.224335 0.572970 -0.363125
v 0.348892 -0.347629 -0.363125
v -0.228256 0.090781 -0.363125
v 0.224335 0.090781 -0.363125
v -0.228256 -0.347629 -0.363125
v 0.224335 -0.347629 -0.363125
vn 0.0000 -0.0000 1.0000
vn 0.0000 0.0000 -1.0000
vn -0.7071 0.7071 0.0000
vn -0.7071 -0.7071 -0.0000
vn 0.7071 0.7071 0.0000
vn 0.7071 -0.7071 -0.0000
usemtl None
s off
f 1//1 2//1 3//1
f 1//1 4//1 2//1
f 5//1 6//1 7//1
f 5//1 8//1 6//1
f 1//1 9//1 4//1
f 9//1 5//1 4//1
f 9//1 10//1 5//1
f 10//1 8//1 5//1
f 1//1 11//1 9//1
f 12//1 8//1 10//1
f 37//2 38//2 39//2
f 40//2 38//2 37//2
f 41//2 42//2 43//2
f 44//2 42//2 41//2
f 45//2 38//2 40//2
f 42//2 45//2 40//2
f 46//2 45//2 42//2
f 44//2 46//2 42//2
f 47//2 38//2 45//2
f 44//2 48//2 46//2
s 1
f 14//3 16//4 13//4
f 17//5 15//3 14//3
f 19//5 18//5 17//5
f 21//3 20//5 19//5
f 23//3 22//3 21//3
f 25//5 24//3 23//3
f 25//5 28//6 26//5
f 29//4 28//6 27//6
f 31//4 30//4 29//4
f 33//6 32//4 31//4
f 33//6 36//6 34//6
f 13//4 36//6 35//6
f 14//3 15//3 16//4
f 17//5 18//5 15//3
f 19//5 20//5 18//5
f 21//3 22//3 20//5
f 23//3 24//3 22//3
f 25//5 26//5 24//3
f 25//5 27//6 28//6
f 29//4 30//4 28//6
f 31//4 32//4 30//4
f 33//6 34//6 32//4
f 33//6 35//6 36//6
f 13//4 16//4 36//6
