# Blender v2.79 (sub 0) OBJ File: 'Font All Characters Individual Meshes COMPLETE WITH CENTERS AND NAMES.blend'
# www.blender.org
mtllib Capital G.mtl
o Capital_G_Text.264
v -0.327042 0.463522 0.394875
v 0.181664 0.567421 0.394875
v 0.010551 0.589619 0.394875
v 0.021042 0.487262 0.394875
v 0.331192 0.502060 0.394875
v 0.184441 0.457664 0.394875
v 0.331192 0.369489 0.394875
v -0.232697 0.392920 0.394875
v -0.448822 0.111746 0.394875
v -0.317482 0.111746 0.394875
v 0.028435 0.030969 0.394875
v 0.355240 0.133327 0.394875
v 0.028435 0.133327 0.394875
v 0.231918 0.030969 0.394875
v 0.355240 -0.261921 0.394875
v -0.327042 -0.239414 0.394875
v -0.232697 -0.168812 0.394875
v 0.231918 -0.216291 0.394875
v 0.021042 -0.263154 0.394875
v 0.138809 -0.251747 0.394875
v 0.010551 -0.365511 0.394875
v 0.196152 -0.339305 0.394875
v 0.138809 -0.251747 0.394875
v 0.231918 -0.216291 0.394875
v 0.231918 -0.216291 -0.363125
v 0.138809 -0.251746 -0.363125
v 0.231918 0.030969 0.394875
v 0.231918 0.030970 -0.363125
v 0.028435 0.030969 0.394875
v 0.028435 0.030970 -0.363125
v 0.028435 0.133327 0.394875
v 0.028435 0.133327 -0.363125
v 0.355240 0.133327 0.394875
v 0.355240 0.133327 -0.363125
v 0.355240 -0.261921 0.394875
v 0.355240 -0.261921 -0.363125
v 0.196152 -0.339305 0.394875
v 0.196152 -0.339305 -0.363125
v 0.010551 -0.365511 0.394875
v 0.010551 -0.365511 -0.363125
v -0.327042 -0.239414 0.394875
v -0.327042 -0.239414 -0.363125
v -0.448822 0.111746 0.394875
v -0.448822 0.111746 -0.363125
v -0.327042 0.463522 0.394875
v -0.327042 0.463522 -0.363125
v 0.010551 0.589619 0.394875
v 0.010551 0.589619 -0.363125
v 0.181664 0.567421 0.394875
v 0.181664 0.567421 -0.363125
v 0.331192 0.502060 0.394875
v 0.331192 0.502060 -0.363125
v 0.331192 0.369489 0.394875
v 0.331192 0.369489 -0.363125
v 0.184441 0.457664 0.394875
v 0.184441 0.457664 -0.363125
v 0.021042 0.487262 0.394875
v 0.021042 0.487262 -0.363125
v -0.232697 0.392920 0.394875
v -0.232697 0.392920 -0.363125
v -0.317482 0.111746 0.394875
v -0.317482 0.111746 -0.363125
v -0.232697 -0.168812 0.394875
v -0.232697 -0.168812 -0.363125
v 0.021042 -0.263154 0.394875
v 0.021042 -0.263154 -0.363125
v 0.181664 0.567421 -0.363125
v -0.327042 0.463522 -0.363125
v 0.010551 0.589619 -0.363125
v 0.021042 0.487262 -0.363125
v 0.331192 0.502060 -0.363125
v 0.184441 0.457664 -0.363125
v 0.331192 0.369489 -0.363125
v -0.232697 0.392920 -0.363125
v -0.448822 0.111746 -0.363125
v -0.317482 0.111746 -0.363125
v 0.355240 0.133327 -0.363125
v 0.028435 0.030970 -0.363125
v 0.028435 0.133327 -0.363125
v 0.231918 0.030970 -0.363125
v 0.355240 -0.261921 -0.363125
v -0.327042 -0.239414 -0.363125
v -0.232697 -0.168812 -0.363125
v 0.231918 -0.216291 -0.363125
v 0.021042 -0.263154 -0.363125
v 0.138809 -0.251746 -0.363125
v 0.010551 -0.365511 -0.363125
v 0.196152 -0.339305 -0.363125
vn 0.0000 0.0000 1.0000
vn 0.0000 0.0000 -1.0000
vn -0.8234 0.5675 0.0000
vn -0.2282 0.9736 0.0000
vn -0.7071 -0.7071 -0.0000
vn -0.7071 0.7071 0.0000
vn 0.7071 0.7071 0.0000
vn 0.8478 -0.5304 -0.0000
vn 0.2922 -0.9564 -0.0000
vn -0.1084 -0.9941 -0.0000
vn -0.7154 -0.6987 -0.0000
vn -1.0000 -0.0003 0.0000
vn -0.7156 0.6985 0.0000
vn -0.1140 0.9935 0.0000
vn 0.2673 0.9636 0.0000
vn 0.8368 0.5475 0.0000
vn 0.4924 -0.8704 -0.0000
vn -0.3524 -0.9359 -0.0000
vn 0.0883 -0.9961 -0.0000
vn 0.7291 -0.6844 -0.0000
vn 1.0000 0.0003 -0.0000
vn 0.7289 0.6847 0.0000
vn 0.1293 0.9916 0.0000
usemtl None
s off
f 1//1 2//1 3//1
f 1//1 4//1 2//1
f 4//1 5//1 2//1
f 4//1 6//1 5//1
f 6//1 7//1 5//1
f 1//1 8//1 4//1
f 9//1 8//1 1//1
f 9//1 10//1 8//1
f 11//1 12//1 13//1
f 11//1 14//1 12//1
f 14//1 15//1 12//1
f 16//1 10//1 9//1
f 16//1 17//1 10//1
f 18//1 15//1 14//1
f 16//1 19//1 17//1
f 20//1 15//1 18//1
f 21//1 19//1 16//1
f 19//1 15//1 20//1
f 19//1 22//1 15//1
f 21//1 22//1 19//1
f 67//2 68//2 69//2
f 70//2 68//2 67//2
f 71//2 70//2 67//2
f 72//2 70//2 71//2
f 73//2 72//2 71//2
f 74//2 68//2 70//2
f 74//2 75//2 68//2
f 76//2 75//2 74//2
f 77//2 78//2 79//2
f 80//2 78//2 77//2
f 81//2 80//2 77//2
f 76//2 82//2 75//2
f 83//2 82//2 76//2
f 81//2 84//2 80//2
f 85//2 82//2 83//2
f 81//2 86//2 84//2
f 85//2 87//2 82//2
f 81//2 85//2 86//2
f 88//2 85//2 81//2
f 88//2 87//2 85//2
s 1
f 24//3 26//4 23//4
f 27//5 25//3 24//3
f 29//5 28//5 27//5
f 31//6 30//5 29//5
f 33//7 32//6 31//6
f 35//8 34//7 33//7
f 37//9 36//8 35//8
f 39//10 38//9 37//9
f 41//11 40//10 39//10
f 43//12 42//11 41//11
f 45//13 44//12 43//12
f 47//14 46//13 45//13
f 49//15 48//14 47//14
f 51//16 50//15 49//15
f 53//17 52//16 51//16
f 55//18 54//17 53//17
f 57//19 56//18 55//18
f 59//20 58//19 57//19
f 61//21 60//20 59//20
f 63//22 62//21 61//21
f 65//23 64//22 63//22
f 23//4 66//23 65//23
f 24//3 25//3 26//4
f 27//5 28//5 25//3
f 29//5 30//5 28//5
f 31//6 32//6 30//5
f 33//7 34//7 32//6
f 35//8 36//8 34//7
f 37//9 38//9 36//8
f 39//10 40//10 38//9
f 41//11 42//11 40//10
f 43//12 44//12 42//11
f 45//13 46//13 44//12
f 47//14 48//14 46//13
f 49//15 50//15 48//14
f 51//16 52//16 50//15
f 53//17 54//17 52//16
f 55//18 56//18 54//17
f 57//19 58//19 56//18
f 59//20 60//20 58//19
f 61//21 62//21 60//20
f 63//22 64//22 62//21
f 65//23 66//23 64//22
f 23//4 26//4 66//23
