# Blender v2.79 (sub 0) OBJ File: 'Font All Characters Individual Meshes COMPLETE WITH CENTERS AND NAMES.blend'
# www.blender.org
mtllib Capital B.mtl
o Capital_B_Text.269
v -0.302658 -0.347630 0.394875
v -0.178101 0.470613 0.394875
v -0.302658 0.572970 0.394875
v 0.015511 0.572970 0.394875
v 0.235023 0.513776 0.394875
v 0.006264 0.470613 0.394875
v 0.142227 0.436083 0.394875
v 0.312103 0.345441 0.394875
v -0.178101 0.193138 0.394875
v 0.186928 0.331876 0.394875
v 0.272636 0.211020 0.394875
v 0.142227 0.227360 0.394875
v 0.006264 0.193138 0.394875
v 0.156715 0.148742 0.394875
v -0.178101 0.092014 0.394875
v 0.021675 0.092014 0.394875
v 0.299461 0.066425 0.394875
v -0.178101 -0.245272 0.394875
v 0.170586 0.051009 0.394875
v 0.350327 -0.089886 0.394875
v 0.218994 -0.076321 0.394875
v 0.170586 -0.203651 0.394875
v 0.266472 -0.280419 0.394875
v 0.021675 -0.245272 0.394875
v 0.027840 -0.347630 0.394875
v -0.302658 -0.347630 0.394875
v -0.302658 0.572970 0.394875
v -0.302658 0.572970 -0.363125
v -0.302658 -0.347629 -0.363125
v 0.015511 0.572970 0.394875
v 0.015511 0.572970 -0.363125
v 0.235023 0.513776 0.394875
v 0.235023 0.513776 -0.363125
v 0.312103 0.345441 0.394875
v 0.312103 0.345441 -0.363125
v 0.272636 0.211020 0.394875
v 0.272636 0.211020 -0.363125
v 0.156715 0.148742 0.394875
v 0.156715 0.148742 -0.363125
v 0.299461 0.066425 0.394875
v 0.299461 0.066425 -0.363125
v 0.350327 -0.089886 0.394875
v 0.350327 -0.089886 -0.363125
v 0.266472 -0.280419 0.394875
v 0.266472 -0.280419 -0.363125
v 0.027840 -0.347630 0.394875
v 0.027840 -0.347629 -0.363125
v 0.006264 0.470613 0.394875
v -0.178101 0.470613 0.394875
v -0.178101 0.470613 -0.363125
v 0.006264 0.470613 -0.363125
v -0.178101 0.193138 0.394875
v -0.178101 0.193138 -0.363125
v 0.006264 0.193138 0.394875
v 0.006264 0.193138 -0.363125
v 0.142227 0.227360 0.394875
v 0.142227 0.227360 -0.363125
v 0.186928 0.331876 0.394875
v 0.186928 0.331876 -0.363125
v 0.142227 0.436083 0.394875
v 0.142227 0.436083 -0.363125
v 0.021675 0.092014 0.394875
v -0.178101 0.092014 0.394875
v -0.178101 0.092014 -0.363125
v 0.021675 0.092014 -0.363125
v -0.178101 -0.245272 0.394875
v -0.178101 -0.245272 -0.363125
v 0.021675 -0.245272 0.394875
v 0.021675 -0.245272 -0.363125
v 0.170586 -0.203651 0.394875
v 0.170586 -0.203651 -0.363125
v 0.218994 -0.076321 0.394875
v 0.218994 -0.076321 -0.363125
v 0.170586 0.051009 0.394875
v 0.170586 0.051009 -0.363125
v -0.178101 0.470613 -0.363125
v -0.302658 -0.347629 -0.363125
v -0.302658 0.572970 -0.363125
v 0.015511 0.572970 -0.363125
v 0.235023 0.513776 -0.363125
v 0.006264 0.470613 -0.363125
v 0.142227 0.436083 -0.363125
v 0.312103 0.345441 -0.363125
v -0.178101 0.193138 -0.363125
v 0.186928 0.331876 -0.363125
v 0.272636 0.211020 -0.363125
v 0.142227 0.227360 -0.363125
v 0.006264 0.193138 -0.363125
v 0.156715 0.148742 -0.363125
v -0.178101 0.092014 -0.363125
v 0.021675 0.092014 -0.363125
v 0.299461 0.066425 -0.363125
v -0.178101 -0.245272 -0.363125
v 0.170586 0.051009 -0.363125
v 0.350327 -0.089886 -0.363125
v 0.218994 -0.076321 -0.363125
v 0.170586 -0.203651 -0.363125
v 0.266472 -0.280419 -0.363125
v 0.021675 -0.245272 -0.363125
v 0.027840 -0.347629 -0.363125
vn 0.0000 -0.0000 1.0000
vn 0.0000 0.0000 -1.0000
vn -0.7071 0.7071 0.0000
vn -0.7071 -0.7071 -0.0000
vn 0.1313 0.9913 0.0000
vn 0.6460 0.7633 0.0000
vn 0.9974 0.0718 0.0000
vn 0.7765 -0.6301 -0.0000
vn 0.9999 -0.0150 -0.0000
vn 0.7768 0.6297 0.0000
vn 0.9988 -0.0500 -0.0000
vn 0.6559 -0.7549 -0.0000
vn 0.1368 -0.9906 -0.0000
vn 0.7071 -0.7071 -0.0000
vn -0.1240 -0.9923 -0.0000
vn 0.7071 0.7071 0.0000
vn -0.1230 0.9924 0.0000
vn -0.6493 0.7606 0.0000
vn -1.0000 -0.0005 0.0000
vn -0.6497 -0.7602 -0.0000
vn -0.1339 -0.9910 -0.0000
vn -0.1359 0.9907 0.0000
vn -0.6743 0.7385 0.0000
vn -1.0000 -0.0000 -0.0000
vn -0.6729 -0.7397 -0.0000
usemtl None
s off
f 1//1 2//1 3//1
f 2//1 4//1 3//1
f 2//1 5//1 4//1
f 2//1 6//1 5//1
f 6//1 7//1 5//1
f 7//1 8//1 5//1
f 1//1 9//1 2//1
f 10//1 8//1 7//1
f 10//1 11//1 8//1
f 12//1 11//1 10//1
f 13//1 11//1 12//1
f 13//1 14//1 11//1
f 1//1 15//1 9//1
f 15//1 13//1 9//1
f 15//1 14//1 13//1
f 15//1 16//1 14//1
f 16//1 17//1 14//1
f 1//1 18//1 15//1
f 19//1 17//1 16//1
f 19//1 20//1 17//1
f 21//1 20//1 19//1
f 22//1 20//1 21//1
f 22//1 23//1 20//1
f 24//1 23//1 22//1
f 1//1 24//1 18//1
f 1//1 23//1 24//1
f 1//1 25//1 23//1
f 76//2 77//2 78//2
f 79//2 76//2 78//2
f 80//2 76//2 79//2
f 81//2 76//2 80//2
f 82//2 81//2 80//2
f 83//2 82//2 80//2
f 84//2 77//2 76//2
f 83//2 85//2 82//2
f 86//2 85//2 83//2
f 86//2 87//2 85//2
f 86//2 88//2 87//2
f 89//2 88//2 86//2
f 90//2 77//2 84//2
f 88//2 90//2 84//2
f 89//2 90//2 88//2
f 91//2 90//2 89//2
f 92//2 91//2 89//2
f 93//2 77//2 90//2
f 92//2 94//2 91//2
f 95//2 94//2 92//2
f 95//2 96//2 94//2
f 95//2 97//2 96//2
f 98//2 97//2 95//2
f 98//2 99//2 97//2
f 99//2 77//2 93//2
f 98//2 77//2 99//2
f 100//2 77//2 98//2
s 1
f 27//3 29//4 26//4
f 30//5 28//3 27//3
f 32//6 31//5 30//5
f 34//7 33//6 32//6
f 36//8 35//7 34//7
f 38//9 37//8 36//8
f 40//10 39//9 38//9
f 42//11 41//10 40//10
f 44//12 43//11 42//11
f 46//13 45//12 44//12
f 26//4 47//13 46//13
f 49//14 51//15 48//15
f 52//16 50//14 49//14
f 54//17 53//16 52//16
f 56//18 55//17 54//17
f 58//19 57//18 56//18
f 60//20 59//19 58//19
f 48//15 61//20 60//20
f 63//14 65//21 62//21
f 66//16 64//14 63//14
f 68//22 67//16 66//16
f 70//23 69//22 68//22
f 72//24 71//23 70//23
f 74//25 73//24 72//24
f 62//21 75//25 74//25
f 27//3 28//3 29//4
f 30//5 31//5 28//3
f 32//6 33//6 31//5
f 34//7 35//7 33//6
f 36//8 37//8 35//7
f 38//9 39//9 37//8
f 40//10 41//10 39//9
f 42//11 43//11 41//10
f 44//12 45//12 43//11
f 46//13 47//13 45//12
f 26//4 29//4 47//13
f 49//14 50//14 51//15
f 52//16 53//16 50//14
f 54//17 55//17 53//16
f 56//18 57//18 55//17
f 58//19 59//19 57//18
f 60//20 61//20 59//19
f 48//15 51//15 61//20
f 63//14 64//14 65//21
f 66//16 67//16 64//14
f 68//22 69//22 67//16
f 70//23 71//23 69//22
f 72//24 73//24 71//23
f 74//25 75//25 73//24
f 62//21 65//21 75//25
