# Blender v2.79 (sub 0) OBJ File: 'Font All Characters Individual Meshes COMPLETE WITH CENTERS AND NAMES.blend'
# www.blender.org
mtllib Capital M.mtl
o Capital_M_Text.690
v -0.417641 -0.347630 0.394875
v -0.417641 0.572970 0.394875
v -0.417641 0.572970 -0.363125
v -0.417641 -0.347629 -0.363125
v -0.232040 0.572970 0.394875
v -0.232040 0.572970 -0.363125
v 0.002884 -0.053506 0.394875
v 0.002884 -0.053506 -0.363125
v 0.239052 0.572970 0.394875
v 0.239052 0.572970 -0.363125
v 0.424652 0.572970 0.394875
v 0.424652 0.572970 -0.363125
v 0.424652 -0.347630 0.394875
v 0.424652 -0.347629 -0.363125
v 0.303177 -0.347630 0.394875
v 0.303177 -0.347629 -0.363125
v 0.303177 0.460747 0.394875
v 0.303177 0.460747 -0.363125
v 0.065781 -0.170662 0.394875
v 0.065781 -0.170662 -0.363125
v -0.059387 -0.170662 0.394875
v -0.059387 -0.170662 -0.363125
v -0.296783 0.460747 0.394875
v -0.296783 0.460747 -0.363125
v -0.296783 -0.347630 0.394875
v -0.296783 -0.347629 -0.363125
v -0.296783 0.460747 -0.363125
v -0.417641 -0.347629 -0.363125
v -0.417641 0.572970 -0.363125
v -0.232040 0.572970 -0.363125
v 0.002884 -0.053506 -0.363125
v 0.303177 0.460747 -0.363125
v 0.239052 0.572970 -0.363125
v 0.424652 0.572970 -0.363125
v 0.424652 -0.347629 -0.363125
v -0.296783 -0.347629 -0.363125
v -0.059387 -0.170662 -0.363125
v 0.065781 -0.170662 -0.363125
v 0.303177 -0.347629 -0.363125
v -0.417641 -0.347630 0.394875
v -0.296783 0.460747 0.394875
v -0.417641 0.572970 0.394875
v -0.232040 0.572970 0.394875
v 0.002884 -0.053506 0.394875
v 0.303177 0.460747 0.394875
v 0.239052 0.572970 0.394875
v 0.424652 0.572970 0.394875
v 0.424652 -0.347630 0.394875
v -0.296783 -0.347630 0.394875
v -0.059387 -0.170662 0.394875
v 0.065781 -0.170662 0.394875
v 0.303177 -0.347630 0.394875
vn 0.0000 0.0000 -1.0000
vn -0.0000 -0.0000 1.0000
vn -0.7071 0.7071 0.0000
vn -0.7071 -0.7071 -0.0000
vn 0.5696 0.8219 0.0000
vn 0.0009 1.0000 0.0000
vn -0.5689 0.8224 0.0000
vn 0.7071 0.7071 0.0000
vn 0.7071 -0.7071 -0.0000
vn -0.1788 -0.9839 -0.0000
vn 0.5692 -0.8222 -0.0000
vn -0.5692 -0.8222 -0.0000
vn 0.1788 -0.9839 -0.0000
usemtl None
s off
f 27//1 28//1 29//1
f 30//1 27//1 29//1
f 31//1 27//1 30//1
f 32//1 31//1 33//1
f 34//1 32//1 33//1
f 35//1 32//1 34//1
f 36//1 28//1 27//1
f 31//1 37//1 27//1
f 38//1 31//1 32//1
f 35//1 39//1 32//1
f 38//1 37//1 31//1
f 40//2 41//2 42//2
f 41//2 43//2 42//2
f 41//2 44//2 43//2
f 44//2 45//2 46//2
f 45//2 47//2 46//2
f 45//2 48//2 47//2
f 40//2 49//2 41//2
f 50//2 44//2 41//2
f 44//2 51//2 45//2
f 52//2 48//2 45//2
f 50//2 51//2 44//2
s 1
f 2//3 4//4 1//4
f 5//5 3//3 2//3
f 7//6 6//5 5//5
f 9//7 8//6 7//6
f 11//8 10//7 9//7
f 11//8 14//9 12//8
f 15//4 14//9 13//9
f 17//10 16//4 15//4
f 19//11 18//10 17//10
f 21//12 20//11 19//11
f 23//13 22//12 21//12
f 23//13 26//9 24//13
f 1//4 26//9 25//9
f 2//3 3//3 4//4
f 5//5 6//5 3//3
f 7//6 8//6 6//5
f 9//7 10//7 8//6
f 11//8 12//8 10//7
f 11//8 13//9 14//9
f 15//4 16//4 14//9
f 17//10 18//10 16//4
f 19//11 20//11 18//10
f 21//12 22//12 20//11
f 23//13 24//13 22//12
f 23//13 25//9 26//9
f 1//4 4//4 26//9
