# Blender v2.79 (sub 0) OBJ File: 'Font All Characters Individual Meshes COMPLETE WITH CENTERS AND NAMES.blend'
# www.blender.org
mtllib Capital Y.mtl
o Capital_Y_Text.706
v -0.066502 0.090781 0.394875
v -0.392071 0.572970 0.394875
v -0.392071 0.572970 -0.363125
v -0.066502 0.090781 -0.363125
v -0.258270 0.572970 0.394875
v -0.258270 0.572970 -0.363125
v -0.002991 0.194371 0.394875
v -0.002991 0.194371 -0.363125
v 0.250435 0.572970 0.394875
v 0.250435 0.572970 -0.363125
v 0.384239 0.572970 0.394875
v 0.384239 0.572970 -0.363125
v 0.058674 0.090781 0.394875
v 0.058674 0.090781 -0.363125
v 0.058674 -0.347630 0.394875
v 0.058674 -0.347629 -0.363125
v -0.066502 -0.347630 0.394875
v -0.066502 -0.347629 -0.363125
v -0.258270 0.572970 -0.363125
v -0.066502 0.090781 -0.363125
v -0.392071 0.572970 -0.363125
v -0.002991 0.194371 -0.363125
v 0.384239 0.572970 -0.363125
v 0.250435 0.572970 -0.363125
v 0.058674 0.090781 -0.363125
v -0.066502 -0.347629 -0.363125
v 0.058674 -0.347629 -0.363125
v -0.066502 0.090781 0.394875
v -0.258270 0.572970 0.394875
v -0.392071 0.572970 0.394875
v -0.002991 0.194371 0.394875
v 0.384239 0.572970 0.394875
v 0.250435 0.572970 0.394875
v 0.058674 0.090781 0.394875
v -0.066502 -0.347630 0.394875
v 0.058674 -0.347630 0.394875
vn 0.0000 0.0000 -1.0000
vn 0.0000 -0.0000 1.0000
vn -0.8831 0.4693 0.0000
vn -0.9562 -0.2926 -0.0000
vn 0.4695 0.8829 0.0000
vn -0.0017 1.0000 0.0000
vn -0.4710 0.8821 0.0000
vn 0.8831 0.4693 0.0000
vn 0.9562 -0.2926 -0.0000
vn 0.7071 -0.7071 -0.0000
vn -0.7071 -0.7071 -0.0000
usemtl None
s off
f 19//1 20//1 21//1
f 22//1 20//1 19//1
f 23//1 22//1 24//1
f 25//1 22//1 23//1
f 25//1 20//1 22//1
f 25//1 26//1 20//1
f 27//1 26//1 25//1
f 28//2 29//2 30//2
f 28//2 31//2 29//2
f 31//2 32//2 33//2
f 31//2 34//2 32//2
f 28//2 34//2 31//2
f 35//2 34//2 28//2
f 35//2 36//2 34//2
s 1
f 2//3 4//4 1//4
f 5//5 3//3 2//3
f 7//6 6//5 5//5
f 9//7 8//6 7//6
f 11//8 10//7 9//7
f 13//9 12//8 11//8
f 13//9 16//10 14//9
f 17//11 16//10 15//10
f 1//4 18//11 17//11
f 2//3 3//3 4//4
f 5//5 6//5 3//3
f 7//6 8//6 6//5
f 9//7 10//7 8//6
f 11//8 12//8 10//7
f 13//9 14//9 12//8
f 13//9 15//10 16//10
f 17//11 18//11 16//10
f 1//4 4//4 18//11
