# Blender v2.79 (sub 0) OBJ File: 'Font All Characters Individual Meshes COMPLETE WITH CENTERS AND NAMES.blend'
# www.blender.org
mtllib Capital K.mtl
o Capital_K_Text.260
v -0.327118 -0.347630 0.394875
v -0.202560 0.572970 0.394875
v -0.327118 0.572970 0.394875
v -0.202560 0.183889 0.394875
v 0.370880 0.572970 0.394875
v 0.210564 0.572970 0.394875
v -0.086021 0.143809 0.394875
v -0.202560 0.095714 0.394875
v 0.403564 -0.347630 0.394875
v -0.202560 -0.347630 0.394875
v 0.239548 -0.347630 0.394875
v -0.327118 -0.347630 0.394875
v -0.327118 0.572970 0.394875
v -0.327118 0.572970 -0.363125
v -0.327118 -0.347629 -0.363125
v -0.202560 0.572970 0.394875
v -0.202560 0.572970 -0.363125
v -0.202560 0.183889 0.394875
v -0.202560 0.183889 -0.363125
v 0.210564 0.572970 0.394875
v 0.210564 0.572970 -0.363125
v 0.370880 0.572970 0.394875
v 0.370880 0.572970 -0.363125
v -0.086021 0.143809 0.394875
v -0.086021 0.143809 -0.363125
v 0.403564 -0.347630 0.394875
v 0.403564 -0.347629 -0.363125
v 0.239548 -0.347630 0.394875
v 0.239548 -0.347629 -0.363125
v -0.202560 0.095714 0.394875
v -0.202560 0.095714 -0.363125
v -0.202560 -0.347630 0.394875
v -0.202560 -0.347629 -0.363125
v -0.202560 0.572970 -0.363125
v -0.327118 -0.347629 -0.363125
v -0.327118 0.572970 -0.363125
v -0.202560 0.183889 -0.363125
v 0.370880 0.572970 -0.363125
v 0.210564 0.572970 -0.363125
v -0.086021 0.143809 -0.363125
v -0.202560 0.095714 -0.363125
v 0.403564 -0.347629 -0.363125
v -0.202560 -0.347629 -0.363125
v 0.239548 -0.347629 -0.363125
vn 0.0000 -0.0000 1.0000
vn 0.0000 0.0000 -1.0000
vn -0.7071 0.7071 0.0000
vn -0.7071 -0.7071 -0.0000
vn 0.7071 0.7071 0.0000
vn 0.3965 0.9180 0.0000
vn -0.3688 0.9295 0.0000
vn 0.9298 0.3682 0.0000
vn 0.9999 -0.0166 0.0000
vn 0.9235 -0.3836 -0.0000
vn -0.3833 -0.9236 -0.0000
vn 0.3820 -0.9241 -0.0000
vn 0.7071 -0.7071 -0.0000
usemtl None
s off
f 1//1 2//1 3//1
f 1//1 4//1 2//1
f 4//1 5//1 6//1
f 4//1 7//1 5//1
f 1//1 8//1 4//1
f 8//1 7//1 4//1
f 8//1 9//1 7//1
f 1//1 10//1 8//1
f 11//1 9//1 8//1
f 34//2 35//2 36//2
f 37//2 35//2 34//2
f 38//2 37//2 39//2
f 40//2 37//2 38//2
f 41//2 35//2 37//2
f 40//2 41//2 37//2
f 42//2 41//2 40//2
f 43//2 35//2 41//2
f 42//2 44//2 41//2
s 1
f 13//3 15//4 12//4
f 16//5 14//3 13//3
f 18//6 17//5 16//5
f 20//7 19//6 18//6
f 22//8 21//7 20//7
f 24//9 23//8 22//8
f 24//9 27//10 25//9
f 28//11 27//10 26//10
f 30//12 29//11 28//11
f 30//12 33//13 31//12
f 12//4 33//13 32//13
f 13//3 14//3 15//4
f 16//5 17//5 14//3
f 18//6 19//6 17//5
f 20//7 21//7 19//6
f 22//8 23//8 21//7
f 24//9 25//9 23//8
f 24//9 26//10 27//10
f 28//11 29//11 27//10
f 30//12 31//12 29//11
f 30//12 32//13 33//13
f 12//4 15//4 33//13
