# Blender v2.79 (sub 0) OBJ File: 'Font All Characters Individual Meshes COMPLETE WITH CENTERS AND NAMES.blend'
# www.blender.org
mtllib Capital P.mtl
o Capital_P_Text.694
v 0.016960 0.470613 0.394875
v -0.139656 0.470613 0.394875
v -0.139656 0.470613 -0.363125
v 0.016960 0.470613 -0.363125
v -0.139656 0.124694 0.394875
v -0.139656 0.124694 -0.363125
v 0.016960 0.124694 0.394875
v 0.016960 0.124694 -0.363125
v 0.151382 0.169707 0.394875
v 0.151382 0.169707 -0.363125
v 0.198860 0.297962 0.394875
v 0.198860 0.297962 -0.363125
v 0.151382 0.425600 0.394875
v 0.151382 0.425600 -0.363125
v -0.264214 -0.347630 0.394875
v -0.264214 0.572970 0.394875
v -0.264214 0.572970 -0.363125
v -0.264214 -0.347629 -0.363125
v 0.016960 0.572970 0.394875
v 0.016960 0.572970 -0.363125
v 0.250961 0.502985 0.394875
v 0.250961 0.502985 -0.363125
v 0.330200 0.297962 0.394875
v 0.330200 0.297962 -0.363125
v 0.250961 0.092014 0.394875
v 0.250961 0.092014 -0.363125
v 0.016960 0.022337 0.394875
v 0.016960 0.022337 -0.363125
v -0.139656 0.022337 0.394875
v -0.139656 0.022337 -0.363125
v -0.139656 -0.347630 0.394875
v -0.139656 -0.347629 -0.363125
v -0.139656 0.470613 -0.363125
v -0.264214 -0.347629 -0.363125
v -0.264214 0.572970 -0.363125
v 0.016960 0.572970 -0.363125
v 0.250961 0.502985 -0.363125
v 0.016960 0.470613 -0.363125
v 0.151382 0.425600 -0.363125
v 0.330200 0.297962 -0.363125
v -0.139656 0.124694 -0.363125
v 0.198860 0.297962 -0.363125
v 0.151382 0.169707 -0.363125
v 0.250961 0.092014 -0.363125
v 0.016960 0.124694 -0.363125
v -0.139656 0.022337 -0.363125
v 0.016960 0.022337 -0.363125
v -0.139656 -0.347629 -0.363125
v -0.264214 -0.347630 0.394875
v -0.139656 0.470613 0.394875
v -0.264214 0.572970 0.394875
v 0.016960 0.572970 0.394875
v 0.250961 0.502985 0.394875
v 0.016960 0.470613 0.394875
v 0.151382 0.425600 0.394875
v 0.330200 0.297962 0.394875
v -0.139656 0.124694 0.394875
v 0.198860 0.297962 0.394875
v 0.151382 0.169707 0.394875
v 0.250961 0.092014 0.394875
v 0.016960 0.124694 0.394875
v -0.139656 0.022337 0.394875
v 0.016960 0.022337 0.394875
v -0.139656 -0.347630 0.394875
vn 0.0000 0.0000 -1.0000
vn -0.0000 -0.0000 1.0000
vn 0.7071 -0.7071 -0.0000
vn -0.1609 -0.9870 -0.0000
vn 0.7071 0.7071 0.0000
vn -0.1609 0.9870 0.0000
vn -0.6959 0.7181 0.0000
vn -1.0000 -0.0008 -0.0000
vn -0.6953 -0.7187 -0.0000
vn -0.7071 0.7071 0.0000
vn -0.7071 -0.7071 -0.0000
vn 0.1448 0.9895 0.0000
vn 0.6789 0.7342 0.0000
vn 1.0000 0.0008 0.0000
vn 0.6790 -0.7341 -0.0000
vn 0.1442 -0.9895 -0.0000
usemtl None
s off
f 33//1 34//1 35//1
f 36//1 33//1 35//1
f 37//1 33//1 36//1
f 38//1 33//1 37//1
f 39//1 38//1 37//1
f 40//1 39//1 37//1
f 41//1 34//1 33//1
f 40//1 42//1 39//1
f 40//1 43//1 42//1
f 44//1 43//1 40//1
f 44//1 45//1 43//1
f 46//1 34//1 41//1
f 45//1 46//1 41//1
f 44//1 46//1 45//1
f 47//1 46//1 44//1
f 48//1 34//1 46//1
f 49//2 50//2 51//2
f 50//2 52//2 51//2
f 50//2 53//2 52//2
f 50//2 54//2 53//2
f 54//2 55//2 53//2
f 55//2 56//2 53//2
f 49//2 57//2 50//2
f 58//2 56//2 55//2
f 59//2 56//2 58//2
f 59//2 60//2 56//2
f 61//2 60//2 59//2
f 49//2 62//2 57//2
f 62//2 61//2 57//2
f 62//2 60//2 61//2
f 62//2 63//2 60//2
f 49//2 64//2 62//2
s 1
f 2//3 4//4 1//4
f 5//5 3//3 2//3
f 7//6 6//5 5//5
f 9//7 8//6 7//6
f 11//8 10//7 9//7
f 13//9 12//8 11//8
f 1//4 14//9 13//9
f 16//10 18//11 15//11
f 19//12 17//10 16//10
f 21//13 20//12 19//12
f 23//14 22//13 21//13
f 25//15 24//14 23//14
f 27//16 26//15 25//15
f 29//3 28//16 27//16
f 29//3 32//3 30//3
f 15//11 32//3 31//3
f 2//3 3//3 4//4
f 5//5 6//5 3//3
f 7//6 8//6 6//5
f 9//7 10//7 8//6
f 11//8 12//8 10//7
f 13//9 14//9 12//8
f 1//4 4//4 14//9
f 16//10 17//10 18//11
f 19//12 20//12 17//10
f 21//13 22//13 20//12
f 23//14 24//14 22//13
f 25//15 26//15 24//14
f 27//16 28//16 26//15
f 29//3 30//3 28//16
f 29//3 31//3 32//3
f 15//11 18//11 32//3
