# Blender v2.79 (sub 0) OBJ File: 'Font All Characters Individual Meshes COMPLETE WITH CENTERS AND NAMES.blend'
# www.blender.org
mtllib Capital Z.mtl
o Capital_Z_Text.245
v -0.389900 0.468146 0.394875
v 0.333385 0.572970 0.394875
v -0.389900 0.572970 0.394875
v 0.333385 0.478012 0.394875
v 0.177998 0.468146 0.394875
v -0.248695 -0.242806 0.394875
v -0.404079 -0.252671 0.394875
v 0.347569 -0.242806 0.394875
v 0.347569 -0.347630 0.394875
v -0.404079 -0.347630 0.394875
v -0.389900 0.468146 0.394875
v -0.389900 0.572970 0.394875
v -0.389900 0.572970 -0.363125
v -0.389900 0.468146 -0.363125
v 0.333385 0.572970 0.394875
v 0.333385 0.572970 -0.363125
v 0.333385 0.478012 0.394875
v 0.333385 0.478012 -0.363125
v -0.248695 -0.242806 0.394875
v -0.248695 -0.242806 -0.363125
v 0.347569 -0.242806 0.394875
v 0.347569 -0.242806 -0.363125
v 0.347569 -0.347630 0.394875
v 0.347569 -0.347629 -0.363125
v -0.404079 -0.347630 0.394875
v -0.404079 -0.347629 -0.363125
v -0.404079 -0.252671 0.394875
v -0.404079 -0.252671 -0.363125
v 0.177998 0.468146 0.394875
v 0.177998 0.468146 -0.363125
v 0.333385 0.572970 -0.363125
v -0.389900 0.468146 -0.363125
v -0.389900 0.572970 -0.363125
v 0.333385 0.478012 -0.363125
v 0.177998 0.468146 -0.363125
v -0.248695 -0.242806 -0.363125
v -0.404079 -0.252671 -0.363125
v 0.347569 -0.242806 -0.363125
v 0.347569 -0.347629 -0.363125
v -0.404079 -0.347629 -0.363125
vn 0.0000 0.0000 1.0000
vn 0.0000 0.0000 -1.0000
vn -0.7071 0.7071 0.0000
vn -0.7071 -0.7071 -0.0000
vn 0.7071 0.7071 0.0000
vn 0.9429 -0.3332 -0.0000
vn 0.9023 0.4311 0.0000
vn 0.7071 -0.7071 -0.0000
vn -0.9429 0.3332 0.0000
vn -0.9023 -0.4311 -0.0000
usemtl None
s off
f 1//1 2//1 3//1
f 1//1 4//1 2//1
f 1//1 5//1 4//1
f 5//1 6//1 4//1
f 7//1 6//1 5//1
f 7//1 8//1 6//1
f 7//1 9//1 8//1
f 10//1 9//1 7//1
f 31//2 32//2 33//2
f 34//2 32//2 31//2
f 35//2 32//2 34//2
f 36//2 35//2 34//2
f 36//2 37//2 35//2
f 38//2 37//2 36//2
f 39//2 37//2 38//2
f 39//2 40//2 37//2
s 1
f 12//3 14//4 11//4
f 15//5 13//3 12//3
f 17//6 16//5 15//5
f 19//7 18//6 17//6
f 21//5 20//7 19//7
f 23//8 22//5 21//5
f 25//4 24//8 23//8
f 27//9 26//4 25//4
f 29//10 28//9 27//9
f 11//4 30//10 29//10
f 12//3 13//3 14//4
f 15//5 16//5 13//3
f 17//6 18//6 16//5
f 19//7 20//7 18//6
f 21//5 22//5 20//7
f 23//8 24//8 22//5
f 25//4 26//4 24//8
f 27//9 28//9 26//4
f 29//10 30//10 28//9
f 11//4 14//4 30//10
