# Blender v2.79 (sub 0) OBJ File: 'Font All Characters Individual Meshes COMPLETE WITH CENTERS AND NAMES.blend'
# www.blender.org
mtllib Capital S.mtl
o Capital_S_Text.252
v -0.212715 0.519325 0.394875
v 0.156326 0.577903 0.394875
v 0.024368 0.589619 0.394875
v 0.293831 0.542756 0.394875
v 0.038559 0.488495 0.394875
v 0.160027 0.471846 0.394875
v 0.293831 0.421284 0.394875
v -0.298729 0.326943 0.394875
v -0.118370 0.449032 0.394875
v -0.173561 0.336808 0.394875
v -0.136871 0.244625 0.394875
v -0.236458 0.162308 0.394875
v 0.002174 0.194371 0.394875
v 0.077400 0.178956 0.394875
v 0.283043 0.085540 0.394875
v -0.034828 0.075365 0.394875
v 0.041016 0.060567 0.394875
v 0.177597 0.003222 0.394875
v 0.349327 -0.093586 0.394875
v 0.219223 -0.102835 0.394875
v 0.259605 -0.296451 0.394875
v 0.161263 -0.222458 0.394875
v -0.295036 -0.306933 0.394875
v -0.146431 -0.242806 0.394875
v -0.295036 -0.178678 0.394875
v -0.003380 -0.264387 0.394875
v -0.003380 -0.365511 0.394875
v -0.142426 -0.350713 0.394875
v 0.156326 0.577903 0.394875
v 0.293831 0.542756 0.394875
v 0.293831 0.542756 -0.363125
v 0.156326 0.577903 -0.363125
v 0.293831 0.421284 0.394875
v 0.293831 0.421284 -0.363125
v 0.160027 0.471846 0.394875
v 0.160027 0.471846 -0.363125
v 0.038559 0.488495 0.394875
v 0.038559 0.488495 -0.363125
v -0.118370 0.449032 0.394875
v -0.118370 0.449032 -0.363125
v -0.173561 0.336808 0.394875
v -0.173561 0.336808 -0.363125
v -0.136871 0.244625 0.394875
v -0.136871 0.244625 -0.363125
v 0.002174 0.194371 0.394875
v 0.002174 0.194371 -0.363125
v 0.077400 0.178956 0.394875
v 0.077400 0.178956 -0.363125
v 0.283043 0.085540 0.394875
v 0.283043 0.085540 -0.363125
v 0.349327 -0.093586 0.394875
v 0.349327 -0.093586 -0.363125
v 0.259605 -0.296451 0.394875
v 0.259605 -0.296451 -0.363125
v -0.003380 -0.365511 0.394875
v -0.003380 -0.365511 -0.363125
v -0.142426 -0.350713 0.394875
v -0.142426 -0.350713 -0.363125
v -0.295036 -0.306933 0.394875
v -0.295036 -0.306933 -0.363125
v -0.295036 -0.178678 0.394875
v -0.295036 -0.178678 -0.363125
v -0.146431 -0.242806 0.394875
v -0.146431 -0.242806 -0.363125
v -0.003380 -0.264387 0.394875
v -0.003380 -0.264387 -0.363125
v 0.161263 -0.222458 0.394875
v 0.161263 -0.222457 -0.363125
v 0.219223 -0.102835 0.394875
v 0.219223 -0.102835 -0.363125
v 0.177597 0.003222 0.394875
v 0.177597 0.003222 -0.363125
v 0.041016 0.060567 0.394875
v 0.041016 0.060567 -0.363125
v -0.034828 0.075365 0.394875
v -0.034828 0.075365 -0.363125
v -0.236458 0.162308 0.394875
v -0.236458 0.162308 -0.363125
v -0.298729 0.326943 0.394875
v -0.298729 0.326943 -0.363125
v -0.212715 0.519325 0.394875
v -0.212715 0.519325 -0.363125
v 0.024368 0.589619 0.394875
v 0.024368 0.589619 -0.363125
v 0.156326 0.577903 -0.363125
v -0.212715 0.519325 -0.363125
v 0.024368 0.589619 -0.363125
v 0.293831 0.542756 -0.363125
v 0.038559 0.488495 -0.363125
v 0.160027 0.471846 -0.363125
v 0.293831 0.421284 -0.363125
v -0.118370 0.449032 -0.363125
v -0.298729 0.326943 -0.363125
v -0.173561 0.336808 -0.363125
v -0.136871 0.244625 -0.363125
v -0.236458 0.162308 -0.363125
v 0.002174 0.194371 -0.363125
v 0.077400 0.178956 -0.363125
v 0.283043 0.085540 -0.363125
v -0.034828 0.075365 -0.363125
v 0.041016 0.060567 -0.363125
v 0.177597 0.003222 -0.363125
v 0.349327 -0.093586 -0.363125
v 0.219223 -0.102835 -0.363125
v 0.259605 -0.296451 -0.363125
v 0.161263 -0.222457 -0.363125
v -0.146431 -0.242806 -0.363125
v -0.295036 -0.306933 -0.363125
v -0.295036 -0.178678 -0.363125
v -0.003380 -0.264387 -0.363125
v -0.003380 -0.365511 -0.363125
v -0.142426 -0.350713 -0.363125
vn 0.0000 0.0000 1.0000
vn -0.0000 0.0000 -1.0000
vn 0.7898 0.6133 0.0000
vn 0.1686 0.9857 0.0000
vn 0.5686 -0.8226 -0.0000
vn -0.2462 -0.9692 -0.0000
vn 0.0550 -0.9985 -0.0000
vn 0.6288 -0.7775 -0.0000
vn 0.9992 -0.0391 0.0000
vn 0.6957 0.7183 0.0000
vn 0.2710 0.9626 0.0000
vn 0.3091 0.9510 0.0000
vn 0.7321 0.6812 0.0000
vn 0.9995 -0.0310 -0.0000
vn 0.6485 -0.7612 -0.0000
vn 0.0753 -0.9972 -0.0000
vn -0.1915 -0.9815 -0.0000
vn -0.7987 -0.6018 -0.0000
vn -0.5494 0.8355 0.0000
vn 0.2750 0.9615 0.0000
vn -0.0498 0.9988 0.0000
vn -0.6323 0.7747 0.0000
vn -0.9993 0.0386 0.0000
vn -0.7154 -0.6988 -0.0000
vn -0.2908 -0.9568 -0.0000
vn -0.2954 -0.9554 -0.0000
vn -0.7230 -0.6908 -0.0000
vn -0.9996 0.0294 0.0000
vn -0.6589 0.7523 0.0000
vn -0.0997 0.9950 0.0000
usemtl None
s off
f 1//1 2//1 3//1
f 1//1 4//1 2//1
f 1//1 5//1 4//1
f 5//1 6//1 4//1
f 6//1 7//1 4//1
f 8//1 9//1 1//1
f 9//1 5//1 1//1
f 8//1 10//1 9//1
f 8//1 11//1 10//1
f 12//1 11//1 8//1
f 12//1 13//1 11//1
f 12//1 14//1 13//1
f 12//1 15//1 14//1
f 16//1 15//1 12//1
f 16//1 17//1 15//1
f 17//1 18//1 15//1
f 18//1 19//1 15//1
f 20//1 19//1 18//1
f 20//1 21//1 19//1
f 22//1 21//1 20//1
f 23//1 24//1 25//1
f 26//1 21//1 22//1
f 23//1 26//1 24//1
f 23//1 21//1 26//1
f 23//1 27//1 21//1
f 28//1 27//1 23//1
f 85//2 86//2 87//2
f 88//2 86//2 85//2
f 89//2 86//2 88//2
f 90//2 89//2 88//2
f 91//2 90//2 88//2
f 92//2 93//2 86//2
f 89//2 92//2 86//2
f 94//2 93//2 92//2
f 95//2 93//2 94//2
f 95//2 96//2 93//2
f 97//2 96//2 95//2
f 98//2 96//2 97//2
f 99//2 96//2 98//2
f 99//2 100//2 96//2
f 101//2 100//2 99//2
f 102//2 101//2 99//2
f 103//2 102//2 99//2
f 103//2 104//2 102//2
f 105//2 104//2 103//2
f 105//2 106//2 104//2
f 107//2 108//2 109//2
f 105//2 110//2 106//2
f 110//2 108//2 107//2
f 105//2 108//2 110//2
f 111//2 108//2 105//2
f 111//2 112//2 108//2
s 1
f 30//3 32//4 29//4
f 33//5 31//3 30//3
f 35//6 34//5 33//5
f 37//7 36//6 35//6
f 39//8 38//7 37//7
f 41//9 40//8 39//8
f 43//10 42//9 41//9
f 45//11 44//10 43//10
f 47//12 46//11 45//11
f 49//13 48//12 47//12
f 51//14 50//13 49//13
f 53//15 52//14 51//14
f 55//16 54//15 53//15
f 57//17 56//16 55//16
f 59//18 58//17 57//17
f 61//19 60//18 59//18
f 63//20 62//19 61//19
f 65//21 64//20 63//20
f 67//22 66//21 65//21
f 69//23 68//22 67//22
f 71//24 70//23 69//23
f 73//25 72//24 71//24
f 75//26 74//25 73//25
f 77//27 76//26 75//26
f 79//28 78//27 77//27
f 81//29 80//28 79//28
f 83//30 82//29 81//29
f 29//4 84//30 83//30
f 30//3 31//3 32//4
f 33//5 34//5 31//3
f 35//6 36//6 34//5
f 37//7 38//7 36//6
f 39//8 40//8 38//7
f 41//9 42//9 40//8
f 43//10 44//10 42//9
f 45//11 46//11 44//10
f 47//12 48//12 46//11
f 49//13 50//13 48//12
f 51//14 52//14 50//13
f 53//15 54//15 52//14
f 55//16 56//16 54//15
f 57//17 58//17 56//16
f 59//18 60//18 58//17
f 61//19 62//19 60//18
f 63//20 64//20 62//19
f 65//21 66//21 64//20
f 67//22 68//22 66//21
f 69//23 70//23 68//22
f 71//24 72//24 70//23
f 73//25 74//25 72//24
f 75//26 76//26 74//25
f 77//27 78//27 76//26
f 79//28 80//28 78//27
f 81//29 82//29 80//28
f 83//30 84//30 82//29
f 29//4 32//4 84//30
