# Blender v2.79 (sub 0) OBJ File: 'Font All Characters Individual Meshes COMPLETE WITH CENTERS AND NAMES.blend'
# www.blender.org
mtllib Capital N.mtl
o Capital_N_Text.257
v -0.370674 -0.347630 0.394875
v -0.249817 0.422517 0.394875
v -0.370674 0.572970 0.394875
v -0.202957 0.572970 0.394875
v 0.205238 -0.197177 0.394875
v 0.326096 0.572970 0.394875
v 0.205238 0.572970 0.394875
v 0.326096 -0.347630 0.394875
v -0.249817 -0.347630 0.394875
v 0.158379 -0.347630 0.394875
v -0.370674 -0.347630 0.394875
v -0.370674 0.572970 0.394875
v -0.370674 0.572970 -0.363125
v -0.370674 -0.347629 -0.363125
v -0.202957 0.572970 0.394875
v -0.202957 0.572970 -0.363125
v 0.205238 -0.197177 0.394875
v 0.205238 -0.197176 -0.363125
v 0.205238 0.572970 0.394875
v 0.205238 0.572970 -0.363125
v 0.326096 0.572970 0.394875
v 0.326096 0.572970 -0.363125
v 0.326096 -0.347630 0.394875
v 0.326096 -0.347629 -0.363125
v 0.158379 -0.347630 0.394875
v 0.158379 -0.347629 -0.363125
v -0.249817 0.422517 0.394875
v -0.249817 0.422517 -0.363125
v -0.249817 -0.347630 0.394875
v -0.249817 -0.347629 -0.363125
v -0.249817 0.422517 -0.363125
v -0.370674 -0.347629 -0.363125
v -0.370674 0.572970 -0.363125
v -0.202957 0.572970 -0.363125
v 0.205238 -0.197176 -0.363125
v 0.326096 0.572970 -0.363125
v 0.205238 0.572970 -0.363125
v 0.326096 -0.347629 -0.363125
v -0.249817 -0.347629 -0.363125
v 0.158379 -0.347629 -0.363125
vn -0.0000 -0.0000 1.0000
vn 0.0000 0.0000 -1.0000
vn -0.7071 0.7071 0.0000
vn -0.7071 -0.7071 -0.0000
vn 0.5156 0.8568 0.0000
vn -0.2413 0.9705 0.0000
vn 0.7071 0.7071 0.0000
vn 0.7071 -0.7071 -0.0000
vn -0.5156 -0.8568 -0.0000
vn 0.2413 -0.9705 -0.0000
usemtl None
s off
f 1//1 2//1 3//1
f 2//1 4//1 3//1
f 2//1 5//1 4//1
f 5//1 6//1 7//1
f 5//1 8//1 6//1
f 1//1 9//1 2//1
f 10//1 5//1 2//1
f 10//1 8//1 5//1
f 31//2 32//2 33//2
f 34//2 31//2 33//2
f 35//2 31//2 34//2
f 36//2 35//2 37//2
f 38//2 35//2 36//2
f 39//2 32//2 31//2
f 35//2 40//2 31//2
f 38//2 40//2 35//2
s 1
f 12//3 14//4 11//4
f 15//5 13//3 12//3
f 15//5 18//6 16//5
f 19//3 18//6 17//6
f 21//7 20//3 19//3
f 21//7 24//8 22//7
f 25//9 24//8 23//8
f 27//10 26//9 25//9
f 27//10 30//8 28//10
f 11//4 30//8 29//8
f 12//3 13//3 14//4
f 15//5 16//5 13//3
f 15//5 17//6 18//6
f 19//3 20//3 18//6
f 21//7 22//7 20//3
f 21//7 23//8 24//8
f 25//9 26//9 24//8
f 27//10 28//10 26//9
f 27//10 29//8 30//8
f 11//4 14//4 30//8
