# Blender v2.79 (sub 0) OBJ File: 'Font All Characters Individual Meshes COMPLETE WITH CENTERS AND NAMES.blend'
# www.blender.org
mtllib Capital C.mtl
o Capital_C_Text.679
v 0.154266 0.567729 0.394875
v 0.291466 0.502060 0.394875
v 0.291466 0.502060 -0.363125
v 0.154266 0.567729 -0.363125
v 0.291466 0.370722 0.394875
v 0.291466 0.370722 -0.363125
v 0.157349 0.458281 0.394875
v 0.157349 0.458281 -0.363125
v 0.005974 0.487262 0.394875
v 0.005974 0.487262 -0.363125
v -0.235741 0.390762 0.394875
v -0.235741 0.390762 -0.363125
v -0.319595 0.111746 0.394875
v -0.319595 0.111746 -0.363125
v -0.235741 -0.166654 0.394875
v -0.235741 -0.166654 -0.363125
v 0.005974 -0.263154 0.394875
v 0.005974 -0.263154 -0.363125
v 0.157349 -0.234173 0.394875
v 0.157349 -0.234173 -0.363125
v 0.291466 -0.146614 0.394875
v 0.291466 -0.146614 -0.363125
v 0.291466 -0.276719 0.394875
v 0.291466 -0.276719 -0.363125
v 0.153030 -0.343313 0.394875
v 0.153030 -0.343313 -0.363125
v -0.001427 -0.365511 0.394875
v -0.001427 -0.365511 -0.363125
v -0.330696 -0.237565 0.394875
v -0.330696 -0.237564 -0.363125
v -0.450935 0.111746 0.394875
v -0.450935 0.111746 -0.363125
v -0.330696 0.461672 0.394875
v -0.330696 0.461672 -0.363125
v -0.001427 0.589619 0.394875
v -0.001427 0.589619 -0.363125
v 0.154266 0.567729 -0.363125
v -0.330696 0.461672 -0.363125
v -0.001427 0.589619 -0.363125
v 0.005974 0.487262 -0.363125
v 0.291466 0.502060 -0.363125
v 0.157349 0.458281 -0.363125
v 0.291466 0.370722 -0.363125
v -0.235741 0.390762 -0.363125
v -0.450935 0.111746 -0.363125
v -0.319595 0.111746 -0.363125
v -0.330696 -0.237564 -0.363125
v -0.235741 -0.166654 -0.363125
v 0.291466 -0.276719 -0.363125
v 0.157349 -0.234173 -0.363125
v 0.291466 -0.146614 -0.363125
v 0.005974 -0.263154 -0.363125
v -0.001427 -0.365511 -0.363125
v 0.153030 -0.343313 -0.363125
v -0.330696 0.461672 0.394875
v 0.154266 0.567729 0.394875
v -0.001427 0.589619 0.394875
v 0.005974 0.487262 0.394875
v 0.291466 0.502060 0.394875
v 0.157349 0.458281 0.394875
v 0.291466 0.370722 0.394875
v -0.235741 0.390762 0.394875
v -0.450935 0.111746 0.394875
v -0.319595 0.111746 0.394875
v -0.330696 -0.237565 0.394875
v -0.235741 -0.166654 0.394875
v 0.157349 -0.234173 0.394875
v 0.291466 -0.276719 0.394875
v 0.291466 -0.146614 0.394875
v 0.005974 -0.263154 0.394875
v -0.001427 -0.365511 0.394875
v 0.153030 -0.343313 0.394875
vn -0.0000 0.0000 -1.0000
vn -0.0000 0.0000 1.0000
vn 0.8461 0.5330 0.0000
vn 0.2889 0.9574 0.0000
vn 0.4761 -0.8794 -0.0000
vn -0.3744 -0.9273 -0.0000
vn 0.0952 -0.9955 -0.0000
vn 0.7375 -0.6754 -0.0000
vn 1.0000 0.0003 -0.0000
vn 0.7373 0.6756 0.0000
vn 0.0952 0.9955 0.0000
vn -0.3744 0.9273 0.0000
vn 0.4761 0.8794 0.0000
vn 0.8466 -0.5322 -0.0000
vn 0.2913 -0.9566 -0.0000
vn -0.1137 -0.9935 -0.0000
vn -0.7208 -0.6931 -0.0000
vn -1.0000 -0.0003 -0.0000
vn -0.7210 0.6930 0.0000
vn -0.1152 0.9933 0.0000
usemtl None
s off
f 37//1 38//1 39//1
f 40//1 38//1 37//1
f 41//1 40//1 37//1
f 42//1 40//1 41//1
f 43//1 42//1 41//1
f 44//1 38//1 40//1
f 44//1 45//1 38//1
f 46//1 45//1 44//1
f 46//1 47//1 45//1
f 48//1 47//1 46//1
f 49//1 50//1 51//1
f 52//1 47//1 48//1
f 49//1 52//1 50//1
f 52//1 53//1 47//1
f 49//1 53//1 52//1
f 54//1 53//1 49//1
f 55//2 56//2 57//2
f 55//2 58//2 56//2
f 58//2 59//2 56//2
f 58//2 60//2 59//2
f 60//2 61//2 59//2
f 55//2 62//2 58//2
f 63//2 62//2 55//2
f 63//2 64//2 62//2
f 65//2 64//2 63//2
f 65//2 66//2 64//2
f 67//2 68//2 69//2
f 65//2 70//2 66//2
f 70//2 68//2 67//2
f 71//2 70//2 65//2
f 71//2 68//2 70//2
f 71//2 72//2 68//2
s 1
f 2//3 4//4 1//4
f 5//5 3//3 2//3
f 7//6 6//5 5//5
f 9//7 8//6 7//6
f 11//8 10//7 9//7
f 13//9 12//8 11//8
f 15//10 14//9 13//9
f 17//11 16//10 15//10
f 19//12 18//11 17//11
f 21//13 20//12 19//12
f 23//14 22//13 21//13
f 25//15 24//14 23//14
f 27//16 26//15 25//15
f 29//17 28//16 27//16
f 31//18 30//17 29//17
f 33//19 32//18 31//18
f 35//20 34//19 33//19
f 1//4 36//20 35//20
f 2//3 3//3 4//4
f 5//5 6//5 3//3
f 7//6 8//6 6//5
f 9//7 10//7 8//6
f 11//8 12//8 10//7
f 13//9 14//9 12//8
f 15//10 16//10 14//9
f 17//11 18//11 16//10
f 19//12 20//12 18//11
f 21//13 22//13 20//12
f 23//14 24//14 22//13
f 25//15 26//15 24//14
f 27//16 28//16 26//15
f 29//17 30//17 28//16
f 31//18 32//18 30//17
f 33//19 34//19 32//18
f 35//20 36//20 34//19
f 1//4 4//4 36//20
