# Blender v2.79 (sub 0) OBJ File: 'Font All Characters Individual Meshes COMPLETE WITH CENTERS AND NAMES.blend'
# www.blender.org
mtllib Carot.mtl
o Carot_Text.711
v -0.057613 0.572970 0.394875
v 0.063244 0.572970 0.394875
v 0.063244 0.572970 -0.363125
v -0.057613 0.572970 -0.363125
v 0.398064 0.229518 0.394875
v 0.398064 0.229518 -0.363125
v 0.274124 0.229518 0.394875
v 0.274124 0.229518 -0.363125
v 0.002811 0.473079 0.394875
v 0.002811 0.473079 -0.363125
v -0.268494 0.229518 0.394875
v -0.268494 0.229518 -0.363125
v -0.392433 0.229518 0.394875
v -0.392433 0.229518 -0.363125
v 0.063244 0.572970 -0.363125
v -0.392433 0.229518 -0.363125
v -0.057613 0.572970 -0.363125
v 0.002811 0.473079 -0.363125
v 0.398064 0.229518 -0.363125
v -0.268494 0.229518 -0.363125
v 0.274124 0.229518 -0.363125
v -0.392433 0.229518 0.394875
v 0.063244 0.572970 0.394875
v -0.057613 0.572970 0.394875
v 0.002811 0.473079 0.394875
v 0.398064 0.229518 0.394875
v -0.268494 0.229518 0.394875
v 0.274124 0.229518 0.394875
vn 0.0000 0.0000 -1.0000
vn 0.0000 -0.0000 1.0000
vn 0.3886 0.9214 0.0000
vn -0.3886 0.9214 0.0000
vn 0.9214 -0.3886 -0.0000
vn -0.3577 -0.9338 -0.0000
vn 0.0000 -1.0000 -0.0000
vn 0.3577 -0.9338 -0.0000
vn -0.9214 -0.3886 -0.0000
usemtl None
s off
f 15//1 16//1 17//1
f 18//1 16//1 15//1
f 19//1 18//1 15//1
f 20//1 16//1 18//1
f 19//1 21//1 18//1
f 22//2 23//2 24//2
f 22//2 25//2 23//2
f 25//2 26//2 23//2
f 22//2 27//2 25//2
f 28//2 26//2 25//2
s 1
f 2//3 4//4 1//4
f 5//5 3//3 2//3
f 7//6 6//5 5//5
f 9//7 8//6 7//6
f 11//8 10//7 9//7
f 13//9 12//8 11//8
f 1//4 14//9 13//9
f 2//3 3//3 4//4
f 5//5 6//5 3//3
f 7//6 8//6 6//5
f 9//7 10//7 8//6
f 11//8 12//8 10//7
f 13//9 14//9 12//8
f 1//4 4//4 14//9
