# Blender v2.79 (sub 0) OBJ File: 'Font All Characters Individual Meshes COMPLETE WITH CENTERS AND NAMES.blend'
# www.blender.org
mtllib Cents.mtl
o Cents_Text.911
v 0.135838 0.345749 0.394875
v 0.220005 0.316460 0.394875
v 0.220005 0.316460 -0.363125
v 0.135838 0.345749 -0.363125
v 0.220005 0.210403 0.394875
v 0.220005 0.210403 -0.363125
v 0.132446 0.248633 0.394875
v 0.132446 0.248633 -0.363125
v 0.048592 0.263432 0.394875
v 0.048592 0.263432 -0.363125
v 0.047974 -0.269320 0.394875
v 0.047974 -0.269320 -0.363125
v 0.133373 -0.253288 0.394875
v 0.133373 -0.253288 -0.363125
v 0.220005 -0.216291 0.394875
v 0.220005 -0.216291 -0.363125
v 0.220005 -0.321115 0.394875
v 0.220005 -0.321115 -0.363125
v 0.137688 -0.350404 0.394875
v 0.137688 -0.350404 -0.363125
v 0.047974 -0.365511 0.394875
v 0.047974 -0.365511 -0.363125
v 0.047974 -0.540629 0.394875
v 0.047974 -0.540629 -0.363125
v -0.014923 -0.540629 0.394875
v -0.014923 -0.540629 -0.363125
v -0.014923 -0.363045 0.394875
v -0.014923 -0.363045 -0.363125
v -0.245228 -0.256063 0.394875
v -0.245228 -0.256063 -0.363125
v -0.326927 -0.002944 0.394875
v -0.326927 -0.002944 -0.363125
v -0.245228 0.250483 0.394875
v -0.245228 0.250483 -0.363125
v -0.014923 0.358390 0.394875
v -0.014923 0.358390 -0.363125
v -0.014923 0.535357 0.394875
v -0.014923 0.535357 -0.363125
v 0.047974 0.535357 0.394875
v 0.047974 0.535357 -0.363125
v 0.048592 0.358390 0.394875
v 0.048592 0.358390 -0.363125
v -0.156128 -0.186694 0.394875
v -0.014923 -0.266854 0.394875
v -0.014923 -0.266853 -0.363125
v -0.156128 -0.186694 -0.363125
v -0.014923 0.260965 0.394875
v -0.014923 0.260965 -0.363125
v -0.156128 0.180189 0.394875
v -0.156128 0.180189 -0.363125
v -0.206692 -0.002944 0.394875
v -0.206692 -0.002944 -0.363125
v 0.047974 0.535357 -0.363125
v -0.014923 0.358390 -0.363125
v -0.014923 0.535357 -0.363125
v 0.048592 0.358390 -0.363125
v -0.245228 0.250483 -0.363125
v 0.135838 0.345749 -0.363125
v 0.220005 0.316460 -0.363125
v -0.014923 0.260965 -0.363125
v 0.048592 0.263432 -0.363125
v 0.132446 0.248633 -0.363125
v 0.220005 0.210403 -0.363125
v 0.047974 -0.269320 -0.363125
v -0.156128 0.180189 -0.363125
v -0.014923 -0.266853 -0.363125
v -0.326927 -0.002944 -0.363125
v -0.206692 -0.002944 -0.363125
v -0.245228 -0.256063 -0.363125
v -0.156128 -0.186694 -0.363125
v 0.220005 -0.321115 -0.363125
v 0.133373 -0.253288 -0.363125
v 0.220005 -0.216291 -0.363125
v -0.014923 -0.363045 -0.363125
v 0.137688 -0.350404 -0.363125
v 0.047974 -0.365511 -0.363125
v -0.014923 -0.540629 -0.363125
v 0.047974 -0.540629 -0.363125
v -0.014923 0.358390 0.394875
v 0.047974 0.535357 0.394875
v -0.014923 0.535357 0.394875
v 0.048592 0.358390 0.394875
v -0.245228 0.250483 0.394875
v 0.135838 0.345749 0.394875
v 0.220005 0.316460 0.394875
v -0.014923 0.260965 0.394875
v 0.048592 0.263432 0.394875
v 0.132446 0.248633 0.394875
v 0.220005 0.210403 0.394875
v 0.047974 -0.269320 0.394875
v -0.156128 0.180189 0.394875
v -0.014923 -0.266854 0.394875
v -0.326927 -0.002944 0.394875
v -0.206692 -0.002944 0.394875
v -0.245228 -0.256063 0.394875
v -0.156128 -0.186694 0.394875
v 0.133373 -0.253288 0.394875
v 0.220005 -0.321115 0.394875
v 0.220005 -0.216291 0.394875
v -0.014923 -0.363045 0.394875
v 0.137688 -0.350404 0.394875
v 0.047974 -0.365511 0.394875
v -0.014923 -0.540629 0.394875
v 0.047974 -0.540629 0.394875
vn 0.0000 0.0000 -1.0000
vn 0.0000 -0.0000 1.0000
vn 0.8151 0.5794 0.0000
vn 0.2371 0.9715 0.0000
vn 0.5477 -0.8367 -0.0000
vn -0.2890 -0.9573 -0.0000
vn 0.6423 -0.7665 -0.0000
vn 0.6390 0.7692 0.0000
vn -0.2903 0.9569 0.0000
vn 0.5510 0.8345 0.0000
vn 0.8171 -0.5765 -0.0000
vn 0.2516 -0.9678 -0.0000
vn 0.7636 -0.6457 -0.0000
vn 0.7071 -0.7071 -0.0000
vn -0.7071 -0.7071 -0.0000
vn -0.8430 -0.5379 -0.0000
vn -0.7491 -0.6624 -0.0000
vn -1.0000 -0.0002 -0.0000
vn -0.7503 0.6611 0.0000
vn -0.8439 0.5365 0.0000
vn -0.7071 0.7071 0.0000
vn 0.7059 0.7083 0.0000
vn 0.7550 0.6558 0.0000
vn 0.7891 0.6143 0.0000
vn -0.5032 0.8642 0.0000
vn -0.5017 -0.8650 -0.0000
vn -0.5031 0.8642 0.0000
vn 0.7898 -0.6133 -0.0000
vn 1.0000 -0.0004 0.0000
usemtl None
s off
f 53//1 54//1 55//1
f 56//1 54//1 53//1
f 56//1 57//1 54//1
f 58//1 57//1 56//1
f 59//1 57//1 58//1
f 60//1 57//1 59//1
f 61//1 60//1 59//1
f 62//1 61//1 59//1
f 63//1 62//1 59//1
f 64//1 60//1 61//1
f 65//1 57//1 60//1
f 64//1 66//1 60//1
f 65//1 67//1 57//1
f 68//1 67//1 65//1
f 68//1 69//1 67//1
f 70//1 69//1 68//1
f 66//1 69//1 70//1
f 71//1 72//1 73//1
f 71//1 64//1 72//1
f 66//1 74//1 69//1
f 64//1 74//1 66//1
f 71//1 74//1 64//1
f 75//1 74//1 71//1
f 76//1 74//1 75//1
f 76//1 77//1 74//1
f 78//1 77//1 76//1
f 79//2 80//2 81//2
f 79//2 82//2 80//2
f 83//2 82//2 79//2
f 83//2 84//2 82//2
f 83//2 85//2 84//2
f 83//2 86//2 85//2
f 86//2 87//2 85//2
f 87//2 88//2 85//2
f 88//2 89//2 85//2
f 86//2 90//2 87//2
f 83//2 91//2 86//2
f 92//2 90//2 86//2
f 93//2 91//2 83//2
f 93//2 94//2 91//2
f 95//2 94//2 93//2
f 95//2 96//2 94//2
f 95//2 92//2 96//2
f 97//2 98//2 99//2
f 90//2 98//2 97//2
f 100//2 92//2 95//2
f 100//2 90//2 92//2
f 100//2 98//2 90//2
f 100//2 101//2 98//2
f 100//2 102//2 101//2
f 103//2 102//2 100//2
f 103//2 104//2 102//2
s 1
f 2//3 4//4 1//4
f 5//5 3//3 2//3
f 7//6 6//5 5//5
f 9//7 8//6 7//6
f 11//8 10//7 9//7
f 13//9 12//8 11//8
f 15//10 14//9 13//9
f 17//11 16//10 15//10
f 19//12 18//11 17//11
f 21//13 20//12 19//12
f 23//14 22//13 21//13
f 25//15 24//14 23//14
f 27//16 26//15 25//15
f 29//17 28//16 27//16
f 31//18 30//17 29//17
f 33//19 32//18 31//18
f 35//20 34//19 33//19
f 37//21 36//20 35//20
f 39//22 38//21 37//21
f 41//23 40//22 39//22
f 1//4 42//23 41//23
f 43//24 45//25 46//24
f 47//26 45//25 44//27
f 49//28 48//26 47//26
f 51//29 50//28 49//28
f 43//24 52//29 51//29
f 2//3 3//3 4//4
f 5//5 6//5 3//3
f 7//6 8//6 6//5
f 9//7 10//7 8//6
f 11//8 12//8 10//7
f 13//9 14//9 12//8
f 15//10 16//10 14//9
f 17//11 18//11 16//10
f 19//12 20//12 18//11
f 21//13 22//13 20//12
f 23//14 24//14 22//13
f 25//15 26//15 24//14
f 27//16 28//16 26//15
f 29//17 30//17 28//16
f 31//18 32//18 30//17
f 33//19 34//19 32//18
f 35//20 36//20 34//19
f 37//21 38//21 36//20
f 39//22 40//22 38//21
f 41//23 42//23 40//22
f 1//4 4//4 42//23
f 43//24 44//27 45//25
f 47//26 48//26 45//25
f 49//28 50//28 48//26
f 51//29 52//29 50//28
f 43//24 46//24 52//29
