# Blender v2.79 (sub 0) OBJ File: 'Font All Characters Individual Meshes COMPLETE WITH CENTERS AND NAMES.blend'
# www.blender.org
mtllib Degree Sign.mtl
o Degree_Sign_Text.008
v -0.139687 0.532274 0.394875
v 0.074898 0.574512 0.394875
v -0.000946 0.589619 0.394875
v 0.137787 0.531041 0.394875
v -0.196411 0.392303 0.394875
v -0.084190 0.475854 0.394875
v -0.000946 0.510076 0.394875
v 0.180336 0.468146 0.394875
v 0.081985 0.475546 0.394875
v -0.118095 0.392303 0.394875
v 0.116211 0.392303 0.394875
v 0.194519 0.392303 0.394875
v -0.140923 0.253566 0.394875
v -0.084190 0.309986 0.394875
v 0.082298 0.309986 0.394875
v 0.137489 0.254491 0.394875
v -0.000946 0.276381 0.394875
v -0.002174 0.198071 0.394875
v -0.139687 0.532274 0.394875
v -0.000946 0.589619 0.394875
v -0.000946 0.589619 -0.363125
v -0.139687 0.532274 -0.363125
v 0.074898 0.574512 0.394875
v 0.074898 0.574512 -0.363125
v 0.137787 0.531041 0.394875
v 0.137787 0.531041 -0.363125
v 0.180336 0.468146 0.394875
v 0.180336 0.468146 -0.363125
v 0.194519 0.392303 0.394875
v 0.194519 0.392303 -0.363125
v 0.137489 0.254491 0.394875
v 0.137489 0.254491 -0.363125
v -0.002174 0.198071 0.394875
v -0.002174 0.198071 -0.363125
v -0.140923 0.253566 0.394875
v -0.140923 0.253566 -0.363125
v -0.196411 0.392303 0.394875
v -0.196411 0.392303 -0.363125
v 0.081985 0.475546 0.394875
v -0.000946 0.510076 0.394875
v -0.000946 0.510076 -0.363125
v 0.081985 0.475546 -0.363125
v -0.084190 0.475854 0.394875
v -0.084190 0.475854 -0.363125
v -0.118095 0.392303 0.394875
v -0.118095 0.392303 -0.363125
v -0.084190 0.309986 0.394875
v -0.084190 0.309986 -0.363125
v -0.000946 0.276381 0.394875
v -0.000946 0.276381 -0.363125
v 0.082298 0.309986 0.394875
v 0.082298 0.309986 -0.363125
v 0.116211 0.392303 0.394875
v 0.116211 0.392303 -0.363125
v 0.074898 0.574512 -0.363125
v -0.139687 0.532274 -0.363125
v -0.000946 0.589619 -0.363125
v 0.137787 0.531041 -0.363125
v -0.084190 0.475854 -0.363125
v -0.196411 0.392303 -0.363125
v -0.000946 0.510076 -0.363125
v 0.180336 0.468146 -0.363125
v 0.081985 0.475546 -0.363125
v -0.118095 0.392303 -0.363125
v 0.116211 0.392303 -0.363125
v 0.194519 0.392303 -0.363125
v -0.140923 0.253566 -0.363125
v -0.084190 0.309986 -0.363125
v 0.082298 0.309986 -0.363125
v 0.137489 0.254491 -0.363125
v -0.000946 0.276381 -0.363125
v -0.002174 0.198071 -0.363125
vn 0.0000 0.0000 1.0000
vn 0.0000 0.0000 -1.0000
vn -0.0975 0.9952 0.0000
vn -0.7095 0.7047 0.0000
vn 0.3901 0.9208 0.0000
vn 0.7106 0.7036 0.0000
vn 0.9250 0.3800 0.0000
vn 0.9946 -0.1036 -0.0000
vn 0.7041 -0.7101 -0.0000
vn 0.0017 -1.0000 -0.0000
vn -0.7071 -0.7071 -0.0000
vn -1.0000 0.0023 -0.0000
vn -0.0022 -1.0000 -0.0000
vn -0.7087 -0.7055 -0.0000
vn 0.7087 -0.7055 -0.0000
vn 1.0000 0.0026 0.0000
vn 0.7046 0.7096 0.0000
vn 0.0000 1.0000 0.0000
vn -0.7046 0.7096 0.0000
vn -1.0000 0.0004 0.0000
usemtl None
s off
f 1//1 2//1 3//1
f 1//1 4//1 2//1
f 5//1 6//1 1//1
f 6//1 7//1 1//1
f 7//1 4//1 1//1
f 7//1 8//1 4//1
f 9//1 8//1 7//1
f 5//1 10//1 6//1
f 11//1 8//1 9//1
f 11//1 12//1 8//1
f 13//1 10//1 5//1
f 13//1 14//1 10//1
f 15//1 12//1 11//1
f 15//1 16//1 12//1
f 13//1 17//1 14//1
f 17//1 16//1 15//1
f 13//1 16//1 17//1
f 13//1 18//1 16//1
f 55//2 56//2 57//2
f 58//2 56//2 55//2
f 59//2 60//2 56//2
f 61//2 59//2 56//2
f 58//2 61//2 56//2
f 62//2 61//2 58//2
f 62//2 63//2 61//2
f 64//2 60//2 59//2
f 62//2 65//2 63//2
f 66//2 65//2 62//2
f 64//2 67//2 60//2
f 68//2 67//2 64//2
f 66//2 69//2 65//2
f 70//2 69//2 66//2
f 71//2 67//2 68//2
f 70//2 71//2 69//2
f 70//2 67//2 71//2
f 72//2 67//2 70//2
s 1
f 20//3 22//4 19//4
f 23//5 21//3 20//3
f 25//6 24//5 23//5
f 27//7 26//6 25//6
f 29//8 28//7 27//7
f 31//9 30//8 29//8
f 33//10 32//9 31//9
f 35//11 34//10 33//10
f 37//12 36//11 35//11
f 19//4 38//12 37//12
f 40//13 42//14 39//14
f 43//15 41//13 40//13
f 45//16 44//15 43//15
f 47//17 46//16 45//16
f 49//18 48//17 47//17
f 51//19 50//18 49//18
f 53//20 52//19 51//19
f 39//14 54//20 53//20
f 20//3 21//3 22//4
f 23//5 24//5 21//3
f 25//6 26//6 24//5
f 27//7 28//7 26//6
f 29//8 30//8 28//7
f 31//9 32//9 30//8
f 33//10 34//10 32//9
f 35//11 36//11 34//10
f 37//12 38//12 36//11
f 19//4 22//4 38//12
f 40//13 41//13 42//14
f 43//15 44//15 41//13
f 45//16 46//16 44//15
f 47//17 48//17 46//16
f 49//18 50//18 48//17
f 51//19 52//19 50//18
f 53//20 54//20 52//19
f 39//14 42//14 54//20
