# Blender v2.79 (sub 0) OBJ File: 'Font All Characters Individual Meshes COMPLETE WITH CENTERS AND NAMES.blend'
# www.blender.org
mtllib Division Sign.mtl
o Division_Sign_Text.010
v -0.389206 -0.004177 0.394875
v 0.401291 0.100646 0.394875
v -0.389206 0.100646 0.394875
v 0.401291 -0.004177 0.394875
v -0.389206 -0.004177 0.394875
v -0.389206 0.100646 0.394875
v -0.389206 0.100647 -0.363125
v -0.389206 -0.004177 -0.363125
v 0.401291 0.100646 0.394875
v 0.401291 0.100647 -0.363125
v 0.401291 -0.004177 0.394875
v 0.401291 -0.004177 -0.363125
v -0.069809 -0.255138 0.394875
v -0.069809 -0.104068 0.394875
v -0.069809 -0.104068 -0.363125
v -0.069809 -0.255138 -0.363125
v 0.081879 -0.104068 0.394875
v 0.081879 -0.104068 -0.363125
v 0.081879 -0.255138 0.394875
v 0.081879 -0.255138 -0.363125
v -0.069809 0.200537 0.394875
v -0.069809 0.352224 0.394875
v -0.069809 0.352224 -0.363125
v -0.069809 0.200537 -0.363125
v 0.081879 0.352224 0.394875
v 0.081879 0.352224 -0.363125
v 0.081879 0.200537 0.394875
v 0.081879 0.200537 -0.363125
v 0.081879 0.352224 -0.363125
v -0.069809 0.200537 -0.363125
v -0.069809 0.352224 -0.363125
v 0.081879 0.200537 -0.363125
v 0.081879 -0.104068 -0.363125
v -0.069809 -0.255138 -0.363125
v -0.069809 -0.104068 -0.363125
v 0.081879 -0.255138 -0.363125
v 0.401291 0.100647 -0.363125
v -0.389206 -0.004177 -0.363125
v -0.389206 0.100647 -0.363125
v 0.401291 -0.004177 -0.363125
v -0.069809 0.200537 0.394875
v 0.081879 0.352224 0.394875
v -0.069809 0.352224 0.394875
v 0.081879 0.200537 0.394875
v -0.069809 -0.255138 0.394875
v 0.081879 -0.104068 0.394875
v -0.069809 -0.104068 0.394875
v 0.081879 -0.255138 0.394875
vn 0.0000 -0.0000 1.0000
vn 0.0000 0.0000 -1.0000
vn -0.7071 0.7071 0.0000
vn -0.7071 -0.7071 -0.0000
vn 0.7071 0.7071 0.0000
vn 0.7071 -0.7071 -0.0000
usemtl None
s off
f 1//1 2//1 3//1
f 1//1 4//1 2//1
f 29//2 30//2 31//2
f 32//2 30//2 29//2
f 33//2 34//2 35//2
f 36//2 34//2 33//2
f 37//2 38//2 39//2
f 40//2 38//2 37//2
f 41//1 42//1 43//1
f 41//1 44//1 42//1
f 45//1 46//1 47//1
f 45//1 48//1 46//1
s 1
f 6//3 8//4 5//4
f 9//5 7//3 6//3
f 11//6 10//5 9//5
f 5//4 12//6 11//6
f 14//3 16//4 13//4
f 17//5 15//3 14//3
f 19//6 18//5 17//5
f 13//4 20//6 19//6
f 22//3 24//4 21//4
f 25//5 23//3 22//3
f 27//6 26//5 25//5
f 21//4 28//6 27//6
f 6//3 7//3 8//4
f 9//5 10//5 7//3
f 11//6 12//6 10//5
f 5//4 8//4 12//6
f 14//3 15//3 16//4
f 17//5 18//5 15//3
f 19//6 20//6 18//5
f 13//4 16//4 20//6
f 22//3 23//3 24//4
f 25//5 26//5 23//3
f 27//6 28//6 26//5
f 21//4 24//4 28//6
