# Blender v2.79 (sub 0) OBJ File: 'Font All Characters Individual Meshes COMPLETE WITH CENTERS AND NAMES.blend'
# www.blender.org
mtllib e.mtl
o e_Text.722
v -0.208298 0.058717 0.394875
v 0.196201 0.059334 0.394875
v 0.196201 0.059334 -0.363125
v -0.208298 0.058717 -0.363125
v 0.144093 0.207937 0.394875
v 0.144093 0.207937 -0.363125
v 0.009365 0.263432 0.394875
v 0.009365 0.263432 -0.363125
v -0.142628 0.209787 0.394875
v -0.142628 0.209787 -0.363125
v 0.228573 0.269906 0.394875
v 0.309658 0.026037 0.394875
v 0.309658 0.026037 -0.363125
v 0.228573 0.269906 -0.363125
v 0.309658 -0.029458 0.394875
v 0.309658 -0.029458 -0.363125
v -0.211994 -0.029458 0.394875
v -0.211994 -0.029458 -0.363125
v -0.141396 -0.207967 0.394875
v -0.141396 -0.207967 -0.363125
v 0.034649 -0.269320 0.394875
v 0.034649 -0.269320 -0.363125
v 0.161358 -0.253288 0.394875
v 0.161358 -0.253288 -0.363125
v 0.283138 -0.205192 0.394875
v 0.283138 -0.205192 -0.363125
v 0.283138 -0.312483 0.394875
v 0.283138 -0.312483 -0.363125
v 0.157974 -0.351946 0.394875
v 0.157974 -0.351946 -0.363125
v 0.027866 -0.365511 0.394875
v 0.027866 -0.365511 -0.363125
v -0.233887 -0.269320 0.394875
v -0.233887 -0.269320 -0.363125
v -0.330387 -0.009110 0.394875
v -0.330387 -0.009110 -0.363125
v -0.238823 0.260040 0.394875
v -0.238823 0.260040 -0.363125
v 0.008133 0.359623 0.394875
v 0.008133 0.359623 -0.363125
v 0.228573 0.269906 -0.363125
v -0.238823 0.260040 -0.363125
v 0.008133 0.359623 -0.363125
v 0.009365 0.263432 -0.363125
v 0.144093 0.207937 -0.363125
v 0.309658 0.026037 -0.363125
v -0.142628 0.209787 -0.363125
v -0.330387 -0.009110 -0.363125
v -0.208298 0.058717 -0.363125
v 0.196201 0.059334 -0.363125
v 0.309658 -0.029458 -0.363125
v -0.211994 -0.029458 -0.363125
v -0.233887 -0.269320 -0.363125
v -0.141396 -0.207967 -0.363125
v 0.283138 -0.312483 -0.363125
v 0.161358 -0.253288 -0.363125
v 0.283138 -0.205192 -0.363125
v 0.034649 -0.269320 -0.363125
v 0.027866 -0.365511 -0.363125
v 0.157974 -0.351946 -0.363125
v -0.238823 0.260040 0.394875
v 0.228573 0.269906 0.394875
v 0.008133 0.359623 0.394875
v 0.009365 0.263432 0.394875
v 0.144093 0.207937 0.394875
v 0.309658 0.026037 0.394875
v -0.142628 0.209787 0.394875
v -0.330387 -0.009110 0.394875
v -0.208298 0.058717 0.394875
v 0.196201 0.059334 0.394875
v 0.309658 -0.029458 0.394875
v -0.233887 -0.269320 0.394875
v -0.211994 -0.029458 0.394875
v -0.141396 -0.207967 0.394875
v 0.161358 -0.253288 0.394875
v 0.283138 -0.312483 0.394875
v 0.283138 -0.205192 0.394875
v 0.034649 -0.269320 0.394875
v 0.027866 -0.365511 0.394875
v 0.157974 -0.351946 0.394875
vn 0.0000 0.0000 -1.0000
vn 0.0000 -0.0000 1.0000
vn -0.8162 0.5778 0.0000
vn 0.8358 0.5490 0.0000
vn -0.7258 -0.6880 -0.0000
vn -0.0257 -0.9997 -0.0000
vn 0.6817 -0.7317 -0.0000
vn 0.9871 0.1598 0.0000
vn 0.7299 0.6836 0.0000
vn 0.7071 -0.7071 -0.0000
vn 0.8270 -0.5622 -0.0000
vn 0.6924 0.7215 0.0000
vn 0.1046 0.9945 0.0000
vn -0.2484 0.9687 0.0000
vn 0.5624 0.8268 0.0000
vn 0.8064 -0.5913 -0.0000
vn 0.2032 -0.9791 -0.0000
vn -0.1238 -0.9923 -0.0000
vn -0.7061 -0.7082 -0.0000
vn -0.9999 -0.0136 -0.0000
vn -0.7264 0.6873 0.0000
vn 0.0016 1.0000 0.0000
usemtl None
s off
f 41//1 42//1 43//1
f 44//1 42//1 41//1
f 45//1 44//1 41//1
f 46//1 45//1 41//1
f 47//1 42//1 44//1
f 47//1 48//1 42//1
f 49//1 48//1 47//1
f 46//1 50//1 45//1
f 46//1 49//1 50//1
f 46//1 48//1 49//1
f 51//1 48//1 46//1
f 52//1 53//1 48//1
f 51//1 52//1 48//1
f 54//1 53//1 52//1
f 55//1 56//1 57//1
f 58//1 53//1 54//1
f 55//1 58//1 56//1
f 58//1 59//1 53//1
f 55//1 59//1 58//1
f 60//1 59//1 55//1
f 61//2 62//2 63//2
f 61//2 64//2 62//2
f 64//2 65//2 62//2
f 65//2 66//2 62//2
f 61//2 67//2 64//2
f 68//2 67//2 61//2
f 68//2 69//2 67//2
f 70//2 66//2 65//2
f 69//2 66//2 70//2
f 68//2 66//2 69//2
f 68//2 71//2 66//2
f 72//2 73//2 68//2
f 73//2 71//2 68//2
f 72//2 74//2 73//2
f 75//2 76//2 77//2
f 72//2 78//2 74//2
f 78//2 76//2 75//2
f 79//2 78//2 72//2
f 79//2 76//2 78//2
f 79//2 80//2 76//2
s 1
f 2//3 4//4 1//4
f 5//5 3//3 2//3
f 7//6 6//5 5//5
f 9//7 8//6 7//6
f 1//4 10//7 9//7
f 12//8 14//9 11//9
f 15//10 13//8 12//8
f 17//11 16//10 15//10
f 19//12 18//11 17//11
f 21//13 20//12 19//12
f 23//14 22//13 21//13
f 25//15 24//14 23//14
f 27//16 26//15 25//15
f 29//17 28//16 27//16
f 31//18 30//17 29//17
f 33//19 32//18 31//18
f 35//20 34//19 33//19
f 37//21 36//20 35//20
f 39//22 38//21 37//21
f 11//9 40//22 39//22
f 2//3 3//3 4//4
f 5//5 6//5 3//3
f 7//6 8//6 6//5
f 9//7 10//7 8//6
f 1//4 4//4 10//7
f 12//8 13//8 14//9
f 15//10 16//10 13//8
f 17//11 18//11 16//10
f 19//12 20//12 18//11
f 21//13 22//13 20//12
f 23//14 24//14 22//13
f 25//15 26//15 24//14
f 27//16 28//16 26//15
f 29//17 30//17 28//16
f 31//18 32//18 30//17
f 33//19 34//19 32//18
f 35//20 36//20 34//19
f 37//21 38//21 36//20
f 39//22 40//22 38//21
f 11//9 14//9 40//22
