# Blender v2.79 (sub 0) OBJ File: 'Font All Characters Individual Meshes COMPLETE WITH CENTERS AND NAMES.blend'
# www.blender.org
mtllib Enye.mtl
o Enye_Text.850
v 0.235264 0.285938 0.394875
v 0.296307 0.069199 0.394875
v 0.296307 0.069199 -0.363125
v 0.235264 0.285938 -0.363125
v 0.296307 -0.347630 0.394875
v 0.296307 -0.347629 -0.363125
v 0.182854 -0.347630 0.394875
v 0.182854 -0.347629 -0.363125
v 0.182854 0.065500 0.394875
v 0.182854 0.065500 -0.363125
v 0.144623 0.212253 0.394875
v 0.144623 0.212253 -0.363125
v 0.029934 0.260965 0.394875
v 0.029934 0.260965 -0.363125
v -0.114971 0.202387 0.394875
v -0.114971 0.202387 -0.363125
v -0.167999 0.042685 0.394875
v -0.167999 0.042685 -0.363125
v -0.167999 -0.347630 0.394875
v -0.167999 -0.347629 -0.363125
v -0.282074 -0.347630 0.394875
v -0.282074 -0.347629 -0.363125
v -0.282074 0.342974 0.394875
v -0.282074 0.342974 -0.363125
v -0.167999 0.342974 0.394875
v -0.167999 0.342974 -0.363125
v -0.167999 0.235684 0.394875
v -0.167999 0.235684 -0.363125
v -0.072117 0.328793 0.394875
v -0.072117 0.328793 -0.363125
v 0.055214 0.359623 0.394875
v 0.055214 0.359623 -0.363125
v 0.052746 0.468146 0.394875
v 0.010201 0.497127 0.394875
v 0.010201 0.497127 -0.363125
v 0.052746 0.468146 -0.363125
v -0.024944 0.531041 0.394875
v -0.024944 0.531041 -0.363125
v -0.048687 0.549231 0.394875
v -0.048687 0.549231 -0.363125
v -0.066875 0.555089 0.394875
v -0.066875 0.555089 -0.363125
v -0.101406 0.532582 0.394875
v -0.101406 0.532582 -0.363125
v -0.113739 0.459514 0.394875
v -0.113739 0.459514 -0.363125
v -0.190815 0.459514 0.394875
v -0.190815 0.459514 -0.363125
v -0.158134 0.588077 0.394875
v -0.158134 0.588077 -0.363125
v -0.070576 0.633398 0.394875
v -0.070576 0.633398 -0.363125
v -0.027412 0.624766 0.394875
v -0.027412 0.624766 -0.363125
v 0.015133 0.595785 0.394875
v 0.015133 0.595785 -0.363125
v 0.050282 0.561871 0.394875
v 0.050282 0.561871 -0.363125
v 0.074020 0.543681 0.394875
v 0.074020 0.543681 -0.363125
v 0.092209 0.537823 0.394875
v 0.092209 0.537823 -0.363125
v 0.126740 0.560330 0.394875
v 0.126740 0.560330 -0.363125
v 0.139072 0.633398 0.394875
v 0.139072 0.633398 -0.363125
v 0.216148 0.633398 0.394875
v 0.216148 0.633398 -0.363125
v 0.183468 0.504835 0.394875
v 0.183468 0.504835 -0.363125
v 0.095909 0.459514 0.394875
v 0.095909 0.459514 -0.363125
v -0.027412 0.624766 -0.363125
v -0.158134 0.588077 -0.363125
v -0.070576 0.633398 -0.363125
v 0.216148 0.633398 -0.363125
v 0.126740 0.560330 -0.363125
v 0.139072 0.633398 -0.363125
v 0.183468 0.504835 -0.363125
v 0.015133 0.595785 -0.363125
v 0.050282 0.561871 -0.363125
v -0.101406 0.532582 -0.363125
v -0.190815 0.459514 -0.363125
v -0.066875 0.555089 -0.363125
v 0.074020 0.543681 -0.363125
v 0.092209 0.537823 -0.363125
v -0.048687 0.549231 -0.363125
v -0.024944 0.531041 -0.363125
v -0.113739 0.459514 -0.363125
v 0.010201 0.497127 -0.363125
v 0.095909 0.459514 -0.363125
v 0.052746 0.468146 -0.363125
v 0.235264 0.285938 -0.363125
v -0.072117 0.328793 -0.363125
v 0.055214 0.359623 -0.363125
v -0.167999 0.342974 -0.363125
v -0.282074 -0.347629 -0.363125
v -0.282074 0.342974 -0.363125
v -0.167999 0.235684 -0.363125
v 0.029934 0.260965 -0.363125
v 0.144623 0.212253 -0.363125
v 0.296307 0.069199 -0.363125
v -0.114971 0.202387 -0.363125
v -0.167999 0.042685 -0.363125
v 0.182854 0.065500 -0.363125
v 0.296307 -0.347629 -0.363125
v 0.182854 -0.347629 -0.363125
v -0.167999 -0.347629 -0.363125
v -0.158134 0.588077 0.394875
v -0.027412 0.624766 0.394875
v -0.070576 0.633398 0.394875
v 0.126740 0.560330 0.394875
v 0.216148 0.633398 0.394875
v 0.139072 0.633398 0.394875
v 0.183468 0.504835 0.394875
v 0.015133 0.595785 0.394875
v 0.050282 0.561871 0.394875
v -0.190815 0.459514 0.394875
v -0.101406 0.532582 0.394875
v -0.066875 0.555089 0.394875
v 0.074020 0.543681 0.394875
v 0.092209 0.537823 0.394875
v -0.048687 0.549231 0.394875
v -0.024944 0.531041 0.394875
v -0.113739 0.459514 0.394875
v 0.010201 0.497127 0.394875
v 0.095909 0.459514 0.394875
v 0.052746 0.468146 0.394875
v -0.072117 0.328793 0.394875
v 0.235264 0.285938 0.394875
v 0.055214 0.359623 0.394875
v -0.282074 -0.347630 0.394875
v -0.167999 0.342974 0.394875
v -0.282074 0.342974 0.394875
v -0.167999 0.235684 0.394875
v 0.029934 0.260965 0.394875
v 0.144623 0.212253 0.394875
v 0.296307 0.069199 0.394875
v -0.114971 0.202387 0.394875
v -0.167999 0.042685 0.394875
v 0.182854 0.065500 0.394875
v 0.296307 -0.347630 0.394875
v 0.182854 -0.347630 0.394875
v -0.167999 -0.347630 0.394875
vn 0.0000 0.0000 -1.0000
vn 0.0000 0.0000 1.0000
vn 0.9906 0.1368 0.0000
vn 0.7462 0.6657 0.0000
vn 0.7071 -0.7071 -0.0000
vn -0.7071 -0.7071 -0.0000
vn -0.9919 -0.1271 -0.0000
vn -0.7571 -0.6533 -0.0000
vn -0.0087 -1.0000 -0.0000
vn 0.7292 -0.6843 -0.0000
vn 0.9872 -0.1596 -0.0000
vn -0.7071 0.7071 0.0000
vn 0.7071 0.7071 0.0000
vn 0.3895 0.9210 0.0000
vn -0.4831 0.8756 0.0000
vn 0.0754 0.9972 0.0000
vn -0.6310 -0.7758 -0.0000
vn -0.3873 -0.9220 -0.0000
vn -0.6523 -0.7579 -0.0000
vn -0.4641 -0.8858 -0.0000
vn 0.1326 -0.9912 -0.0000
vn 0.8364 -0.5482 -0.0000
vn 0.6456 -0.7637 -0.0000
vn -0.7894 -0.6139 -0.0000
vn -0.7832 0.6218 0.0000
vn -0.1397 0.9902 0.0000
vn 0.3873 0.9220 0.0000
vn 0.6309 0.7758 0.0000
vn 0.6523 0.7579 0.0000
vn 0.4642 0.8857 0.0000
vn -0.1326 0.9912 0.0000
vn -0.8364 0.5482 0.0000
vn -0.6456 0.7637 0.0000
vn 0.7894 0.6139 0.0000
vn 0.7832 -0.6218 -0.0000
vn 0.1397 -0.9902 -0.0000
usemtl None
s off
f 73//1 74//1 75//1
f 76//1 77//1 78//1
f 79//1 77//1 76//1
f 80//1 74//1 73//1
f 81//1 74//1 80//1
f 82//1 83//1 74//1
f 84//1 82//1 74//1
f 81//1 84//1 74//1
f 85//1 84//1 81//1
f 79//1 86//1 77//1
f 85//1 87//1 84//1
f 85//1 88//1 87//1
f 86//1 88//1 85//1
f 79//1 88//1 86//1
f 89//1 83//1 82//1
f 79//1 90//1 88//1
f 91//1 90//1 79//1
f 91//1 92//1 90//1
f 93//1 94//1 95//1
f 96//1 97//1 98//1
f 99//1 97//1 96//1
f 100//1 99//1 94//1
f 93//1 100//1 94//1
f 101//1 100//1 93//1
f 102//1 101//1 93//1
f 103//1 99//1 100//1
f 104//1 97//1 99//1
f 103//1 104//1 99//1
f 102//1 105//1 101//1
f 106//1 105//1 102//1
f 106//1 107//1 105//1
f 108//1 97//1 104//1
f 109//2 110//2 111//2
f 112//2 113//2 114//2
f 112//2 115//2 113//2
f 109//2 116//2 110//2
f 109//2 117//2 116//2
f 118//2 119//2 109//2
f 119//2 120//2 109//2
f 120//2 117//2 109//2
f 120//2 121//2 117//2
f 122//2 115//2 112//2
f 123//2 121//2 120//2
f 124//2 121//2 123//2
f 124//2 122//2 121//2
f 124//2 115//2 122//2
f 118//2 125//2 119//2
f 126//2 115//2 124//2
f 126//2 127//2 115//2
f 128//2 127//2 126//2
f 129//2 130//2 131//2
f 132//2 133//2 134//2
f 132//2 135//2 133//2
f 135//2 136//2 129//2
f 136//2 130//2 129//2
f 136//2 137//2 130//2
f 137//2 138//2 130//2
f 135//2 139//2 136//2
f 132//2 140//2 135//2
f 140//2 139//2 135//2
f 141//2 138//2 137//2
f 141//2 142//2 138//2
f 143//2 142//2 141//2
f 132//2 144//2 140//2
s 1
f 2//3 4//4 1//4
f 2//3 6//5 3//3
f 7//6 6//5 5//5
f 9//7 8//6 7//6
f 11//8 10//7 9//7
f 13//9 12//8 11//8
f 15//10 14//9 13//9
f 17//11 16//10 15//10
f 17//11 20//5 18//11
f 21//6 20//5 19//5
f 23//12 22//6 21//6
f 25//13 24//12 23//12
f 27//14 26//13 25//13
f 29//15 28//14 27//14
f 31//16 30//15 29//15
f 1//4 32//16 31//16
f 34//17 36//18 33//18
f 37//19 35//17 34//17
f 39//20 38//19 37//19
f 41//21 40//20 39//20
f 43//22 42//21 41//21
f 45//23 44//22 43//22
f 47//24 46//23 45//23
f 49//25 48//24 47//24
f 51//26 50//25 49//25
f 53//27 52//26 51//26
f 55//28 54//27 53//27
f 57//29 56//28 55//28
f 59//30 58//29 57//29
f 61//31 60//30 59//30
f 63//32 62//31 61//31
f 65//33 64//32 63//32
f 67//34 66//33 65//33
f 69//35 68//34 67//34
f 71//36 70//35 69//35
f 33//18 72//36 71//36
f 2//3 3//3 4//4
f 2//3 5//5 6//5
f 7//6 8//6 6//5
f 9//7 10//7 8//6
f 11//8 12//8 10//7
f 13//9 14//9 12//8
f 15//10 16//10 14//9
f 17//11 18//11 16//10
f 17//11 19//5 20//5
f 21//6 22//6 20//5
f 23//12 24//12 22//6
f 25//13 26//13 24//12
f 27//14 28//14 26//13
f 29//15 30//15 28//14
f 31//16 32//16 30//15
f 1//4 4//4 32//16
f 34//17 35//17 36//18
f 37//19 38//19 35//17
f 39//20 40//20 38//19
f 41//21 42//21 40//20
f 43//22 44//22 42//21
f 45//23 46//23 44//22
f 47//24 48//24 46//23
f 49//25 50//25 48//24
f 51//26 52//26 50//25
f 53//27 54//27 52//26
f 55//28 56//28 54//27
f 57//29 58//29 56//28
f 59//30 60//30 58//29
f 61//31 62//31 60//30
f 63//32 64//32 62//31
f 65//33 66//33 64//32
f 67//34 68//34 66//33
f 69//35 70//35 68//34
f 71//36 72//36 70//35
f 33//18 36//18 72//36
