# Blender v2.79 (sub 0) OBJ File: 'Font All Characters Individual Meshes COMPLETE WITH CENTERS AND NAMES.blend'
# www.blender.org
mtllib G.mtl
o G_Text.232
v -0.234360 0.262815 0.394875
v 0.101696 0.329409 0.394875
v -0.029644 0.359623 0.394875
v 0.191719 0.238151 0.394875
v 0.305176 0.342974 0.394875
v 0.191719 0.342974 0.394875
v 0.305176 -0.261921 0.394875
v -0.001896 0.264665 0.394875
v -0.144024 0.196838 0.394875
v 0.140850 0.196838 0.394875
v -0.312050 0.005688 0.394875
v -0.194893 0.005688 0.394875
v 0.191719 0.005688 0.394875
v -0.234360 -0.250822 0.394875
v -0.144024 -0.184844 0.394875
v 0.140850 -0.184844 0.394875
v -0.001896 -0.252671 0.394875
v 0.191719 -0.226157 0.394875
v 0.101696 -0.317416 0.394875
v 0.191719 -0.282269 0.394875
v -0.029644 -0.347630 0.394875
v 0.226868 -0.524288 0.394875
v 0.136223 -0.458311 0.394875
v -0.030876 -0.516581 0.394875
v -0.228809 -0.573926 0.394875
v -0.130154 -0.503632 0.394875
v -0.228809 -0.463552 0.394875
v -0.012997 -0.610306 0.394875
v -0.125835 -0.601365 0.394875
v 0.305176 0.342974 0.394875
v 0.305176 -0.261921 0.394875
v 0.305176 -0.261921 -0.363125
v 0.305176 0.342974 -0.363125
v 0.226868 -0.524288 0.394875
v 0.226868 -0.524288 -0.363125
v -0.012997 -0.610306 0.394875
v -0.012997 -0.610306 -0.363125
v -0.125835 -0.601365 0.394875
v -0.125835 -0.601365 -0.363125
v -0.228809 -0.573926 0.394875
v -0.228809 -0.573926 -0.363125
v -0.228809 -0.463552 0.394875
v -0.228809 -0.463552 -0.363125
v -0.130154 -0.503632 0.394875
v -0.130154 -0.503632 -0.363125
v -0.030876 -0.516581 0.394875
v -0.030876 -0.516581 -0.363125
v 0.136223 -0.458311 0.394875
v 0.136223 -0.458311 -0.363125
v 0.191719 -0.282269 0.394875
v 0.191719 -0.282269 -0.363125
v 0.191719 -0.226157 0.394875
v 0.191719 -0.226157 -0.363125
v 0.101696 -0.317416 0.394875
v 0.101696 -0.317416 -0.363125
v -0.029644 -0.347630 0.394875
v -0.029644 -0.347629 -0.363125
v -0.234360 -0.250822 0.394875
v -0.234360 -0.250822 -0.363125
v -0.312050 0.005688 0.394875
v -0.312050 0.005688 -0.363125
v -0.234360 0.262815 0.394875
v -0.234360 0.262815 -0.363125
v -0.029644 0.359623 0.394875
v -0.029644 0.359623 -0.363125
v 0.101696 0.329409 0.394875
v 0.101696 0.329409 -0.363125
v 0.191719 0.238151 0.394875
v 0.191719 0.238151 -0.363125
v 0.191719 0.342974 0.394875
v 0.191719 0.342974 -0.363125
v 0.140850 -0.184844 0.394875
v 0.191719 0.005688 0.394875
v 0.191719 0.005688 -0.363125
v 0.140850 -0.184844 -0.363125
v 0.140850 0.196838 0.394875
v 0.140850 0.196838 -0.363125
v -0.001896 0.264665 0.394875
v -0.001896 0.264665 -0.363125
v -0.144024 0.196838 0.394875
v -0.144024 0.196838 -0.363125
v -0.194893 0.005688 0.394875
v -0.194893 0.005688 -0.363125
v -0.144024 -0.184844 0.394875
v -0.144024 -0.184844 -0.363125
v -0.001896 -0.252671 0.394875
v -0.001896 -0.252671 -0.363125
v 0.101696 0.329409 -0.363125
v -0.234360 0.262815 -0.363125
v -0.029644 0.359623 -0.363125
v 0.305176 0.342974 -0.363125
v 0.191719 0.238151 -0.363125
v 0.191719 0.342974 -0.363125
v 0.305176 -0.261921 -0.363125
v -0.001896 0.264665 -0.363125
v -0.144024 0.196838 -0.363125
v 0.140850 0.196838 -0.363125
v -0.312050 0.005688 -0.363125
v -0.194893 0.005688 -0.363125
v 0.191719 0.005688 -0.363125
v -0.234360 -0.250822 -0.363125
v -0.144024 -0.184844 -0.363125
v 0.140850 -0.184844 -0.363125
v -0.001896 -0.252671 -0.363125
v 0.191719 -0.226157 -0.363125
v 0.101696 -0.317416 -0.363125
v 0.191719 -0.282269 -0.363125
v -0.029644 -0.347629 -0.363125
v 0.226868 -0.524288 -0.363125
v 0.136223 -0.458311 -0.363125
v -0.030876 -0.516581 -0.363125
v -0.130154 -0.503632 -0.363125
v -0.228809 -0.573926 -0.363125
v -0.228809 -0.463552 -0.363125
v -0.012997 -0.610306 -0.363125
v -0.125835 -0.601365 -0.363125
vn 0.0000 -0.0000 1.0000
vn 0.0000 0.0000 -1.0000
vn 0.9895 -0.1445 -0.0000
vn 0.7071 0.7071 0.0000
vn 0.7260 -0.6877 -0.0000
vn 0.1322 -0.9912 -0.0000
vn -0.1689 -0.9856 -0.0000
vn -0.7929 -0.6093 -0.0000
vn -0.5584 0.8296 0.0000
vn 0.2550 0.9670 0.0000
vn -0.1027 0.9947 0.0000
vn -0.7177 0.6964 0.0000
vn -0.9884 0.1521 0.0000
vn -0.3795 -0.9252 -0.0000
vn 0.4874 -0.8732 -0.0000
vn -0.1076 -0.9942 -0.0000
vn -0.7573 -0.6530 -0.0000
vn -1.0000 -0.0003 -0.0000
vn -0.7575 0.6528 0.0000
vn -0.1076 0.9942 0.0000
vn 0.4874 0.8732 0.0000
vn -0.3795 0.9252 0.0000
vn -0.7071 0.7071 0.0000
vn -1.0000 0.0004 0.0000
vn -0.7687 0.6397 0.0000
vn -0.7689 -0.6394 -0.0000
vn 0.0008 -1.0000 -0.0000
vn 0.7695 -0.6387 -0.0000
vn 1.0000 0.0004 -0.0000
vn 0.7692 0.6390 0.0000
vn 0.0008 1.0000 0.0000
usemtl None
s off
f 1//1 2//1 3//1
f 4//1 5//1 6//1
f 4//1 7//1 5//1
f 1//1 8//1 2//1
f 8//1 4//1 2//1
f 1//1 9//1 8//1
f 10//1 4//1 8//1
f 11//1 9//1 1//1
f 10//1 7//1 4//1
f 11//1 12//1 9//1
f 13//1 7//1 10//1
f 14//1 12//1 11//1
f 14//1 15//1 12//1
f 16//1 7//1 13//1
f 14//1 17//1 15//1
f 17//1 18//1 16//1
f 18//1 7//1 16//1
f 17//1 19//1 18//1
f 20//1 7//1 18//1
f 21//1 17//1 14//1
f 21//1 19//1 17//1
f 20//1 22//1 7//1
f 23//1 22//1 20//1
f 24//1 22//1 23//1
f 25//1 26//1 27//1
f 25//1 24//1 26//1
f 25//1 22//1 24//1
f 25//1 28//1 22//1
f 29//1 28//1 25//1
f 88//2 89//2 90//2
f 91//2 92//2 93//2
f 94//2 92//2 91//2
f 95//2 89//2 88//2
f 92//2 95//2 88//2
f 96//2 89//2 95//2
f 92//2 97//2 95//2
f 96//2 98//2 89//2
f 94//2 97//2 92//2
f 99//2 98//2 96//2
f 94//2 100//2 97//2
f 99//2 101//2 98//2
f 102//2 101//2 99//2
f 94//2 103//2 100//2
f 104//2 101//2 102//2
f 105//2 104//2 103//2
f 94//2 105//2 103//2
f 106//2 104//2 105//2
f 94//2 107//2 105//2
f 104//2 108//2 101//2
f 106//2 108//2 104//2
f 109//2 107//2 94//2
f 109//2 110//2 107//2
f 109//2 111//2 110//2
f 112//2 113//2 114//2
f 111//2 113//2 112//2
f 109//2 113//2 111//2
f 115//2 113//2 109//2
f 115//2 116//2 113//2
s 1
f 31//3 33//4 30//4
f 34//5 32//3 31//3
f 36//6 35//5 34//5
f 38//7 37//6 36//6
f 40//8 39//7 38//7
f 42//9 41//8 40//8
f 44//10 43//9 42//9
f 46//11 45//10 44//10
f 48//12 47//11 46//11
f 50//13 49//12 48//12
f 52//14 51//13 50//13
f 54//15 53//14 52//14
f 56//16 55//15 54//15
f 58//17 57//16 56//16
f 60//18 59//17 58//17
f 62//19 61//18 60//18
f 64//20 63//19 62//19
f 66//21 65//20 64//20
f 68//22 67//21 66//21
f 70//23 69//22 68//22
f 30//4 71//23 70//23
f 73//24 75//25 72//25
f 76//26 74//24 73//24
f 78//27 77//26 76//26
f 80//28 79//27 78//27
f 82//29 81//28 80//28
f 84//30 83//29 82//29
f 86//31 85//30 84//30
f 72//25 87//31 86//31
f 31//3 32//3 33//4
f 34//5 35//5 32//3
f 36//6 37//6 35//5
f 38//7 39//7 37//6
f 40//8 41//8 39//7
f 42//9 43//9 41//8
f 44//10 45//10 43//9
f 46//11 47//11 45//10
f 48//12 49//12 47//11
f 50//13 51//13 49//12
f 52//14 53//14 51//13
f 54//15 55//15 53//14
f 56//16 57//16 55//15
f 58//17 59//17 57//16
f 60//18 61//18 59//17
f 62//19 63//19 61//18
f 64//20 65//20 63//19
f 66//21 67//21 65//20
f 68//22 69//22 67//21
f 70//23 71//23 69//22
f 30//4 33//4 71//23
f 73//24 74//24 75//25
f 76//26 77//26 74//24
f 78//27 79//27 77//26
f 80//28 81//28 79//27
f 82//29 83//29 81//28
f 84//30 85//30 83//29
f 86//31 87//31 85//30
f 72//25 75//25 87//31
