# Blender v2.79 (sub 0) OBJ File: 'Font All Characters Individual Meshes COMPLETE WITH CENTERS AND NAMES.blend'
# www.blender.org
mtllib Half.mtl
o Half_Text.867
v -0.515417 0.064266 0.394875
v -0.515417 0.132094 0.394875
v -0.515417 0.132094 -0.363125
v -0.515417 0.064266 -0.363125
v -0.389624 0.132094 0.394875
v -0.389624 0.132094 -0.363125
v -0.389624 0.508843 0.394875
v -0.389624 0.508843 -0.363125
v -0.527128 0.483562 0.394875
v -0.527128 0.483562 -0.363125
v -0.527128 0.555089 0.394875
v -0.527128 0.555089 -0.363125
v -0.385309 0.579136 0.394875
v -0.385309 0.579136 -0.363125
v -0.300837 0.579136 0.394875
v -0.300837 0.579136 -0.363125
v -0.300837 0.132094 0.394875
v -0.300837 0.132094 -0.363125
v -0.174429 0.132094 0.394875
v -0.174429 0.132094 -0.363125
v -0.174429 0.064266 0.394875
v -0.174429 0.064266 -0.363125
v 0.324411 -0.231090 0.394875
v 0.270765 -0.277336 0.394875
v 0.270765 -0.277336 -0.363125
v 0.324411 -0.231090 -0.363125
v 0.532209 -0.277336 0.394875
v 0.532209 -0.277336 -0.363125
v 0.532209 -0.347630 0.394875
v 0.532209 -0.347629 -0.363125
v 0.163473 -0.347630 0.394875
v 0.163473 -0.347629 -0.363125
v 0.163473 -0.279802 0.394875
v 0.163473 -0.279802 -0.363125
v 0.223288 -0.226157 0.394875
v 0.223288 -0.226157 -0.363125
v 0.435400 0.019870 0.394875
v 0.435400 0.019871 -0.363125
v 0.403334 0.085540 0.394875
v 0.403334 0.085540 -0.363125
v 0.318857 0.110512 0.394875
v 0.318857 0.110512 -0.363125
v 0.249186 0.099722 0.394875
v 0.249186 0.099722 -0.363125
v 0.167173 0.067349 0.394875
v 0.167173 0.067350 -0.363125
v 0.167173 0.143193 0.394875
v 0.167173 0.143193 -0.363125
v 0.255659 0.169090 0.394875
v 0.255659 0.169090 -0.363125
v 0.331808 0.177723 0.394875
v 0.331808 0.177723 -0.363125
v 0.474863 0.137027 0.394875
v 0.474863 0.137027 -0.363125
v 0.528509 0.029736 0.394875
v 0.528509 0.029736 -0.363125
v -0.336596 -0.365511 0.394875
v 0.238085 0.589619 0.394875
v 0.238085 0.589619 -0.363125
v -0.336596 -0.365511 -0.363125
v 0.336740 0.589619 0.394875
v 0.336740 0.589619 -0.363125
v -0.237940 -0.365511 0.394875
v -0.237940 -0.365511 -0.363125
v 0.474863 0.137027 -0.363125
v 0.255659 0.169090 -0.363125
v 0.331808 0.177723 -0.363125
v 0.167173 0.143193 -0.363125
v 0.249186 0.099722 -0.363125
v 0.167173 0.067350 -0.363125
v 0.318857 0.110512 -0.363125
v 0.403334 0.085540 -0.363125
v 0.528509 0.029736 -0.363125
v 0.435400 0.019871 -0.363125
v 0.324411 -0.231090 -0.363125
v 0.223288 -0.226157 -0.363125
v 0.163473 -0.279802 -0.363125
v 0.270765 -0.277336 -0.363125
v 0.532209 -0.277336 -0.363125
v 0.532209 -0.347629 -0.363125
v 0.163473 -0.347629 -0.363125
v -0.300837 0.579136 -0.363125
v -0.527128 0.555089 -0.363125
v -0.385309 0.579136 -0.363125
v -0.389624 0.508843 -0.363125
v -0.300837 0.132094 -0.363125
v -0.527128 0.483562 -0.363125
v -0.389624 0.132094 -0.363125
v -0.515417 0.064266 -0.363125
v -0.515417 0.132094 -0.363125
v -0.174429 0.132094 -0.363125
v -0.174429 0.064266 -0.363125
v 0.336740 0.589619 -0.363125
v -0.336596 -0.365511 -0.363125
v 0.238085 0.589619 -0.363125
v -0.237940 -0.365511 -0.363125
v 0.255659 0.169090 0.394875
v 0.474863 0.137027 0.394875
v 0.331808 0.177723 0.394875
v 0.167173 0.143193 0.394875
v 0.167173 0.067349 0.394875
v 0.249186 0.099722 0.394875
v 0.318857 0.110512 0.394875
v 0.403334 0.085540 0.394875
v 0.528509 0.029736 0.394875
v 0.435400 0.019870 0.394875
v 0.324411 -0.231090 0.394875
v 0.223288 -0.226157 0.394875
v 0.163473 -0.279802 0.394875
v 0.270765 -0.277336 0.394875
v 0.532209 -0.277336 0.394875
v 0.532209 -0.347630 0.394875
v 0.163473 -0.347630 0.394875
v -0.527128 0.555089 0.394875
v -0.300837 0.579136 0.394875
v -0.385309 0.579136 0.394875
v -0.389624 0.508843 0.394875
v -0.300837 0.132094 0.394875
v -0.527128 0.483562 0.394875
v -0.389624 0.132094 0.394875
v -0.515417 0.064266 0.394875
v -0.515417 0.132094 0.394875
v -0.174429 0.132094 0.394875
v -0.174429 0.064266 0.394875
v -0.336596 -0.365511 0.394875
v 0.336740 0.589619 0.394875
v 0.238085 0.589619 0.394875
v -0.237940 -0.365511 0.394875
vn 0.0000 0.0000 -1.0000
vn 0.0000 0.0000 1.0000
vn -0.7071 0.7071 0.0000
vn -0.7071 -0.7071 -0.0000
vn -0.6400 -0.7684 -0.0000
vn -0.7639 0.6453 0.0000
vn -0.0839 0.9965 0.0000
vn 0.7071 0.7071 0.0000
vn 0.7071 -0.7071 -0.0000
vn 0.9374 0.3483 0.0000
vn 0.7237 -0.6901 -0.0000
vn -0.9131 0.4076 0.0000
vn -0.7140 0.7002 0.0000
vn -0.9917 0.1283 -0.0000
vn -0.6457 -0.7636 -0.0000
vn -0.0668 -0.9978 -0.0000
vn 0.2617 -0.9651 -0.0000
vn -0.5625 -0.8268 -0.0000
vn -0.8003 0.5996 0.0000
vn -0.1975 0.9803 0.0000
vn 0.0820 0.9966 0.0000
vn 0.6382 0.7699 0.0000
vn 0.9950 -0.1000 -0.0000
vn -0.4922 0.8705 0.0000
vn -0.8705 -0.4922 -0.0000
vn 0.8705 0.4922 0.0000
vn 0.4922 -0.8705 -0.0000
usemtl None
s off
f 65//1 66//1 67//1
f 65//1 68//1 66//1
f 69//1 70//1 68//1
f 65//1 69//1 68//1
f 71//1 69//1 65//1
f 72//1 71//1 65//1
f 73//1 72//1 65//1
f 73//1 74//1 72//1
f 75//1 74//1 73//1
f 75//1 76//1 74//1
f 75//1 77//1 76//1
f 78//1 77//1 75//1
f 79//1 77//1 78//1
f 80//1 77//1 79//1
f 80//1 81//1 77//1
f 82//1 83//1 84//1
f 85//1 83//1 82//1
f 86//1 85//1 82//1
f 85//1 87//1 83//1
f 86//1 88//1 85//1
f 88//1 89//1 90//1
f 86//1 89//1 88//1
f 91//1 89//1 86//1
f 92//1 89//1 91//1
f 93//1 94//1 95//1
f 96//1 94//1 93//1
f 97//2 98//2 99//2
f 100//2 98//2 97//2
f 101//2 102//2 100//2
f 102//2 98//2 100//2
f 102//2 103//2 98//2
f 103//2 104//2 98//2
f 104//2 105//2 98//2
f 106//2 105//2 104//2
f 106//2 107//2 105//2
f 108//2 107//2 106//2
f 109//2 107//2 108//2
f 109//2 110//2 107//2
f 109//2 111//2 110//2
f 109//2 112//2 111//2
f 113//2 112//2 109//2
f 114//2 115//2 116//2
f 114//2 117//2 115//2
f 117//2 118//2 115//2
f 119//2 117//2 114//2
f 120//2 118//2 117//2
f 121//2 120//2 122//2
f 121//2 118//2 120//2
f 121//2 123//2 118//2
f 121//2 124//2 123//2
f 125//2 126//2 127//2
f 125//2 128//2 126//2
s 1
f 2//3 4//4 1//4
f 5//3 3//3 2//3
f 7//5 6//3 5//3
f 9//5 8//5 7//5
f 11//6 10//5 9//5
f 13//7 12//6 11//6
f 15//8 14//7 13//7
f 17//8 16//8 15//8
f 19//8 18//8 17//8
f 21//9 20//8 19//8
f 1//4 22//9 21//9
f 24//10 26//11 23//11
f 27//8 25//10 24//10
f 29//9 28//8 27//8
f 31//4 30//9 29//9
f 33//12 32//4 31//4
f 35//13 34//12 33//12
f 37//14 36//13 35//13
f 39//15 38//14 37//14
f 41//16 40//15 39//15
f 43//17 42//16 41//16
f 45//18 44//17 43//17
f 47//19 46//18 45//18
f 49//20 48//19 47//19
f 51//21 50//20 49//20
f 53//22 52//21 51//21
f 55//23 54//22 53//22
f 23//11 56//23 55//23
f 58//24 60//25 57//25
f 61//26 59//24 58//24
f 63//27 62//26 61//26
f 57//25 64//27 63//27
f 2//3 3//3 4//4
f 5//3 6//3 3//3
f 7//5 8//5 6//3
f 9//5 10//5 8//5
f 11//6 12//6 10//5
f 13//7 14//7 12//6
f 15//8 16//8 14//7
f 17//8 18//8 16//8
f 19//8 20//8 18//8
f 21//9 22//9 20//8
f 1//4 4//4 22//9
f 24//10 25//10 26//11
f 27//8 28//8 25//10
f 29//9 30//9 28//8
f 31//4 32//4 30//9
f 33//12 34//12 32//4
f 35//13 36//13 34//12
f 37//14 38//14 36//13
f 39//15 40//15 38//14
f 41//16 42//16 40//15
f 43//17 44//17 42//16
f 45//18 46//18 44//17
f 47//19 48//19 46//18
f 49//20 50//20 48//19
f 51//21 52//21 50//20
f 53//22 54//22 52//21
f 55//23 56//23 54//22
f 23//11 26//11 56//23
f 58//24 59//24 60//25
f 61//26 62//26 59//24
f 63//27 64//27 62//26
f 57//25 60//25 64//27
