# Blender v2.79 (sub 0) OBJ File: 'Font All Characters Individual Meshes COMPLETE WITH CENTERS AND NAMES.blend'
# www.blender.org
mtllib J.mtl
o J_Text.227
v 0.015327 -0.359962 0.394875
v 0.128788 0.342974 0.394875
v 0.015327 0.342974 0.394875
v 0.128788 -0.359962 0.394875
v -0.008102 -0.484209 0.394875
v 0.078529 -0.551111 0.394875
v -0.096279 -0.514114 0.394875
v -0.126492 -0.610306 0.394875
v -0.126492 -0.514114 0.394875
v -0.083328 -0.610306 0.394875
v 0.015327 0.468146 0.394875
v 0.015327 0.611817 0.394875
v 0.015327 0.611817 -0.363125
v 0.015327 0.468146 -0.363125
v 0.128788 0.611817 0.394875
v 0.128788 0.611817 -0.363125
v 0.128788 0.468146 0.394875
v 0.128788 0.468146 -0.363125
v 0.015327 -0.359962 0.394875
v 0.015327 0.342974 0.394875
v 0.015327 0.342974 -0.363125
v 0.015327 -0.359962 -0.363125
v 0.128788 0.342974 0.394875
v 0.128788 0.342974 -0.363125
v 0.128788 -0.359962 0.394875
v 0.128788 -0.359962 -0.363125
v 0.078529 -0.551111 0.394875
v 0.078529 -0.551111 -0.363125
v -0.083328 -0.610306 0.394875
v -0.083328 -0.610306 -0.363125
v -0.126492 -0.610306 0.394875
v -0.126492 -0.610306 -0.363125
v -0.126492 -0.514114 0.394875
v -0.126492 -0.514114 -0.363125
v -0.096279 -0.514114 0.394875
v -0.096279 -0.514114 -0.363125
v -0.008102 -0.484209 0.394875
v -0.008102 -0.484209 -0.363125
v 0.128788 0.611817 -0.363125
v 0.015327 0.468146 -0.363125
v 0.015327 0.611817 -0.363125
v 0.128788 0.468146 -0.363125
v 0.128788 0.342974 -0.363125
v 0.015327 -0.359962 -0.363125
v 0.015327 0.342974 -0.363125
v 0.128788 -0.359962 -0.363125
v -0.008102 -0.484209 -0.363125
v 0.078529 -0.551111 -0.363125
v -0.096279 -0.514114 -0.363125
v -0.126492 -0.610306 -0.363125
v -0.126492 -0.514114 -0.363125
v -0.083328 -0.610306 -0.363125
v 0.015327 0.468146 0.394875
v 0.128788 0.611817 0.394875
v 0.015327 0.611817 0.394875
v 0.128788 0.468146 0.394875
vn 0.0000 -0.0000 1.0000
vn 0.0000 0.0000 -1.0000
vn -0.7071 0.7071 0.0000
vn -0.7071 -0.7071 -0.0000
vn 0.7071 0.7071 0.0000
vn 0.7071 -0.7071 -0.0000
vn -0.9957 0.0931 0.0000
vn 0.9917 -0.1282 -0.0000
vn 0.7394 -0.6733 -0.0000
vn 0.1744 -0.9847 -0.0000
vn -0.1628 0.9867 0.0000
vn -0.7550 0.6557 0.0000
usemtl None
s off
f 1//1 2//1 3//1
f 1//1 4//1 2//1
f 5//1 4//1 1//1
f 5//1 6//1 4//1
f 7//1 6//1 5//1
f 8//1 7//1 9//1
f 8//1 6//1 7//1
f 8//1 10//1 6//1
f 39//2 40//2 41//2
f 42//2 40//2 39//2
f 43//2 44//2 45//2
f 46//2 44//2 43//2
f 46//2 47//2 44//2
f 48//2 47//2 46//2
f 48//2 49//2 47//2
f 49//2 50//2 51//2
f 48//2 50//2 49//2
f 52//2 50//2 48//2
f 53//1 54//1 55//1
f 53//1 56//1 54//1
s 1
f 12//3 14//4 11//4
f 15//5 13//3 12//3
f 17//6 16//5 15//5
f 11//4 18//6 17//6
f 20//3 22//7 19//7
f 23//5 21//3 20//3
f 25//8 24//5 23//5
f 27//9 26//8 25//8
f 29//10 28//9 27//9
f 31//4 30//10 29//10
f 33//3 32//4 31//4
f 35//11 34//3 33//3
f 37//12 36//11 35//11
f 19//7 38//12 37//12
f 12//3 13//3 14//4
f 15//5 16//5 13//3
f 17//6 18//6 16//5
f 11//4 14//4 18//6
f 20//3 21//3 22//7
f 23//5 24//5 21//3
f 25//8 26//8 24//5
f 27//9 28//9 26//8
f 29//10 30//10 28//9
f 31//4 32//4 30//10
f 33//3 34//3 32//4
f 35//11 36//11 34//3
f 37//12 38//12 36//11
f 19//7 22//7 38//12
