# Blender v2.79 (sub 0) OBJ File: 'Font All Characters Individual Meshes COMPLETE WITH CENTERS AND NAMES.blend'
# www.blender.org
mtllib k.mtl
o k_Text.731
v -0.182720 -0.347630 0.394875
v -0.182720 0.611817 0.394875
v -0.182720 0.611817 -0.363125
v -0.182720 -0.347629 -0.363125
v -0.068649 0.611817 0.394875
v -0.068649 0.611817 -0.363125
v -0.068649 0.045152 0.394875
v -0.068649 0.045152 -0.363125
v 0.269871 0.342974 0.394875
v 0.269871 0.342974 -0.363125
v 0.414776 0.342974 0.394875
v 0.414776 0.342974 -0.363125
v 0.048508 0.019870 0.394875
v 0.048508 0.019871 -0.363125
v 0.430191 -0.347630 0.394875
v 0.430191 -0.347629 -0.363125
v 0.282204 -0.347630 0.394875
v 0.282204 -0.347629 -0.363125
v -0.068649 -0.010343 0.394875
v -0.068649 -0.010343 -0.363125
v -0.068649 -0.347630 0.394875
v -0.068649 -0.347629 -0.363125
v -0.068649 0.611817 -0.363125
v -0.182720 -0.347629 -0.363125
v -0.182720 0.611817 -0.363125
v -0.068649 0.045152 -0.363125
v 0.414776 0.342974 -0.363125
v 0.269871 0.342974 -0.363125
v 0.048508 0.019871 -0.363125
v -0.068649 -0.010343 -0.363125
v 0.430191 -0.347629 -0.363125
v -0.068649 -0.347629 -0.363125
v 0.282204 -0.347629 -0.363125
v -0.182720 -0.347630 0.394875
v -0.068649 0.611817 0.394875
v -0.182720 0.611817 0.394875
v -0.068649 0.045152 0.394875
v 0.414776 0.342974 0.394875
v 0.269871 0.342974 0.394875
v 0.048508 0.019870 0.394875
v -0.068649 -0.010343 0.394875
v 0.430191 -0.347630 0.394875
v -0.068649 -0.347630 0.394875
v 0.282204 -0.347630 0.394875
vn 0.0000 0.0000 -1.0000
vn 0.0000 -0.0000 1.0000
vn -0.7071 0.7071 0.0000
vn -0.7071 -0.7071 -0.0000
vn 0.7071 0.7071 0.0000
vn 0.4120 0.9112 0.0000
vn -0.3530 0.9356 0.0000
vn 0.9354 0.3536 -0.0000
vn 0.9998 -0.0218 0.0000
vn 0.9275 -0.3739 -0.0000
vn -0.3736 -0.9276 -0.0000
vn 0.3918 -0.9201 -0.0000
vn 0.7071 -0.7071 -0.0000
usemtl None
s off
f 23//1 24//1 25//1
f 26//1 24//1 23//1
f 27//1 26//1 28//1
f 29//1 26//1 27//1
f 30//1 24//1 26//1
f 29//1 30//1 26//1
f 31//1 30//1 29//1
f 32//1 24//1 30//1
f 31//1 33//1 30//1
f 34//2 35//2 36//2
f 34//2 37//2 35//2
f 37//2 38//2 39//2
f 37//2 40//2 38//2
f 34//2 41//2 37//2
f 41//2 40//2 37//2
f 41//2 42//2 40//2
f 34//2 43//2 41//2
f 44//2 42//2 41//2
s 1
f 2//3 4//4 1//4
f 5//5 3//3 2//3
f 7//6 6//5 5//5
f 9//7 8//6 7//6
f 11//8 10//7 9//7
f 11//8 14//9 12//8
f 13//9 16//10 14//9
f 17//11 16//10 15//10
f 19//12 18//11 17//11
f 19//12 22//13 20//12
f 1//4 22//13 21//13
f 2//3 3//3 4//4
f 5//5 6//5 3//3
f 7//6 8//6 6//5
f 9//7 10//7 8//6
f 11//8 12//8 10//7
f 11//8 13//9 14//9
f 13//9 15//10 16//10
f 17//11 18//11 16//10
f 19//12 20//12 18//11
f 19//12 21//13 22//13
f 1//4 4//4 22//13
