# Blender v2.79 (sub 0) OBJ File: 'Font All Characters Individual Meshes COMPLETE WITH CENTERS AND NAMES.blend'
# www.blender.org
mtllib Left Double Arrows.mtl
o Left_Double_Arrows_Text.877
v -0.318764 0.047618 0.394875
v -0.029572 0.305361 0.394875
v -0.029572 0.305361 -0.363125
v -0.318764 0.047618 -0.363125
v -0.029572 0.187589 0.394875
v -0.029572 0.187589 -0.363125
v -0.215172 0.022337 0.394875
v -0.215172 0.022337 -0.363125
v -0.029572 -0.142915 0.394875
v -0.029572 -0.142915 -0.363125
v -0.029572 -0.260687 0.394875
v -0.029572 -0.260687 -0.363125
v -0.318764 -0.002944 0.394875
v -0.318764 -0.002944 -0.363125
v -0.051155 0.047618 0.394875
v 0.238037 0.305361 0.394875
v 0.238037 0.305361 -0.363125
v -0.051155 0.047618 -0.363125
v 0.238037 0.187589 0.394875
v 0.238037 0.187589 -0.363125
v 0.052437 0.022337 0.394875
v 0.052437 0.022337 -0.363125
v 0.238037 -0.142915 0.394875
v 0.238037 -0.142915 -0.363125
v 0.238037 -0.260687 0.394875
v 0.238037 -0.260687 -0.363125
v -0.051155 -0.002944 0.394875
v -0.051155 -0.002944 -0.363125
v 0.238037 0.187589 -0.363125
v -0.051155 0.047618 -0.363125
v 0.238037 0.305361 -0.363125
v 0.052437 0.022337 -0.363125
v -0.051155 -0.002944 -0.363125
v 0.238037 -0.142915 -0.363125
v 0.238037 -0.260687 -0.363125
v -0.029572 0.187589 -0.363125
v -0.318764 0.047618 -0.363125
v -0.029572 0.305361 -0.363125
v -0.215172 0.022337 -0.363125
v -0.318764 -0.002944 -0.363125
v -0.029572 -0.142915 -0.363125
v -0.029572 -0.260687 -0.363125
v -0.051155 0.047618 0.394875
v 0.238037 0.187589 0.394875
v 0.238037 0.305361 0.394875
v 0.052437 0.022337 0.394875
v -0.051155 -0.002944 0.394875
v 0.238037 -0.142915 0.394875
v 0.238037 -0.260687 0.394875
v -0.318764 0.047618 0.394875
v -0.029572 0.187589 0.394875
v -0.029572 0.305361 0.394875
v -0.215172 0.022337 0.394875
v -0.318764 -0.002944 0.394875
v -0.029572 -0.142915 0.394875
v -0.029572 -0.260687 0.394875
vn -0.0000 0.0000 -1.0000
vn 0.0000 -0.0000 1.0000
vn 0.4091 0.9125 0.0000
vn -0.9125 0.4091 0.0000
vn 0.9124 -0.4093 -0.0000
vn 1.0000 -0.0000 0.0000
vn 0.9124 0.4093 0.0000
vn 0.4091 -0.9125 -0.0000
vn -0.9125 -0.4091 -0.0000
usemtl None
s off
f 29//1 30//1 31//1
f 32//1 30//1 29//1
f 32//1 33//1 30//1
f 34//1 33//1 32//1
f 34//1 35//1 33//1
f 36//1 37//1 38//1
f 39//1 37//1 36//1
f 39//1 40//1 37//1
f 41//1 40//1 39//1
f 41//1 42//1 40//1
f 43//2 44//2 45//2
f 43//2 46//2 44//2
f 47//2 46//2 43//2
f 47//2 48//2 46//2
f 49//2 48//2 47//2
f 50//2 51//2 52//2
f 50//2 53//2 51//2
f 54//2 53//2 50//2
f 54//2 55//2 53//2
f 56//2 55//2 54//2
s 1
f 2//3 4//4 1//4
f 5//5 3//3 2//3
f 7//6 6//5 5//5
f 9//7 8//6 7//6
f 11//8 10//7 9//7
f 13//9 12//8 11//8
f 1//4 14//9 13//9
f 16//3 18//4 15//4
f 19//5 17//3 16//3
f 21//6 20//5 19//5
f 23//7 22//6 21//6
f 25//8 24//7 23//7
f 27//9 26//8 25//8
f 15//4 28//9 27//9
f 2//3 3//3 4//4
f 5//5 6//5 3//3
f 7//6 8//6 6//5
f 9//7 10//7 8//6
f 11//8 12//8 10//7
f 13//9 14//9 12//8
f 1//4 4//4 14//9
f 16//3 17//3 18//4
f 19//5 20//5 17//3
f 21//6 22//6 20//5
f 23//7 24//7 22//6
f 25//8 26//8 24//7
f 27//9 28//9 26//8
f 15//4 18//4 28//9
