# Blender v2.79 (sub 0) OBJ File: 'Font All Characters Individual Meshes COMPLETE WITH CENTERS AND NAMES.blend'
# www.blender.org
mtllib Left Curly Brace.mtl
o Left_Curly_Brace_Text.210
v 0.005714 0.566496 0.394875
v 0.249584 0.611817 0.394875
v 0.211353 0.611817 0.394875
v 0.249584 0.523641 0.394875
v -0.046394 0.384904 0.394875
v 0.094196 0.496511 0.394875
v 0.207653 0.523641 0.394875
v 0.067680 0.382438 0.394875
v -0.046394 0.236918 0.394875
v 0.067680 0.229518 0.394875
v -0.079380 0.109587 0.394875
v 0.039627 0.088931 0.394875
v -0.200546 0.074132 0.394875
v -0.056255 0.029736 0.394875
v -0.238159 -0.014043 0.394875
v -0.238159 0.074132 0.394875
v -0.200546 -0.014043 0.394875
v 0.039932 -0.030692 0.394875
v -0.079689 -0.049807 0.394875
v 0.067680 -0.170662 0.394875
v -0.046394 -0.178678 0.394875
v 0.067680 -0.323582 0.394875
v -0.046394 -0.326048 0.394875
v 0.094196 -0.437655 0.394875
v 0.005714 -0.507948 0.394875
v 0.207653 -0.464786 0.394875
v 0.249584 -0.464786 0.394875
v 0.249584 -0.553578 0.394875
v 0.211353 -0.553578 0.394875
v 0.207653 -0.464786 0.394875
v 0.249584 -0.464786 0.394875
v 0.249584 -0.464786 -0.363125
v 0.207653 -0.464786 -0.363125
v 0.249584 -0.553578 0.394875
v 0.249584 -0.553577 -0.363125
v 0.211353 -0.553578 0.394875
v 0.211353 -0.553577 -0.363125
v 0.005714 -0.507948 0.394875
v 0.005714 -0.507948 -0.363125
v -0.046394 -0.326048 0.394875
v -0.046394 -0.326048 -0.363125
v -0.046394 -0.178678 0.394875
v -0.046394 -0.178678 -0.363125
v -0.079689 -0.049807 0.394875
v -0.079689 -0.049806 -0.363125
v -0.200546 -0.014043 0.394875
v -0.200546 -0.014043 -0.363125
v -0.238159 -0.014043 0.394875
v -0.238159 -0.014043 -0.363125
v -0.238159 0.074132 0.394875
v -0.238159 0.074132 -0.363125
v -0.200546 0.074132 0.394875
v -0.200546 0.074132 -0.363125
v -0.079380 0.109587 0.394875
v -0.079380 0.109587 -0.363125
v -0.046394 0.236918 0.394875
v -0.046394 0.236918 -0.363125
v -0.046394 0.384904 0.394875
v -0.046394 0.384904 -0.363125
v 0.005714 0.566496 0.394875
v 0.005714 0.566496 -0.363125
v 0.211353 0.611817 0.394875
v 0.211353 0.611817 -0.363125
v 0.249584 0.611817 0.394875
v 0.249584 0.611817 -0.363125
v 0.249584 0.523641 0.394875
v 0.249584 0.523641 -0.363125
v 0.207653 0.523641 0.394875
v 0.207653 0.523641 -0.363125
v 0.094196 0.496511 0.394875
v 0.094196 0.496511 -0.363125
v 0.067680 0.382438 0.394875
v 0.067680 0.382438 -0.363125
v 0.067680 0.229518 0.394875
v 0.067680 0.229518 -0.363125
v 0.039627 0.088931 0.394875
v 0.039627 0.088931 -0.363125
v -0.056255 0.029736 0.394875
v -0.056255 0.029736 -0.363125
v 0.039932 -0.030692 0.394875
v 0.039932 -0.030692 -0.363125
v 0.067680 -0.170662 0.394875
v 0.067680 -0.170662 -0.363125
v 0.067680 -0.323582 0.394875
v 0.067680 -0.323582 -0.363125
v 0.094196 -0.437655 0.394875
v 0.094196 -0.437655 -0.363125
v 0.249584 0.611817 -0.363125
v 0.005714 0.566496 -0.363125
v 0.211353 0.611817 -0.363125
v 0.249584 0.523641 -0.363125
v 0.094196 0.496511 -0.363125
v -0.046394 0.384904 -0.363125
v 0.207653 0.523641 -0.363125
v 0.067680 0.382438 -0.363125
v -0.046394 0.236918 -0.363125
v 0.067680 0.229518 -0.363125
v -0.079380 0.109587 -0.363125
v 0.039627 0.088931 -0.363125
v -0.200546 0.074132 -0.363125
v -0.056255 0.029736 -0.363125
v -0.238159 -0.014043 -0.363125
v -0.238159 0.074132 -0.363125
v -0.200546 -0.014043 -0.363125
v 0.039932 -0.030692 -0.363125
v -0.079689 -0.049806 -0.363125
v 0.067680 -0.170662 -0.363125
v -0.046394 -0.178678 -0.363125
v 0.067680 -0.323582 -0.363125
v -0.046394 -0.326048 -0.363125
v 0.094196 -0.437655 -0.363125
v 0.005714 -0.507948 -0.363125
v 0.207653 -0.464786 -0.363125
v 0.249584 -0.464786 -0.363125
v 0.249584 -0.553577 -0.363125
v 0.211353 -0.553577 -0.363125
vn 0.0000 0.0000 1.0000
vn 0.0000 0.0000 -1.0000
vn 0.7071 0.7071 0.0000
vn 0.1171 0.9931 0.0000
vn 0.7071 -0.7071 -0.0000
vn -0.1090 -0.9940 -0.0000
vn -0.6853 -0.7282 -0.0000
vn -0.9903 -0.1390 -0.0000
vn -0.9920 -0.1261 -0.0000
vn -0.7193 -0.6947 -0.0000
vn -0.1434 -0.9897 -0.0000
vn -0.7071 -0.7071 -0.0000
vn -0.7071 0.7071 0.0000
vn -0.1419 0.9899 0.0000
vn -0.7180 0.6960 0.0000
vn -0.9920 0.1264 0.0000
vn -0.9903 0.1393 0.0000
vn -0.6847 0.7289 0.0000
vn -0.1082 0.9941 0.0000
vn 0.1171 -0.9931 -0.0000
vn 0.7093 -0.7049 -0.0000
vn 0.9935 -0.1139 -0.0000
vn 0.9952 -0.0983 -0.0000
vn 0.8212 -0.5707 -0.0000
vn 1.0000 -0.0039 -0.0000
vn 0.8238 0.5669 0.0000
vn 0.9952 0.0977 0.0000
vn 0.9935 0.1139 0.0000
vn 0.7093 0.7049 0.0000
usemtl None
s off
f 1//1 2//1 3//1
f 1//1 4//1 2//1
f 5//1 6//1 1//1
f 6//1 7//1 1//1
f 7//1 4//1 1//1
f 5//1 8//1 6//1
f 9//1 8//1 5//1
f 9//1 10//1 8//1
f 11//1 10//1 9//1
f 11//1 12//1 10//1
f 13//1 12//1 11//1
f 13//1 14//1 12//1
f 15//1 13//1 16//1
f 15//1 14//1 13//1
f 15//1 17//1 14//1
f 17//1 18//1 14//1
f 19//1 18//1 17//1
f 19//1 20//1 18//1
f 21//1 20//1 19//1
f 21//1 22//1 20//1
f 23//1 22//1 21//1
f 23//1 24//1 22//1
f 25//1 24//1 23//1
f 25//1 26//1 24//1
f 25//1 27//1 26//1
f 25//1 28//1 27//1
f 29//1 28//1 25//1
f 88//2 89//2 90//2
f 91//2 89//2 88//2
f 92//2 93//2 89//2
f 94//2 92//2 89//2
f 91//2 94//2 89//2
f 95//2 93//2 92//2
f 95//2 96//2 93//2
f 97//2 96//2 95//2
f 97//2 98//2 96//2
f 99//2 98//2 97//2
f 99//2 100//2 98//2
f 101//2 100//2 99//2
f 100//2 102//2 103//2
f 101//2 102//2 100//2
f 104//2 102//2 101//2
f 105//2 104//2 101//2
f 105//2 106//2 104//2
f 107//2 106//2 105//2
f 107//2 108//2 106//2
f 109//2 108//2 107//2
f 109//2 110//2 108//2
f 111//2 110//2 109//2
f 111//2 112//2 110//2
f 113//2 112//2 111//2
f 114//2 112//2 113//2
f 115//2 112//2 114//2
f 115//2 116//2 112//2
s 1
f 31//3 33//4 30//4
f 34//5 32//3 31//3
f 36//6 35//5 34//5
f 38//7 37//6 36//6
f 40//8 39//7 38//7
f 42//9 41//8 40//8
f 44//10 43//9 42//9
f 46//11 45//10 44//10
f 48//12 47//11 46//11
f 50//13 49//12 48//12
f 52//14 51//13 50//13
f 54//15 53//14 52//14
f 56//16 55//15 54//15
f 58//17 57//16 56//16
f 60//18 59//17 58//17
f 62//19 61//18 60//18
f 64//3 63//19 62//19
f 66//5 65//3 64//3
f 68//20 67//5 66//5
f 70//21 69//20 68//20
f 72//22 71//21 70//21
f 74//23 73//22 72//22
f 76//24 75//23 74//23
f 78//25 77//24 76//24
f 80//26 79//25 78//25
f 82//27 81//26 80//26
f 84//28 83//27 82//27
f 86//29 85//28 84//28
f 30//4 87//29 86//29
f 31//3 32//3 33//4
f 34//5 35//5 32//3
f 36//6 37//6 35//5
f 38//7 39//7 37//6
f 40//8 41//8 39//7
f 42//9 43//9 41//8
f 44//10 45//10 43//9
f 46//11 47//11 45//10
f 48//12 49//12 47//11
f 50//13 51//13 49//12
f 52//14 53//14 51//13
f 54//15 55//15 53//14
f 56//16 57//16 55//15
f 58//17 59//17 57//16
f 60//18 61//18 59//17
f 62//19 63//19 61//18
f 64//3 65//3 63//19
f 66//5 67//5 65//3
f 68//20 69//20 67//5
f 70//21 71//21 69//20
f 72//22 73//22 71//21
f 74//23 75//23 73//22
f 76//24 77//24 75//23
f 78//25 79//25 77//24
f 80//26 81//26 79//25
f 82//27 83//27 81//26
f 84//28 85//28 83//27
f 86//29 87//29 85//28
f 30//4 33//4 87//29
