# Blender v2.79 (sub 0) OBJ File: 'Font All Characters Individual Meshes COMPLETE WITH CENTERS AND NAMES.blend'
# www.blender.org
mtllib Left Square Bracket.mtl
o Left_Square_Bracket_Text.244
v -0.145763 -0.514114 0.394875
v -0.032303 0.523641 0.394875
v -0.145763 0.611817 0.394875
v 0.115681 0.611817 0.394875
v 0.115681 0.523641 0.394875
v -0.032303 -0.425939 0.394875
v 0.115681 -0.425939 0.394875
v 0.115681 -0.514114 0.394875
v -0.145763 -0.514114 0.394875
v -0.145763 0.611817 0.394875
v -0.145763 0.611817 -0.363125
v -0.145763 -0.514114 -0.363125
v 0.115681 0.611817 0.394875
v 0.115681 0.611817 -0.363125
v 0.115681 0.523641 0.394875
v 0.115681 0.523641 -0.363125
v -0.032303 0.523641 0.394875
v -0.032303 0.523641 -0.363125
v -0.032303 -0.425939 0.394875
v -0.032303 -0.425939 -0.363125
v 0.115681 -0.425939 0.394875
v 0.115681 -0.425939 -0.363125
v 0.115681 -0.514114 0.394875
v 0.115681 -0.514114 -0.363125
v -0.032303 0.523641 -0.363125
v -0.145763 -0.514114 -0.363125
v -0.145763 0.611817 -0.363125
v 0.115681 0.611817 -0.363125
v 0.115681 0.523641 -0.363125
v -0.032303 -0.425939 -0.363125
v 0.115681 -0.425939 -0.363125
v 0.115681 -0.514114 -0.363125
vn 0.0000 -0.0000 1.0000
vn 0.0000 0.0000 -1.0000
vn -0.7071 0.7071 0.0000
vn -0.7071 -0.7071 -0.0000
vn 0.7071 0.7071 0.0000
vn 0.7071 -0.7071 -0.0000
usemtl None
s off
f 1//1 2//1 3//1
f 2//1 4//1 3//1
f 2//1 5//1 4//1
f 1//1 6//1 2//1
f 1//1 7//1 6//1
f 1//1 8//1 7//1
f 25//2 26//2 27//2
f 28//2 25//2 27//2
f 29//2 25//2 28//2
f 30//2 26//2 25//2
f 31//2 26//2 30//2
f 32//2 26//2 31//2
s 1
f 10//3 12//4 9//4
f 13//5 11//3 10//3
f 15//6 14//5 13//5
f 17//6 16//6 15//6
f 19//5 18//6 17//6
f 21//5 20//5 19//5
f 23//6 22//5 21//5
f 9//4 24//6 23//6
f 10//3 11//3 12//4
f 13//5 14//5 11//3
f 15//6 16//6 14//5
f 17//6 18//6 16//6
f 19//5 20//5 18//6
f 21//5 22//5 20//5
f 23//6 24//6 22//5
f 9//4 12//4 24//6
