# Blender v2.79 (sub 0) OBJ File: 'Font All Characters Individual Meshes COMPLETE WITH CENTERS AND NAMES.blend'
# www.blender.org
mtllib Less than.mtl
o Less_than_Text.666
v 0.314972 0.386137 0.394875
v 0.314972 0.273914 0.394875
v 0.314972 0.273914 -0.363125
v 0.314972 0.386137 -0.363125
v -0.321373 0.047618 0.394875
v -0.321373 0.047618 -0.363125
v 0.314972 -0.177445 0.394875
v 0.314972 -0.177445 -0.363125
v 0.314972 -0.289668 0.394875
v 0.314972 -0.289668 -0.363125
v -0.475525 -0.002944 0.394875
v -0.475525 -0.002944 -0.363125
v -0.475525 0.099413 0.394875
v -0.475525 0.099413 -0.363125
v 0.314972 0.273914 -0.363125
v -0.475525 0.099413 -0.363125
v 0.314972 0.386137 -0.363125
v -0.321373 0.047618 -0.363125
v -0.475525 -0.002944 -0.363125
v 0.314972 -0.177445 -0.363125
v 0.314972 -0.289668 -0.363125
v -0.475525 0.099413 0.394875
v 0.314972 0.273914 0.394875
v 0.314972 0.386137 0.394875
v -0.321373 0.047618 0.394875
v -0.475525 -0.002944 0.394875
v 0.314972 -0.177445 0.394875
v 0.314972 -0.289668 0.394875
vn -0.0000 0.0000 -1.0000
vn 0.0000 -0.0000 1.0000
vn 0.8170 -0.5766 -0.0000
vn 0.5740 0.8188 0.0000
vn 1.0000 0.0009 0.0000
vn 0.8165 0.5773 0.0000
vn 0.5740 -0.8188 -0.0000
vn -0.8188 -0.5740 -0.0000
vn -0.8188 0.5740 0.0000
usemtl None
s off
f 15//1 16//1 17//1
f 18//1 16//1 15//1
f 18//1 19//1 16//1
f 20//1 19//1 18//1
f 20//1 21//1 19//1
f 22//2 23//2 24//2
f 22//2 25//2 23//2
f 26//2 25//2 22//2
f 26//2 27//2 25//2
f 28//2 27//2 26//2
s 1
f 2//3 4//4 1//4
f 5//5 3//3 2//3
f 7//6 6//5 5//5
f 9//7 8//6 7//6
f 11//8 10//7 9//7
f 13//9 12//8 11//8
f 1//4 14//9 13//9
f 2//3 3//3 4//4
f 5//5 6//5 3//3
f 7//6 8//6 6//5
f 9//7 10//7 8//6
f 11//8 12//8 10//7
f 13//9 14//9 12//8
f 1//4 4//4 14//9
