# Blender v2.79 (sub 0) OBJ File: 'Font All Characters Individual Meshes COMPLETE WITH CENTERS AND NAMES.blend'
# www.blender.org
mtllib M.mtl
o M_Text.224
v -0.317562 0.329409 0.394875
v -0.060745 0.321393 0.394875
v -0.188690 0.359623 0.394875
v 0.118999 0.323243 0.394875
v 0.424839 0.284088 0.394875
v 0.258354 0.359623 0.394875
v -0.524742 -0.347630 0.394875
v -0.410671 0.342974 0.394875
v -0.524742 0.342974 0.394875
v -0.410671 0.235684 0.394875
v 0.017258 0.210403 0.394875
v 0.226906 0.260965 0.394875
v -0.221371 0.260965 0.394875
v 0.334198 0.212870 0.394875
v 0.483414 0.069199 0.394875
v -0.359493 0.202079 0.394875
v -0.112846 0.213178 0.394875
v 0.087551 0.202387 0.394875
v -0.410671 0.042685 0.394875
v -0.077698 0.065500 0.394875
v 0.369343 0.065500 0.394875
v 0.036373 0.042685 0.394875
v 0.483414 -0.347630 0.394875
v -0.077698 -0.347630 0.394875
v 0.369343 -0.347630 0.394875
v -0.410671 -0.347630 0.394875
v 0.036373 -0.347630 0.394875
v -0.060745 0.321393 0.394875
v 0.017258 0.210403 0.394875
v 0.017258 0.210403 -0.363125
v -0.060745 0.321393 -0.363125
v 0.118999 0.323243 0.394875
v 0.118999 0.323243 -0.363125
v 0.258354 0.359623 0.394875
v 0.258354 0.359623 -0.363125
v 0.424839 0.284088 0.394875
v 0.424839 0.284088 -0.363125
v 0.483414 0.069199 0.394875
v 0.483414 0.069199 -0.363125
v 0.483414 -0.347630 0.394875
v 0.483414 -0.347629 -0.363125
v 0.369343 -0.347630 0.394875
v 0.369343 -0.347629 -0.363125
v 0.369343 0.065500 0.394875
v 0.369343 0.065500 -0.363125
v 0.334198 0.212870 0.394875
v 0.334198 0.212870 -0.363125
v 0.226906 0.260965 0.394875
v 0.226906 0.260965 -0.363125
v 0.087551 0.202387 0.394875
v 0.087551 0.202387 -0.363125
v 0.036373 0.042685 0.394875
v 0.036373 0.042685 -0.363125
v 0.036373 -0.347630 0.394875
v 0.036373 -0.347629 -0.363125
v -0.077698 -0.347630 0.394875
v -0.077698 -0.347629 -0.363125
v -0.077698 0.065500 0.394875
v -0.077698 0.065500 -0.363125
v -0.112846 0.213178 0.394875
v -0.112846 0.213178 -0.363125
v -0.221371 0.260965 0.394875
v -0.221371 0.260965 -0.363125
v -0.359493 0.202079 0.394875
v -0.359493 0.202079 -0.363125
v -0.410671 0.042685 0.394875
v -0.410671 0.042685 -0.363125
v -0.410671 -0.347630 0.394875
v -0.410671 -0.347629 -0.363125
v -0.524742 -0.347630 0.394875
v -0.524742 -0.347629 -0.363125
v -0.524742 0.342974 0.394875
v -0.524742 0.342974 -0.363125
v -0.410671 0.342974 0.394875
v -0.410671 0.342974 -0.363125
v -0.410671 0.235684 0.394875
v -0.410671 0.235684 -0.363125
v -0.317562 0.329409 0.394875
v -0.317562 0.329409 -0.363125
v -0.188690 0.359623 0.394875
v -0.188690 0.359623 -0.363125
v -0.060745 0.321393 -0.363125
v -0.317562 0.329409 -0.363125
v -0.188690 0.359623 -0.363125
v 0.424839 0.284088 -0.363125
v 0.118999 0.323243 -0.363125
v 0.258354 0.359623 -0.363125
v -0.410671 0.342974 -0.363125
v -0.524742 -0.347629 -0.363125
v -0.524742 0.342974 -0.363125
v -0.410671 0.235684 -0.363125
v 0.226906 0.260965 -0.363125
v 0.017258 0.210403 -0.363125
v -0.221371 0.260965 -0.363125
v 0.334198 0.212870 -0.363125
v 0.483414 0.069199 -0.363125
v -0.359493 0.202079 -0.363125
v -0.112846 0.213178 -0.363125
v 0.087551 0.202387 -0.363125
v -0.410671 0.042685 -0.363125
v -0.077698 0.065500 -0.363125
v 0.369343 0.065500 -0.363125
v 0.036373 0.042685 -0.363125
v 0.483414 -0.347629 -0.363125
v -0.077698 -0.347629 -0.363125
v 0.369343 -0.347629 -0.363125
v -0.410671 -0.347629 -0.363125
v 0.036373 -0.347629 -0.363125
vn 0.0000 0.0000 1.0000
vn 0.0000 0.0000 -1.0000
vn 0.0605 0.9982 0.0000
vn 0.5845 0.8114 0.0000
vn -0.5195 0.8545 0.0000
vn 0.0852 0.9964 0.0000
vn 0.7613 0.6484 0.0000
vn 0.9912 0.1327 0.0000
vn 0.7071 -0.7071 -0.0000
vn -0.7071 -0.7071 -0.0000
vn -0.9932 -0.1168 -0.0000
vn -0.7701 -0.6379 -0.0000
vn -0.0117 -0.9999 -0.0000
vn 0.7375 -0.6754 -0.0000
vn 0.9880 -0.1544 -0.0000
vn -0.9932 -0.1166 -0.0000
vn -0.7682 -0.6403 -0.0000
vn -0.0059 -1.0000 -0.0000
vn 0.7390 -0.6737 -0.0000
vn 0.9880 -0.1547 -0.0000
vn -0.7071 0.7071 0.0000
vn 0.7071 0.7071 0.0000
vn 0.3812 0.9245 0.0000
vn -0.4877 0.8730 0.0000
vn 0.0300 0.9995 0.0000
usemtl None
s off
f 1//1 2//1 3//1
f 4//1 5//1 6//1
f 7//1 8//1 9//1
f 7//1 10//1 8//1
f 10//1 2//1 1//1
f 11//1 12//1 4//1
f 12//1 5//1 4//1
f 10//1 13//1 2//1
f 13//1 11//1 2//1
f 12//1 14//1 5//1
f 14//1 15//1 5//1
f 10//1 16//1 13//1
f 17//1 11//1 13//1
f 11//1 18//1 12//1
f 7//1 19//1 10//1
f 19//1 16//1 10//1
f 20//1 11//1 17//1
f 21//1 15//1 14//1
f 20//1 18//1 11//1
f 20//1 22//1 18//1
f 21//1 23//1 15//1
f 24//1 22//1 20//1
f 25//1 23//1 21//1
f 7//1 26//1 19//1
f 24//1 27//1 22//1
f 82//2 83//2 84//2
f 85//2 86//2 87//2
f 88//2 89//2 90//2
f 91//2 89//2 88//2
f 82//2 91//2 83//2
f 92//2 93//2 86//2
f 85//2 92//2 86//2
f 94//2 91//2 82//2
f 93//2 94//2 82//2
f 95//2 92//2 85//2
f 96//2 95//2 85//2
f 97//2 91//2 94//2
f 93//2 98//2 94//2
f 99//2 93//2 92//2
f 100//2 89//2 91//2
f 97//2 100//2 91//2
f 93//2 101//2 98//2
f 96//2 102//2 95//2
f 99//2 101//2 93//2
f 103//2 101//2 99//2
f 104//2 102//2 96//2
f 103//2 105//2 101//2
f 104//2 106//2 102//2
f 107//2 89//2 100//2
f 108//2 105//2 103//2
s 1
f 29//3 31//4 28//4
f 32//5 30//3 29//3
f 34//6 33//5 32//5
f 36//7 35//6 34//6
f 38//8 37//7 36//7
f 38//8 41//9 39//8
f 42//10 41//9 40//9
f 44//11 43//10 42//10
f 46//12 45//11 44//11
f 48//13 47//12 46//12
f 50//14 49//13 48//13
f 52//15 51//14 50//14
f 52//15 55//9 53//15
f 56//10 55//9 54//9
f 58//16 57//10 56//10
f 60//17 59//16 58//16
f 62//18 61//17 60//17
f 64//19 63//18 62//18
f 66//20 65//19 64//19
f 66//20 69//9 67//20
f 70//10 69//9 68//9
f 72//21 71//10 70//10
f 74//22 73//21 72//21
f 76//23 75//22 74//22
f 78//24 77//23 76//23
f 80//25 79//24 78//24
f 28//4 81//25 80//25
f 29//3 30//3 31//4
f 32//5 33//5 30//3
f 34//6 35//6 33//5
f 36//7 37//7 35//6
f 38//8 39//8 37//7
f 38//8 40//9 41//9
f 42//10 43//10 41//9
f 44//11 45//11 43//10
f 46//12 47//12 45//11
f 48//13 49//13 47//12
f 50//14 51//14 49//13
f 52//15 53//15 51//14
f 52//15 54//9 55//9
f 56//10 57//10 55//9
f 58//16 59//16 57//10
f 60//17 61//17 59//16
f 62//18 63//18 61//17
f 64//19 65//19 63//18
f 66//20 67//20 65//19
f 66//20 68//9 69//9
f 70//10 71//10 69//9
f 72//21 73//21 71//10
f 74//22 75//22 73//21
f 76//23 77//23 75//22
f 78//24 79//24 77//23
f 80//25 81//25 79//24
f 28//4 31//4 81//25
