# Blender v2.79 (sub 0) OBJ File: 'Font All Characters Individual Meshes COMPLETE WITH CENTERS AND NAMES.blend'
# www.blender.org
mtllib Middle Dot.mtl
o Middle_Dot_Text.005
v -0.071945 0.012471 0.394875
v 0.058151 0.169090 0.394875
v -0.071945 0.169090 0.394875
v 0.058151 0.012471 0.394875
v -0.071945 0.012471 0.394875
v -0.071945 0.169090 0.394875
v -0.071945 0.169090 -0.363125
v -0.071945 0.012471 -0.363125
v 0.058151 0.169090 0.394875
v 0.058151 0.169090 -0.363125
v 0.058151 0.012471 0.394875
v 0.058151 0.012471 -0.363125
v 0.058151 0.169090 -0.363125
v -0.071945 0.012471 -0.363125
v -0.071945 0.169090 -0.363125
v 0.058151 0.012471 -0.363125
vn 0.0000 -0.0000 1.0000
vn 0.0000 0.0000 -1.0000
vn -0.7071 0.7071 0.0000
vn -0.7071 -0.7071 -0.0000
vn 0.7071 0.7071 0.0000
vn 0.7071 -0.7071 -0.0000
usemtl None
s off
f 1//1 2//1 3//1
f 1//1 4//1 2//1
f 13//2 14//2 15//2
f 16//2 14//2 13//2
s 1
f 6//3 8//4 5//4
f 9//5 7//3 6//3
f 11//6 10//5 9//5
f 5//4 12//6 11//6
f 6//3 7//3 8//4
f 9//5 10//5 7//3
f 11//6 12//6 10//5
f 5//4 8//4 12//6
