# Blender v2.79 (sub 0) OBJ File: 'Font All Characters Individual Meshes COMPLETE WITH CENTERS AND NAMES.blend'
# www.blender.org
mtllib Mu.mtl
o Mu_Text.036
v -0.293350 -0.610306 0.394875
v -0.179886 0.342974 0.394875
v -0.293350 0.342974 0.394875
v -0.179886 -0.086187 0.394875
v 0.171577 -0.059672 0.394875
v 0.285042 0.342974 0.394875
v 0.171577 0.342974 0.394875
v 0.285042 -0.188544 0.394875
v 0.125641 -0.215058 0.394875
v -0.179886 -0.269320 0.394875
v -0.137344 -0.221224 0.394875
v 0.295830 -0.243114 0.394875
v -0.011551 -0.266854 0.394875
v 0.329430 -0.260687 0.394875
v 0.344856 -0.257296 0.394875
v 0.371986 -0.337764 0.394875
v 0.371986 -0.246505 0.394875
v 0.177750 -0.268087 0.394875
v 0.102211 -0.341155 0.394875
v 0.212280 -0.341463 0.394875
v -0.179886 -0.610306 0.394875
v -0.109901 -0.341463 0.394875
v 0.324196 -0.358729 0.394875
v -0.002914 -0.365511 0.394875
v 0.280106 -0.365511 0.394875
v -0.179886 -0.610306 0.394875
v -0.293350 -0.610306 0.394875
v -0.293350 -0.610306 -0.363125
v -0.179886 -0.610306 -0.363125
v -0.293350 0.342974 0.394875
v -0.293350 0.342974 -0.363125
v -0.179886 0.342974 0.394875
v -0.179886 0.342974 -0.363125
v -0.179886 -0.086187 0.394875
v -0.179886 -0.086186 -0.363125
v -0.137344 -0.221224 0.394875
v -0.137344 -0.221224 -0.363125
v -0.011551 -0.266854 0.394875
v -0.011551 -0.266853 -0.363125
v 0.125641 -0.215058 0.394875
v 0.125641 -0.215058 -0.363125
v 0.171577 -0.059672 0.394875
v 0.171577 -0.059672 -0.363125
v 0.171577 0.342974 0.394875
v 0.171577 0.342974 -0.363125
v 0.285042 0.342974 0.394875
v 0.285042 0.342974 -0.363125
v 0.285042 -0.188544 0.394875
v 0.285042 -0.188544 -0.363125
v 0.295830 -0.243114 0.394875
v 0.295830 -0.243114 -0.363125
v 0.329430 -0.260687 0.394875
v 0.329430 -0.260687 -0.363125
v 0.344856 -0.257296 0.394875
v 0.344856 -0.257296 -0.363125
v 0.371986 -0.246505 0.394875
v 0.371986 -0.246505 -0.363125
v 0.371986 -0.337764 0.394875
v 0.371986 -0.337764 -0.363125
v 0.324196 -0.358729 0.394875
v 0.324196 -0.358728 -0.363125
v 0.280106 -0.365511 0.394875
v 0.280106 -0.365511 -0.363125
v 0.212280 -0.341463 0.394875
v 0.212280 -0.341463 -0.363125
v 0.177750 -0.268087 0.394875
v 0.177750 -0.268087 -0.363125
v 0.102211 -0.341155 0.394875
v 0.102211 -0.341155 -0.363125
v -0.002914 -0.365511 0.394875
v -0.002914 -0.365511 -0.363125
v -0.109901 -0.341463 0.394875
v -0.109901 -0.341463 -0.363125
v -0.179886 -0.269320 0.394875
v -0.179886 -0.269320 -0.363125
v -0.179886 0.342974 -0.363125
v -0.293350 -0.610306 -0.363125
v -0.293350 0.342974 -0.363125
v -0.179886 -0.086186 -0.363125
v 0.285042 0.342974 -0.363125
v 0.171577 -0.059672 -0.363125
v 0.171577 0.342974 -0.363125
v 0.285042 -0.188544 -0.363125
v 0.125641 -0.215058 -0.363125
v -0.179886 -0.269320 -0.363125
v -0.137344 -0.221224 -0.363125
v 0.295830 -0.243114 -0.363125
v -0.011551 -0.266853 -0.363125
v 0.329430 -0.260687 -0.363125
v 0.371986 -0.337764 -0.363125
v 0.344856 -0.257296 -0.363125
v 0.371986 -0.246505 -0.363125
v 0.177750 -0.268087 -0.363125
v 0.102211 -0.341155 -0.363125
v 0.212280 -0.341463 -0.363125
v -0.179886 -0.610306 -0.363125
v -0.109901 -0.341463 -0.363125
v 0.324196 -0.358728 -0.363125
v -0.002914 -0.365511 -0.363125
v 0.280106 -0.365511 -0.363125
vn 0.0000 -0.0000 1.0000
vn 0.0000 0.0000 -1.0000
vn -0.7071 -0.7071 -0.0000
vn 0.7071 -0.7071 -0.0000
vn -0.7071 0.7071 0.0000
vn 0.7071 0.7071 0.0000
vn 0.9884 0.1520 0.0000
vn 0.7221 0.6918 0.0000
vn -0.0065 1.0000 0.0000
vn -0.7326 0.6806 0.0000
vn -0.9897 0.1432 0.0000
vn 0.9952 0.0974 0.0000
vn 0.8009 0.5988 0.0000
vn 0.1324 0.9912 0.0000
vn -0.2931 0.9561 0.0000
vn 0.5614 0.8275 0.0000
vn 0.8372 -0.5469 -0.0000
vn 0.2793 -0.9602 -0.0000
vn -0.0939 -0.9956 -0.0000
vn -0.6712 -0.7413 -0.0000
vn -0.1801 -0.9836 -0.0000
vn 0.4779 -0.8784 -0.0000
vn 0.0033 -1.0000 -0.0000
vn -0.4889 -0.8723 -0.0000
vn 0.3757 -0.9268 -0.0000
usemtl None
s off
f 1//1 2//1 3//1
f 1//1 4//1 2//1
f 5//1 6//1 7//1
f 5//1 8//1 6//1
f 9//1 8//1 5//1
f 1//1 10//1 4//1
f 10//1 11//1 4//1
f 9//1 12//1 8//1
f 13//1 12//1 9//1
f 10//1 13//1 11//1
f 13//1 14//1 12//1
f 15//1 16//1 17//1
f 14//1 16//1 15//1
f 13//1 18//1 14//1
f 18//1 16//1 14//1
f 10//1 18//1 13//1
f 10//1 19//1 18//1
f 20//1 16//1 18//1
f 1//1 21//1 10//1
f 22//1 19//1 10//1
f 20//1 23//1 16//1
f 22//1 24//1 19//1
f 25//1 23//1 20//1
f 76//2 77//2 78//2
f 79//2 77//2 76//2
f 80//2 81//2 82//2
f 83//2 81//2 80//2
f 83//2 84//2 81//2
f 85//2 77//2 79//2
f 86//2 85//2 79//2
f 87//2 84//2 83//2
f 87//2 88//2 84//2
f 88//2 85//2 86//2
f 89//2 88//2 87//2
f 90//2 91//2 92//2
f 90//2 89//2 91//2
f 93//2 88//2 89//2
f 90//2 93//2 89//2
f 93//2 85//2 88//2
f 94//2 85//2 93//2
f 90//2 95//2 93//2
f 96//2 77//2 85//2
f 94//2 97//2 85//2
f 98//2 95//2 90//2
f 99//2 97//2 94//2
f 98//2 100//2 95//2
s 1
f 27//3 29//4 26//4
f 30//5 28//3 27//3
f 32//6 31//5 30//5
f 32//6 35//7 33//6
f 34//7 37//8 35//7
f 36//8 39//9 37//8
f 40//10 39//9 38//9
f 42//11 41//10 40//10
f 44//5 43//11 42//11
f 46//6 45//5 44//5
f 48//12 47//6 46//6
f 50//13 49//12 48//12
f 52//14 51//13 50//13
f 54//15 53//14 52//14
f 56//16 55//15 54//15
f 58//17 57//16 56//16
f 60//18 59//17 58//17
f 62//19 61//18 60//18
f 64//20 63//19 62//19
f 66//21 65//20 64//20
f 68//22 67//21 66//21
f 70//23 69//22 68//22
f 72//24 71//23 70//23
f 74//25 73//24 72//24
f 26//4 75//25 74//25
f 27//3 28//3 29//4
f 30//5 31//5 28//3
f 32//6 33//6 31//5
f 32//6 34//7 35//7
f 34//7 36//8 37//8
f 36//8 38//9 39//9
f 40//10 41//10 39//9
f 42//11 43//11 41//10
f 44//5 45//5 43//11
f 46//6 47//6 45//5
f 48//12 49//12 47//6
f 50//13 51//13 49//12
f 52//14 53//14 51//13
f 54//15 55//15 53//14
f 56//16 57//16 55//15
f 58//17 59//17 57//16
f 60//18 61//18 59//17
f 62//19 63//19 61//18
f 64//20 65//20 63//19
f 66//21 67//21 65//20
f 68//22 69//22 67//21
f 70//23 71//23 69//22
f 72//24 73//24 71//23
f 74//25 75//25 73//24
f 26//4 29//4 75//25
