# Blender v2.79 (sub 0) OBJ File: 'Font All Characters Individual Meshes COMPLETE WITH CENTERS AND NAMES.blend'
# www.blender.org
mtllib Multiplication.mtl
o Multiplication_Text.838
v 0.276597 0.405252 0.394875
v 0.349974 0.330642 0.394875
v 0.349974 0.330642 -0.363125
v 0.276597 0.405252 -0.363125
v 0.068182 0.047618 0.394875
v 0.068182 0.047618 -0.363125
v 0.349974 -0.234173 0.394875
v 0.349974 -0.234173 -0.363125
v 0.276597 -0.308783 0.394875
v 0.276597 -0.308783 -0.363125
v -0.006427 -0.025759 0.394875
v -0.006427 -0.025759 -0.363125
v -0.289452 -0.308783 0.394875
v -0.289452 -0.308783 -0.363125
v -0.362211 -0.234173 0.394875
v -0.362211 -0.234173 -0.363125
v -0.081038 0.047618 0.394875
v -0.081038 0.047618 -0.363125
v -0.362211 0.330642 0.394875
v -0.362211 0.330642 -0.363125
v -0.289452 0.405252 0.394875
v -0.289452 0.405252 -0.363125
v -0.006427 0.122228 0.394875
v -0.006427 0.122228 -0.363125
v -0.006427 0.122228 -0.363125
v -0.362211 0.330642 -0.363125
v -0.289452 0.405252 -0.363125
v 0.349974 0.330642 -0.363125
v 0.276597 0.405252 -0.363125
v -0.081038 0.047618 -0.363125
v 0.068182 0.047618 -0.363125
v -0.362211 -0.234173 -0.363125
v -0.006427 -0.025759 -0.363125
v 0.349974 -0.234173 -0.363125
v -0.289452 -0.308783 -0.363125
v 0.276597 -0.308783 -0.363125
v -0.362211 0.330642 0.394875
v -0.006427 0.122228 0.394875
v -0.289452 0.405252 0.394875
v 0.349974 0.330642 0.394875
v 0.276597 0.405252 0.394875
v -0.081038 0.047618 0.394875
v 0.068182 0.047618 0.394875
v -0.362211 -0.234173 0.394875
v -0.006427 -0.025759 0.394875
v 0.349974 -0.234173 0.394875
v -0.289452 -0.308783 0.394875
v 0.276597 -0.308783 0.394875
vn 0.0000 0.0000 -1.0000
vn 0.0000 -0.0000 1.0000
vn 1.0000 -0.0031 -0.0000
vn 0.0042 1.0000 0.0000
vn 1.0000 0.0011 -0.0000
vn 1.0000 0.0042 0.0000
vn 0.0042 -1.0000 -0.0000
vn -0.0000 -1.0000 -0.0000
vn -0.0063 -1.0000 -0.0000
vn -1.0000 0.0057 0.0000
vn -1.0000 0.0011 0.0000
vn -1.0000 -0.0046 0.0000
vn -0.0063 1.0000 0.0000
vn -0.0000 1.0000 0.0000
usemtl None
s off
f 25//1 26//1 27//1
f 28//1 25//1 29//1
f 25//1 30//1 26//1
f 31//1 25//1 28//1
f 31//1 30//1 25//1
f 31//1 32//1 30//1
f 33//1 32//1 31//1
f 34//1 33//1 31//1
f 35//1 32//1 33//1
f 34//1 36//1 33//1
f 37//2 38//2 39//2
f 38//2 40//2 41//2
f 42//2 38//2 37//2
f 38//2 43//2 40//2
f 42//2 43//2 38//2
f 44//2 43//2 42//2
f 44//2 45//2 43//2
f 45//2 46//2 43//2
f 44//2 47//2 45//2
f 48//2 46//2 45//2
s 1
f 2//3 4//4 1//4
f 5//5 3//3 2//3
f 7//6 6//5 5//5
f 9//7 8//6 7//6
f 11//8 10//7 9//7
f 13//9 12//8 11//8
f 15//10 14//9 13//9
f 17//11 16//10 15//10
f 19//12 18//11 17//11
f 21//13 20//12 19//12
f 23//14 22//13 21//13
f 1//4 24//14 23//14
f 2//3 3//3 4//4
f 5//5 6//5 3//3
f 7//6 8//6 6//5
f 9//7 10//7 8//6
f 11//8 12//8 10//7
f 13//9 14//9 12//8
f 15//10 16//10 14//9
f 17//11 18//11 16//10
f 19//12 20//12 18//11
f 21//13 22//13 20//12
f 23//14 24//14 22//13
f 1//4 4//4 24//14
