# Blender v2.79 (sub 0) OBJ File: 'Font All Characters Individual Meshes COMPLETE WITH CENTERS AND NAMES.blend'
# www.blender.org
mtllib N.mtl
o N_Text.223
v -0.094231 0.328793 0.394875
v 0.213150 0.285938 0.394875
v 0.033100 0.359623 0.394875
v -0.304188 -0.347630 0.394875
v -0.190113 0.342974 0.394875
v -0.304188 0.342974 0.394875
v -0.190113 0.235684 0.394875
v 0.007816 0.260965 0.394875
v 0.122509 0.212253 0.394875
v 0.274193 0.069199 0.394875
v -0.137085 0.202387 0.394875
v -0.190113 0.042685 0.394875
v 0.160736 0.065500 0.394875
v 0.274193 -0.347630 0.394875
v 0.160736 -0.347630 0.394875
v -0.190113 -0.347630 0.394875
v 0.213150 0.285938 0.394875
v 0.274193 0.069199 0.394875
v 0.274193 0.069199 -0.363125
v 0.213150 0.285938 -0.363125
v 0.274193 -0.347630 0.394875
v 0.274193 -0.347629 -0.363125
v 0.160736 -0.347630 0.394875
v 0.160736 -0.347629 -0.363125
v 0.160736 0.065500 0.394875
v 0.160736 0.065500 -0.363125
v 0.122509 0.212253 0.394875
v 0.122509 0.212253 -0.363125
v 0.007816 0.260965 0.394875
v 0.007816 0.260965 -0.363125
v -0.137085 0.202387 0.394875
v -0.137085 0.202387 -0.363125
v -0.190113 0.042685 0.394875
v -0.190113 0.042685 -0.363125
v -0.190113 -0.347630 0.394875
v -0.190113 -0.347629 -0.363125
v -0.304188 -0.347630 0.394875
v -0.304188 -0.347629 -0.363125
v -0.304188 0.342974 0.394875
v -0.304188 0.342974 -0.363125
v -0.190113 0.342974 0.394875
v -0.190113 0.342974 -0.363125
v -0.190113 0.235684 0.394875
v -0.190113 0.235684 -0.363125
v -0.094231 0.328793 0.394875
v -0.094231 0.328793 -0.363125
v 0.033100 0.359623 0.394875
v 0.033100 0.359623 -0.363125
v 0.213150 0.285938 -0.363125
v -0.094231 0.328793 -0.363125
v 0.033100 0.359623 -0.363125
v -0.190113 0.342974 -0.363125
v -0.304188 -0.347629 -0.363125
v -0.304188 0.342974 -0.363125
v -0.190113 0.235684 -0.363125
v 0.007816 0.260965 -0.363125
v 0.122509 0.212253 -0.363125
v 0.274193 0.069199 -0.363125
v -0.137085 0.202387 -0.363125
v -0.190113 0.042685 -0.363125
v 0.160736 0.065500 -0.363125
v 0.274193 -0.347629 -0.363125
v 0.160736 -0.347629 -0.363125
v -0.190113 -0.347629 -0.363125
vn 0.0000 0.0000 1.0000
vn 0.0000 0.0000 -1.0000
vn 0.9906 0.1368 0.0000
vn 0.7462 0.6657 0.0000
vn 0.7071 -0.7071 -0.0000
vn -0.7071 -0.7071 -0.0000
vn -0.9919 -0.1271 -0.0000
vn -0.7571 -0.6533 -0.0000
vn -0.0087 -1.0000 -0.0000
vn 0.7292 -0.6843 -0.0000
vn 0.9872 -0.1596 -0.0000
vn -0.7071 0.7071 0.0000
vn 0.7071 0.7071 0.0000
vn 0.3895 0.9210 0.0000
vn -0.4831 0.8756 0.0000
vn 0.0754 0.9972 0.0000
usemtl None
s off
f 1//1 2//1 3//1
f 4//1 5//1 6//1
f 4//1 7//1 5//1
f 7//1 8//1 1//1
f 8//1 2//1 1//1
f 8//1 9//1 2//1
f 9//1 10//1 2//1
f 7//1 11//1 8//1
f 4//1 12//1 7//1
f 12//1 11//1 7//1
f 13//1 10//1 9//1
f 13//1 14//1 10//1
f 15//1 14//1 13//1
f 4//1 16//1 12//1
f 49//2 50//2 51//2
f 52//2 53//2 54//2
f 55//2 53//2 52//2
f 56//2 55//2 50//2
f 49//2 56//2 50//2
f 57//2 56//2 49//2
f 58//2 57//2 49//2
f 59//2 55//2 56//2
f 60//2 53//2 55//2
f 59//2 60//2 55//2
f 58//2 61//2 57//2
f 62//2 61//2 58//2
f 62//2 63//2 61//2
f 64//2 53//2 60//2
s 1
f 18//3 20//4 17//4
f 18//3 22//5 19//3
f 23//6 22//5 21//5
f 25//7 24//6 23//6
f 27//8 26//7 25//7
f 29//9 28//8 27//8
f 31//10 30//9 29//9
f 33//11 32//10 31//10
f 33//11 36//5 34//11
f 37//6 36//5 35//5
f 39//12 38//6 37//6
f 41//13 40//12 39//12
f 43//14 42//13 41//13
f 45//15 44//14 43//14
f 47//16 46//15 45//15
f 17//4 48//16 47//16
f 18//3 19//3 20//4
f 18//3 21//5 22//5
f 23//6 24//6 22//5
f 25//7 26//7 24//6
f 27//8 28//8 26//7
f 29//9 30//9 28//8
f 31//10 32//10 30//9
f 33//11 34//11 32//10
f 33//11 35//5 36//5
f 37//6 38//6 36//5
f 39//12 40//12 38//6
f 41//13 42//13 40//12
f 43//14 44//14 42//13
f 45//15 46//15 44//14
f 47//16 48//16 46//15
f 17//4 20//4 48//16
