# Blender v2.79 (sub 0) OBJ File: 'Font All Characters Individual Meshes COMPLETE WITH CENTERS AND NAMES.blend'
# www.blender.org
mtllib Paragraph.mtl
o Paragraph_Text.014
v -0.319107 0.501443 0.394875
v 0.169868 0.572970 0.394875
v -0.106377 0.572970 0.394875
v 0.082924 0.497127 0.394875
v 0.169868 -0.469102 0.394875
v -0.399261 0.312761 0.394875
v -0.034225 0.497127 0.394875
v -0.121780 0.052551 0.394875
v -0.034225 -0.469102 0.394875
v 0.082924 -0.469102 0.394875
v -0.326805 0.131169 0.394875
v -0.121780 -0.469102 0.394875
v -0.319107 0.501443 0.394875
v -0.106377 0.572970 0.394875
v -0.106377 0.572970 -0.363125
v -0.319107 0.501443 -0.363125
v 0.169868 0.572970 0.394875
v 0.169868 0.572970 -0.363125
v 0.169868 -0.469102 0.394875
v 0.169868 -0.469102 -0.363125
v 0.082924 -0.469102 0.394875
v 0.082924 -0.469102 -0.363125
v 0.082924 0.497127 0.394875
v 0.082924 0.497127 -0.363125
v -0.034225 0.497127 0.394875
v -0.034225 0.497127 -0.363125
v -0.034225 -0.469102 0.394875
v -0.034225 -0.469102 -0.363125
v -0.121780 -0.469102 0.394875
v -0.121780 -0.469102 -0.363125
v -0.121780 0.052551 0.394875
v -0.121780 0.052551 -0.363125
v -0.326805 0.131169 0.394875
v -0.326805 0.131169 -0.363125
v -0.399261 0.312761 0.394875
v -0.399261 0.312761 -0.363125
v 0.169868 0.572970 -0.363125
v -0.319107 0.501443 -0.363125
v -0.106377 0.572970 -0.363125
v 0.082924 0.497127 -0.363125
v 0.169868 -0.469102 -0.363125
v -0.034225 0.497127 -0.363125
v -0.399261 0.312761 -0.363125
v -0.121780 0.052551 -0.363125
v -0.034225 -0.469102 -0.363125
v 0.082924 -0.469102 -0.363125
v -0.326805 0.131169 -0.363125
v -0.121780 -0.469102 -0.363125
vn 0.0000 0.0000 1.0000
vn 0.0000 0.0000 -1.0000
vn -0.1615 0.9869 0.0000
vn -0.6792 0.7339 0.0000
vn 0.7071 0.7071 0.0000
vn 0.7071 -0.7071 -0.0000
vn -0.7071 -0.7071 -0.0000
vn -0.8240 -0.5666 -0.0000
vn -0.7023 -0.7119 -0.0000
vn -0.9999 0.0110 0.0000
usemtl None
s off
f 1//1 2//1 3//1
f 1//1 4//1 2//1
f 4//1 5//1 2//1
f 6//1 7//1 1//1
f 7//1 4//1 1//1
f 6//1 8//1 7//1
f 8//1 9//1 7//1
f 10//1 5//1 4//1
f 11//1 8//1 6//1
f 12//1 9//1 8//1
f 37//2 38//2 39//2
f 40//2 38//2 37//2
f 41//2 40//2 37//2
f 42//2 43//2 38//2
f 40//2 42//2 38//2
f 44//2 43//2 42//2
f 45//2 44//2 42//2
f 41//2 46//2 40//2
f 44//2 47//2 43//2
f 45//2 48//2 44//2
s 1
f 14//3 16//4 13//4
f 17//5 15//3 14//3
f 19//6 18//5 17//5
f 21//7 20//6 19//6
f 23//7 22//7 21//7
f 25//6 24//7 23//7
f 27//6 26//6 25//6
f 29//7 28//6 27//6
f 31//8 30//7 29//7
f 33//9 32//8 31//8
f 35//10 34//9 33//9
f 13//4 36//10 35//10
f 14//3 15//3 16//4
f 17//5 18//5 15//3
f 19//6 20//6 18//5
f 21//7 22//7 20//6
f 23//7 24//7 22//7
f 25//6 26//6 24//7
f 27//6 28//6 26//6
f 29//7 30//7 28//6
f 31//8 32//8 30//7
f 33//9 34//9 32//8
f 35//10 36//10 34//9
f 13//4 16//4 36//10
