# Blender v2.79 (sub 0) OBJ File: 'Font All Characters Individual Meshes COMPLETE WITH CENTERS AND NAMES.blend'
# www.blender.org
mtllib Percent Sign.mtl
o Percent_Sign_Text.304
v 0.204613 0.068274 0.394875
v 0.515068 0.067966 0.394875
v 0.360298 0.135793 0.394875
v 0.146957 -0.115167 0.394875
v 0.276131 0.011855 0.394875
v 0.360298 0.057484 0.394875
v 0.443237 0.011546 0.394875
v 0.572411 -0.115167 0.394875
v 0.245613 -0.115167 0.394875
v 0.473755 -0.115167 0.394875
v 0.204300 -0.297992 0.394875
v 0.276131 -0.241264 0.394875
v 0.443237 -0.241264 0.394875
v 0.514755 -0.297992 0.394875
v 0.360298 -0.287202 0.394875
v 0.360298 -0.365511 0.394875
v -0.430809 0.521792 0.394875
v -0.276039 0.589619 0.394875
v -0.276039 0.589619 -0.363125
v -0.430809 0.521792 -0.363125
v -0.120651 0.522100 0.394875
v -0.120651 0.522100 -0.363125
v -0.062691 0.339275 0.394875
v -0.062691 0.339275 -0.363125
v -0.120346 0.155525 0.394875
v -0.120346 0.155525 -0.363125
v -0.276039 0.088314 0.394875
v -0.276039 0.088314 -0.363125
v -0.431122 0.155833 0.394875
v -0.431122 0.155833 -0.363125
v -0.488152 0.339275 0.394875
v -0.488152 0.339275 -0.363125
v -0.295158 -0.365511 0.394875
v 0.280762 0.589619 0.394875
v 0.280762 0.589619 -0.363125
v -0.295158 -0.365511 -0.363125
v 0.379410 0.589619 0.394875
v 0.379410 0.589619 -0.363125
v -0.196503 -0.365511 0.394875
v -0.196503 -0.365511 -0.363125
v -0.192184 0.465063 0.394875
v -0.276039 0.511309 0.394875
v -0.276039 0.511309 -0.363125
v -0.192184 0.465063 -0.363125
v -0.359589 0.465372 0.394875
v -0.359589 0.465372 -0.363125
v -0.390106 0.339275 0.394875
v -0.390106 0.339275 -0.363125
v -0.359894 0.212253 0.394875
v -0.359894 0.212253 -0.363125
v -0.276039 0.166624 0.394875
v -0.276039 0.166624 -0.363125
v -0.191872 0.212253 0.394875
v -0.191872 0.212253 -0.363125
v -0.161354 0.339275 0.394875
v -0.161354 0.339275 -0.363125
v 0.204613 0.068274 0.394875
v 0.360298 0.135793 0.394875
v 0.360298 0.135793 -0.363125
v 0.204613 0.068274 -0.363125
v 0.515068 0.067966 0.394875
v 0.515068 0.067966 -0.363125
v 0.572411 -0.115167 0.394875
v 0.572411 -0.115167 -0.363125
v 0.514755 -0.297992 0.394875
v 0.514755 -0.297992 -0.363125
v 0.360298 -0.365511 0.394875
v 0.360298 -0.365511 -0.363125
v 0.204300 -0.297992 0.394875
v 0.204300 -0.297992 -0.363125
v 0.146957 -0.115167 0.394875
v 0.146957 -0.115167 -0.363125
v 0.443237 0.011546 0.394875
v 0.360298 0.057484 0.394875
v 0.360298 0.057484 -0.363125
v 0.443237 0.011546 -0.363125
v 0.276131 0.011855 0.394875
v 0.276131 0.011855 -0.363125
v 0.245613 -0.115167 0.394875
v 0.245613 -0.115167 -0.363125
v 0.276131 -0.241264 0.394875
v 0.276131 -0.241264 -0.363125
v 0.360298 -0.287202 0.394875
v 0.360298 -0.287202 -0.363125
v 0.443237 -0.241264 0.394875
v 0.443237 -0.241264 -0.363125
v 0.473755 -0.115167 0.394875
v 0.473755 -0.115167 -0.363125
v 0.515068 0.067966 -0.363125
v 0.204613 0.068274 -0.363125
v 0.360298 0.135793 -0.363125
v 0.276131 0.011855 -0.363125
v 0.146957 -0.115167 -0.363125
v 0.360298 0.057484 -0.363125
v 0.443237 0.011546 -0.363125
v 0.572411 -0.115167 -0.363125
v 0.245613 -0.115167 -0.363125
v 0.473755 -0.115167 -0.363125
v 0.204300 -0.297992 -0.363125
v 0.276131 -0.241264 -0.363125
v 0.443237 -0.241264 -0.363125
v 0.514755 -0.297992 -0.363125
v 0.360298 -0.287202 -0.363125
v 0.360298 -0.365511 -0.363125
v 0.379410 0.589619 -0.363125
v -0.295158 -0.365511 -0.363125
v 0.280762 0.589619 -0.363125
v -0.196503 -0.365511 -0.363125
v -0.120651 0.522100 -0.363125
v -0.430809 0.521792 -0.363125
v -0.276039 0.589619 -0.363125
v -0.276039 0.511309 -0.363125
v -0.192184 0.465063 -0.363125
v -0.062691 0.339275 -0.363125
v -0.359589 0.465372 -0.363125
v -0.488152 0.339275 -0.363125
v -0.390106 0.339275 -0.363125
v -0.161354 0.339275 -0.363125
v -0.431122 0.155833 -0.363125
v -0.359894 0.212253 -0.363125
v -0.191872 0.212253 -0.363125
v -0.120346 0.155525 -0.363125
v -0.276039 0.166624 -0.363125
v -0.276039 0.088314 -0.363125
v -0.295158 -0.365511 0.394875
v 0.379410 0.589619 0.394875
v 0.280762 0.589619 0.394875
v -0.196503 -0.365511 0.394875
v -0.430809 0.521792 0.394875
v -0.120651 0.522100 0.394875
v -0.276039 0.589619 0.394875
v -0.276039 0.511309 0.394875
v -0.192184 0.465063 0.394875
v -0.062691 0.339275 0.394875
v -0.488152 0.339275 0.394875
v -0.359589 0.465372 0.394875
v -0.390106 0.339275 0.394875
v -0.161354 0.339275 0.394875
v -0.431122 0.155833 0.394875
v -0.359894 0.212253 0.394875
v -0.191872 0.212253 0.394875
v -0.120346 0.155525 0.394875
v -0.276039 0.166624 0.394875
v -0.276039 0.088314 0.394875
vn 0.0000 -0.0000 1.0000
vn 0.0000 0.0000 -1.0000
vn -0.0016 1.0000 0.0000
vn -0.7444 0.6677 0.0000
vn 0.7425 0.6698 0.0000
vn 1.0000 0.0015 0.0000
vn 0.7427 -0.6696 -0.0000
vn -0.0016 -1.0000 -0.0000
vn -0.7446 -0.6675 -0.0000
vn -1.0000 0.0015 -0.0000
vn -0.4917 0.8707 0.0000
vn -0.8707 -0.4917 -0.0000
vn 0.8707 0.4918 0.0000
vn 0.4918 -0.8707 -0.0000
vn -0.0006 -1.0000 -0.0000
vn -0.7939 -0.6080 -0.0000
vn 0.7944 -0.6074 -0.0000
vn 1.0000 -0.0020 -0.0000
vn 0.7943 0.6076 0.0000
vn 0.0008 1.0000 0.0000
vn -0.7931 0.6091 0.0000
vn -1.0000 -0.0023 -0.0000
vn 0.0019 1.0000 0.0000
vn -0.7431 0.6691 0.0000
vn 0.7448 0.6673 0.0000
vn 1.0000 -0.0010 -0.0000
vn 0.7438 -0.6684 -0.0000
vn 0.0018 -1.0000 -0.0000
vn -0.7431 -0.6692 -0.0000
vn -1.0000 0.0003 0.0000
vn -0.0045 -1.0000 -0.0000
vn -0.7957 -0.6057 -0.0000
vn 0.7931 -0.6091 -0.0000
vn 1.0000 0.0008 -0.0000
vn 0.7935 0.6086 0.0000
vn -0.0031 1.0000 0.0000
vn -0.7953 0.6062 0.0000
vn -1.0000 0.0006 -0.0000
usemtl None
s off
f 1//1 2//1 3//1
f 4//1 5//1 1//1
f 5//1 6//1 1//1
f 6//1 2//1 1//1
f 6//1 7//1 2//1
f 7//1 8//1 2//1
f 4//1 9//1 5//1
f 10//1 8//1 7//1
f 11//1 9//1 4//1
f 11//1 12//1 9//1
f 13//1 8//1 10//1
f 13//1 14//1 8//1
f 11//1 15//1 12//1
f 15//1 14//1 13//1
f 11//1 14//1 15//1
f 16//1 14//1 11//1
f 89//2 90//2 91//2
f 92//2 93//2 90//2
f 94//2 92//2 90//2
f 89//2 94//2 90//2
f 95//2 94//2 89//2
f 96//2 95//2 89//2
f 97//2 93//2 92//2
f 96//2 98//2 95//2
f 97//2 99//2 93//2
f 100//2 99//2 97//2
f 96//2 101//2 98//2
f 102//2 101//2 96//2
f 103//2 99//2 100//2
f 102//2 103//2 101//2
f 102//2 99//2 103//2
f 102//2 104//2 99//2
f 105//2 106//2 107//2
f 108//2 106//2 105//2
f 109//2 110//2 111//2
f 112//2 110//2 109//2
f 113//2 112//2 109//2
f 114//2 113//2 109//2
f 115//2 116//2 110//2
f 112//2 115//2 110//2
f 117//2 116//2 115//2
f 114//2 118//2 113//2
f 117//2 119//2 116//2
f 120//2 119//2 117//2
f 114//2 121//2 118//2
f 122//2 121//2 114//2
f 123//2 119//2 120//2
f 122//2 123//2 121//2
f 122//2 119//2 123//2
f 122//2 124//2 119//2
f 125//1 126//1 127//1
f 125//1 128//1 126//1
f 129//1 130//1 131//1
f 129//1 132//1 130//1
f 132//1 133//1 130//1
f 133//1 134//1 130//1
f 135//1 136//1 129//1
f 136//1 132//1 129//1
f 135//1 137//1 136//1
f 138//1 134//1 133//1
f 139//1 137//1 135//1
f 139//1 140//1 137//1
f 141//1 134//1 138//1
f 141//1 142//1 134//1
f 139//1 143//1 140//1
f 143//1 142//1 141//1
f 139//1 142//1 143//1
f 144//1 142//1 139//1
s 1
f 18//3 20//4 17//4
f 21//5 19//3 18//3
f 23//6 22//5 21//5
f 25//7 24//6 23//6
f 27//8 26//7 25//7
f 29//9 28//8 27//8
f 31//10 30//9 29//9
f 17//4 32//10 31//10
f 34//11 36//12 33//12
f 37//13 35//11 34//11
f 39//14 38//13 37//13
f 33//12 40//14 39//14
f 42//15 44//16 41//16
f 45//17 43//15 42//15
f 47//18 46//17 45//17
f 49//19 48//18 47//18
f 51//20 50//19 49//19
f 53//21 52//20 51//20
f 55//22 54//21 53//21
f 41//16 56//22 55//22
f 58//23 60//24 57//24
f 61//25 59//23 58//23
f 63//26 62//25 61//25
f 65//27 64//26 63//26
f 67//28 66//27 65//27
f 69//29 68//28 67//28
f 71//30 70//29 69//29
f 57//24 72//30 71//30
f 74//31 76//32 73//32
f 77//33 75//31 74//31
f 79//34 78//33 77//33
f 81//35 80//34 79//34
f 83//36 82//35 81//35
f 85//37 84//36 83//36
f 87//38 86//37 85//37
f 73//32 88//38 87//38
f 18//3 19//3 20//4
f 21//5 22//5 19//3
f 23//6 24//6 22//5
f 25//7 26//7 24//6
f 27//8 28//8 26//7
f 29//9 30//9 28//8
f 31//10 32//10 30//9
f 17//4 20//4 32//10
f 34//11 35//11 36//12
f 37//13 38//13 35//11
f 39//14 40//14 38//13
f 33//12 36//12 40//14
f 42//15 43//15 44//16
f 45//17 46//17 43//15
f 47//18 48//18 46//17
f 49//19 50//19 48//18
f 51//20 52//20 50//19
f 53//21 54//21 52//20
f 55//22 56//22 54//21
f 41//16 44//16 56//22
f 58//23 59//23 60//24
f 61//25 62//25 59//23
f 63//26 64//26 62//25
f 65//27 66//27 64//26
f 67//28 68//28 66//27
f 69//29 70//29 68//28
f 71//30 72//30 70//29
f 57//24 60//24 72//30
f 74//31 75//31 76//32
f 77//33 78//33 75//31
f 79//34 80//34 78//33
f 81//35 82//35 80//34
f 83//36 84//36 82//35
f 85//37 86//37 84//36
f 87//38 88//38 86//37
f 73//32 76//32 88//38
