# Blender v2.79 (sub 0) OBJ File: 'Font All Characters Individual Meshes COMPLETE WITH CENTERS AND NAMES.blend'
# www.blender.org
mtllib Plus Sign.mtl
o Plus_Sign_Text.296
v -0.053543 0.100646 0.394875
v 0.050049 0.444099 0.394875
v -0.053543 0.444099 0.394875
v 0.050049 0.100646 0.394875
v -0.396988 -0.004177 0.394875
v -0.396988 0.100646 0.394875
v 0.393501 0.100646 0.394875
v 0.393501 -0.004177 0.394875
v -0.053543 -0.004177 0.394875
v -0.053543 -0.347630 0.394875
v 0.050049 -0.004177 0.394875
v 0.050049 -0.347630 0.394875
v -0.053543 0.444099 0.394875
v 0.050049 0.444099 0.394875
v 0.050049 0.444099 -0.363125
v -0.053543 0.444099 -0.363125
v 0.050049 0.100646 0.394875
v 0.050049 0.100647 -0.363125
v 0.393501 0.100646 0.394875
v 0.393501 0.100647 -0.363125
v 0.393501 -0.004177 0.394875
v 0.393501 -0.004177 -0.363125
v 0.050049 -0.004177 0.394875
v 0.050049 -0.004177 -0.363125
v 0.050049 -0.347630 0.394875
v 0.050049 -0.347629 -0.363125
v -0.053543 -0.347630 0.394875
v -0.053543 -0.347629 -0.363125
v -0.053543 -0.004177 0.394875
v -0.053543 -0.004177 -0.363125
v -0.396988 -0.004177 0.394875
v -0.396988 -0.004177 -0.363125
v -0.396988 0.100646 0.394875
v -0.396988 0.100647 -0.363125
v -0.053543 0.100646 0.394875
v -0.053543 0.100647 -0.363125
v 0.050049 0.444099 -0.363125
v -0.053543 0.100647 -0.363125
v -0.053543 0.444099 -0.363125
v 0.050049 0.100647 -0.363125
v -0.396988 -0.004177 -0.363125
v -0.396988 0.100647 -0.363125
v 0.393501 0.100647 -0.363125
v 0.393501 -0.004177 -0.363125
v -0.053543 -0.004177 -0.363125
v 0.050049 -0.004177 -0.363125
v -0.053543 -0.347629 -0.363125
v 0.050049 -0.347629 -0.363125
vn 0.0000 -0.0000 1.0000
vn -0.0000 0.0000 -1.0000
vn 0.7071 0.7071 0.0000
vn -0.7071 0.7071 0.0000
vn 0.7071 -0.7071 -0.0000
vn -0.7071 -0.7071 -0.0000
usemtl None
s off
f 1//1 2//1 3//1
f 1//1 4//1 2//1
f 5//1 1//1 6//1
f 5//1 4//1 1//1
f 5//1 7//1 4//1
f 5//1 8//1 7//1
f 9//2 8//2 5//2
f 10//1 11//1 9//1
f 11//1 8//1 9//1
f 10//1 12//1 11//1
f 37//2 38//2 39//2
f 40//2 38//2 37//2
f 38//2 41//2 42//2
f 40//2 41//2 38//2
f 43//2 41//2 40//2
f 44//2 41//2 43//2
f 44//1 45//1 41//1
f 46//2 47//2 45//2
f 44//1 46//1 45//1
f 48//2 47//2 46//2
s 1
f 14//3 16//4 13//4
f 14//3 18//3 15//3
f 19//3 18//3 17//3
f 21//5 20//3 19//3
f 23//5 22//5 21//5
f 23//5 26//5 24//5
f 27//6 26//5 25//5
f 29//6 28//6 27//6
f 31//6 30//6 29//6
f 33//4 32//6 31//6
f 35//4 34//4 33//4
f 13//4 36//4 35//4
f 14//3 15//3 16//4
f 14//3 17//3 18//3
f 19//3 20//3 18//3
f 21//5 22//5 20//3
f 23//5 24//5 22//5
f 23//5 25//5 26//5
f 27//6 28//6 26//5
f 29//6 30//6 28//6
f 31//6 32//6 30//6
f 33//4 34//4 32//6
f 35//4 36//4 34//4
f 13//4 16//4 36//4
