# Blender v2.79 (sub 0) OBJ File: 'Font All Characters Individual Meshes COMPLETE WITH CENTERS AND NAMES.blend'
# www.blender.org
mtllib Rights Reserve.mtl
o Rights_Reserve_Text.863
v -0.193758 0.534124 0.394875
v -0.018946 0.568038 0.394875
v -0.018946 0.568038 -0.363125
v -0.193758 0.534124 -0.363125
v 0.155863 0.534124 0.394875
v 0.155863 0.534124 -0.363125
v 0.304155 0.433000 0.394875
v 0.304155 0.433000 -0.363125
v 0.404665 0.285013 0.394875
v 0.404665 0.285013 -0.363125
v 0.437963 0.109279 0.394875
v 0.437963 0.109279 -0.363125
v 0.404665 -0.064913 0.394875
v 0.404665 -0.064913 -0.363125
v 0.304155 -0.212592 0.394875
v 0.304155 -0.212592 -0.363125
v 0.155863 -0.313716 0.394875
v 0.155863 -0.313716 -0.363125
v -0.018946 -0.347630 0.394875
v -0.018946 -0.347629 -0.363125
v -0.193758 -0.313716 0.394875
v -0.193758 -0.313716 -0.363125
v -0.342051 -0.212592 0.394875
v -0.342051 -0.212592 -0.363125
v -0.442556 -0.064913 0.394875
v -0.442556 -0.064913 -0.363125
v -0.475855 0.109279 0.394875
v -0.475855 0.109279 -0.363125
v -0.442556 0.285013 0.394875
v -0.442556 0.285013 -0.363125
v -0.342051 0.433000 0.394875
v -0.342051 0.433000 -0.363125
v -0.207014 0.376272 0.394875
v -0.031279 0.376272 0.394875
v -0.031279 0.376272 -0.363125
v -0.207014 0.376272 -0.363125
v 0.130888 0.339583 0.394875
v 0.130888 0.339583 -0.363125
v 0.184534 0.228285 0.394875
v 0.184534 0.228285 -0.363125
v 0.152163 0.140726 0.394875
v 0.152163 0.140726 -0.363125
v 0.060595 0.095714 0.394875
v 0.060595 0.095714 -0.363125
v 0.096048 0.067041 0.394875
v 0.096048 0.067041 -0.363125
v 0.145071 -0.001711 0.394875
v 0.145071 -0.001711 -0.363125
v 0.229548 -0.139215 0.394875
v 0.229548 -0.139215 -0.363125
v 0.123491 -0.139215 0.394875
v 0.123491 -0.139215 -0.363125
v 0.043947 -0.010343 0.394875
v 0.043947 -0.010343 -0.363125
v -0.014940 0.064575 0.394875
v -0.014940 0.064575 -0.363125
v -0.070742 0.080298 0.394875
v -0.070742 0.080298 -0.363125
v -0.111437 0.080298 0.394875
v -0.111437 0.080298 -0.363125
v -0.111437 -0.139215 0.394875
v -0.111437 -0.139215 -0.363125
v -0.207014 -0.139215 0.394875
v -0.207014 -0.139215 -0.363125
v 0.058744 0.293337 0.394875
v -0.035593 0.312761 0.394875
v -0.035593 0.312761 -0.363125
v 0.058744 0.293337 -0.363125
v -0.111437 0.312761 0.394875
v -0.111437 0.312761 -0.363125
v -0.111437 0.142576 0.394875
v -0.111437 0.142576 -0.363125
v -0.035593 0.142576 0.394875
v -0.035593 0.142576 -0.363125
v 0.059053 0.161691 0.394875
v 0.059053 0.161691 -0.363125
v 0.085878 0.227052 0.394875
v 0.085878 0.227052 -0.363125
v 0.132433 0.475546 0.394875
v -0.018946 0.504527 0.394875
v -0.018946 0.504527 -0.363125
v 0.132433 0.475546 -0.363125
v -0.169401 0.475546 0.394875
v -0.169401 0.475546 -0.363125
v -0.297037 0.388604 0.394875
v -0.297037 0.388604 -0.363125
v -0.384600 0.260040 0.394875
v -0.384600 0.260040 -0.363125
v -0.414194 0.109279 0.394875
v -0.414194 0.109279 -0.363125
v -0.384600 -0.040249 0.394875
v -0.384600 -0.040249 -0.363125
v -0.297037 -0.168196 0.394875
v -0.297037 -0.168196 -0.363125
v -0.169401 -0.255446 0.394875
v -0.169401 -0.255446 -0.363125
v -0.018946 -0.284735 0.394875
v -0.018946 -0.284735 -0.363125
v 0.132433 -0.255446 0.394875
v 0.132433 -0.255446 -0.363125
v 0.260378 -0.168196 0.394875
v 0.260378 -0.168196 -0.363125
v 0.346395 -0.041174 0.394875
v 0.346395 -0.041174 -0.363125
v 0.375067 0.109279 0.394875
v 0.375067 0.109279 -0.363125
v 0.346087 0.261274 0.394875
v 0.346087 0.261274 -0.363125
v 0.260378 0.388604 0.394875
v 0.260378 0.388604 -0.363125
v -0.111437 0.312761 -0.363125
v -0.207014 -0.139215 -0.363125
v -0.207014 0.376272 -0.363125
v -0.031279 0.376272 -0.363125
v 0.130888 0.339583 -0.363125
v -0.035593 0.312761 -0.363125
v 0.058744 0.293337 -0.363125
v 0.184534 0.228285 -0.363125
v -0.111437 0.142576 -0.363125
v 0.085878 0.227052 -0.363125
v 0.152163 0.140726 -0.363125
v 0.059053 0.161691 -0.363125
v -0.035593 0.142576 -0.363125
v -0.111437 0.080298 -0.363125
v 0.060595 0.095714 -0.363125
v -0.070742 0.080298 -0.363125
v 0.096048 0.067041 -0.363125
v -0.111437 -0.139215 -0.363125
v -0.014940 0.064575 -0.363125
v 0.145071 -0.001711 -0.363125
v 0.043947 -0.010343 -0.363125
v 0.229548 -0.139215 -0.363125
v 0.123491 -0.139215 -0.363125
v 0.155863 0.534124 -0.363125
v -0.193758 0.534124 -0.363125
v -0.018946 0.568038 -0.363125
v -0.169401 0.475546 -0.363125
v -0.342051 0.433000 -0.363125
v -0.018946 0.504527 -0.363125
v 0.132433 0.475546 -0.363125
v 0.304155 0.433000 -0.363125
v -0.297037 0.388604 -0.363125
v 0.260378 0.388604 -0.363125
v -0.442556 0.285013 -0.363125
v 0.404665 0.285013 -0.363125
v -0.384600 0.260040 -0.363125
v 0.346087 0.261274 -0.363125
v -0.475855 0.109279 -0.363125
v 0.437963 0.109279 -0.363125
v 0.375067 0.109279 -0.363125
v -0.414194 0.109279 -0.363125
v -0.442556 -0.064913 -0.363125
v -0.384600 -0.040249 -0.363125
v 0.346395 -0.041174 -0.363125
v 0.404665 -0.064913 -0.363125
v -0.297037 -0.168196 -0.363125
v 0.260378 -0.168196 -0.363125
v -0.342051 -0.212592 -0.363125
v 0.304155 -0.212592 -0.363125
v -0.169401 -0.255446 -0.363125
v 0.132433 -0.255446 -0.363125
v -0.193758 -0.313716 -0.363125
v 0.155863 -0.313716 -0.363125
v -0.018946 -0.284735 -0.363125
v -0.018946 -0.347629 -0.363125
v -0.207014 -0.139215 0.394875
v -0.111437 0.312761 0.394875
v -0.207014 0.376272 0.394875
v -0.031279 0.376272 0.394875
v 0.130888 0.339583 0.394875
v -0.035593 0.312761 0.394875
v 0.058744 0.293337 0.394875
v 0.184534 0.228285 0.394875
v -0.111437 0.142576 0.394875
v 0.085878 0.227052 0.394875
v 0.152163 0.140726 0.394875
v 0.059053 0.161691 0.394875
v -0.035593 0.142576 0.394875
v -0.111437 0.080298 0.394875
v 0.060595 0.095714 0.394875
v -0.070742 0.080298 0.394875
v 0.096048 0.067041 0.394875
v -0.111437 -0.139215 0.394875
v -0.014940 0.064575 0.394875
v 0.145071 -0.001711 0.394875
v 0.043947 -0.010343 0.394875
v 0.229548 -0.139215 0.394875
v 0.123491 -0.139215 0.394875
v -0.193758 0.534124 0.394875
v 0.155863 0.534124 0.394875
v -0.018946 0.568038 0.394875
v -0.342051 0.433000 0.394875
v -0.169401 0.475546 0.394875
v -0.018946 0.504527 0.394875
v 0.132433 0.475546 0.394875
v 0.304155 0.433000 0.394875
v -0.297037 0.388604 0.394875
v 0.260378 0.388604 0.394875
v -0.442556 0.285013 0.394875
v 0.404665 0.285013 0.394875
v -0.384600 0.260040 0.394875
v 0.346087 0.261274 0.394875
v -0.475855 0.109279 0.394875
v 0.437963 0.109279 0.394875
v 0.375067 0.109279 0.394875
v -0.414194 0.109279 0.394875
v -0.442556 -0.064913 0.394875
v -0.384600 -0.040249 0.394875
v 0.346395 -0.041174 0.394875
v 0.404665 -0.064913 0.394875
v -0.297037 -0.168196 0.394875
v 0.260378 -0.168196 0.394875
v -0.342051 -0.212592 0.394875
v 0.304155 -0.212592 0.394875
v -0.169401 -0.255446 0.394875
v 0.132433 -0.255446 0.394875
v -0.193758 -0.313716 0.394875
v 0.155863 -0.313716 0.394875
v -0.018946 -0.284735 0.394875
v -0.018946 -0.347630 0.394875
vn 0.0000 0.0000 -1.0000
vn 0.0000 -0.0000 1.0000
vn 0.0000 1.0000 0.0000
vn -0.3849 0.9230 0.0000
vn 0.3849 0.9230 0.0000
vn 0.7078 0.7064 0.0000
vn 0.9242 0.3820 0.0000
vn 1.0000 -0.0008 0.0000
vn 0.9237 -0.3832 -0.0000
vn 0.7074 -0.7068 -0.0000
vn 0.3849 -0.9230 -0.0000
vn 0.0000 -1.0000 -0.0000
vn -0.3849 -0.9230 -0.0000
vn -0.7074 -0.7068 -0.0000
vn -0.9237 -0.3832 -0.0000
vn -1.0000 -0.0008 0.0000
vn -0.9242 0.3820 0.0000
vn -0.7078 0.7064 0.0000
vn 0.1110 0.9938 0.0000
vn -0.7071 0.7071 0.0000
vn 0.6226 0.7825 0.0000
vn 0.9989 0.0475 0.0000
vn 0.7425 -0.6699 -0.0000
vn 0.9938 -0.1114 0.0000
vn 0.7282 0.6853 0.0000
vn 0.8336 0.5523 0.0000
vn 0.8728 -0.4881 -0.0000
vn -0.4872 -0.8733 -0.0000
vn -0.8199 -0.5725 -0.0000
vn -0.5561 -0.8311 -0.0000
vn -0.1369 -0.9906 -0.0000
vn 0.7071 -0.7071 -0.0000
vn -0.7071 -0.7071 -0.0000
vn -0.1014 -0.9949 -0.0000
vn -0.6386 -0.7696 -0.0000
vn 0.7071 0.7071 0.0000
vn -0.0995 0.9950 0.0000
vn -0.6368 0.7710 0.0000
vn -1.0000 0.0005 -0.0000
vn 0.0006 -1.0000 -0.0000
vn -0.3830 -0.9238 -0.0000
vn 0.3840 -0.9233 -0.0000
vn 0.9227 -0.3856 -0.0000
vn 1.0000 0.0008 0.0000
vn 0.9219 0.3874 0.0000
vn 0.7069 0.7073 0.0000
vn 0.3857 0.9226 0.0000
vn 0.0006 1.0000 0.0000
vn -0.3846 0.9231 0.0000
vn -0.7083 0.7060 0.0000
vn -0.9242 0.3818 0.0000
vn -1.0000 -0.0000 -0.0000
vn -0.9247 -0.3806 -0.0000
vn -0.7087 -0.7056 -0.0000
usemtl None
s off
f 111//1 112//1 113//1
f 114//1 111//1 113//1
f 115//1 111//1 114//1
f 116//1 111//1 115//1
f 117//1 116//1 115//1
f 118//1 117//1 115//1
f 119//1 112//1 111//1
f 118//1 120//1 117//1
f 121//1 120//1 118//1
f 121//1 122//1 120//1
f 121//1 123//1 122//1
f 124//1 112//1 119//1
f 123//1 124//1 119//1
f 121//1 124//1 123//1
f 125//1 124//1 121//1
f 126//1 124//1 125//1
f 127//1 126//1 125//1
f 128//1 112//1 124//1
f 127//1 129//1 126//1
f 130//1 129//1 127//1
f 130//1 131//1 129//1
f 132//1 131//1 130//1
f 132//1 133//1 131//1
f 134//1 135//1 136//1
f 137//1 138//1 135//1
f 139//1 137//1 135//1
f 134//1 139//1 135//1
f 140//1 139//1 134//1
f 141//1 140//1 134//1
f 142//1 138//1 137//1
f 141//1 143//1 140//1
f 142//1 144//1 138//1
f 145//1 143//1 141//1
f 146//1 144//1 142//1
f 145//1 147//1 143//1
f 146//1 148//1 144//1
f 149//1 147//1 145//1
f 149//1 150//1 147//1
f 151//1 148//1 146//1
f 151//1 152//1 148//1
f 153//1 152//1 151//1
f 149//1 154//1 150//1
f 155//1 154//1 149//1
f 156//1 152//1 153//1
f 155//1 157//1 154//1
f 156//1 158//1 152//1
f 159//1 157//1 155//1
f 160//1 158//1 156//1
f 159//1 161//1 157//1
f 160//1 162//1 158//1
f 163//1 161//1 159//1
f 164//1 162//1 160//1
f 163//1 164//1 161//1
f 163//1 162//1 164//1
f 163//1 165//1 162//1
f 166//2 167//2 168//2
f 167//2 169//2 168//2
f 167//2 170//2 169//2
f 167//2 171//2 170//2
f 171//2 172//2 170//2
f 172//2 173//2 170//2
f 166//2 174//2 167//2
f 175//2 173//2 172//2
f 175//2 176//2 173//2
f 177//2 176//2 175//2
f 178//2 176//2 177//2
f 166//2 179//2 174//2
f 179//2 178//2 174//2
f 179//2 176//2 178//2
f 179//2 180//2 176//2
f 179//2 181//2 180//2
f 181//2 182//2 180//2
f 166//2 183//2 179//2
f 184//2 182//2 181//2
f 184//2 185//2 182//2
f 186//2 185//2 184//2
f 186//2 187//2 185//2
f 188//2 187//2 186//2
f 189//2 190//2 191//2
f 192//2 193//2 189//2
f 193//2 194//2 189//2
f 194//2 190//2 189//2
f 194//2 195//2 190//2
f 195//2 196//2 190//2
f 192//2 197//2 193//2
f 198//2 196//2 195//2
f 199//2 197//2 192//2
f 198//2 200//2 196//2
f 199//2 201//2 197//2
f 202//2 200//2 198//2
f 203//2 201//2 199//2
f 202//2 204//2 200//2
f 205//2 204//2 202//2
f 203//2 206//2 201//2
f 207//2 206//2 203//2
f 207//2 208//2 206//2
f 209//2 204//2 205//2
f 209//2 210//2 204//2
f 207//2 211//2 208//2
f 212//2 210//2 209//2
f 213//2 211//2 207//2
f 212//2 214//2 210//2
f 213//2 215//2 211//2
f 216//2 214//2 212//2
f 217//2 215//2 213//2
f 216//2 218//2 214//2
f 217//2 219//2 215//2
f 219//2 218//2 216//2
f 217//2 218//2 219//2
f 220//2 218//2 217//2
s 1
f 2//3 4//4 1//4
f 5//5 3//3 2//3
f 7//6 6//5 5//5
f 9//7 8//6 7//6
f 11//8 10//7 9//7
f 13//9 12//8 11//8
f 15//10 14//9 13//9
f 17//11 16//10 15//10
f 19//12 18//11 17//11
f 21//13 20//12 19//12
f 23//14 22//13 21//13
f 25//15 24//14 23//14
f 27//16 26//15 25//15
f 29//17 28//16 27//16
f 31//18 30//17 29//17
f 1//4 32//18 31//18
f 34//19 36//20 33//20
f 37//21 35//19 34//19
f 39//22 38//21 37//21
f 41//23 40//22 39//22
f 43//24 42//23 41//23
f 45//25 44//24 43//24
f 47//26 46//25 45//25
f 49//27 48//26 47//26
f 51//28 50//27 49//27
f 53//29 52//28 51//28
f 55//30 54//29 53//29
f 57//31 56//30 55//30
f 59//32 58//31 57//31
f 61//32 60//32 59//32
f 63//33 62//32 61//32
f 33//20 64//33 63//33
f 66//34 68//35 65//35
f 69//32 67//34 66//34
f 71//36 70//32 69//32
f 73//37 72//36 71//36
f 75//38 74//37 73//37
f 77//39 76//38 75//38
f 65//35 78//39 77//39
f 80//40 82//41 79//41
f 83//42 81//40 80//40
f 85//32 84//42 83//42
f 87//43 86//32 85//32
f 89//44 88//43 87//43
f 91//45 90//44 89//44
f 93//46 92//45 91//45
f 95//47 94//46 93//46
f 97//48 96//47 95//47
f 99//49 98//48 97//48
f 101//50 100//49 99//49
f 103//51 102//50 101//50
f 105//52 104//51 103//51
f 107//53 106//52 105//52
f 109//54 108//53 107//53
f 79//41 110//54 109//54
f 2//3 3//3 4//4
f 5//5 6//5 3//3
f 7//6 8//6 6//5
f 9//7 10//7 8//6
f 11//8 12//8 10//7
f 13//9 14//9 12//8
f 15//10 16//10 14//9
f 17//11 18//11 16//10
f 19//12 20//12 18//11
f 21//13 22//13 20//12
f 23//14 24//14 22//13
f 25//15 26//15 24//14
f 27//16 28//16 26//15
f 29//17 30//17 28//16
f 31//18 32//18 30//17
f 1//4 4//4 32//18
f 34//19 35//19 36//20
f 37//21 38//21 35//19
f 39//22 40//22 38//21
f 41//23 42//23 40//22
f 43//24 44//24 42//23
f 45//25 46//25 44//24
f 47//26 48//26 46//25
f 49//27 50//27 48//26
f 51//28 52//28 50//27
f 53//29 54//29 52//28
f 55//30 56//30 54//29
f 57//31 58//31 56//30
f 59//32 60//32 58//31
f 61//32 62//32 60//32
f 63//33 64//33 62//32
f 33//20 36//20 64//33
f 66//34 67//34 68//35
f 69//32 70//32 67//34
f 71//36 72//36 70//32
f 73//37 74//37 72//36
f 75//38 76//38 74//37
f 77//39 78//39 76//38
f 65//35 68//35 78//39
f 80//40 81//40 82//41
f 83//42 84//42 81//40
f 85//32 86//32 84//42
f 87//43 88//43 86//32
f 89//44 90//44 88//43
f 91//45 92//45 90//44
f 93//46 94//46 92//45
f 95//47 96//47 94//46
f 97//48 98//48 96//47
f 99//49 100//49 98//48
f 101//50 102//50 100//49
f 103//51 104//51 102//50
f 105//52 106//52 104//51
f 107//53 108//53 106//52
f 109//54 110//54 108//53
f 79//41 82//41 110//54
