# Blender v2.79 (sub 0) OBJ File: 'Font All Characters Individual Meshes COMPLETE WITH CENTERS AND NAMES.blend'
# www.blender.org
mtllib Right Curly Brace.mtl
o Right_Curly_Brace_Text.208
v -0.259422 0.523641 0.394875
v -0.220577 0.611817 0.394875
v -0.259422 0.611817 0.394875
v -0.015553 0.566496 0.394875
v -0.216259 0.523641 0.394875
v -0.103729 0.496819 0.394875
v 0.035934 0.384904 0.394875
v -0.077522 0.382438 0.394875
v 0.035934 0.236918 0.394875
v -0.077522 0.229518 0.394875
v 0.069229 0.109587 0.394875
v -0.049774 0.088931 0.394875
v 0.190086 0.074132 0.394875
v 0.046417 0.029736 0.394875
v 0.228317 0.074132 0.394875
v 0.228317 -0.014043 0.394875
v -0.049774 -0.030692 0.394875
v 0.190086 -0.014043 0.394875
v 0.069229 -0.049807 0.394875
v -0.077522 -0.170662 0.394875
v 0.035934 -0.178678 0.394875
v -0.077522 -0.323582 0.394875
v 0.035934 -0.326048 0.394875
v -0.103729 -0.438271 0.394875
v -0.015553 -0.507948 0.394875
v -0.216259 -0.464786 0.394875
v -0.259422 -0.553578 0.394875
v -0.259422 -0.464786 0.394875
v -0.220577 -0.553578 0.394875
v -0.259422 -0.553578 0.394875
v -0.259422 -0.464786 0.394875
v -0.259422 -0.464786 -0.363125
v -0.259422 -0.553577 -0.363125
v -0.216259 -0.464786 0.394875
v -0.216259 -0.464786 -0.363125
v -0.103729 -0.438271 0.394875
v -0.103729 -0.438271 -0.363125
v -0.077522 -0.323582 0.394875
v -0.077522 -0.323582 -0.363125
v -0.077522 -0.170662 0.394875
v -0.077522 -0.170662 -0.363125
v -0.049774 -0.030692 0.394875
v -0.049774 -0.030692 -0.363125
v 0.046417 0.029736 0.394875
v 0.046417 0.029736 -0.363125
v -0.049774 0.088931 0.394875
v -0.049774 0.088931 -0.363125
v -0.077522 0.229518 0.394875
v -0.077522 0.229518 -0.363125
v -0.077522 0.382438 0.394875
v -0.077522 0.382438 -0.363125
v -0.103729 0.496819 0.394875
v -0.103729 0.496819 -0.363125
v -0.216259 0.523641 0.394875
v -0.216259 0.523641 -0.363125
v -0.259422 0.523641 0.394875
v -0.259422 0.523641 -0.363125
v -0.259422 0.611817 0.394875
v -0.259422 0.611817 -0.363125
v -0.220577 0.611817 0.394875
v -0.220577 0.611817 -0.363125
v -0.015553 0.566496 0.394875
v -0.015553 0.566496 -0.363125
v 0.035934 0.384904 0.394875
v 0.035934 0.384904 -0.363125
v 0.035934 0.236918 0.394875
v 0.035934 0.236918 -0.363125
v 0.069229 0.109587 0.394875
v 0.069229 0.109587 -0.363125
v 0.190086 0.074132 0.394875
v 0.190086 0.074132 -0.363125
v 0.228317 0.074132 0.394875
v 0.228317 0.074132 -0.363125
v 0.228317 -0.014043 0.394875
v 0.228317 -0.014043 -0.363125
v 0.190086 -0.014043 0.394875
v 0.190086 -0.014043 -0.363125
v 0.069229 -0.049807 0.394875
v 0.069229 -0.049806 -0.363125
v 0.035934 -0.178678 0.394875
v 0.035934 -0.178678 -0.363125
v 0.035934 -0.326048 0.394875
v 0.035934 -0.326048 -0.363125
v -0.015553 -0.507948 0.394875
v -0.015553 -0.507948 -0.363125
v -0.220577 -0.553578 0.394875
v -0.220577 -0.553577 -0.363125
v -0.220577 0.611817 -0.363125
v -0.259422 0.523641 -0.363125
v -0.259422 0.611817 -0.363125
v -0.015553 0.566496 -0.363125
v -0.216259 0.523641 -0.363125
v -0.103729 0.496819 -0.363125
v 0.035934 0.384904 -0.363125
v -0.077522 0.382438 -0.363125
v 0.035934 0.236918 -0.363125
v -0.077522 0.229518 -0.363125
v 0.069229 0.109587 -0.363125
v -0.049774 0.088931 -0.363125
v 0.190086 0.074132 -0.363125
v 0.046417 0.029736 -0.363125
v 0.228317 0.074132 -0.363125
v 0.228317 -0.014043 -0.363125
v 0.190086 -0.014043 -0.363125
v -0.049774 -0.030692 -0.363125
v 0.069229 -0.049806 -0.363125
v -0.077522 -0.170662 -0.363125
v 0.035934 -0.178678 -0.363125
v -0.077522 -0.323582 -0.363125
v 0.035934 -0.326048 -0.363125
v -0.103729 -0.438271 -0.363125
v -0.015553 -0.507948 -0.363125
v -0.216259 -0.464786 -0.363125
v -0.259422 -0.553577 -0.363125
v -0.259422 -0.464786 -0.363125
v -0.220577 -0.553577 -0.363125
vn 0.0000 0.0000 1.0000
vn 0.0000 0.0000 -1.0000
vn -0.7071 0.7071 0.0000
vn -0.7071 -0.7071 -0.0000
vn -0.1154 0.9933 0.0000
vn -0.7095 0.7047 0.0000
vn -0.9937 0.1121 0.0000
vn -0.9952 0.0977 0.0000
vn -0.8238 0.5670 0.0000
vn -1.0000 -0.0046 -0.0000
vn -0.8214 -0.5704 -0.0000
vn -0.9953 -0.0973 -0.0000
vn -0.9937 -0.1124 -0.0000
vn -0.7102 -0.7040 -0.0000
vn -0.1167 -0.9932 -0.0000
vn 0.1086 0.9941 0.0000
vn 0.6860 0.7276 0.0000
vn 0.9905 0.1377 0.0000
vn 0.9918 0.1275 0.0000
vn 0.7175 0.6966 0.0000
vn 0.1422 0.9898 0.0000
vn 0.7071 0.7071 0.0000
vn 0.7071 -0.7071 -0.0000
vn 0.1434 -0.9897 -0.0000
vn 0.7193 -0.6947 -0.0000
vn 0.9920 -0.1261 -0.0000
vn 0.9905 -0.1375 -0.0000
vn 0.6867 -0.7269 -0.0000
vn 0.1093 -0.9940 -0.0000
usemtl None
s off
f 1//1 2//1 3//1
f 1//1 4//1 2//1
f 1//1 5//1 4//1
f 5//1 6//1 4//1
f 6//1 7//1 4//1
f 8//1 7//1 6//1
f 8//1 9//1 7//1
f 10//1 9//1 8//1
f 10//1 11//1 9//1
f 12//1 11//1 10//1
f 12//1 13//1 11//1
f 14//1 13//1 12//1
f 14//1 15//1 13//1
f 14//1 16//1 15//1
f 17//1 18//1 14//1
f 18//1 16//1 14//1
f 17//1 19//1 18//1
f 20//1 19//1 17//1
f 20//1 21//1 19//1
f 22//1 21//1 20//1
f 22//1 23//1 21//1
f 24//1 23//1 22//1
f 24//1 25//1 23//1
f 26//1 25//1 24//1
f 27//1 26//1 28//1
f 27//1 25//1 26//1
f 27//1 29//1 25//1
f 88//2 89//2 90//2
f 91//2 89//2 88//2
f 92//2 89//2 91//2
f 93//2 92//2 91//2
f 94//2 93//2 91//2
f 94//2 95//2 93//2
f 96//2 95//2 94//2
f 96//2 97//2 95//2
f 98//2 97//2 96//2
f 98//2 99//2 97//2
f 100//2 99//2 98//2
f 100//2 101//2 99//2
f 102//2 101//2 100//2
f 103//2 101//2 102//2
f 104//2 105//2 101//2
f 103//2 104//2 101//2
f 106//2 105//2 104//2
f 106//2 107//2 105//2
f 108//2 107//2 106//2
f 108//2 109//2 107//2
f 110//2 109//2 108//2
f 110//2 111//2 109//2
f 112//2 111//2 110//2
f 112//2 113//2 111//2
f 113//2 114//2 115//2
f 112//2 114//2 113//2
f 116//2 114//2 112//2
s 1
f 31//3 33//4 30//4
f 34//5 32//3 31//3
f 36//6 35//5 34//5
f 38//7 37//6 36//6
f 40//8 39//7 38//7
f 42//9 41//8 40//8
f 44//10 43//9 42//9
f 46//11 45//10 44//10
f 48//12 47//11 46//11
f 50//13 49//12 48//12
f 52//14 51//13 50//13
f 54//15 53//14 52//14
f 56//4 55//15 54//15
f 58//3 57//4 56//4
f 60//16 59//3 58//3
f 62//17 61//16 60//16
f 64//18 63//17 62//17
f 66//19 65//18 64//18
f 68//20 67//19 66//19
f 70//21 69//20 68//20
f 72//22 71//21 70//21
f 74//23 73//22 72//22
f 76//24 75//23 74//23
f 76//24 79//25 77//24
f 80//26 79//25 78//25
f 82//27 81//26 80//26
f 84//28 83//27 82//27
f 86//29 85//28 84//28
f 30//4 87//29 86//29
f 31//3 32//3 33//4
f 34//5 35//5 32//3
f 36//6 37//6 35//5
f 38//7 39//7 37//6
f 40//8 41//8 39//7
f 42//9 43//9 41//8
f 44//10 45//10 43//9
f 46//11 47//11 45//10
f 48//12 49//12 47//11
f 50//13 51//13 49//12
f 52//14 53//14 51//13
f 54//15 55//15 53//14
f 56//4 57//4 55//15
f 58//3 59//3 57//4
f 60//16 61//16 59//3
f 62//17 63//17 61//16
f 64//18 65//18 63//17
f 66//19 67//19 65//18
f 68//20 69//20 67//19
f 70//21 71//21 69//20
f 72//22 73//22 71//21
f 74//23 75//23 73//22
f 76//24 77//24 75//23
f 76//24 78//25 79//25
f 80//26 81//26 79//25
f 82//27 83//27 81//26
f 84//28 85//28 83//27
f 86//29 87//29 85//28
f 30//4 33//4 87//29
