# Blender v2.79 (sub 0) OBJ File: 'Font All Characters Individual Meshes COMPLETE WITH CENTERS AND NAMES.blend'
# www.blender.org
mtllib Ro.mtl
o Ro_Text.035
v -0.290092 -0.610306 0.394875
v -0.176010 0.611817 0.394875
v -0.290092 0.611817 0.394875
v -0.176010 0.238151 0.394875
v -0.085686 0.329717 0.394875
v 0.249130 0.259732 0.394875
v 0.044724 0.359623 0.394875
v 0.016975 0.264665 0.394875
v -0.124535 0.193446 0.394875
v 0.158493 0.193446 0.394875
v 0.327751 -0.002944 0.394875
v -0.176010 -0.002944 0.394875
v 0.209984 -0.002944 0.394875
v -0.176010 -0.244039 0.394875
v -0.124535 -0.199335 0.394875
v 0.158493 -0.199335 0.394875
v 0.249130 -0.265620 0.394875
v 0.016975 -0.270553 0.394875
v -0.176010 -0.610306 0.394875
v -0.085686 -0.335606 0.394875
v 0.044724 -0.365511 0.394875
v 0.158493 -0.199335 0.394875
v 0.209984 -0.002944 0.394875
v 0.209984 -0.002944 -0.363125
v 0.158493 -0.199335 -0.363125
v 0.158493 0.193446 0.394875
v 0.158493 0.193446 -0.363125
v 0.016975 0.264665 0.394875
v 0.016975 0.264665 -0.363125
v -0.124535 0.193446 0.394875
v -0.124535 0.193446 -0.363125
v -0.176010 -0.002944 0.394875
v -0.176010 -0.002944 -0.363125
v -0.124535 -0.199335 0.394875
v -0.124535 -0.199335 -0.363125
v 0.016975 -0.270553 0.394875
v 0.016975 -0.270553 -0.363125
v -0.085686 -0.335606 0.394875
v -0.176010 -0.244039 0.394875
v -0.176010 -0.244039 -0.363125
v -0.085686 -0.335606 -0.363125
v -0.176010 -0.610306 0.394875
v -0.176010 -0.610306 -0.363125
v -0.290092 -0.610306 0.394875
v -0.290092 -0.610306 -0.363125
v -0.290092 0.611817 0.394875
v -0.290092 0.611817 -0.363125
v -0.176010 0.611817 0.394875
v -0.176010 0.611817 -0.363125
v -0.176010 0.238151 0.394875
v -0.176010 0.238151 -0.363125
v -0.085686 0.329717 0.394875
v -0.085686 0.329717 -0.363125
v 0.044724 0.359623 0.394875
v 0.044724 0.359623 -0.363125
v 0.249130 0.259732 0.394875
v 0.249130 0.259732 -0.363125
v 0.327751 -0.002944 0.394875
v 0.327751 -0.002944 -0.363125
v 0.249130 -0.265620 0.394875
v 0.249130 -0.265620 -0.363125
v 0.044724 -0.365511 0.394875
v 0.044724 -0.365511 -0.363125
v -0.176010 0.611817 -0.363125
v -0.290092 -0.610306 -0.363125
v -0.290092 0.611817 -0.363125
v -0.176010 0.238151 -0.363125
v 0.249130 0.259732 -0.363125
v -0.085686 0.329717 -0.363125
v 0.044724 0.359623 -0.363125
v 0.016975 0.264665 -0.363125
v -0.124535 0.193446 -0.363125
v 0.158493 0.193446 -0.363125
v 0.327751 -0.002944 -0.363125
v -0.176010 -0.002944 -0.363125
v 0.209984 -0.002944 -0.363125
v -0.176010 -0.244039 -0.363125
v -0.124535 -0.199335 -0.363125
v 0.158493 -0.199335 -0.363125
v 0.249130 -0.265620 -0.363125
v 0.016975 -0.270553 -0.363125
v -0.176010 -0.610306 -0.363125
v -0.085686 -0.335606 -0.363125
v 0.044724 -0.365511 -0.363125
vn 0.0000 -0.0000 1.0000
vn 0.0000 0.0000 -1.0000
vn -1.0000 -0.0000 0.0000
vn -0.7773 0.6292 0.0000
vn -0.7773 -0.6292 -0.0000
vn 0.0000 -1.0000 -0.0000
vn 0.7773 -0.6291 -0.0000
vn 1.0000 -0.0000 -0.0000
vn 0.7773 0.6291 0.0000
vn 0.0000 1.0000 0.0000
vn 0.3795 -0.9252 -0.0000
vn -0.4872 -0.8733 -0.0000
vn 0.7071 -0.7071 -0.0000
vn -0.7071 -0.7071 -0.0000
vn -0.7071 0.7071 0.0000
vn 0.7071 0.7071 0.0000
vn 0.3795 0.9252 0.0000
vn -0.4872 0.8733 0.0000
vn 0.1143 0.9934 0.0000
vn 0.7626 0.6469 0.0000
vn 0.7626 -0.6469 -0.0000
vn 0.1143 -0.9934 -0.0000
usemtl None
s off
f 1//1 2//1 3//1
f 1//1 4//1 2//1
f 5//1 6//1 7//1
f 4//1 8//1 5//1
f 8//1 6//1 5//1
f 4//1 9//1 8//1
f 10//1 6//1 8//1
f 10//1 11//1 6//1
f 1//1 12//1 4//1
f 12//1 9//1 4//1
f 13//1 11//1 10//1
f 1//1 14//1 12//1
f 14//1 15//1 12//1
f 16//1 11//1 13//1
f 16//1 17//1 11//1
f 14//1 18//1 15//1
f 18//1 17//1 16//1
f 1//1 19//1 14//1
f 20//1 18//1 14//1
f 18//1 21//1 17//1
f 20//1 21//1 18//1
f 64//2 65//2 66//2
f 67//2 65//2 64//2
f 68//2 69//2 70//2
f 71//2 67//2 69//2
f 68//2 71//2 69//2
f 72//2 67//2 71//2
f 68//2 73//2 71//2
f 74//2 73//2 68//2
f 75//2 65//2 67//2
f 72//2 75//2 67//2
f 74//2 76//2 73//2
f 77//2 65//2 75//2
f 78//2 77//2 75//2
f 74//2 79//2 76//2
f 80//2 79//2 74//2
f 81//2 77//2 78//2
f 80//2 81//2 79//2
f 82//2 65//2 77//2
f 81//2 83//2 77//2
f 84//2 81//2 80//2
f 84//2 83//2 81//2
s 1
f 23//3 25//4 22//4
f 26//5 24//3 23//3
f 28//6 27//5 26//5
f 30//7 29//6 28//6
f 32//8 31//7 30//7
f 34//9 33//8 32//8
f 36//10 35//9 34//9
f 22//4 37//10 36//10
f 39//11 41//12 38//12
f 42//13 40//11 39//11
f 44//14 43//13 42//13
f 46//15 45//14 44//14
f 48//16 47//15 46//15
f 50//17 49//16 48//16
f 52//18 51//17 50//17
f 54//19 53//18 52//18
f 56//20 55//19 54//19
f 58//8 57//20 56//20
f 60//21 59//8 58//8
f 62//22 61//21 60//21
f 38//12 63//22 62//22
f 23//3 24//3 25//4
f 26//5 27//5 24//3
f 28//6 29//6 27//5
f 30//7 31//7 29//6
f 32//8 33//8 31//7
f 34//9 35//9 33//8
f 36//10 37//10 35//9
f 22//4 25//4 37//10
f 39//11 40//11 41//12
f 42//13 43//13 40//11
f 44//14 45//14 43//13
f 46//15 47//15 45//14
f 48//16 49//16 47//15
f 50//17 51//17 49//16
f 52//18 53//18 51//17
f 54//19 55//19 53//18
f 56//20 57//20 55//19
f 58//8 59//8 57//20
f 60//21 61//21 59//8
f 62//22 63//22 61//21
f 38//12 41//12 63//22
