# Blender v2.79 (sub 0) OBJ File: 'Font All Characters Individual Meshes COMPLETE WITH CENTERS AND NAMES.blend'
# www.blender.org
mtllib Semicolon.mtl
o Semicolon_Text.665
v -0.066231 -0.297067 0.394875
v -0.066231 -0.191010 0.394875
v -0.066231 -0.191010 -0.363125
v -0.066231 -0.297067 -0.363125
v 0.063881 -0.191010 0.394875
v 0.063881 -0.191010 -0.363125
v 0.063881 -0.297067 0.394875
v 0.063881 -0.297067 -0.363125
v -0.037247 -0.494383 0.394875
v -0.037247 -0.494383 -0.363125
v -0.116791 -0.494383 0.394875
v -0.116791 -0.494383 -0.363125
v -0.066231 0.148742 0.394875
v -0.066231 0.305361 0.394875
v -0.066231 0.305361 -0.363125
v -0.066231 0.148742 -0.363125
v 0.063881 0.305361 0.394875
v 0.063881 0.305361 -0.363125
v 0.063881 0.148742 0.394875
v 0.063881 0.148742 -0.363125
v 0.063881 0.305361 -0.363125
v -0.066231 0.148742 -0.363125
v -0.066231 0.305361 -0.363125
v 0.063881 0.148742 -0.363125
v 0.063881 -0.191010 -0.363125
v -0.066231 -0.297067 -0.363125
v -0.066231 -0.191010 -0.363125
v 0.063881 -0.297067 -0.363125
v -0.116791 -0.494383 -0.363125
v -0.037247 -0.494383 -0.363125
v -0.066231 0.148742 0.394875
v 0.063881 0.305361 0.394875
v -0.066231 0.305361 0.394875
v 0.063881 0.148742 0.394875
v -0.066231 -0.297067 0.394875
v 0.063881 -0.191010 0.394875
v -0.066231 -0.191010 0.394875
v 0.063881 -0.297067 0.394875
v -0.116791 -0.494383 0.394875
v -0.037247 -0.494383 0.394875
vn 0.0000 0.0000 -1.0000
vn 0.0000 -0.0000 1.0000
vn -0.7071 0.7071 0.0000
vn -0.9921 0.1251 0.0000
vn 0.7071 0.7071 0.0000
vn 0.9721 -0.2346 -0.0000
vn 0.5215 -0.8533 -0.0000
vn -0.7900 -0.6131 -0.0000
vn -0.7071 -0.7071 -0.0000
vn 0.7071 -0.7071 -0.0000
usemtl None
s off
f 21//1 22//1 23//1
f 24//1 22//1 21//1
f 25//1 26//1 27//1
f 28//1 26//1 25//1
f 28//1 29//1 26//1
f 30//1 29//1 28//1
f 31//2 32//2 33//2
f 31//2 34//2 32//2
f 35//2 36//2 37//2
f 35//2 38//2 36//2
f 39//2 38//2 35//2
f 39//2 40//2 38//2
s 1
f 2//3 4//4 1//4
f 5//5 3//3 2//3
f 7//6 6//5 5//5
f 9//7 8//6 7//6
f 11//8 10//7 9//7
f 1//4 12//8 11//8
f 14//3 16//9 13//9
f 17//5 15//3 14//3
f 19//10 18//5 17//5
f 13//9 20//10 19//10
f 2//3 3//3 4//4
f 5//5 6//5 3//3
f 7//6 8//6 6//5
f 9//7 10//7 8//6
f 11//8 12//8 10//7
f 1//4 4//4 12//8
f 14//3 15//3 16//9
f 17//5 18//5 15//3
f 19//10 20//10 18//5
f 13//9 16//9 20//10
