# Blender v2.79 (sub 0) OBJ File: 'Font All Characters Individual Meshes COMPLETE WITH CENTERS AND NAMES.blend'
# www.blender.org
mtllib SS.mtl
o SS_Text.985
v -0.313004 -0.347630 0.394875
v -0.313004 0.353457 0.394875
v -0.313004 0.353457 -0.363125
v -0.313004 -0.347629 -0.363125
v -0.239319 0.544298 0.394875
v -0.239319 0.544298 -0.363125
v -0.031212 0.611817 0.394875
v -0.031212 0.611817 -0.363125
v 0.164558 0.540290 0.394875
v 0.164558 0.540290 -0.363125
v 0.233932 0.330642 0.394875
v 0.233932 0.330642 -0.363125
v 0.089020 0.290254 0.394875
v 0.089020 0.290254 -0.363125
v 0.037231 0.195605 0.394875
v 0.037231 0.195605 -0.363125
v 0.055107 0.141651 0.394875
v 0.055107 0.141651 -0.363125
v 0.113075 0.090781 0.394875
v 0.113075 0.090781 -0.363125
v 0.148216 0.067966 0.394875
v 0.148216 0.067966 -0.363125
v 0.280174 -0.041174 0.394875
v 0.280174 -0.041174 -0.363125
v 0.309769 -0.146614 0.394875
v 0.309769 -0.146614 -0.363125
v 0.240402 -0.309091 0.394875
v 0.240402 -0.309091 -0.363125
v 0.040924 -0.365511 0.394875
v 0.040924 -0.365511 -0.363125
v -0.040459 -0.357804 0.394875
v -0.040459 -0.357804 -0.363125
v -0.127411 -0.335297 0.394875
v -0.127411 -0.335297 -0.363125
v -0.127411 -0.234173 0.394875
v -0.127411 -0.234173 -0.363125
v -0.034920 -0.261612 0.394875
v -0.034920 -0.261612 -0.363125
v 0.048332 -0.270553 0.394875
v 0.048332 -0.270553 -0.363125
v 0.156853 -0.241264 0.394875
v 0.156853 -0.241264 -0.363125
v 0.193848 -0.155864 0.394875
v 0.193848 -0.155864 -0.363125
v 0.175659 -0.091119 0.394875
v 0.175659 -0.091119 -0.363125
v 0.095192 -0.026992 0.394875
v 0.095192 -0.026992 -0.363125
v 0.038467 0.006922 0.394875
v 0.038467 0.006922 -0.363125
v -0.047554 0.084923 0.394875
v -0.047554 0.084923 -0.363125
v -0.074379 0.182656 0.394875
v -0.074379 0.182656 -0.363125
v -0.022888 0.313994 0.394875
v -0.022888 0.313994 -0.363125
v 0.121704 0.384904 0.394875
v 0.121704 0.384904 -0.363125
v 0.076385 0.482945 0.394875
v 0.076385 0.482945 -0.363125
v -0.033684 0.517475 0.394875
v -0.033684 0.517475 -0.363125
v -0.155769 0.474621 0.394875
v -0.155769 0.474621 -0.363125
v -0.197701 0.350990 0.394875
v -0.197701 0.350990 -0.363125
v -0.197701 -0.347630 0.394875
v -0.197701 -0.347629 -0.363125
v 0.164558 0.540290 -0.363125
v -0.239319 0.544298 -0.363125
v -0.031212 0.611817 -0.363125
v -0.155769 0.474621 -0.363125
v -0.313004 0.353457 -0.363125
v -0.033684 0.517475 -0.363125
v 0.076385 0.482945 -0.363125
v 0.233932 0.330642 -0.363125
v 0.121704 0.384904 -0.363125
v -0.197701 0.350990 -0.363125
v -0.022888 0.313994 -0.363125
v -0.313004 -0.347629 -0.363125
v -0.197701 -0.347629 -0.363125
v 0.089020 0.290254 -0.363125
v -0.074379 0.182656 -0.363125
v 0.037231 0.195605 -0.363125
v 0.055107 0.141651 -0.363125
v -0.047554 0.084923 -0.363125
v 0.113075 0.090781 -0.363125
v 0.148216 0.067966 -0.363125
v 0.038467 0.006922 -0.363125
v 0.280174 -0.041174 -0.363125
v 0.095192 -0.026992 -0.363125
v 0.175659 -0.091119 -0.363125
v 0.309769 -0.146614 -0.363125
v 0.193848 -0.155864 -0.363125
v 0.240402 -0.309091 -0.363125
v 0.156853 -0.241264 -0.363125
v -0.034920 -0.261612 -0.363125
v -0.127411 -0.335297 -0.363125
v -0.127411 -0.234173 -0.363125
v 0.048332 -0.270553 -0.363125
v 0.040924 -0.365511 -0.363125
v -0.040459 -0.357804 -0.363125
v -0.239319 0.544298 0.394875
v 0.164558 0.540290 0.394875
v -0.031212 0.611817 0.394875
v -0.313004 0.353457 0.394875
v -0.155769 0.474621 0.394875
v -0.033684 0.517475 0.394875
v 0.076385 0.482945 0.394875
v 0.233932 0.330642 0.394875
v 0.121704 0.384904 0.394875
v -0.197701 0.350990 0.394875
v -0.022888 0.313994 0.394875
v -0.313004 -0.347630 0.394875
v -0.197701 -0.347630 0.394875
v 0.089020 0.290254 0.394875
v -0.074379 0.182656 0.394875
v 0.037231 0.195605 0.394875
v 0.055107 0.141651 0.394875
v -0.047554 0.084923 0.394875
v 0.113075 0.090781 0.394875
v 0.148216 0.067966 0.394875
v 0.038467 0.006922 0.394875
v 0.280174 -0.041174 0.394875
v 0.095192 -0.026992 0.394875
v 0.175659 -0.091119 0.394875
v 0.309769 -0.146614 0.394875
v 0.193848 -0.155864 0.394875
v 0.240402 -0.309091 0.394875
v 0.156853 -0.241264 0.394875
v -0.127411 -0.335297 0.394875
v -0.034920 -0.261612 0.394875
v -0.127411 -0.234173 0.394875
v 0.048332 -0.270553 0.394875
v 0.040924 -0.365511 0.394875
v -0.040459 -0.357804 0.394875
vn 0.0000 0.0000 -1.0000
vn 0.0000 0.0000 1.0000
vn -0.9831 0.1832 0.0000
vn -0.7071 -0.7071 -0.0000
vn -0.6875 0.7262 0.0000
vn 0.0183 0.9998 0.0000
vn 0.7179 0.6962 0.0000
vn 0.8825 -0.4704 -0.0000
vn 0.6217 -0.7832 -0.0000
vn 0.9959 -0.0902 -0.0000
vn 0.8336 0.5524 0.0000
vn 0.6036 0.7973 0.0000
vn 0.5919 0.8060 0.0000
vn 0.8383 0.5453 0.0000
vn 0.9979 -0.0649 -0.0000
vn 0.6605 -0.7508 -0.0000
vn 0.0905 -0.9959 -0.0000
vn -0.1730 -0.9849 -0.0000
vn -0.7908 -0.6121 -0.0000
vn -0.5982 0.8014 0.0000
vn 0.1964 0.9805 0.0000
vn -0.0782 0.9969 0.0000
vn -0.6540 0.7565 0.0000
vn -0.9977 0.0674 0.0000
vn -0.8332 -0.5529 -0.0000
vn -0.5695 -0.8220 -0.0000
vn -0.5953 -0.8035 -0.0000
vn -0.8520 -0.5236 -0.0000
vn -0.9986 0.0529 0.0000
vn -0.7356 0.6774 0.0000
vn -0.9424 0.3344 0.0000
vn -0.6601 -0.7512 -0.0000
vn 0.0168 -0.9999 -0.0000
vn 0.7108 -0.7034 -0.0000
vn 0.9867 -0.1628 -0.0000
vn 0.7071 -0.7071 -0.0000
usemtl None
s off
f 69//1 70//1 71//1
f 72//1 73//1 70//1
f 74//1 72//1 70//1
f 69//1 74//1 70//1
f 75//1 74//1 69//1
f 76//1 75//1 69//1
f 76//1 77//1 75//1
f 78//1 73//1 72//1
f 76//1 79//1 77//1
f 78//1 80//1 73//1
f 81//1 80//1 78//1
f 82//1 79//1 76//1
f 82//1 83//1 79//1
f 84//1 83//1 82//1
f 85//1 83//1 84//1
f 85//1 86//1 83//1
f 87//1 86//1 85//1
f 88//1 86//1 87//1
f 88//1 89//1 86//1
f 90//1 89//1 88//1
f 90//1 91//1 89//1
f 90//1 92//1 91//1
f 93//1 92//1 90//1
f 93//1 94//1 92//1
f 95//1 94//1 93//1
f 95//1 96//1 94//1
f 97//1 98//1 99//1
f 95//1 100//1 96//1
f 100//1 98//1 97//1
f 95//1 98//1 100//1
f 101//1 98//1 95//1
f 101//1 102//1 98//1
f 103//2 104//2 105//2
f 106//2 107//2 103//2
f 107//2 108//2 103//2
f 108//2 104//2 103//2
f 108//2 109//2 104//2
f 109//2 110//2 104//2
f 111//2 110//2 109//2
f 106//2 112//2 107//2
f 113//2 110//2 111//2
f 114//2 112//2 106//2
f 114//2 115//2 112//2
f 113//2 116//2 110//2
f 117//2 116//2 113//2
f 117//2 118//2 116//2
f 117//2 119//2 118//2
f 120//2 119//2 117//2
f 120//2 121//2 119//2
f 120//2 122//2 121//2
f 123//2 122//2 120//2
f 123//2 124//2 122//2
f 125//2 124//2 123//2
f 126//2 124//2 125//2
f 126//2 127//2 124//2
f 128//2 127//2 126//2
f 128//2 129//2 127//2
f 130//2 129//2 128//2
f 131//2 132//2 133//2
f 134//2 129//2 130//2
f 131//2 134//2 132//2
f 131//2 129//2 134//2
f 131//2 135//2 129//2
f 136//2 135//2 131//2
s 1
f 2//3 4//4 1//4
f 5//5 3//3 2//3
f 7//6 6//5 5//5
f 9//7 8//6 7//6
f 11//8 10//7 9//7
f 13//9 12//8 11//8
f 15//10 14//9 13//9
f 17//11 16//10 15//10
f 19//12 18//11 17//11
f 21//13 20//12 19//12
f 23//14 22//13 21//13
f 25//15 24//14 23//14
f 27//16 26//15 25//15
f 29//17 28//16 27//16
f 31//18 30//17 29//17
f 33//19 32//18 31//18
f 35//20 34//19 33//19
f 37//21 36//20 35//20
f 39//22 38//21 37//21
f 41//23 40//22 39//22
f 43//24 42//23 41//23
f 45//25 44//24 43//24
f 47//26 46//25 45//25
f 49//27 48//26 47//26
f 51//28 50//27 49//27
f 53//29 52//28 51//28
f 55//30 54//29 53//29
f 57//31 56//30 55//30
f 59//32 58//31 57//31
f 61//33 60//32 59//32
f 63//34 62//33 61//33
f 65//35 64//34 63//34
f 65//35 68//36 66//35
f 1//4 68//36 67//36
f 2//3 3//3 4//4
f 5//5 6//5 3//3
f 7//6 8//6 6//5
f 9//7 10//7 8//6
f 11//8 12//8 10//7
f 13//9 14//9 12//8
f 15//10 16//10 14//9
f 17//11 18//11 16//10
f 19//12 20//12 18//11
f 21//13 22//13 20//12
f 23//14 24//14 22//13
f 25//15 26//15 24//14
f 27//16 28//16 26//15
f 29//17 30//17 28//16
f 31//18 32//18 30//17
f 33//19 34//19 32//18
f 35//20 36//20 34//19
f 37//21 38//21 36//20
f 39//22 40//22 38//21
f 41//23 42//23 40//22
f 43//24 44//24 42//23
f 45//25 46//25 44//24
f 47//26 48//26 46//25
f 49//27 50//27 48//26
f 51//28 52//28 50//27
f 53//29 54//29 52//28
f 55//30 56//30 54//29
f 57//31 58//31 56//30
f 59//32 60//32 58//31
f 61//33 62//33 60//32
f 63//34 64//34 62//33
f 65//35 66//35 64//34
f 65//35 67//36 68//36
f 1//4 4//4 68//36
