# Blender v2.79 (sub 0) OBJ File: 'Font All Characters Individual Meshes COMPLETE WITH CENTERS AND NAMES.blend'
# www.blender.org
mtllib Tilde.mtl
o Tilde_Text.753
v 0.260271 0.080915 0.394875
v 0.375887 0.156142 0.394875
v 0.375887 0.156142 -0.363125
v 0.260271 0.080915 -0.363125
v 0.375887 0.046385 0.394875
v 0.375887 0.046385 -0.363125
v 0.255953 -0.023292 0.394875
v 0.255953 -0.023292 -0.363125
v 0.140955 -0.044257 0.394875
v 0.140955 -0.044257 -0.363125
v -0.016897 -0.007877 0.394875
v -0.016897 -0.007877 -0.363125
v -0.026762 -0.004177 0.394875
v -0.026762 -0.004177 -0.363125
v -0.040327 0.000756 0.394875
v -0.040327 0.000756 -0.363125
v -0.193865 0.038985 0.394875
v -0.193865 0.038985 -0.363125
v -0.301153 0.015246 0.394875
v -0.301153 0.015246 -0.363125
v -0.414610 -0.059672 0.394875
v -0.414610 -0.059672 -0.363125
v -0.414610 0.050084 0.394875
v -0.414610 0.050084 -0.363125
v -0.294680 0.120070 0.394875
v -0.294680 0.120070 -0.363125
v -0.179682 0.141343 0.394875
v -0.179682 0.141343 -0.363125
v -0.021212 0.104346 0.394875
v -0.021212 0.104346 -0.363125
v -0.011961 0.100646 0.394875
v -0.011961 0.100647 -0.363125
v 0.001600 0.095714 0.394875
v 0.001600 0.095714 -0.363125
v 0.155138 0.057484 0.394875
v 0.155138 0.057484 -0.363125
v 0.375887 0.046385 -0.363125
v 0.260271 0.080915 -0.363125
v 0.375887 0.156142 -0.363125
v -0.021212 0.104346 -0.363125
v -0.294680 0.120070 -0.363125
v -0.179682 0.141343 -0.363125
v -0.414610 0.050084 -0.363125
v -0.011961 0.100647 -0.363125
v 0.001600 0.095714 -0.363125
v 0.155138 0.057484 -0.363125
v -0.301153 0.015246 -0.363125
v -0.414610 -0.059672 -0.363125
v -0.193865 0.038985 -0.363125
v 0.255953 -0.023292 -0.363125
v -0.040327 0.000756 -0.363125
v -0.026762 -0.004177 -0.363125
v -0.016897 -0.007877 -0.363125
v 0.140955 -0.044257 -0.363125
v 0.260271 0.080915 0.394875
v 0.375887 0.046385 0.394875
v 0.375887 0.156142 0.394875
v -0.294680 0.120070 0.394875
v -0.021212 0.104346 0.394875
v -0.179682 0.141343 0.394875
v -0.414610 0.050084 0.394875
v -0.011961 0.100646 0.394875
v 0.001600 0.095714 0.394875
v 0.155138 0.057484 0.394875
v -0.414610 -0.059672 0.394875
v -0.301153 0.015246 0.394875
v -0.193865 0.038985 0.394875
v 0.255953 -0.023292 0.394875
v -0.040327 0.000756 0.394875
v -0.026762 -0.004177 0.394875
v -0.016897 -0.007877 0.394875
v 0.140955 -0.044257 0.394875
vn 0.0000 0.0000 -1.0000
vn 0.0000 -0.0000 1.0000
vn 0.4768 0.8790 0.0000
vn -0.3876 0.9218 0.0000
vn 0.8667 -0.4988 -0.0000
vn 0.3460 -0.9382 -0.0000
vn -0.0231 -0.9997 -0.0000
vn -0.2885 -0.9575 -0.0000
vn -0.3465 -0.9381 -0.0000
vn -0.2921 -0.9564 -0.0000
vn -0.0131 -0.9999 -0.0000
vn 0.3900 -0.9208 -0.0000
vn -0.4738 -0.8806 -0.0000
vn -0.8672 0.4980 0.0000
vn -0.3481 0.9374 0.0000
vn 0.0232 0.9997 0.0000
vn 0.3002 0.9539 0.0000
vn 0.3566 0.9343 0.0000
vn 0.2921 0.9564 0.0000
vn 0.0124 0.9999 0.0000
usemtl None
s off
f 37//1 38//1 39//1
f 40//1 41//1 42//1
f 40//1 43//1 41//1
f 44//1 43//1 40//1
f 45//1 43//1 44//1
f 46//1 43//1 45//1
f 37//1 46//1 38//1
f 37//1 43//1 46//1
f 47//1 48//1 43//1
f 49//1 47//1 43//1
f 37//1 49//1 43//1
f 50//1 49//1 37//1
f 50//1 51//1 49//1
f 50//1 52//1 51//1
f 50//1 53//1 52//1
f 50//1 54//1 53//1
f 55//2 56//2 57//2
f 58//2 59//2 60//2
f 61//2 59//2 58//2
f 61//2 62//2 59//2
f 61//2 63//2 62//2
f 61//2 64//2 63//2
f 64//2 56//2 55//2
f 61//2 56//2 64//2
f 65//2 66//2 61//2
f 66//2 67//2 61//2
f 67//2 56//2 61//2
f 67//2 68//2 56//2
f 69//2 68//2 67//2
f 70//2 68//2 69//2
f 71//2 68//2 70//2
f 72//2 68//2 71//2
s 1
f 2//3 4//4 1//4
f 5//5 3//3 2//3
f 7//6 6//5 5//5
f 9//7 8//6 7//6
f 11//8 10//7 9//7
f 13//9 12//8 11//8
f 15//10 14//9 13//9
f 17//11 16//10 15//10
f 19//12 18//11 17//11
f 21//13 20//12 19//12
f 23//14 22//13 21//13
f 25//15 24//14 23//14
f 27//16 26//15 25//15
f 29//17 28//16 27//16
f 31//18 30//17 29//17
f 33//19 32//18 31//18
f 35//20 34//19 33//19
f 1//4 36//20 35//20
f 2//3 3//3 4//4
f 5//5 6//5 3//3
f 7//6 8//6 6//5
f 9//7 10//7 8//6
f 11//8 12//8 10//7
f 13//9 14//9 12//8
f 15//10 16//10 14//9
f 17//11 18//11 16//10
f 19//12 20//12 18//11
f 21//13 22//13 20//12
f 23//14 24//14 22//13
f 25//15 26//15 24//14
f 27//16 28//16 26//15
f 29//17 30//17 28//16
f 31//18 32//18 30//17
f 33//19 34//19 32//18
f 35//20 36//20 34//19
f 1//4 4//4 36//20
