# Blender v2.79 (sub 0) OBJ File: 'Font All Characters Individual Meshes COMPLETE WITH CENTERS AND NAMES.blend'
# www.blender.org
mtllib U Hat.mtl
o U_Hat_Text.030
v -0.361931 -0.001711 0.394875
v -0.236755 0.572970 0.394875
v -0.361931 0.572970 0.394875
v -0.236755 0.013704 0.394875
v 0.217682 0.013704 0.394875
v 0.342857 0.572970 0.394875
v 0.217682 0.572970 0.394875
v 0.342857 -0.001711 0.394875
v -0.183098 -0.199335 0.394875
v 0.164040 -0.199335 0.394875
v -0.272820 -0.273636 0.394875
v 0.253761 -0.273636 0.394875
v -0.009224 -0.264387 0.394875
v -0.009224 -0.365511 0.394875
v -0.197289 0.660529 0.394875
v -0.067184 0.824548 0.394875
v -0.067184 0.824548 -0.363125
v -0.197289 0.660529 -0.363125
v 0.048737 0.824548 0.394875
v 0.048737 0.824548 -0.363125
v 0.178848 0.660529 0.394875
v 0.178848 0.660529 -0.363125
v 0.093140 0.660529 0.394875
v 0.093140 0.660529 -0.363125
v -0.009224 0.770286 0.394875
v -0.009224 0.770286 -0.363125
v -0.111580 0.660529 0.394875
v -0.111580 0.660529 -0.363125
v -0.361931 -0.001711 0.394875
v -0.361931 0.572970 0.394875
v -0.361931 0.572970 -0.363125
v -0.361931 -0.001711 -0.363125
v -0.236755 0.572970 0.394875
v -0.236755 0.572970 -0.363125
v -0.236755 0.013704 0.394875
v -0.236755 0.013704 -0.363125
v -0.183098 -0.199335 0.394875
v -0.183098 -0.199335 -0.363125
v -0.009224 -0.264387 0.394875
v -0.009224 -0.264387 -0.363125
v 0.164040 -0.199335 0.394875
v 0.164040 -0.199335 -0.363125
v 0.217682 0.013704 0.394875
v 0.217682 0.013704 -0.363125
v 0.217682 0.572970 0.394875
v 0.217682 0.572970 -0.363125
v 0.342857 0.572970 0.394875
v 0.342857 0.572970 -0.363125
v 0.342857 -0.001711 0.394875
v 0.342857 -0.001711 -0.363125
v 0.253761 -0.273636 0.394875
v 0.253761 -0.273636 -0.363125
v -0.009224 -0.365511 0.394875
v -0.009224 -0.365511 -0.363125
v -0.272820 -0.273636 0.394875
v -0.272820 -0.273636 -0.363125
v 0.048737 0.824548 -0.363125
v -0.197289 0.660529 -0.363125
v -0.067184 0.824548 -0.363125
v -0.009224 0.770286 -0.363125
v 0.178848 0.660529 -0.363125
v -0.111580 0.660529 -0.363125
v 0.093140 0.660529 -0.363125
v -0.236755 0.572970 -0.363125
v -0.361931 -0.001711 -0.363125
v -0.361931 0.572970 -0.363125
v -0.236755 0.013704 -0.363125
v 0.342857 0.572970 -0.363125
v 0.217682 0.013704 -0.363125
v 0.217682 0.572970 -0.363125
v 0.342857 -0.001711 -0.363125
v -0.183098 -0.199335 -0.363125
v 0.164040 -0.199335 -0.363125
v -0.272820 -0.273636 -0.363125
v 0.253761 -0.273636 -0.363125
v -0.009224 -0.264387 -0.363125
v -0.009224 -0.365511 -0.363125
v -0.197289 0.660529 0.394875
v 0.048737 0.824548 0.394875
v -0.067184 0.824548 0.394875
v -0.009224 0.770286 0.394875
v 0.178848 0.660529 0.394875
v -0.111580 0.660529 0.394875
v 0.093140 0.660529 0.394875
vn 0.0000 -0.0000 1.0000
vn 0.0000 0.0000 -1.0000
vn -0.4351 0.9004 0.0000
vn -0.9004 -0.4351 -0.0000
vn 0.4350 0.9004 0.0000
vn 0.9004 -0.4350 -0.0000
vn -0.3987 -0.9171 -0.0000
vn 0.0000 -1.0000 -0.0000
vn 0.3987 -0.9171 -0.0000
vn -0.7071 0.7071 0.0000
vn -0.9875 -0.1577 -0.0000
vn 0.7071 0.7071 0.0000
vn 0.9924 0.1231 0.0000
vn 0.7453 0.6667 0.0000
vn -0.0006 1.0000 0.0000
vn -0.7457 0.6662 0.0000
vn -0.9924 0.1230 0.0000
vn 0.9875 -0.1577 -0.0000
vn 0.7140 -0.7002 -0.0000
vn 0.0004 -1.0000 -0.0000
vn -0.7137 -0.7005 -0.0000
usemtl None
s off
f 1//1 2//1 3//1
f 1//1 4//1 2//1
f 5//1 6//1 7//1
f 5//1 8//1 6//1
f 1//1 9//1 4//1
f 10//1 8//1 5//1
f 11//1 9//1 1//1
f 10//1 12//1 8//1
f 11//1 13//1 9//1
f 13//1 12//1 10//1
f 11//1 12//1 13//1
f 14//1 12//1 11//1
f 57//2 58//2 59//2
f 60//2 58//2 57//2
f 61//2 60//2 57//2
f 62//2 58//2 60//2
f 61//2 63//2 60//2
f 64//2 65//2 66//2
f 67//2 65//2 64//2
f 68//2 69//2 70//2
f 71//2 69//2 68//2
f 72//2 65//2 67//2
f 71//2 73//2 69//2
f 72//2 74//2 65//2
f 75//2 73//2 71//2
f 76//2 74//2 72//2
f 75//2 76//2 73//2
f 75//2 74//2 76//2
f 75//2 77//2 74//2
f 78//1 79//1 80//1
f 78//1 81//1 79//1
f 81//1 82//1 79//1
f 78//1 83//1 81//1
f 84//1 82//1 81//1
s 1
f 16//3 18//4 15//4
f 19//5 17//3 16//3
f 21//6 20//5 19//5
f 23//7 22//6 21//6
f 25//8 24//7 23//7
f 27//9 26//8 25//8
f 15//4 28//9 27//9
f 30//10 32//11 29//11
f 33//12 31//10 30//10
f 35//13 34//12 33//12
f 37//14 36//13 35//13
f 39//15 38//14 37//14
f 41//16 40//15 39//15
f 43//17 42//16 41//16
f 45//10 44//17 43//17
f 47//12 46//10 45//10
f 49//18 48//12 47//12
f 51//19 50//18 49//18
f 53//20 52//19 51//19
f 55//21 54//20 53//20
f 29//11 56//21 55//21
f 16//3 17//3 18//4
f 19//5 20//5 17//3
f 21//6 22//6 20//5
f 23//7 24//7 22//6
f 25//8 26//8 24//7
f 27//9 28//9 26//8
f 15//4 18//4 28//9
f 30//10 31//10 32//11
f 33//12 34//12 31//10
f 35//13 36//13 34//12
f 37//14 38//14 36//13
f 39//15 40//15 38//14
f 41//16 42//16 40//15
f 43//17 44//17 42//16
f 45//10 46//10 44//17
f 47//12 48//12 46//10
f 49//18 50//18 48//12
f 51//19 52//19 50//18
f 53//20 54//20 52//19
f 55//21 56//21 54//20
f 29//11 32//11 56//21
