# Blender v2.79 (sub 0) OBJ File: 'Font All Characters Individual Meshes COMPLETE WITH CENTERS AND NAMES.blend'
# www.blender.org
mtllib U.mtl
o U_Text.216
v -0.311256 -0.075088 0.394875
v -0.197800 0.342974 0.394875
v -0.311256 0.342974 0.394875
v -0.197800 -0.070771 0.394875
v 0.153667 -0.048573 0.394875
v 0.267124 0.342974 0.394875
v 0.153667 0.342974 0.394875
v 0.267124 -0.347630 0.394875
v 0.100330 -0.208276 0.394875
v 0.153667 -0.241572 0.394875
v -0.159573 -0.217833 0.394875
v -0.249596 -0.291518 0.394875
v -0.044880 -0.266854 0.394875
v 0.057785 -0.334989 0.394875
v 0.153667 -0.347630 0.394875
v -0.068932 -0.365511 0.394875
v -0.249596 -0.291518 0.394875
v -0.311256 -0.075088 0.394875
v -0.311256 -0.075087 -0.363125
v -0.249596 -0.291518 -0.363125
v -0.311256 0.342974 0.394875
v -0.311256 0.342974 -0.363125
v -0.197800 0.342974 0.394875
v -0.197800 0.342974 -0.363125
v -0.197800 -0.070771 0.394875
v -0.197800 -0.070771 -0.363125
v -0.159573 -0.217833 0.394875
v -0.159573 -0.217833 -0.363125
v -0.044880 -0.266854 0.394875
v -0.044880 -0.266853 -0.363125
v 0.100330 -0.208276 0.394875
v 0.100330 -0.208275 -0.363125
v 0.153667 -0.048573 0.394875
v 0.153667 -0.048573 -0.363125
v 0.153667 0.342974 0.394875
v 0.153667 0.342974 -0.363125
v 0.267124 0.342974 0.394875
v 0.267124 0.342974 -0.363125
v 0.267124 -0.347630 0.394875
v 0.267124 -0.347629 -0.363125
v 0.153667 -0.347630 0.394875
v 0.153667 -0.347629 -0.363125
v 0.153667 -0.241572 0.394875
v 0.153667 -0.241572 -0.363125
v 0.057785 -0.334989 0.394875
v 0.057785 -0.334989 -0.363125
v -0.068932 -0.365511 0.394875
v -0.068932 -0.365511 -0.363125
v -0.197800 0.342974 -0.363125
v -0.311256 -0.075087 -0.363125
v -0.311256 0.342974 -0.363125
v -0.197800 -0.070771 -0.363125
v 0.267124 0.342974 -0.363125
v 0.153667 -0.048573 -0.363125
v 0.153667 0.342974 -0.363125
v 0.267124 -0.347629 -0.363125
v 0.153667 -0.241572 -0.363125
v 0.100330 -0.208275 -0.363125
v -0.159573 -0.217833 -0.363125
v -0.249596 -0.291518 -0.363125
v -0.044880 -0.266853 -0.363125
v 0.057785 -0.334989 -0.363125
v 0.153667 -0.347629 -0.363125
v -0.068932 -0.365511 -0.363125
vn 0.0000 -0.0000 1.0000
vn 0.0000 0.0000 -1.0000
vn -0.9904 -0.1383 -0.0000
vn -0.7453 -0.6667 -0.0000
vn -0.7071 0.7071 0.0000
vn 0.7071 0.7071 0.0000
vn 0.9919 0.1268 0.0000
vn 0.7580 0.6523 0.0000
vn 0.0102 0.9999 0.0000
vn -0.7284 0.6852 0.0000
vn -0.9870 0.1605 0.0000
vn 0.7071 -0.7071 -0.0000
vn -0.7071 -0.7071 -0.0000
vn -0.3887 -0.9214 -0.0000
vn 0.4833 -0.8755 -0.0000
vn -0.0761 -0.9971 -0.0000
usemtl None
s off
f 1//1 2//1 3//1
f 1//1 4//1 2//1
f 5//1 6//1 7//1
f 5//1 8//1 6//1
f 9//1 10//1 5//1
f 10//1 8//1 5//1
f 1//1 11//1 4//1
f 12//1 11//1 1//1
f 13//1 10//1 9//1
f 12//1 13//1 11//1
f 13//1 14//1 10//1
f 15//1 8//1 10//1
f 12//1 14//1 13//1
f 16//1 14//1 12//1
f 49//2 50//2 51//2
f 52//2 50//2 49//2
f 53//2 54//2 55//2
f 56//2 54//2 53//2
f 57//2 58//2 54//2
f 56//2 57//2 54//2
f 59//2 50//2 52//2
f 59//2 60//2 50//2
f 57//2 61//2 58//2
f 61//2 60//2 59//2
f 62//2 61//2 57//2
f 56//2 63//2 57//2
f 62//2 60//2 61//2
f 62//2 64//2 60//2
s 1
f 18//3 20//4 17//4
f 21//5 19//3 18//3
f 23//6 22//5 21//5
f 25//7 24//6 23//6
f 27//8 26//7 25//7
f 29//9 28//8 27//8
f 31//10 30//9 29//9
f 33//11 32//10 31//10
f 35//5 34//11 33//11
f 37//6 36//5 35//5
f 37//6 40//12 38//6
f 41//13 40//12 39//12
f 43//14 42//13 41//13
f 45//15 44//14 43//14
f 47//16 46//15 45//15
f 17//4 48//16 47//16
f 18//3 19//3 20//4
f 21//5 22//5 19//3
f 23//6 24//6 22//5
f 25//7 26//7 24//6
f 27//8 28//8 26//7
f 29//9 30//9 28//8
f 31//10 32//10 30//9
f 33//11 34//11 32//10
f 35//5 36//5 34//11
f 37//6 38//6 36//5
f 37//6 39//12 40//12
f 41//13 42//13 40//12
f 43//14 44//14 42//13
f 45//15 46//15 44//14
f 47//16 48//16 46//15
f 17//4 20//4 48//16
