# Blender v2.79 (sub 0) OBJ File: 'Font All Characters Individual Meshes COMPLETE WITH CENTERS AND NAMES.blend'
# www.blender.org
mtllib Underscore.mtl
o Underscore_Text.712
v -0.327049 -0.557277 0.394875
v 0.329021 -0.557277 0.394875
v 0.329021 -0.557277 -0.363125
v -0.327049 -0.557277 -0.363125
v 0.329021 -0.645453 0.394875
v 0.329021 -0.645452 -0.363125
v -0.327049 -0.645453 0.394875
v -0.327049 -0.645452 -0.363125
v 0.329021 -0.557277 -0.363125
v -0.327049 -0.645452 -0.363125
v -0.327049 -0.557277 -0.363125
v 0.329021 -0.645452 -0.363125
v -0.327049 -0.645453 0.394875
v 0.329021 -0.557277 0.394875
v -0.327049 -0.557277 0.394875
v 0.329021 -0.645453 0.394875
vn 0.0000 0.0000 -1.0000
vn 0.0000 -0.0000 1.0000
vn 0.7071 0.7071 0.0000
vn -0.7071 0.7071 0.0000
vn 0.7071 -0.7071 -0.0000
vn -0.7071 -0.7071 -0.0000
usemtl None
s off
f 9//1 10//1 11//1
f 12//1 10//1 9//1
f 13//2 14//2 15//2
f 13//2 16//2 14//2
s 1
f 2//3 4//4 1//4
f 2//3 6//5 3//3
f 7//6 6//5 5//5
f 1//4 8//6 7//6
f 2//3 3//3 4//4
f 2//3 5//5 6//5
f 7//6 8//6 6//5
f 1//4 4//4 8//6
