# Blender v2.79 (sub 0) OBJ File: 'Font All Characters Individual Meshes COMPLETE WITH CENTERS AND NAMES.blend'
# www.blender.org
mtllib Upside Down Question Mark.mtl
o Upside_Down_Question_Mark_Text.127
v -0.023720 0.249866 0.394875
v 0.093437 0.325709 0.394875
v -0.023720 0.325709 0.394875
v 0.093437 0.229518 0.394875
v -0.025570 0.198071 0.394875
v 0.076481 0.127161 0.394875
v -0.031734 0.166624 0.394875
v -0.048382 0.134868 0.394875
v -0.089699 0.089548 0.394875
v 0.004028 0.033436 0.394875
v -0.143959 0.036519 0.394875
v -0.221340 -0.058747 0.394875
v -0.051468 -0.020826 0.394875
v -0.102955 -0.082487 0.394875
v -0.243851 -0.147848 0.394875
v -0.118679 -0.141681 0.394875
v -0.078289 -0.230473 0.394875
v -0.174789 -0.305700 0.394875
v 0.132900 -0.242806 0.394875
v 0.247589 -0.295834 0.394875
v 0.247589 -0.179911 0.394875
v 0.029308 -0.264387 0.394875
v 0.130436 -0.348246 0.394875
v 0.007729 -0.365511 0.394875
v 0.097137 0.572970 0.394875
v 0.097137 0.416351 0.394875
v 0.097137 0.416351 -0.363125
v 0.097137 0.572970 -0.363125
v -0.027420 0.416351 0.394875
v -0.027420 0.416351 -0.363125
v -0.027420 0.572970 0.394875
v -0.027420 0.572970 -0.363125
v -0.023720 0.249866 0.394875
v -0.023720 0.325709 0.394875
v -0.023720 0.325709 -0.363125
v -0.023720 0.249866 -0.363125
v 0.093437 0.325709 0.394875
v 0.093437 0.325709 -0.363125
v 0.093437 0.229518 0.394875
v 0.093437 0.229518 -0.363125
v 0.076481 0.127161 0.394875
v 0.076481 0.127161 -0.363125
v 0.004028 0.033436 0.394875
v 0.004028 0.033436 -0.363125
v -0.051468 -0.020826 0.394875
v -0.051468 -0.020826 -0.363125
v -0.102955 -0.082487 0.394875
v -0.102955 -0.082487 -0.363125
v -0.118679 -0.141681 0.394875
v -0.118679 -0.141681 -0.363125
v -0.078289 -0.230473 0.394875
v -0.078289 -0.230473 -0.363125
v 0.029308 -0.264387 0.394875
v 0.029308 -0.264387 -0.363125
v 0.132900 -0.242806 0.394875
v 0.132900 -0.242806 -0.363125
v 0.247589 -0.179911 0.394875
v 0.247589 -0.179911 -0.363125
v 0.247589 -0.295834 0.394875
v 0.247589 -0.295834 -0.363125
v 0.130436 -0.348246 0.394875
v 0.130436 -0.348246 -0.363125
v 0.007729 -0.365511 0.394875
v 0.007729 -0.365511 -0.363125
v -0.174789 -0.305700 0.394875
v -0.174789 -0.305700 -0.363125
v -0.243851 -0.147848 0.394875
v -0.243851 -0.147848 -0.363125
v -0.221340 -0.058747 0.394875
v -0.221340 -0.058747 -0.363125
v -0.143959 0.036519 0.394875
v -0.143959 0.036519 -0.363125
v -0.089699 0.089548 0.394875
v -0.089699 0.089548 -0.363125
v -0.048382 0.134868 0.394875
v -0.048382 0.134868 -0.363125
v -0.031734 0.166624 0.394875
v -0.031734 0.166624 -0.363125
v -0.025570 0.198071 0.394875
v -0.025570 0.198071 -0.363125
v 0.097137 0.572970 -0.363125
v -0.027420 0.416351 -0.363125
v -0.027420 0.572970 -0.363125
v 0.097137 0.416351 -0.363125
v 0.093437 0.325709 -0.363125
v -0.023720 0.249866 -0.363125
v -0.023720 0.325709 -0.363125
v 0.093437 0.229518 -0.363125
v -0.025570 0.198071 -0.363125
v 0.076481 0.127161 -0.363125
v -0.031734 0.166624 -0.363125
v -0.048382 0.134868 -0.363125
v -0.089699 0.089548 -0.363125
v 0.004028 0.033436 -0.363125
v -0.143959 0.036519 -0.363125
v -0.221340 -0.058747 -0.363125
v -0.051468 -0.020826 -0.363125
v -0.102955 -0.082487 -0.363125
v -0.243851 -0.147848 -0.363125
v -0.118679 -0.141681 -0.363125
v -0.078289 -0.230473 -0.363125
v -0.174789 -0.305700 -0.363125
v 0.247589 -0.295834 -0.363125
v 0.132900 -0.242806 -0.363125
v 0.247589 -0.179911 -0.363125
v 0.029308 -0.264387 -0.363125
v 0.130436 -0.348246 -0.363125
v 0.007729 -0.365511 -0.363125
v -0.027420 0.416351 0.394875
v 0.097137 0.572970 0.394875
v -0.027420 0.572970 0.394875
v 0.097137 0.416351 0.394875
vn 0.0000 -0.0000 1.0000
vn 0.0000 0.0000 -1.0000
vn 0.7071 -0.7071 -0.0000
vn 0.7071 0.7071 0.0000
vn -0.7071 -0.7071 -0.0000
vn -0.7071 0.7071 0.0000
vn -0.9998 0.0179 0.0000
vn 0.9966 -0.0820 -0.0000
vn 0.9167 -0.3996 -0.0000
vn 0.7469 -0.6649 -0.0000
vn 0.7343 -0.6788 -0.0000
vn 0.8881 -0.4597 -0.0000
vn 0.9965 0.0835 0.0000
vn 0.6628 0.7488 0.0000
vn 0.0500 0.9988 0.0000
vn -0.3462 0.9382 0.0000
vn 0.5095 0.8605 0.0000
vn 0.8392 -0.5439 -0.0000
vn 0.2766 -0.9610 -0.0000
vn -0.0883 -0.9961 -0.0000
vn -0.6725 -0.7401 -0.0000
vn -0.9966 -0.0824 -0.0000
vn -0.8939 0.4483 0.0000
vn -0.7388 0.6739 0.0000
vn -0.7193 0.6947 0.0000
vn -0.8191 0.5737 0.0000
vn -0.9434 0.3318 0.0000
vn -0.9934 0.1144 0.0000
usemtl None
s off
f 1//1 2//1 3//1
f 1//1 4//1 2//1
f 5//1 4//1 1//1
f 5//1 6//1 4//1
f 7//1 6//1 5//1
f 8//1 6//1 7//1
f 9//1 6//1 8//1
f 9//1 10//1 6//1
f 11//1 10//1 9//1
f 12//1 10//1 11//1
f 12//1 13//1 10//1
f 12//1 14//1 13//1
f 15//1 14//1 12//1
f 15//1 16//1 14//1
f 15//1 17//1 16//1
f 18//1 17//1 15//1
f 19//1 20//1 21//1
f 18//1 22//1 17//1
f 22//1 20//1 19//1
f 18//1 20//1 22//1
f 18//1 23//1 20//1
f 24//1 23//1 18//1
f 81//2 82//2 83//2
f 84//2 82//2 81//2
f 85//2 86//2 87//2
f 88//2 86//2 85//2
f 88//2 89//2 86//2
f 90//2 89//2 88//2
f 90//2 91//2 89//2
f 90//2 92//2 91//2
f 90//2 93//2 92//2
f 94//2 93//2 90//2
f 94//2 95//2 93//2
f 94//2 96//2 95//2
f 97//2 96//2 94//2
f 98//2 96//2 97//2
f 98//2 99//2 96//2
f 100//2 99//2 98//2
f 101//2 99//2 100//2
f 101//2 102//2 99//2
f 103//2 104//2 105//2
f 106//2 102//2 101//2
f 103//2 106//2 104//2
f 103//2 102//2 106//2
f 107//2 102//2 103//2
f 107//2 108//2 102//2
f 109//1 110//1 111//1
f 109//1 112//1 110//1
s 1
f 26//3 28//4 25//4
f 29//5 27//3 26//3
f 31//6 30//5 29//5
f 25//4 32//6 31//6
f 34//6 36//7 33//7
f 37//4 35//6 34//6
f 39//8 38//4 37//4
f 41//9 40//8 39//8
f 43//10 42//9 41//9
f 45//11 44//10 43//10
f 47//12 46//11 45//11
f 49//13 48//12 47//12
f 51//14 50//13 49//13
f 53//15 52//14 51//14
f 55//16 54//15 53//15
f 57//17 56//16 55//16
f 59//18 58//17 57//17
f 61//19 60//18 59//18
f 63//20 62//19 61//19
f 65//21 64//20 63//20
f 67//22 66//21 65//21
f 69//23 68//22 67//22
f 71//24 70//23 69//23
f 73//25 72//24 71//24
f 75//26 74//25 73//25
f 77//27 76//26 75//26
f 79//28 78//27 77//27
f 33//7 80//28 79//28
f 26//3 27//3 28//4
f 29//5 30//5 27//3
f 31//6 32//6 30//5
f 25//4 28//4 32//6
f 34//6 35//6 36//7
f 37//4 38//4 35//6
f 39//8 40//8 38//4
f 41//9 42//9 40//8
f 43//10 44//10 42//9
f 45//11 46//11 44//10
f 47//12 48//12 46//11
f 49//13 50//13 48//12
f 51//14 52//14 50//13
f 53//15 54//15 52//14
f 55//16 56//16 54//15
f 57//17 58//17 56//16
f 59//18 60//18 58//17
f 61//19 62//19 60//18
f 63//20 64//20 62//19
f 65//21 66//21 64//20
f 67//22 68//22 66//21
f 69//23 70//23 68//22
f 71//24 72//24 70//23
f 73//25 74//25 72//24
f 75//26 76//26 74//25
f 77//27 78//27 76//26
f 79//28 80//28 78//27
f 33//7 36//7 80//28
