# Blender v2.79 (sub 0) OBJ File: 'Font All Characters Individual Meshes COMPLETE WITH CENTERS AND NAMES.blend'
# www.blender.org
mtllib X.mtl
o X_Text.213
v -0.064177 0.013704 0.394875
v -0.175783 0.342974 0.394875
v -0.309587 0.342974 0.394875
v 0.007349 0.096947 0.394875
v 0.324286 0.342974 0.394875
v 0.190485 0.342974 0.394875
v 0.074560 0.006922 0.394875
v -0.332403 -0.347630 0.394875
v 0.002420 -0.076321 0.394875
v 0.337236 -0.347630 0.394875
v -0.198599 -0.347630 0.394875
v 0.203432 -0.347630 0.394875
v 0.190485 0.342974 0.394875
v 0.324286 0.342974 0.394875
v 0.324286 0.342974 -0.363125
v 0.190485 0.342974 -0.363125
v 0.074560 0.006922 0.394875
v 0.074560 0.006922 -0.363125
v 0.337236 -0.347630 0.394875
v 0.337236 -0.347629 -0.363125
v 0.203432 -0.347630 0.394875
v 0.203432 -0.347629 -0.363125
v 0.002420 -0.076321 0.394875
v 0.002420 -0.076321 -0.363125
v -0.198599 -0.347630 0.394875
v -0.198599 -0.347629 -0.363125
v -0.332403 -0.347630 0.394875
v -0.332403 -0.347629 -0.363125
v -0.064177 0.013704 0.394875
v -0.064177 0.013704 -0.363125
v -0.309587 0.342974 0.394875
v -0.309587 0.342974 -0.363125
v -0.175783 0.342974 0.394875
v -0.175783 0.342974 -0.363125
v 0.007349 0.096947 0.394875
v 0.007349 0.096947 -0.363125
v -0.175783 0.342974 -0.363125
v -0.064177 0.013704 -0.363125
v -0.309587 0.342974 -0.363125
v 0.007349 0.096947 -0.363125
v 0.324286 0.342974 -0.363125
v 0.190485 0.342974 -0.363125
v 0.074560 0.006922 -0.363125
v -0.332403 -0.347629 -0.363125
v 0.002420 -0.076321 -0.363125
v 0.337236 -0.347629 -0.363125
v -0.198599 -0.347629 -0.363125
v 0.203432 -0.347629 -0.363125
vn 0.0000 -0.0000 1.0000
vn 0.0000 0.0000 -1.0000
vn 0.8934 0.4492 0.0000
vn -0.4488 0.8936 0.0000
vn 1.0000 -0.0007 0.0000
vn 0.8931 -0.4498 -0.0000
vn -0.4498 -0.8931 -0.0000
vn -0.0000 -1.0000 -0.0000
vn 0.4498 -0.8931 -0.0000
vn -0.8933 -0.4494 -0.0000
vn -1.0000 -0.0010 0.0000
vn -0.8938 0.4486 0.0000
vn 0.4488 0.8936 0.0000
vn 0.0000 1.0000 0.0000
usemtl None
s off
f 1//1 2//1 3//1
f 1//1 4//1 2//1
f 4//1 5//1 6//1
f 4//1 7//1 5//1
f 1//1 7//1 4//1
f 8//1 7//1 1//1
f 8//1 9//1 7//1
f 9//1 10//1 7//1
f 8//1 11//1 9//1
f 12//1 10//1 9//1
f 37//2 38//2 39//2
f 40//2 38//2 37//2
f 41//2 40//2 42//2
f 43//2 40//2 41//2
f 43//2 38//2 40//2
f 43//2 44//2 38//2
f 45//2 44//2 43//2
f 46//2 45//2 43//2
f 47//2 44//2 45//2
f 46//2 48//2 45//2
s 1
f 14//3 16//4 13//4
f 17//5 15//3 14//3
f 19//6 18//5 17//5
f 21//7 20//6 19//6
f 23//8 22//7 21//7
f 23//8 26//9 24//8
f 27//10 26//9 25//9
f 29//11 28//10 27//10
f 31//12 30//11 29//11
f 33//13 32//12 31//12
f 35//14 34//13 33//13
f 13//4 36//14 35//14
f 14//3 15//3 16//4
f 17//5 18//5 15//3
f 19//6 20//6 18//5
f 21//7 22//7 20//6
f 23//8 24//8 22//7
f 23//8 25//9 26//9
f 27//10 28//10 26//9
f 29//11 30//11 28//10
f 31//12 32//12 30//11
f 33//13 34//13 32//12
f 35//14 36//14 34//13
f 13//4 16//4 36//14
