# Blender v2.79 (sub 0) OBJ File: 'Font All Characters Individual Meshes COMPLETE WITH CENTERS AND NAMES.blend'
# www.blender.org
mtllib Y Accent.mtl
o Y_Accent_Text.024
v -0.069420 0.090781 0.394875
v -0.261177 0.572970 0.394875
v -0.394989 0.572970 0.394875
v -0.005905 0.194371 0.394875
v 0.381332 0.572970 0.394875
v 0.247520 0.572970 0.394875
v 0.055756 0.090781 0.394875
v -0.069420 -0.347630 0.394875
v 0.055756 -0.347630 0.394875
v -0.092850 0.660529 0.394875
v 0.028008 0.823314 0.394875
v 0.028008 0.823314 -0.363125
v -0.092850 0.660529 -0.363125
v 0.142090 0.823314 0.394875
v 0.142090 0.823314 -0.363125
v 0.001495 0.660529 0.394875
v 0.001495 0.660529 -0.363125
v -0.069420 0.090781 0.394875
v -0.394989 0.572970 0.394875
v -0.394989 0.572970 -0.363125
v -0.069420 0.090781 -0.363125
v -0.261177 0.572970 0.394875
v -0.261177 0.572970 -0.363125
v -0.005905 0.194371 0.394875
v -0.005905 0.194371 -0.363125
v 0.247520 0.572970 0.394875
v 0.247520 0.572970 -0.363125
v 0.381332 0.572970 0.394875
v 0.381332 0.572970 -0.363125
v 0.055756 0.090781 0.394875
v 0.055756 0.090781 -0.363125
v 0.055756 -0.347630 0.394875
v 0.055756 -0.347629 -0.363125
v -0.069420 -0.347630 0.394875
v -0.069420 -0.347629 -0.363125
v 0.142090 0.823314 -0.363125
v -0.092850 0.660529 -0.363125
v 0.028008 0.823314 -0.363125
v 0.001495 0.660529 -0.363125
v -0.261177 0.572970 -0.363125
v -0.069420 0.090781 -0.363125
v -0.394989 0.572970 -0.363125
v -0.005905 0.194371 -0.363125
v 0.381332 0.572970 -0.363125
v 0.247520 0.572970 -0.363125
v 0.055756 0.090781 -0.363125
v -0.069420 -0.347629 -0.363125
v 0.055756 -0.347629 -0.363125
v -0.092850 0.660529 0.394875
v 0.142090 0.823314 0.394875
v 0.028008 0.823314 0.394875
v 0.001495 0.660529 0.394875
vn 0.0000 -0.0000 1.0000
vn 0.0000 0.0000 -1.0000
vn -0.4494 0.8933 0.0000
vn -0.8933 -0.4494 -0.0000
vn 0.9093 0.4161 0.0000
vn 0.4161 -0.9093 -0.0000
vn -0.8831 0.4693 0.0000
vn -0.9562 -0.2926 -0.0000
vn 0.4695 0.8829 0.0000
vn -0.0017 1.0000 0.0000
vn -0.4710 0.8821 0.0000
vn 0.8831 0.4693 0.0000
vn 0.9562 -0.2926 -0.0000
vn 0.7071 -0.7071 -0.0000
vn -0.7071 -0.7071 -0.0000
usemtl None
s off
f 1//1 2//1 3//1
f 1//1 4//1 2//1
f 4//1 5//1 6//1
f 4//1 7//1 5//1
f 1//1 7//1 4//1
f 8//1 7//1 1//1
f 8//1 9//1 7//1
f 36//2 37//2 38//2
f 39//2 37//2 36//2
f 40//2 41//2 42//2
f 43//2 41//2 40//2
f 44//2 43//2 45//2
f 46//2 43//2 44//2
f 46//2 41//2 43//2
f 46//2 47//2 41//2
f 48//2 47//2 46//2
f 49//1 50//1 51//1
f 49//1 52//1 50//1
s 1
f 11//3 13//4 10//4
f 14//5 12//3 11//3
f 16//6 15//5 14//5
f 10//4 17//6 16//6
f 19//7 21//8 18//8
f 22//9 20//7 19//7
f 24//10 23//9 22//9
f 26//11 25//10 24//10
f 28//12 27//11 26//11
f 30//13 29//12 28//12
f 30//13 33//14 31//13
f 34//15 33//14 32//14
f 18//8 35//15 34//15
f 11//3 12//3 13//4
f 14//5 15//5 12//3
f 16//6 17//6 15//5
f 10//4 13//4 17//6
f 19//7 20//7 21//8
f 22//9 23//9 20//7
f 24//10 25//10 23//9
f 26//11 27//11 25//10
f 28//12 29//12 27//11
f 30//13 31//13 29//12
f 30//13 32//14 33//14
f 34//15 35//15 33//14
f 18//8 21//8 35//15
