# Blender v2.79 (sub 0) OBJ File: 'Font All Characters Individual Meshes COMPLETE WITH CENTERS AND NAMES.blend'
# www.blender.org
mtllib Y.mtl
o Y_Text.212
v -0.011091 -0.336531 0.394875
v -0.170179 0.342974 0.394875
v -0.290415 0.342974 0.394875
v 0.045637 -0.197177 0.394875
v 0.381689 0.342974 0.394875
v 0.261450 0.342974 0.394875
v 0.078318 -0.411757 0.394875
v -0.031439 -0.388326 0.394875
v -0.088781 -0.493150 0.394875
v -0.015409 -0.572692 0.394875
v -0.161543 -0.515348 0.394875
v -0.228136 -0.610306 0.394875
v -0.228136 -0.515348 0.394875
v -0.137495 -0.610306 0.394875
v 0.381689 0.342974 0.394875
v 0.078318 -0.411757 0.394875
v 0.078318 -0.411757 -0.363125
v 0.381689 0.342974 -0.363125
v -0.015409 -0.572692 0.394875
v -0.015409 -0.572692 -0.363125
v -0.137495 -0.610306 0.394875
v -0.137495 -0.610306 -0.363125
v -0.228136 -0.610306 0.394875
v -0.228136 -0.610306 -0.363125
v -0.228136 -0.515348 0.394875
v -0.228136 -0.515348 -0.363125
v -0.161543 -0.515348 0.394875
v -0.161543 -0.515348 -0.363125
v -0.088781 -0.493150 0.394875
v -0.088781 -0.493150 -0.363125
v -0.031439 -0.388326 0.394875
v -0.031439 -0.388326 -0.363125
v -0.011091 -0.336531 0.394875
v -0.011091 -0.336530 -0.363125
v -0.290415 0.342974 0.394875
v -0.290415 0.342974 -0.363125
v -0.170179 0.342974 0.394875
v -0.170179 0.342974 -0.363125
v 0.045637 -0.197177 0.394875
v 0.045637 -0.197176 -0.363125
v 0.261450 0.342974 0.394875
v 0.261450 0.342974 -0.363125
v -0.170179 0.342974 -0.363125
v -0.011091 -0.336530 -0.363125
v -0.290415 0.342974 -0.363125
v 0.045637 -0.197176 -0.363125
v 0.381689 0.342974 -0.363125
v 0.261450 0.342974 -0.363125
v 0.078318 -0.411757 -0.363125
v -0.031439 -0.388326 -0.363125
v -0.088781 -0.493150 -0.363125
v -0.015409 -0.572692 -0.363125
v -0.161543 -0.515348 -0.363125
v -0.228136 -0.610306 -0.363125
v -0.228136 -0.515348 -0.363125
v -0.137495 -0.610306 -0.363125
vn 0.0000 -0.0000 1.0000
vn 0.0000 0.0000 -1.0000
vn 0.8984 -0.4393 -0.0000
vn 0.8285 0.5599 0.0000
vn 0.6219 -0.7831 -0.0000
vn 0.1489 -0.9889 -0.0000
vn -0.7071 -0.7071 -0.0000
vn -0.7071 0.7071 0.0000
vn -0.1475 0.9891 0.0000
vn -0.6313 0.7756 0.0000
vn -0.9058 0.4236 0.0000
vn -1.0000 -0.0078 -0.0000
vn -0.8307 0.5567 -0.0000
vn 0.5608 0.8280 0.0000
vn -0.0000 1.0000 0.0000
vn -0.5608 0.8280 0.0000
usemtl None
s off
f 1//1 2//1 3//1
f 1//1 4//1 2//1
f 4//1 5//1 6//1
f 4//1 7//1 5//1
f 1//1 7//1 4//1
f 8//1 7//1 1//1
f 9//1 7//1 8//1
f 9//1 10//1 7//1
f 11//1 10//1 9//1
f 12//1 11//1 13//1
f 12//1 10//1 11//1
f 12//1 14//1 10//1
f 43//2 44//2 45//2
f 46//2 44//2 43//2
f 47//2 46//2 48//2
f 49//2 46//2 47//2
f 49//2 44//2 46//2
f 49//2 50//2 44//2
f 49//2 51//2 50//2
f 52//2 51//2 49//2
f 52//2 53//2 51//2
f 53//2 54//2 55//2
f 52//2 54//2 53//2
f 56//2 54//2 52//2
s 1
f 16//3 18//4 15//4
f 19//5 17//3 16//3
f 21//6 20//5 19//5
f 23//7 22//6 21//6
f 25//8 24//7 23//7
f 27//9 26//8 25//8
f 29//10 28//9 27//9
f 31//11 30//10 29//10
f 33//12 32//11 31//11
f 35//13 34//12 33//12
f 37//14 36//13 35//13
f 37//14 40//15 38//14
f 41//16 40//15 39//15
f 15//4 42//16 41//16
f 16//3 17//3 18//4
f 19//5 20//5 17//3
f 21//6 22//6 20//5
f 23//7 24//7 22//6
f 25//8 26//8 24//7
f 27//9 28//9 26//8
f 29//10 30//10 28//9
f 31//11 32//11 30//10
f 33//12 34//12 32//11
f 35//13 36//13 34//12
f 37//14 38//14 36//13
f 37//14 39//15 40//15
f 41//16 42//16 40//15
f 15//4 18//4 42//16
