# Blender v2.79 (sub 0) OBJ File: 'Font All Characters Individual Meshes COMPLETE WITH CENTERS AND NAMES.blend'
# www.blender.org
mtllib Z.mtl
o Z_Text.211
v -0.249599 0.252333 0.394875
v 0.289318 0.342974 0.394875
v -0.249599 0.342974 0.394875
v 0.161678 0.252333 0.394875
v 0.289318 0.239384 0.394875
v -0.265018 -0.244039 0.394875
v -0.137379 -0.256988 0.394875
v -0.265018 -0.347630 0.394875
v 0.289318 -0.256988 0.394875
v 0.289318 -0.347630 0.394875
v -0.249599 0.252333 0.394875
v -0.249599 0.342974 0.394875
v -0.249599 0.342974 -0.363125
v -0.249599 0.252333 -0.363125
v 0.289318 0.342974 0.394875
v 0.289318 0.342974 -0.363125
v 0.289318 0.239384 0.394875
v 0.289318 0.239384 -0.363125
v -0.137379 -0.256988 0.394875
v -0.137379 -0.256988 -0.363125
v 0.289318 -0.256988 0.394875
v 0.289318 -0.256988 -0.363125
v 0.289318 -0.347630 0.394875
v 0.289318 -0.347629 -0.363125
v -0.265018 -0.347630 0.394875
v -0.265018 -0.347629 -0.363125
v -0.265018 -0.244039 0.394875
v -0.265018 -0.244039 -0.363125
v 0.161678 0.252333 0.394875
v 0.161678 0.252333 -0.363125
v 0.289318 0.342974 -0.363125
v -0.249599 0.252333 -0.363125
v -0.249599 0.342974 -0.363125
v 0.161678 0.252333 -0.363125
v 0.289318 0.239384 -0.363125
v -0.265018 -0.244039 -0.363125
v -0.137379 -0.256988 -0.363125
v -0.265018 -0.347629 -0.363125
v 0.289318 -0.256988 -0.363125
v 0.289318 -0.347629 -0.363125
vn 0.0000 -0.0000 1.0000
vn 0.0000 0.0000 -1.0000
vn -0.7071 0.7071 0.0000
vn -0.7071 -0.7071 -0.0000
vn 0.7071 0.7071 0.0000
vn 0.9376 -0.3476 -0.0000
vn 0.9088 0.4172 0.0000
vn 0.7071 -0.7071 -0.0000
vn -0.9376 0.3476 0.0000
vn -0.9088 -0.4172 -0.0000
usemtl None
s off
f 1//1 2//1 3//1
f 1//1 4//1 2//1
f 4//1 5//1 2//1
f 6//1 5//1 4//1
f 6//1 7//1 5//1
f 8//1 7//1 6//1
f 8//1 9//1 7//1
f 8//1 10//1 9//1
f 31//2 32//2 33//2
f 34//2 32//2 31//2
f 35//2 34//2 31//2
f 35//2 36//2 34//2
f 37//2 36//2 35//2
f 37//2 38//2 36//2
f 39//2 38//2 37//2
f 40//2 38//2 39//2
s 1
f 12//3 14//4 11//4
f 15//5 13//3 12//3
f 17//6 16//5 15//5
f 19//7 18//6 17//6
f 21//5 20//7 19//7
f 23//8 22//5 21//5
f 25//4 24//8 23//8
f 27//9 26//4 25//4
f 29//10 28//9 27//9
f 11//4 30//10 29//10
f 12//3 13//3 14//4
f 15//5 16//5 13//3
f 17//6 18//6 16//5
f 19//7 20//7 18//6
f 21//5 22//5 20//7
f 23//8 24//8 22//5
f 25//4 26//4 24//8
f 27//9 28//9 26//4
f 29//10 30//10 28//9
f 11//4 14//4 30//10
